<svg width="328" height="1310" viewBox="0 0 328 1310" fill="none" xmlns="http://www.w3.org/2000/svg">
<path opacity="0.7" d="M302.481 49.4859H300.409C297.103 49.2601 293.875 48.3854 290.911 46.912C287.947 45.4387 285.306 43.396 283.14 40.9021C281.01 38.4176 279.398 35.537 278.398 32.4277C277.397 29.3184 277.028 26.0424 277.312 22.7901C277.715 17.9814 279.516 13.3931 282.498 9.5855C285.479 5.77785 289.511 2.91556 294.102 1.34794C298.692 -0.219686 303.643 -0.424742 308.348 0.757744C313.054 1.94023 317.312 4.45911 320.601 8.00694C323.891 11.5548 326.071 15.978 326.874 20.7367C327.678 25.4955 327.07 30.3839 325.126 34.8051C323.182 39.2263 319.984 42.9891 315.925 45.6342C311.866 48.2793 307.119 49.6923 302.266 49.7006L302.481 49.4859ZM302.481 2.96134C297.571 2.98557 292.816 4.6733 289.001 7.74589C285.186 10.8185 282.538 15.0923 281.495 19.8623C280.452 24.6322 281.076 29.6131 283.264 33.9831C285.452 38.353 289.073 41.8509 293.53 43.8994C297.987 45.9479 303.013 46.4245 307.779 45.2508C312.545 44.0771 316.766 41.3232 319.746 37.4434C322.725 33.5636 324.285 28.7899 324.168 23.9099C324.052 19.03 322.265 14.3354 319.103 10.601C317.26 8.43031 315.002 6.64486 312.46 5.34818C309.918 4.0515 307.143 3.26935 304.295 3.04713L302.481 2.96134Z" fill="#272E59"/>
<path d="M289.201 408.921C289.006 411.272 288.115 413.513 286.639 415.36C285.163 417.208 283.169 418.578 280.91 419.3C278.65 420.021 276.226 420.06 273.944 419.412C271.663 418.764 269.625 417.458 268.09 415.659C266.555 413.86 265.591 411.649 265.319 409.306C265.048 406.963 265.482 404.592 266.566 402.493C267.65 400.395 269.336 398.663 271.41 397.517C273.484 396.371 275.854 395.862 278.219 396.054C281.391 396.315 284.329 397.817 286.388 400.229C288.447 402.642 289.459 405.768 289.201 408.921Z" fill="#272E59"/>
<path d="M36.7947 74.9333C36.5999 77.2843 35.7083 79.525 34.2325 81.3723C32.7567 83.2196 30.763 84.5904 28.5034 85.3116C26.2439 86.0327 23.8199 86.0718 21.538 85.4237C19.2562 84.7757 17.2188 83.4698 15.6836 81.671C14.1483 79.8722 13.1841 77.6614 12.9129 75.3179C12.6416 72.9745 13.0755 70.6038 14.1596 68.5054C15.2438 66.4071 16.9295 64.6753 19.0037 63.5292C21.0779 62.383 23.4474 61.8738 25.8127 62.066C28.9847 62.3271 31.9229 63.8288 33.9819 66.2413C36.041 68.6538 37.0526 71.78 36.7947 74.9333Z" fill="#1F2438"/>
<path d="M228.166 199.455C228.036 201.022 227.442 202.516 226.458 203.748C225.474 204.979 224.145 205.893 222.639 206.374C221.132 206.855 219.516 206.881 217.995 206.449C216.474 206.017 215.116 205.146 214.092 203.947C213.069 202.748 212.426 201.274 212.245 199.711C212.064 198.149 212.353 196.569 213.076 195.17C213.799 193.771 214.923 192.616 216.305 191.852C217.688 191.088 219.268 190.749 220.845 190.877C222.959 191.051 224.918 192.052 226.291 193.66C227.664 195.269 228.338 197.353 228.166 199.455Z" fill="#1F2438"/>
<path opacity="0.7" d="M52.9592 642.392H51.633C49.5171 642.247 47.4509 641.688 45.554 640.745C43.657 639.802 41.9668 638.494 40.5809 636.898C39.2177 635.308 38.1859 633.465 37.5456 631.475C36.9052 629.485 36.6691 627.388 36.8509 625.307C37.1084 622.229 38.2616 619.293 40.1698 616.856C42.0779 614.419 44.6585 612.587 47.5963 611.584C50.5342 610.58 53.7023 610.449 56.714 611.206C59.7257 611.963 62.4506 613.575 64.556 615.845C66.6615 618.116 68.0565 620.947 68.5707 623.992C69.0849 627.038 68.6961 630.167 67.4517 632.996C66.2073 635.826 64.1612 638.234 61.5631 639.927C58.9651 641.62 55.9274 642.524 52.8211 642.529L52.9592 642.392ZM52.9592 612.616C49.8168 612.632 46.7736 613.712 44.3318 615.678C41.89 617.645 40.1956 620.38 39.5281 623.433C38.8605 626.486 39.2598 629.673 40.6601 632.47C42.0604 635.267 44.3779 637.506 47.2302 638.817C50.0826 640.128 53.2993 640.433 56.3495 639.681C59.3998 638.93 62.1013 637.168 64.0083 634.685C65.9153 632.202 66.9137 629.146 66.8389 626.023C66.7641 622.9 65.6205 619.896 63.5968 617.506C62.4175 616.116 60.9726 614.974 59.3458 614.144C57.7189 613.314 55.9426 612.813 54.1197 612.671L52.9592 612.616Z" fill="#272E59"/>
<path d="M310.591 913.084C310.397 915.435 309.505 917.676 308.029 919.523C306.554 921.37 304.56 922.741 302.3 923.462C300.041 924.184 297.617 924.223 295.335 923.575C293.053 922.927 291.016 921.621 289.48 919.822C287.945 918.023 286.981 915.812 286.71 913.469C286.438 911.125 286.872 908.755 287.956 906.656C289.041 904.558 290.726 902.826 292.8 901.68C294.875 900.534 297.244 900.025 299.609 900.217C302.782 900.478 305.72 901.98 307.779 904.392C309.838 906.805 310.849 909.931 310.591 913.084Z" fill="#272E59"/>
<path opacity="0.7" d="M19.1992 1095.24H17.6243C15.1117 1095.07 12.6582 1094.4 10.4055 1093.28C8.15284 1092.16 6.14568 1090.61 4.50002 1088.71C2.88114 1086.83 1.65594 1084.64 0.895529 1082.27C0.135122 1079.91 -0.145291 1077.42 0.0706056 1074.95C0.37642 1071.29 1.74586 1067.81 4.01178 1064.91C6.27771 1062.02 9.34208 1059.84 12.8308 1058.65C16.3195 1057.46 20.0817 1057.31 23.658 1058.2C27.2344 1059.1 30.4702 1061.02 32.9705 1063.71C35.4707 1066.41 37.1273 1069.77 37.7379 1073.39C38.3485 1077.01 37.8868 1080.72 36.4091 1084.08C34.9314 1087.44 32.5016 1090.3 29.4164 1092.31C26.3312 1094.32 22.724 1095.39 19.0352 1095.4L19.1992 1095.24ZM19.1992 1059.88C15.4676 1059.9 11.8538 1061.18 8.95421 1063.52C6.05459 1065.85 4.04242 1069.1 3.24974 1072.72C2.45706 1076.35 2.93123 1080.13 4.59404 1083.46C6.25685 1086.78 9.00888 1089.44 12.396 1090.99C15.7832 1092.55 19.6031 1092.91 23.2252 1092.02C26.8474 1091.13 30.0555 1089.03 32.32 1086.09C34.5845 1083.14 35.7702 1079.51 35.6814 1075.8C35.5925 1072.09 34.2345 1068.52 31.8313 1065.69C30.431 1064.04 28.7151 1062.68 26.7833 1061.69C24.8514 1060.71 22.742 1060.11 20.5773 1059.94L19.1992 1059.88Z" fill="#2F3875"/>
<path d="M163.711 1297.45C163.5 1300 162.534 1302.42 160.935 1304.43C159.337 1306.43 157.177 1307.91 154.729 1308.69C152.281 1309.48 149.655 1309.52 147.183 1308.82C144.711 1308.11 142.504 1306.7 140.841 1304.75C139.178 1302.8 138.133 1300.41 137.839 1297.87C137.545 1295.33 138.015 1292.76 139.19 1290.49C140.364 1288.21 142.191 1286.34 144.438 1285.1C146.685 1283.85 149.252 1283.3 151.814 1283.51C155.25 1283.79 158.433 1285.42 160.664 1288.03C162.895 1290.65 163.991 1294.03 163.711 1297.45Z" fill="#272E59"/>
<path opacity="0.7" d="M277.13 1262.66H275.804C273.688 1262.51 271.622 1261.95 269.725 1261.01C267.828 1260.07 266.138 1258.76 264.752 1257.16C263.389 1255.57 262.357 1253.73 261.717 1251.74C261.076 1249.75 260.84 1247.65 261.022 1245.57C261.28 1242.49 262.433 1239.56 264.341 1237.12C266.249 1234.68 268.83 1232.85 271.767 1231.85C274.705 1230.84 277.873 1230.71 280.885 1231.47C283.897 1232.23 286.622 1233.84 288.727 1236.11C290.833 1238.38 292.228 1241.21 292.742 1244.26C293.256 1247.3 292.867 1250.43 291.623 1253.26C290.378 1256.09 288.332 1258.5 285.734 1260.19C283.136 1261.88 280.099 1262.79 276.992 1262.79L277.13 1262.66ZM277.13 1232.88C273.988 1232.9 270.945 1233.98 268.503 1235.94C266.061 1237.91 264.367 1240.64 263.699 1243.7C263.032 1246.75 263.431 1249.94 264.831 1252.73C266.232 1255.53 268.549 1257.77 271.401 1259.08C274.254 1260.39 277.47 1260.7 280.521 1259.95C283.571 1259.19 286.272 1257.43 288.179 1254.95C290.086 1252.47 291.085 1249.41 291.01 1246.29C290.935 1243.16 289.792 1240.16 287.768 1237.77C286.589 1236.38 285.144 1235.24 283.517 1234.41C281.89 1233.58 280.114 1233.08 278.291 1232.93L277.13 1232.88Z" fill="#2F3875"/>
<g clip-path="url(#clip0_15436_853)">
<path d="M160 262C219.966 262 268.578 259.171 268.578 255.681C268.578 252.191 219.966 249.362 160 249.362C100.034 249.362 51.4216 252.191 51.4216 255.681C51.4216 259.171 100.034 262 160 262Z" fill="#1B1B21"/>
<path opacity="0.1" d="M96.888 211.564C96.9552 211.062 97.2134 210.603 97.6093 210.285C98.0052 209.966 98.5087 209.81 99.016 209.851C103.81 209.778 108.295 213.155 112.456 216.778C113.38 217.576 114.382 218.403 115.418 217.565C115.739 217.301 115.973 216.947 116.09 216.549C116.27 215.899 116.27 215.212 116.09 214.562C115.936 214.025 115.68 213.523 115.334 213.083C113.526 210.71 111.325 209.572 109.538 207.121C108.538 205.717 107.709 204.199 107.069 202.599C106.509 201.193 105.389 198.921 105.837 197.017C106.335 194.74 108.043 194.935 109.079 195.247C112.355 196.224 115.413 198.552 118.19 201.449C121.153 204.531 123.835 208.243 126.506 211.933C127.514 213.334 128.578 214.774 129.866 215.282C131.154 215.79 132.784 214.97 133.327 212.949C133.87 210.928 133.232 208.606 133.098 206.596C132.918 204.198 133.034 201.787 133.445 199.417C133.627 198.165 134.051 196.959 134.694 195.867C136.138 193.757 138.278 194.499 139.678 196.096C140.746 197.431 141.572 198.943 142.119 200.562C143.69 205.035 144.632 209.703 144.919 214.434C145.132 217.364 145.58 220.418 146.79 222.69C148.744 226.363 152.39 226.073 155.218 224.147C160.14 220.797 163.937 213.228 164.95 204.765C165.281 202.008 165.365 199.027 166.373 196.716C167.252 194.717 169.509 193.366 170.612 195.521C171.056 196.598 171.181 197.78 170.97 198.926C170.773 200.061 170.494 201.18 170.136 202.276C169.576 204.173 169.016 207.729 170.528 208.84C170.753 208.977 171.006 209.063 171.268 209.091C171.53 209.12 171.796 209.092 172.046 209.008C176.996 207.981 181.599 203.336 184.623 196.855C185.719 194.416 186.556 191.87 187.121 189.258C187.485 187.661 187.636 185.947 188.039 184.362C188.298 183.114 188.821 181.936 189.574 180.907C191.5 178.607 195.946 179.69 196.198 184.619C196.35 187.471 195.588 190.263 195.308 193.054C195.134 194.795 196.215 194.784 197.022 194.728C200.886 194.338 204.302 190.452 207.331 186.411C210.932 181.604 214.919 175.364 219.836 175.179C220.956 175.14 222.821 175.285 223.493 177.01C223.804 178.067 223.804 179.191 223.493 180.248C222.496 184.368 219.573 186.495 217.333 188.532C211.017 194.437 205.463 201.101 200.796 208.371C200.085 209.488 199.351 211.33 200.029 212.424C200.159 212.632 200.348 212.797 200.573 212.896C200.797 212.996 201.047 213.026 201.289 212.982C203.602 212.804 205.769 210.973 207.88 209.454C209.991 207.936 212.388 206.607 214.6 207.752C215.282 208.16 215.876 208.698 216.348 209.336C216.82 209.974 217.16 210.699 217.35 211.469C217.745 212.819 217.808 214.244 217.534 215.623C216.722 219.413 213.211 221.116 211.279 222.986C208.619 225.544 206.183 228.325 203.999 231.298C201.983 234.05 200.079 237.064 198.063 239.766C190.783 249.44 180.703 250.875 171.743 251.997C161.994 253.214 152.222 252.555 142.528 251.276C135.478 250.339 128.528 248.34 121.646 245.968C119.282 245.114 116.936 244.181 114.618 243.076C112.126 241.893 108.458 241.161 107.5 236.5C107.298 235.495 107.534 234.68 108.2 234.306C110.266 233.134 113.212 234.703 115.155 235.736C117.838 237.165 120.38 239.202 123.135 240.302C123.578 240.519 124.061 240.644 124.553 240.67C125.046 240.696 125.539 240.622 126.002 240.453C126.457 240.262 126.831 239.921 127.061 239.487C127.354 238.921 127.426 238.266 127.262 237.65C127.149 237.318 126.957 237.017 126.702 236.774C121.743 231.707 115.818 227.68 109.275 224.928C107.175 224.03 105.03 223.293 103.009 222.02C101.375 221.013 99.9645 219.683 98.8648 218.112C97.924 216.611 96.412 213.959 96.888 211.564Z" fill="#5082F2"/>
<path opacity="0.1" d="M203.999 170.529C203.625 170.916 203.135 171.17 202.602 171.254C202.07 171.338 201.525 171.247 201.049 170.995C200.574 170.743 200.193 170.343 199.966 169.856C199.738 169.369 199.676 168.822 199.788 168.296C201.72 158.946 205.92 152.147 210.915 155.675C214.645 158.304 208.798 165.555 203.999 170.529Z" fill="#5082F2"/>
<path opacity="0.3" d="M190.447 174.895C191.975 174.054 193.27 172.849 194.217 171.388C195.164 169.927 195.733 168.255 195.874 166.521L199.659 120.552C199.856 118.188 199.554 115.811 198.774 113.571C197.994 111.331 196.752 109.278 195.129 107.545L183.464 95.0909C182.822 94.4022 182.331 93.5881 182.022 92.7002C181.712 91.8123 181.591 90.8699 181.667 89.9329L182.227 83.2007L152.037 80.7278L151.477 87.46C151.4 88.3966 151.127 89.3069 150.677 90.1326C150.227 90.9583 149.608 91.6812 148.862 92.2551L135.31 102.655C133.426 104.102 131.866 105.926 130.73 108.009C129.594 110.092 128.907 112.389 128.713 114.752L124.922 160.721C124.778 162.453 125.067 164.193 125.762 165.786C126.456 167.38 127.536 168.777 128.903 169.854C127.376 170.694 126.081 171.899 125.135 173.36C124.189 174.821 123.621 176.494 123.482 178.227L118.65 236.841C118.422 239.627 119.313 242.39 121.128 244.522C122.942 246.654 125.531 247.981 128.327 248.212L178.167 252.292C179.551 252.406 180.944 252.247 182.266 251.824C183.588 251.402 184.814 250.723 185.874 249.828C186.933 248.933 187.805 247.838 188.44 246.607C189.075 245.376 189.46 244.032 189.574 242.652L194.407 184.038C194.554 182.307 194.27 180.566 193.579 178.971C192.889 177.375 191.813 175.975 190.447 174.895Z" fill="#5082F2"/>
<path opacity="0.3" d="M152.045 80.738L151.617 85.9287L181.8 88.4023L182.228 83.2116L152.045 80.738Z" fill="#5082F2"/>
<path opacity="0.3" d="M194.849 108.745L183.184 96.2799C183.184 96.2799 175.663 96.6037 181.504 105.798C186.482 113.574 195.157 112.362 194.849 108.745Z" fill="#1C1D26"/>
<path opacity="0.2" d="M118.655 236.818C118.428 239.605 119.319 242.368 121.133 244.5C122.948 246.632 125.537 247.959 128.332 248.19L178.172 252.27C179.556 252.384 180.949 252.225 182.272 251.802C183.594 251.379 184.82 250.701 185.879 249.806C186.939 248.91 187.811 247.816 188.445 246.584C189.08 245.353 189.466 244.009 189.579 242.63L118.655 236.818Z" fill="#5082F2"/>
<path opacity="0.3" d="M192.67 109.822C193.973 111.215 194.97 112.863 195.596 114.662C196.223 116.46 196.466 118.369 196.31 120.267L192.525 166.242C192.426 167.424 192.036 168.563 191.39 169.559C190.743 170.554 189.859 171.374 188.818 171.947L184.41 174.381L188.358 177.502C189.292 178.235 190.03 179.188 190.505 180.275C190.98 181.362 191.177 182.55 191.08 183.731L186.247 242.345C186.092 244.244 185.186 246.005 183.73 247.24C182.274 248.474 180.386 249.083 178.48 248.932L128.64 244.851C127.694 244.777 126.771 244.517 125.925 244.087C125.08 243.656 124.327 243.064 123.711 242.344C123.095 241.624 122.627 240.791 122.334 239.89C122.041 238.99 121.929 238.041 122.004 237.098L126.837 178.484C126.933 177.302 127.322 176.161 127.968 175.165C128.614 174.169 129.497 173.347 130.538 172.773L134.946 170.339L131.026 167.219C130.092 166.485 129.354 165.532 128.879 164.445C128.404 163.358 128.207 162.171 128.304 160.989L132.095 115.019C132.252 113.122 132.805 111.278 133.719 109.605C134.632 107.932 135.885 106.468 137.398 105.306C141.878 102.42 153.638 109.605 167.409 110.732C181.179 111.86 189.792 108.377 192.67 109.822Z" fill="#5082F2"/>
<path opacity="0.2" d="M167.381 110.738C153.616 109.621 141.845 102.42 137.365 105.306C145.205 109.605 154.165 112.267 167.162 113.334C180.16 114.4 192.67 109.822 192.67 109.822C189.792 108.377 181.146 111.871 167.381 110.738Z" fill="#5082F2"/>
<path opacity="0.2" d="M124.927 160.721C124.784 162.453 125.072 164.193 125.767 165.786C126.462 167.38 127.541 168.777 128.909 169.854L190.447 174.878C191.975 174.037 193.27 172.833 194.217 171.372C195.164 169.91 195.733 168.238 195.874 166.505L124.927 160.721Z" fill="#5082F2"/>
<path d="M182.859 74.9788L152.761 72.5044C151.5 72.4008 150.394 73.3356 150.291 74.5923L149.691 81.8917C149.587 83.1484 150.526 84.2512 151.786 84.3549L181.885 86.8292C183.146 86.9329 184.251 85.9981 184.355 84.7414L184.955 77.4419C185.058 76.1852 184.12 75.0824 182.859 74.9788Z" fill="#5082F2"/>
<path opacity="0.2" d="M153.314 83.2286C153.277 83.2258 153.241 83.2157 153.208 83.199C153.175 83.1823 153.146 83.1593 153.122 83.1313C153.098 83.1033 153.08 83.0708 153.069 83.0358C153.057 83.0008 153.053 82.9638 153.056 82.9272L153.762 74.0961C153.768 74.022 153.803 73.9534 153.859 73.9052C153.916 73.8571 153.99 73.8333 154.064 73.8393C154.138 73.8452 154.207 73.8803 154.255 73.9368C154.304 73.9933 154.328 74.0667 154.322 74.1407L153.594 82.9662C153.589 83.0373 153.558 83.1041 153.506 83.1529C153.454 83.2016 153.385 83.2287 153.314 83.2286Z" fill="#1C1D26"/>
<path opacity="0.2" d="M158.774 83.6752C158.737 83.6724 158.701 83.6624 158.668 83.6457C158.635 83.629 158.606 83.6059 158.582 83.5779C158.558 83.5499 158.54 83.5174 158.528 83.4824C158.517 83.4474 158.513 83.4105 158.516 83.3738L159.244 74.5483C159.251 74.4747 159.287 74.4068 159.343 74.3589C159.399 74.3109 159.472 74.2868 159.546 74.2915C159.583 74.2943 159.619 74.3043 159.651 74.3211C159.684 74.3379 159.713 74.361 159.736 74.3891C159.76 74.4172 159.777 74.4497 159.788 74.4847C159.799 74.5197 159.802 74.5565 159.798 74.5929L159.054 83.4184C159.047 83.4881 159.014 83.5527 158.963 83.6001C158.911 83.6474 158.844 83.6742 158.774 83.6752Z" fill="#1C1D26"/>
<path opacity="0.2" d="M164.228 84.1441C164.191 84.1412 164.155 84.1312 164.122 84.1145C164.089 84.0978 164.06 84.0748 164.036 84.0468C164.012 84.0187 163.994 83.9863 163.983 83.9512C163.972 83.9162 163.967 83.8793 163.97 83.8426L164.698 75.0171C164.707 74.9441 164.743 74.877 164.799 74.8293C164.855 74.7817 164.927 74.757 165.001 74.7603C165.038 74.7631 165.073 74.7732 165.106 74.7899C165.139 74.8066 165.169 74.8296 165.192 74.8576C165.216 74.8856 165.235 74.9181 165.246 74.9531C165.257 74.9882 165.261 75.0251 165.258 75.0617L164.53 83.8873C164.528 83.924 164.517 83.9597 164.501 83.9925C164.484 84.0253 164.461 84.0545 164.433 84.0784C164.405 84.1022 164.372 84.1203 164.337 84.1316C164.302 84.1429 164.265 84.1471 164.228 84.1441Z" fill="#1C1D26"/>
<path opacity="0.2" d="M169.688 84.5683C169.651 84.5655 169.615 84.5554 169.582 84.5387C169.55 84.522 169.52 84.499 169.496 84.471C169.472 84.443 169.454 84.4105 169.443 84.3755C169.432 84.3404 169.427 84.3035 169.43 84.2668L170.158 75.4413C170.166 75.3678 170.201 75.2999 170.257 75.2519C170.314 75.204 170.387 75.1798 170.461 75.1845C170.497 75.1873 170.533 75.1974 170.566 75.2142C170.598 75.2309 170.627 75.2541 170.651 75.2822C170.674 75.3103 170.692 75.3428 170.702 75.3778C170.713 75.4128 170.717 75.4496 170.713 75.486L169.985 84.3115C169.983 84.348 169.973 84.3836 169.957 84.4164C169.941 84.4491 169.918 84.4784 169.891 84.5023C169.863 84.5262 169.831 84.5444 169.796 84.5557C169.761 84.5671 169.725 84.5713 169.688 84.5683Z" fill="#1C1D26"/>
<path opacity="0.2" d="M175.12 85.0148C175.083 85.012 175.047 85.002 175.014 84.9853C174.982 84.9686 174.952 84.9456 174.928 84.9176C174.904 84.8895 174.886 84.8571 174.875 84.822C174.864 84.787 174.859 84.7501 174.862 84.7134L175.59 75.8879C175.6 75.8154 175.636 75.749 175.692 75.7016C175.748 75.6542 175.819 75.6291 175.893 75.6311C175.93 75.6339 175.966 75.644 175.998 75.6607C176.031 75.6774 176.061 75.7004 176.085 75.7284C176.108 75.7564 176.127 75.7889 176.138 75.8239C176.149 75.8589 176.153 75.8959 176.15 75.9325L175.422 84.7581C175.42 84.795 175.411 84.8312 175.394 84.8644C175.378 84.8975 175.355 84.927 175.326 84.951C175.298 84.975 175.265 84.9931 175.23 85.004C175.194 85.015 175.157 85.0187 175.12 85.0148Z" fill="#1C1D26"/>
<path opacity="0.2" d="M180.602 85.4614C180.566 85.4586 180.53 85.4486 180.497 85.4319C180.464 85.4152 180.435 85.3922 180.411 85.3641C180.387 85.3361 180.369 85.3037 180.357 85.2686C180.346 85.2336 180.342 85.1967 180.345 85.16L181.05 76.3289C181.057 76.2553 181.093 76.1874 181.149 76.1395C181.206 76.0916 181.279 76.0674 181.353 76.0721C181.426 76.0792 181.494 76.1148 181.541 76.1712C181.588 76.2277 181.611 76.3004 181.605 76.3735L180.882 85.2047C180.876 85.2743 180.843 85.3389 180.792 85.3863C180.74 85.4337 180.673 85.4604 180.602 85.4614Z" fill="#1C1D26"/>
<path opacity="0.2" d="M134.24 145.364C133.389 140.67 126.529 141.005 126.137 145.755L124.905 160.721C124.761 162.453 125.05 164.193 125.745 165.786C126.439 167.38 127.519 168.777 128.886 169.854C127.359 170.694 126.064 171.898 125.118 173.36C124.172 174.821 123.604 176.493 123.466 178.227L118.633 236.841C118.405 239.627 119.296 242.39 121.111 244.522C122.925 246.654 125.514 247.981 128.31 248.212L141.19 249.267C142.609 249.383 144.035 249.172 145.36 248.65C146.684 248.129 147.87 247.312 148.827 246.261C149.784 245.21 150.486 243.954 150.878 242.589C151.271 241.225 151.343 239.789 151.09 238.393L134.24 145.364Z" fill="#5082F2"/>
<path opacity="0.3" d="M183.8 222.115C183.711 223.191 183.304 224.216 182.631 225.062C181.957 225.907 181.047 226.535 180.016 226.865C178.985 227.195 177.879 227.213 176.837 226.916C175.796 226.62 174.866 226.022 174.165 225.199C173.465 224.375 173.025 223.363 172.901 222.291C172.777 221.218 172.975 220.133 173.47 219.173C173.965 218.212 174.734 217.42 175.68 216.895C176.627 216.371 177.709 216.138 178.788 216.226C180.236 216.345 181.577 217.032 182.516 218.137C183.456 219.241 183.918 220.672 183.8 222.115Z" fill="#5082F2"/>
<path opacity="0.3" d="M166.39 200.975C166.327 201.736 166.04 202.462 165.563 203.061C165.087 203.66 164.443 204.104 163.713 204.338C162.984 204.572 162.201 204.585 161.464 204.375C160.727 204.165 160.068 203.742 159.572 203.16C159.076 202.577 158.765 201.861 158.677 201.102C158.59 200.343 158.73 199.575 159.08 198.895C159.431 198.216 159.975 197.655 160.645 197.284C161.315 196.913 162.081 196.748 162.845 196.811C163.868 196.896 164.816 197.382 165.48 198.163C166.145 198.943 166.472 199.954 166.39 200.975Z" fill="#5082F2"/>
<path opacity="0.3" d="M150.189 153.922C149.424 153.958 148.665 153.766 148.009 153.372C147.353 152.978 146.828 152.399 146.502 151.708C146.176 151.017 146.063 150.245 146.176 149.49C146.29 148.735 146.626 148.03 147.141 147.465C147.656 146.9 148.328 146.5 149.071 146.315C149.815 146.13 150.596 146.169 151.317 146.427C152.038 146.685 152.667 147.15 153.123 147.764C153.579 148.378 153.842 149.112 153.879 149.875C153.904 150.382 153.828 150.89 153.656 151.368C153.484 151.846 153.219 152.286 152.876 152.662C152.533 153.038 152.12 153.342 151.658 153.559C151.197 153.775 150.698 153.898 150.189 153.922Z" fill="#5082F2"/>
<path opacity="0.3" d="M160.756 130.828C160.214 130.855 159.675 130.721 159.209 130.443C158.743 130.165 158.371 129.755 158.138 129.266C157.906 128.776 157.825 128.229 157.905 127.694C157.985 127.158 158.222 126.658 158.588 126.258C158.953 125.857 159.429 125.573 159.956 125.442C160.483 125.311 161.037 125.34 161.548 125.523C162.06 125.706 162.504 126.037 162.827 126.472C163.149 126.908 163.335 127.429 163.36 127.97C163.394 128.693 163.138 129.4 162.65 129.935C162.162 130.471 161.481 130.792 160.756 130.828Z" fill="#5082F2"/>
<path opacity="0.3" d="M177.758 184.278C177.731 184.593 177.612 184.892 177.415 185.139C177.217 185.386 176.951 185.569 176.65 185.665C176.348 185.761 176.025 185.766 175.721 185.679C175.416 185.593 175.145 185.418 174.94 185.177C174.735 184.936 174.607 184.641 174.571 184.327C174.534 184.014 174.592 183.697 174.737 183.416C174.881 183.135 175.106 182.904 175.382 182.75C175.659 182.596 175.975 182.528 176.29 182.553C176.714 182.589 177.106 182.79 177.381 183.114C177.656 183.437 177.792 183.856 177.758 184.278Z" fill="#5082F2"/>
<path opacity="0.7" d="M148.75 227.954H148.481C148.052 227.924 147.633 227.811 147.249 227.619C146.864 227.427 146.522 227.162 146.241 226.837C145.965 226.514 145.755 226.14 145.626 225.735C145.496 225.331 145.448 224.905 145.485 224.482C145.537 223.856 145.771 223.259 146.157 222.764C146.544 222.269 147.067 221.897 147.663 221.693C148.258 221.489 148.9 221.462 149.511 221.616C150.121 221.77 150.673 222.097 151.1 222.559C151.527 223.02 151.81 223.596 151.914 224.215C152.018 224.834 151.939 225.469 151.687 226.044C151.435 226.619 151.02 227.109 150.493 227.453C149.967 227.797 149.351 227.981 148.722 227.982L148.75 227.954ZM148.75 221.903C148.113 221.906 147.496 222.125 147.001 222.525C146.506 222.925 146.163 223.48 146.027 224.101C145.892 224.721 145.973 225.369 146.257 225.937C146.541 226.506 147.01 226.961 147.588 227.227C148.167 227.494 148.819 227.556 149.437 227.403C150.055 227.25 150.603 226.892 150.989 226.388C151.376 225.883 151.578 225.262 151.563 224.627C151.548 223.993 151.316 223.382 150.906 222.896C150.667 222.614 150.374 222.382 150.044 222.213C149.714 222.044 149.354 221.943 148.985 221.914L148.75 221.903Z" fill="#1C1D26"/>
<path opacity="0.7" d="M183.386 162.63H183.19C182.568 162.579 181.991 162.284 181.587 161.81C181.183 161.336 180.984 160.722 181.034 160.102C181.085 159.481 181.382 158.905 181.858 158.502C182.335 158.099 182.953 157.902 183.576 157.952C184.198 158.004 184.774 158.299 185.178 158.773C185.582 159.247 185.782 159.861 185.732 160.481C185.679 161.102 185.383 161.677 184.909 162.083C184.482 162.44 183.942 162.634 183.386 162.63ZM181.454 160.124C181.426 160.504 181.511 160.883 181.699 161.214C181.886 161.546 182.168 161.814 182.509 161.987C182.849 162.159 183.233 162.227 183.612 162.183C183.991 162.139 184.349 161.984 184.64 161.737C184.834 161.573 184.994 161.372 185.111 161.147C185.227 160.921 185.298 160.674 185.318 160.421C185.339 160.168 185.31 159.914 185.232 159.672C185.154 159.431 185.029 159.207 184.864 159.013C184.693 158.825 184.486 158.673 184.255 158.566C184.024 158.458 183.774 158.398 183.52 158.388C183.267 158.366 183.011 158.395 182.769 158.472C182.527 158.549 182.302 158.674 182.108 158.837C181.914 159.001 181.754 159.202 181.638 159.427C181.522 159.653 181.452 159.899 181.431 160.152L181.454 160.124Z" fill="#1C1D26"/>
<path opacity="0.7" d="M147.204 113.138H147.12C146.831 113.11 146.564 112.97 146.376 112.75C146.188 112.529 146.093 112.244 146.112 111.955C146.126 111.738 146.204 111.529 146.335 111.355C146.466 111.182 146.646 111.05 146.851 110.976C147.057 110.903 147.279 110.891 147.492 110.942C147.704 110.993 147.897 111.104 148.046 111.263C148.196 111.422 148.295 111.62 148.333 111.835C148.37 112.049 148.344 112.27 148.258 112.47C148.171 112.669 148.028 112.84 147.846 112.959C147.664 113.079 147.45 113.143 147.232 113.144L147.204 113.138ZM146.526 111.988C146.516 112.121 146.545 112.254 146.61 112.371C146.675 112.487 146.774 112.582 146.893 112.643C147.012 112.703 147.147 112.728 147.279 112.712C147.412 112.697 147.538 112.643 147.64 112.557C147.742 112.471 147.816 112.356 147.853 112.228C147.89 112.1 147.888 111.963 147.847 111.836C147.807 111.709 147.729 111.597 147.625 111.514C147.52 111.431 147.393 111.38 147.26 111.369C147.171 111.36 147.081 111.37 146.995 111.396C146.91 111.423 146.831 111.467 146.762 111.524C146.694 111.582 146.638 111.653 146.597 111.733C146.557 111.812 146.533 111.899 146.526 111.988Z" fill="#1C1D26"/>
<path opacity="0.7" d="M171.967 142.049H171.732C171.363 142.02 171.004 141.919 170.675 141.751C170.346 141.583 170.053 141.351 169.814 141.07C169.575 140.789 169.395 140.463 169.283 140.112C169.171 139.76 169.129 139.39 169.162 139.023C169.209 138.484 169.413 137.971 169.749 137.545C170.084 137.119 170.536 136.8 171.05 136.626C171.564 136.452 172.117 136.431 172.643 136.564C173.169 136.698 173.645 136.982 174.012 137.38C174.38 137.778 174.623 138.275 174.712 138.808C174.802 139.342 174.734 139.89 174.517 140.386C174.299 140.882 173.942 141.304 173.489 141.601C173.035 141.898 172.504 142.058 171.962 142.06L171.967 142.049ZM171.967 136.857C171.404 136.855 170.858 137.053 170.427 137.415C169.944 137.823 169.642 138.405 169.587 139.034C169.556 139.425 169.621 139.817 169.778 140.176C169.934 140.535 170.177 140.85 170.485 141.093C170.793 141.337 171.156 141.501 171.542 141.571C171.929 141.641 172.326 141.615 172.7 141.496C173.075 141.376 173.413 141.167 173.687 140.886C173.96 140.605 174.16 140.261 174.269 139.885C174.377 139.508 174.391 139.111 174.309 138.728C174.227 138.345 174.052 137.988 173.798 137.689C173.596 137.45 173.347 137.253 173.068 137.11C172.788 136.967 172.482 136.881 172.169 136.857H171.967Z" fill="#1C1D26"/>
<path opacity="0.3" d="M194.938 166.454L198.556 122.617C198.579 122.337 198.546 122.055 198.46 121.787C198.374 121.52 198.235 121.272 198.053 121.058C197.87 120.844 197.647 120.668 197.396 120.54C197.145 120.412 196.871 120.334 196.59 120.311C196.31 120.288 196.027 120.32 195.759 120.405C195.49 120.49 195.242 120.628 195.027 120.809C194.812 120.991 194.635 121.213 194.507 121.463C194.378 121.713 194.3 121.985 194.278 122.265L190.66 166.103C190.542 167.56 190.064 168.965 189.267 170.193C188.471 171.42 187.381 172.432 186.096 173.136L183.895 174.359L185.872 175.916C187.024 176.821 187.934 177.996 188.52 179.336C189.106 180.676 189.351 182.14 189.232 183.597L184.399 242.211C184.108 245.728 181.89 247.441 178.771 248.809C178.573 248.898 178.41 249.049 178.308 249.239C178.206 249.43 178.17 249.649 178.206 249.862C178.241 250.075 178.347 250.271 178.506 250.417C178.665 250.564 178.869 250.654 179.085 250.674C181.436 250.865 183.767 250.118 185.565 248.597C187.364 247.076 188.484 244.906 188.678 242.563L193.51 183.949C193.63 182.492 193.386 181.027 192.8 179.687C192.213 178.347 191.303 177.172 190.15 176.268L188.174 174.705L190.374 173.488C191.658 172.782 192.747 171.77 193.544 170.543C194.34 169.316 194.819 167.911 194.938 166.454Z" fill="#1C1D26"/>
<path opacity="0.3" d="M253.066 234.58C252.462 231.845 244.913 233.464 243.35 233.715C240.315 234.264 237.343 235.119 234.48 236.266C231.327 237.5 227.665 239.314 224.4 237.438C222.513 236.355 229.065 234.217 229.658 233.999C232.443 233.024 235.131 231.795 237.689 230.326C238.725 229.712 240.73 228.244 239.867 226.754C239.15 225.52 236.58 225.637 235.018 225.827C230.283 226.405 225.639 227.566 221.191 229.282C216.865 230.996 212.63 232.928 208.502 235.071C206.902 235.971 205.163 236.595 203.355 236.919C201.384 237.198 198.97 236.779 198.192 235.691C197.414 234.602 198.416 233.33 198.646 232.235C198.97 230.927 198.834 229.548 198.259 228.328C197.878 227.51 197.239 226.84 196.439 226.419C194.306 225.302 191.08 225.715 188.935 226.597C187.545 227.184 186.275 228.02 185.189 229.065C183 231.096 181.464 233.728 180.776 236.629C180.603 237.537 180.251 238.403 179.742 239.176C179.233 239.949 178.576 240.614 177.808 241.134C174.806 243.149 169.307 243.032 165.102 242.021C157.76 240.285 152.16 236.227 150.81 231.644C150.155 229.461 149.836 227.178 146.89 226.324C144.986 225.766 140.999 226.156 141.85 228.557C142.159 229.215 142.563 229.824 143.049 230.365C143.827 231.387 144.656 233.313 142.343 233.932C141.594 234.091 140.825 234.129 140.064 234.044C132.627 233.547 125.784 231.074 121.349 227.591C119.903 226.459 118.677 225.072 117.731 223.499C117.205 222.634 117.014 221.702 116.438 220.848C115.886 220.026 115.109 219.38 114.198 218.989C111.342 217.766 104.633 218.403 104.162 221.082C103.91 222.534 104.818 224.108 105.282 225.487C105.366 225.66 105.386 225.858 105.338 226.045C105.204 226.396 104.672 226.497 104.218 226.525C98.2208 226.921 92.4024 224.599 87.368 222.176C82.0368 219.608 76.168 216.265 68.7592 216.226C67.2272 216.156 65.694 216.331 64.2176 216.745C63.8438 216.844 63.4961 217.023 63.1984 217.269C63.0174 217.457 62.8971 217.695 62.8532 217.952C62.8092 218.209 62.8437 218.473 62.952 218.71C63.1925 219.201 63.5501 219.627 63.9936 219.949C66.2336 221.769 69.3696 222.506 72.2312 223.443C80.7215 226.187 88.9307 229.729 96.748 234.022C97.5376 234.463 98.9376 235.484 97.8288 236.255C96.72 237.025 94.4688 236.528 93.1416 236.311C90.7336 235.92 88.4208 235.295 86.0744 234.708C82.972 233.927 79.3544 233.218 75.9944 233.865C74.2192 234.206 72.6344 234.932 71.8 235.914C71.5124 236.202 71.3231 236.572 71.2587 236.973C71.1944 237.374 71.2584 237.785 71.4416 238.147C72.5952 240.196 77.8536 241.078 80.7264 242.055C84.4047 243.306 88.0012 244.785 91.4952 246.481C94.48 247.955 97.252 249.568 100.276 251.014C111.078 256.178 126.165 256.842 139.655 257.344C154.299 257.903 169.01 257.428 183.615 256.619C194.255 256.027 204.699 254.86 215.126 253.487C218.122 253.096 221.102 252.616 224.086 252.209C227.116 251.863 230.113 251.271 233.046 250.439C234.1 250.171 235.084 249.68 235.93 248.999C236.731 248.257 236.983 247.285 235.55 247.006C232.548 246.409 229.457 247.09 226.522 247.62C223.23 248.223 219.967 248.917 216.734 249.702C215.26 250.094 213.764 250.398 212.254 250.612C210.736 250.825 209.19 250.726 207.712 250.322C207.23 250.171 206.704 249.903 206.676 249.479C206.648 249.055 207.051 248.787 207.466 248.625C213.508 246.236 219.926 244.717 226.388 243.322C230.773 242.373 235.236 241.792 239.654 241.05C243.681 240.374 247.926 240.218 251.414 237.673C252.109 237.226 252.648 236.577 252.96 235.814C253.111 235.421 253.148 234.993 253.066 234.58Z" fill="#5082F2"/>
<path opacity="0.3" d="M79.78 211.978C78.1392 207.328 72.2928 199.094 71.0608 203.956C70.4 206.686 79.78 211.978 79.78 211.978Z" fill="#5082F2"/>
<path opacity="0.3" d="M226.601 221.132C229.726 218.291 233.623 216.6 234.127 219.1C234.598 221.467 226.601 221.132 226.601 221.132Z" fill="#5082F2"/>
<path opacity="0.3" d="M98.4 198.535C96.2608 197.419 94.592 195.627 95.8464 194.879C97.1008 194.131 98.4 198.535 98.4 198.535Z" fill="#5082F2"/>
</g>
<defs>
<clipPath id="clip0_15436_853">
<rect width="280" height="208" fill="white" transform="translate(20 54)"/>
</clipPath>
</defs>
</svg>
