<svg width="328" height="842" viewBox="0 0 328 842" fill="none" xmlns="http://www.w3.org/2000/svg">
<path opacity="0.7" d="M302.481 49.784H300.409C297.103 49.5569 293.875 48.6769 290.911 47.1946C287.947 45.7124 285.306 43.6574 283.14 41.1484C281.01 38.649 279.398 35.7511 278.398 32.623C277.397 29.495 277.028 26.1992 277.312 22.9274C277.715 18.0897 279.516 13.4738 282.498 9.64325C285.479 5.81266 289.511 2.93312 294.102 1.35606C298.692 -0.221009 303.643 -0.427301 308.348 0.762309C313.054 1.95192 317.312 4.48597 320.601 8.05517C323.891 11.6244 326.071 16.0742 326.874 20.8616C327.678 25.649 327.07 30.5669 325.126 35.0148C323.182 39.4626 319.984 43.2481 315.925 45.9091C311.866 48.5701 307.119 49.9917 302.266 50L302.481 49.784ZM302.481 2.97918C297.571 3.00356 292.816 4.70145 289.001 7.79256C285.186 10.8837 282.538 15.1833 281.495 19.9819C280.452 24.7806 281.076 29.7915 283.264 34.1878C285.452 38.584 289.073 42.103 293.53 44.1638C297.987 46.2247 303.013 46.7042 307.779 45.5234C312.545 44.3427 316.766 41.5721 319.746 37.669C322.725 33.7658 324.285 28.9633 324.168 24.054C324.052 19.1446 322.265 14.4217 319.103 10.6648C317.26 8.4811 315.002 6.68489 312.46 5.3804C309.918 4.07591 307.143 3.28905 304.295 3.06549L302.481 2.97918Z" fill="#272E59"/>
<path d="M289.201 264.669C289.006 267.034 288.115 269.288 286.639 271.146C285.163 273.005 283.169 274.384 280.91 275.109C278.65 275.835 276.226 275.874 273.945 275.222C271.663 274.57 269.625 273.256 268.09 271.447C266.555 269.637 265.591 267.413 265.319 265.055C265.048 262.698 265.482 260.313 266.566 258.202C267.65 256.091 269.336 254.349 271.41 253.196C273.484 252.043 275.854 251.53 278.219 251.724C281.391 251.986 284.329 253.497 286.388 255.924C288.447 258.351 289.459 261.496 289.201 264.669Z" fill="#272E59"/>
<path d="M36.7944 52.4051C36.5997 54.7702 35.7081 57.0245 34.2323 58.8829C32.7564 60.7413 30.7628 62.1204 28.5032 62.8459C26.2436 63.5714 23.8197 63.6106 21.5378 62.9587C19.2559 62.3068 17.2186 60.993 15.6833 59.1834C14.1481 57.3738 13.1839 55.1496 12.9126 52.792C12.6414 50.4345 13.0752 48.0495 14.1594 45.9385C15.2435 43.8275 16.9292 42.0853 19.0034 40.9323C21.0776 39.7792 23.4471 39.2669 25.8124 39.4603C28.9845 39.723 31.9226 41.2337 33.9817 43.6607C36.0408 46.0878 37.0524 49.2328 36.7944 52.4051Z" fill="#1F2438"/>
<path d="M228.166 129.95C228.036 131.527 227.442 133.029 226.458 134.268C225.474 135.507 224.145 136.427 222.639 136.91C221.132 137.394 219.516 137.42 217.995 136.986C216.474 136.551 215.115 135.675 214.092 134.469C213.068 133.262 212.426 131.78 212.245 130.208C212.064 128.636 212.353 127.046 213.076 125.639C213.799 124.232 214.923 123.07 216.305 122.301C217.688 121.533 219.268 121.191 220.845 121.32C222.959 121.495 224.918 122.502 226.291 124.12C227.664 125.738 228.338 127.835 228.166 129.95Z" fill="#1F2438"/>
<path opacity="0.7" d="M52.9593 420.001H51.633C49.5171 419.855 47.451 419.292 45.554 418.343C43.6571 417.395 41.9668 416.08 40.581 414.474C39.2177 412.874 38.186 411.02 37.5456 409.018C36.9053 407.016 36.6692 404.906 36.851 402.812C37.1085 399.716 38.2617 396.762 40.1698 394.311C42.078 391.859 44.6585 390.016 47.5964 389.007C50.5343 387.997 53.7024 387.865 56.7141 388.627C59.7257 389.388 62.4506 391.01 64.5561 393.294C66.6616 395.579 68.0566 398.426 68.5708 401.49C69.085 404.554 68.6962 407.702 67.4518 410.548C66.2074 413.395 64.1613 415.818 61.5632 417.521C58.9651 419.224 55.9275 420.134 52.8211 420.139L52.9593 420.001ZM52.9593 390.046C49.8169 390.061 46.7737 391.148 44.3319 393.126C41.8901 395.104 40.1956 397.856 39.5281 400.927C38.8606 403.999 39.2599 407.205 40.6602 410.019C42.0604 412.833 44.3779 415.085 47.2303 416.404C50.0826 417.723 53.2993 418.03 56.3496 417.274C59.3998 416.518 62.1014 414.745 64.0084 412.247C65.9153 409.749 66.9138 406.675 66.839 403.533C66.7642 400.391 65.6205 397.369 63.5968 394.964C62.4176 393.567 60.9727 392.417 59.3458 391.582C57.719 390.747 55.9426 390.244 54.1197 390.101L52.9593 390.046Z" fill="#272E59"/>
<path d="M310.591 585.085C310.397 587.45 309.505 589.705 308.029 591.563C306.553 593.421 304.56 594.801 302.3 595.526C300.041 596.252 297.617 596.291 295.335 595.639C293.053 594.987 291.015 593.673 289.48 591.864C287.945 590.054 286.981 587.83 286.71 585.472C286.438 583.115 286.872 580.73 287.956 578.619C289.04 576.508 290.726 574.766 292.8 573.612C294.875 572.459 297.244 571.947 299.609 572.141C302.781 572.403 305.72 573.914 307.779 576.341C309.838 578.768 310.849 581.913 310.591 585.085Z" fill="#272E59"/>
<path opacity="0.7" d="M19.1992 710.004H17.6243C15.1117 709.831 12.6582 709.162 10.4055 708.036C8.15284 706.909 6.14568 705.347 4.50002 703.441C2.88114 701.541 1.65594 699.339 0.895529 696.961C0.135122 694.584 -0.145291 692.079 0.0706056 689.593C0.37642 685.916 1.74586 682.408 4.01178 679.497C6.27771 676.585 9.34208 674.397 12.8308 673.198C16.3195 672 20.0817 671.843 23.658 672.747C27.2344 673.651 30.4702 675.577 32.9705 678.29C35.4707 681.002 37.1273 684.384 37.7379 688.023C38.3485 691.661 37.8868 695.399 36.4091 698.779C34.9314 702.159 32.5016 705.036 29.4164 707.059C26.3312 709.081 22.724 710.161 19.0352 710.168L19.1992 710.004ZM19.1992 674.432C15.4676 674.45 11.8538 675.741 8.95421 678.09C6.05459 680.439 4.04242 683.707 3.24974 687.354C2.45706 691.001 2.93123 694.809 4.59404 698.15C6.25685 701.492 9.00888 704.166 12.396 705.732C15.7832 707.298 19.6031 707.663 23.2252 706.766C26.8474 705.868 30.0555 703.763 32.32 700.796C34.5845 697.83 35.7702 694.18 35.6814 690.449C35.5925 686.718 34.2345 683.128 31.8313 680.273C30.431 678.613 28.7151 677.248 26.7833 676.257C24.8514 675.265 22.742 674.667 20.5773 674.497L19.1992 674.432Z" fill="#2F3875"/>
<path d="M163.711 829.765C163.5 832.327 162.534 834.769 160.935 836.783C159.337 838.796 157.177 840.29 154.729 841.076C152.281 841.862 149.655 841.904 147.183 841.198C144.711 840.492 142.504 839.069 140.841 837.108C139.178 835.148 138.133 832.738 137.839 830.184C137.545 827.63 138.015 825.046 139.19 822.76C140.364 820.473 142.19 818.585 144.437 817.336C146.685 816.087 149.251 815.532 151.814 815.741C155.25 816.026 158.433 817.663 160.664 820.292C162.895 822.921 163.991 826.328 163.711 829.765Z" fill="#272E59"/>
<path opacity="0.7" d="M277.131 814.204H275.804C273.689 814.059 271.622 813.496 269.725 812.547C267.828 811.598 266.138 810.283 264.752 808.678C263.389 807.078 262.357 805.223 261.717 803.221C261.077 801.219 260.841 799.11 261.022 797.016C261.28 793.92 262.433 790.966 264.341 788.514C266.249 786.063 268.83 784.22 271.768 783.21C274.706 782.201 277.874 782.069 280.885 782.83C283.897 783.592 286.622 785.214 288.727 787.498C290.833 789.782 292.228 792.63 292.742 795.694C293.256 798.758 292.868 801.905 291.623 804.752C290.379 807.599 288.333 810.021 285.735 811.724C283.137 813.427 280.099 814.337 276.993 814.343L277.131 814.204ZM277.131 784.249C273.988 784.265 270.945 785.351 268.503 787.33C266.061 789.308 264.367 792.06 263.7 795.131C263.032 798.202 263.431 801.409 264.832 804.223C266.232 807.036 268.549 809.288 271.402 810.607C274.254 811.926 277.471 812.233 280.521 811.478C283.571 810.722 286.273 808.949 288.18 806.451C290.087 803.953 291.085 800.879 291.01 797.737C290.936 794.595 289.792 791.572 287.768 789.168C286.589 787.77 285.144 786.621 283.517 785.786C281.89 784.951 280.114 784.448 278.291 784.304L277.131 784.249Z" fill="#2F3875"/>
<g clip-path="url(#clip0_15438_860)">
<path d="M160 552C219.966 552 268.578 549.144 268.578 545.62C268.578 542.097 219.966 539.24 160 539.24C100.034 539.24 51.4214 542.097 51.4214 545.62C51.4214 549.144 100.034 552 160 552Z" fill="#1B1B21"/>
<path opacity="0.1" d="M96.8878 501.079C96.9551 500.572 97.2132 500.109 97.6091 499.787C98.005 499.465 98.5085 499.309 99.0158 499.349C103.809 499.276 108.295 502.686 112.456 506.343C113.38 507.149 114.382 507.983 115.418 507.138C115.739 506.871 115.973 506.514 116.09 506.112C116.269 505.456 116.269 504.763 116.09 504.106C115.936 503.564 115.679 503.057 115.334 502.612C113.525 500.217 111.325 499.067 109.538 496.593C108.538 495.176 107.709 493.643 107.069 492.028C106.509 490.608 105.389 488.314 105.837 486.392C106.335 484.093 108.043 484.29 109.079 484.606C112.355 485.592 115.413 487.942 118.19 490.867C121.153 493.978 123.835 497.726 126.506 501.451C127.514 502.866 128.578 504.32 129.866 504.833C131.154 505.346 132.784 504.517 133.327 502.477C133.87 500.437 133.232 498.092 133.097 496.063C132.918 493.642 133.034 491.208 133.445 488.816C133.627 487.551 134.051 486.334 134.693 485.231C136.138 483.101 138.277 483.85 139.677 485.462C140.746 486.811 141.572 488.336 142.119 489.971C143.69 494.487 144.632 499.2 144.919 503.976C145.132 506.935 145.58 510.018 146.789 512.312C148.744 516.02 152.389 515.727 155.217 513.783C160.14 510.401 163.937 502.759 164.95 494.215C165.281 491.431 165.365 488.421 166.373 486.088C167.252 484.07 169.509 482.706 170.612 484.882C171.056 485.97 171.181 487.163 170.97 488.32C170.773 489.465 170.494 490.596 170.136 491.701C169.576 493.617 169.016 497.208 170.528 498.329C170.753 498.467 171.006 498.554 171.268 498.583C171.53 498.612 171.796 498.583 172.045 498.498C176.996 497.461 181.599 492.772 184.623 486.229C185.719 483.766 186.556 481.196 187.121 478.558C187.485 476.946 187.636 475.216 188.039 473.616C188.297 472.356 188.821 471.166 189.573 470.127C191.5 467.805 195.946 468.898 196.198 473.875C196.349 476.755 195.588 479.573 195.308 482.391C195.134 484.149 196.215 484.138 197.021 484.082C200.885 483.687 204.301 479.764 207.331 475.684C210.932 470.831 214.919 464.531 219.836 464.345C220.956 464.305 222.821 464.452 223.493 466.193C223.804 467.26 223.804 468.395 223.493 469.462C222.496 473.621 219.573 475.769 217.333 477.826C211.017 483.787 205.462 490.515 200.796 497.856C200.085 498.983 199.351 500.843 200.029 501.947C200.158 502.158 200.348 502.324 200.572 502.424C200.797 502.525 201.047 502.555 201.289 502.511C203.601 502.331 205.769 500.482 207.88 498.949C209.991 497.416 212.388 496.075 214.6 497.23C215.282 497.642 215.876 498.186 216.348 498.83C216.82 499.474 217.16 500.206 217.349 500.984C217.745 502.346 217.808 503.784 217.534 505.177C216.722 509.004 213.211 510.723 211.279 512.611C208.619 515.193 206.183 518.001 203.999 521.002C201.983 523.781 200.079 526.824 198.063 529.552C190.783 539.319 180.703 540.768 171.743 541.9C161.993 543.129 152.221 542.464 142.528 541.173C135.477 540.227 128.528 538.209 121.645 535.814C119.282 534.951 116.936 534.01 114.617 532.894C112.125 531.699 108.457 530.961 107.5 526.255C107.298 525.241 107.533 524.418 108.2 524.04C110.266 522.857 113.212 524.44 115.155 525.483C117.837 526.926 120.38 528.983 123.135 530.093C123.578 530.312 124.06 530.439 124.553 530.465C125.046 530.491 125.539 530.416 126.002 530.245C126.457 530.053 126.831 529.709 127.061 529.27C127.354 528.699 127.425 528.038 127.262 527.416C127.149 527.08 126.957 526.777 126.702 526.531C121.743 521.416 115.818 517.35 109.275 514.572C107.175 513.664 105.03 512.921 103.009 511.636C101.375 510.618 99.9644 509.276 98.8646 507.69C97.9238 506.174 96.4118 503.497 96.8878 501.079Z" fill="#5082F2"/>
<path opacity="0.1" d="M203.999 459.65C203.625 460.04 203.135 460.297 202.602 460.382C202.07 460.467 201.525 460.375 201.049 460.12C200.573 459.865 200.193 459.462 199.965 458.97C199.738 458.479 199.676 457.926 199.788 457.395C201.72 447.955 205.92 441.091 210.915 444.653C214.645 447.307 208.798 454.628 203.999 459.65Z" fill="#5082F2"/>
<path opacity="0.3" d="M190.447 464.057C191.975 463.209 193.27 461.992 194.217 460.517C195.164 459.042 195.733 457.354 195.874 455.603L199.659 409.192C199.856 406.806 199.554 404.405 198.774 402.144C197.994 399.882 196.752 397.81 195.129 396.06L183.464 383.486C182.822 382.791 182.331 381.969 182.022 381.072C181.712 380.176 181.591 379.224 181.667 378.278L182.227 371.482L152.037 368.985L151.477 375.782C151.4 376.727 151.127 377.646 150.677 378.48C150.227 379.314 149.608 380.044 148.862 380.623L135.31 391.123C133.426 392.584 131.866 394.425 130.73 396.528C129.594 398.631 128.907 400.95 128.713 403.336L124.922 449.748C124.778 451.496 125.067 453.252 125.762 454.861C126.456 456.47 127.536 457.881 128.903 458.968C127.376 459.816 126.081 461.032 125.135 462.508C124.189 463.983 123.621 465.671 123.482 467.422L118.65 526.599C118.422 529.412 119.313 532.202 121.128 534.354C122.942 536.507 125.531 537.847 128.327 538.079L178.167 542.199C179.551 542.314 180.944 542.154 182.266 541.727C183.588 541.3 184.814 540.615 185.874 539.711C186.933 538.807 187.805 537.702 188.44 536.459C189.075 535.216 189.46 533.859 189.574 532.466L194.407 473.289C194.554 471.541 194.27 469.783 193.579 468.172C192.889 466.562 191.813 465.148 190.447 464.057Z" fill="#5082F2"/>
<path opacity="0.3" d="M152.045 368.995L151.617 374.236L181.8 376.733L182.228 371.493L152.045 368.995Z" fill="#5082F2"/>
<path opacity="0.3" d="M194.849 397.272L183.184 384.687C183.184 384.687 175.663 385.013 181.504 394.296C186.482 402.147 195.157 400.924 194.849 397.272Z" fill="#1C1D26"/>
<path opacity="0.2" d="M118.655 526.576C118.427 529.39 119.319 532.179 121.133 534.332C122.947 536.484 125.537 537.824 128.332 538.057L178.172 542.177C179.556 542.292 180.949 542.131 182.271 541.704C183.594 541.277 184.82 540.592 185.879 539.688C186.938 538.784 187.81 537.679 188.445 536.436C189.08 535.193 189.465 533.836 189.579 532.443L118.655 526.576Z" fill="#5082F2"/>
<path opacity="0.3" d="M192.67 398.359C193.973 399.765 194.97 401.429 195.596 403.245C196.223 405.061 196.466 406.988 196.31 408.904L192.525 455.321C192.426 456.515 192.036 457.665 191.39 458.67C190.743 459.675 189.859 460.503 188.818 461.081L184.41 463.539L188.358 466.689C189.293 467.43 190.03 468.392 190.505 469.49C190.98 470.587 191.177 471.786 191.08 472.979L186.247 532.156C186.092 534.074 185.186 535.851 183.73 537.098C182.274 538.345 180.386 538.959 178.48 538.806L128.64 534.687C127.694 534.611 126.771 534.349 125.925 533.914C125.08 533.48 124.327 532.883 123.711 532.156C123.095 531.429 122.627 530.587 122.334 529.678C122.041 528.769 121.929 527.811 122.004 526.858L126.837 467.681C126.933 466.487 127.322 465.336 127.968 464.33C128.614 463.324 129.497 462.495 130.538 461.916L134.946 459.458L131.026 456.308C130.092 455.567 129.354 454.605 128.879 453.507C128.404 452.41 128.207 451.211 128.304 450.018L132.095 403.606C132.252 401.69 132.805 399.828 133.719 398.14C134.632 396.451 135.885 394.973 137.398 393.8C141.878 390.886 153.638 398.139 167.409 399.278C181.179 400.416 189.792 396.9 192.67 398.359Z" fill="#5082F2"/>
<path opacity="0.2" d="M167.381 399.283C153.616 398.156 141.845 390.886 137.365 393.8C145.205 398.139 154.165 400.828 167.162 401.904C180.16 402.981 192.67 398.359 192.67 398.359C189.792 396.899 181.146 400.427 167.381 399.283Z" fill="#5082F2"/>
<path opacity="0.2" d="M124.927 449.748C124.784 451.496 125.072 453.252 125.767 454.861C126.461 456.47 127.541 457.881 128.909 458.968L190.447 464.04C191.975 463.192 193.27 461.975 194.217 460.5C195.164 459.025 195.733 457.337 195.873 455.586L124.927 449.748Z" fill="#5082F2"/>
<path d="M182.859 363.181L152.761 360.682C151.5 360.578 150.394 361.521 150.291 362.79L149.691 370.16C149.587 371.429 150.526 372.542 151.786 372.647L181.885 375.145C183.146 375.25 184.251 374.306 184.355 373.037L184.955 365.667C185.058 364.399 184.12 363.285 182.859 363.181Z" fill="#5082F2"/>
<path opacity="0.2" d="M153.313 371.51C153.276 371.507 153.241 371.497 153.208 371.48C153.175 371.463 153.145 371.44 153.122 371.411C153.098 371.383 153.079 371.35 153.068 371.315C153.057 371.28 153.053 371.242 153.056 371.205L153.761 362.289C153.767 362.214 153.802 362.145 153.859 362.097C153.916 362.048 153.989 362.024 154.064 362.03C154.138 362.036 154.207 362.071 154.255 362.128C154.303 362.186 154.327 362.26 154.321 362.334L153.593 371.245C153.589 371.316 153.558 371.384 153.506 371.433C153.453 371.482 153.385 371.51 153.313 371.51Z" fill="#1C1D26"/>
<path opacity="0.2" d="M158.773 371.961C158.736 371.958 158.701 371.948 158.668 371.931C158.635 371.914 158.605 371.891 158.581 371.862C158.558 371.834 158.539 371.801 158.528 371.766C158.517 371.731 158.513 371.693 158.516 371.656L159.244 362.746C159.251 362.672 159.286 362.603 159.343 362.555C159.399 362.506 159.472 362.482 159.546 362.487C159.583 362.489 159.618 362.5 159.651 362.517C159.684 362.534 159.712 362.557 159.736 362.585C159.759 362.614 159.777 362.646 159.788 362.682C159.798 362.717 159.802 362.754 159.798 362.791L159.053 371.701C159.046 371.772 159.014 371.837 158.962 371.885C158.911 371.933 158.843 371.96 158.773 371.961Z" fill="#1C1D26"/>
<path opacity="0.2" d="M164.228 372.434C164.191 372.431 164.155 372.421 164.122 372.404C164.089 372.387 164.06 372.364 164.036 372.336C164.012 372.307 163.994 372.275 163.983 372.239C163.971 372.204 163.967 372.167 163.97 372.13L164.698 363.219C164.707 363.146 164.743 363.078 164.799 363.03C164.855 362.982 164.927 362.957 165.001 362.96C165.037 362.963 165.073 362.973 165.106 362.99C165.139 363.007 165.168 363.03 165.192 363.058C165.216 363.087 165.234 363.119 165.246 363.155C165.257 363.19 165.261 363.227 165.258 363.264L164.53 372.175C164.527 372.212 164.517 372.248 164.501 372.281C164.484 372.314 164.461 372.344 164.433 372.368C164.404 372.392 164.372 372.41 164.337 372.421C164.302 372.433 164.265 372.437 164.228 372.434Z" fill="#1C1D26"/>
<path opacity="0.2" d="M169.688 372.862C169.651 372.859 169.615 372.849 169.582 372.832C169.549 372.816 169.52 372.792 169.496 372.764C169.472 372.736 169.454 372.703 169.443 372.668C169.431 372.632 169.427 372.595 169.43 372.558L170.158 363.648C170.165 363.573 170.201 363.505 170.257 363.456C170.314 363.408 170.387 363.384 170.461 363.388C170.497 363.391 170.533 363.401 170.565 363.418C170.598 363.435 170.627 363.458 170.65 363.487C170.674 363.515 170.692 363.548 170.702 363.583C170.713 363.619 170.716 363.656 170.713 363.693L169.985 372.603C169.982 372.64 169.973 372.676 169.957 372.709C169.941 372.742 169.918 372.771 169.89 372.796C169.863 372.82 169.831 372.838 169.796 372.85C169.761 372.861 169.724 372.865 169.688 372.862Z" fill="#1C1D26"/>
<path opacity="0.2" d="M175.12 373.313C175.083 373.31 175.047 373.3 175.014 373.283C174.981 373.267 174.952 373.243 174.928 373.215C174.904 373.187 174.886 373.154 174.875 373.119C174.863 373.083 174.859 373.046 174.862 373.009L175.59 364.098C175.6 364.025 175.636 363.958 175.692 363.91C175.748 363.863 175.819 363.837 175.893 363.839C175.93 363.842 175.965 363.852 175.998 363.869C176.031 363.886 176.06 363.909 176.084 363.937C176.108 363.966 176.126 363.999 176.138 364.034C176.149 364.069 176.153 364.107 176.15 364.144L175.422 373.054C175.42 373.091 175.411 373.128 175.394 373.161C175.378 373.195 175.355 373.225 175.326 373.249C175.298 373.273 175.265 373.291 175.23 373.302C175.194 373.313 175.157 373.317 175.12 373.313Z" fill="#1C1D26"/>
<path opacity="0.2" d="M180.602 373.764C180.566 373.761 180.53 373.751 180.497 373.734C180.464 373.717 180.435 373.694 180.411 373.666C180.387 373.638 180.369 373.605 180.357 373.569C180.346 373.534 180.342 373.497 180.345 373.46L181.05 364.544C181.057 364.47 181.093 364.401 181.149 364.353C181.206 364.304 181.279 364.28 181.353 364.285C181.426 364.292 181.494 364.328 181.541 364.385C181.588 364.442 181.611 364.515 181.605 364.589L180.882 373.505C180.875 373.575 180.843 373.64 180.791 373.688C180.74 373.736 180.672 373.763 180.602 373.764Z" fill="#1C1D26"/>
<path opacity="0.2" d="M134.24 434.243C133.389 429.503 126.529 429.841 126.137 434.638L124.905 449.748C124.761 451.496 125.05 453.252 125.744 454.861C126.439 456.47 127.518 457.881 128.886 458.968C127.359 459.816 126.064 461.032 125.118 462.508C124.172 463.983 123.604 465.671 123.465 467.422L118.633 526.599C118.405 529.412 119.296 532.202 121.111 534.354C122.925 536.507 125.514 537.847 128.309 538.079L141.189 539.144C142.608 539.261 144.035 539.049 145.359 538.522C146.684 537.996 147.87 537.171 148.827 536.11C149.784 535.048 150.485 533.78 150.878 532.403C151.27 531.026 151.343 529.576 151.09 528.166L134.24 434.243Z" fill="#5082F2"/>
<path opacity="0.3" d="M183.8 511.731C183.711 512.818 183.304 513.853 182.631 514.707C181.957 515.56 181.047 516.194 180.016 516.527C178.985 516.86 177.878 516.878 176.837 516.579C175.796 516.279 174.866 515.676 174.165 514.845C173.464 514.014 173.024 512.992 172.901 511.909C172.777 510.826 172.975 509.731 173.47 508.761C173.964 507.791 174.734 506.991 175.68 506.462C176.627 505.932 177.708 505.697 178.788 505.785C180.236 505.906 181.576 506.6 182.516 507.715C183.456 508.83 183.918 510.274 183.8 511.731Z" fill="#5082F2"/>
<path opacity="0.3" d="M166.389 490.388C166.327 491.157 166.039 491.89 165.563 492.494C165.087 493.099 164.443 493.547 163.713 493.784C162.983 494.02 162.201 494.033 161.463 493.821C160.726 493.609 160.068 493.182 159.572 492.594C159.076 492.006 158.765 491.283 158.677 490.516C158.59 489.75 158.73 488.975 159.08 488.288C159.43 487.602 159.975 487.036 160.645 486.661C161.315 486.287 162.081 486.121 162.845 486.184C163.868 486.27 164.816 486.761 165.48 487.549C166.145 488.337 166.472 489.358 166.389 490.388Z" fill="#5082F2"/>
<path opacity="0.3" d="M150.189 442.883C149.423 442.919 148.665 442.726 148.009 442.328C147.352 441.93 146.828 441.345 146.502 440.648C146.176 439.95 146.063 439.171 146.176 438.408C146.29 437.646 146.626 436.934 147.141 436.364C147.656 435.793 148.328 435.389 149.071 435.203C149.815 435.016 150.596 435.056 151.317 435.316C152.038 435.577 152.666 436.046 153.122 436.666C153.578 437.285 153.842 438.027 153.879 438.797C153.904 439.309 153.828 439.822 153.656 440.304C153.484 440.787 153.219 441.231 152.876 441.61C152.533 441.99 152.119 442.298 151.658 442.516C151.197 442.735 150.698 442.859 150.189 442.883Z" fill="#5082F2"/>
<path opacity="0.3" d="M160.756 419.567C160.213 419.594 159.675 419.459 159.209 419.178C158.743 418.897 158.37 418.484 158.138 417.99C157.906 417.495 157.824 416.943 157.904 416.402C157.984 415.862 158.222 415.357 158.587 414.952C158.952 414.548 159.429 414.261 159.956 414.129C160.483 413.997 161.037 414.025 161.548 414.211C162.059 414.396 162.504 414.729 162.827 415.169C163.149 415.609 163.335 416.135 163.36 416.682C163.393 417.411 163.138 418.125 162.65 418.666C162.162 419.206 161.481 419.531 160.756 419.567Z" fill="#5082F2"/>
<path opacity="0.3" d="M177.758 473.531C177.731 473.848 177.612 474.151 177.415 474.4C177.217 474.649 176.951 474.834 176.65 474.931C176.348 475.028 176.025 475.033 175.721 474.946C175.416 474.858 175.145 474.681 174.94 474.438C174.735 474.196 174.607 473.897 174.571 473.581C174.534 473.264 174.592 472.944 174.737 472.66C174.881 472.377 175.106 472.143 175.382 471.988C175.659 471.833 175.975 471.764 176.29 471.79C176.714 471.826 177.106 472.029 177.381 472.355C177.656 472.682 177.792 473.104 177.758 473.531Z" fill="#5082F2"/>
<path opacity="0.7" d="M148.75 517.627H148.481C148.052 517.597 147.633 517.482 147.249 517.289C146.864 517.095 146.522 516.827 146.241 516.499C145.964 516.173 145.755 515.795 145.626 515.387C145.496 514.978 145.448 514.548 145.485 514.121C145.537 513.49 145.771 512.887 146.157 512.387C146.544 511.887 147.067 511.511 147.663 511.305C148.258 511.1 148.9 511.073 149.511 511.228C150.121 511.383 150.673 511.714 151.1 512.18C151.527 512.646 151.809 513.227 151.914 513.851C152.018 514.476 151.939 515.118 151.687 515.699C151.435 516.279 151.02 516.773 150.493 517.121C149.967 517.468 149.351 517.654 148.722 517.655L148.75 517.627ZM148.75 511.517C148.113 511.52 147.496 511.742 147.001 512.146C146.506 512.549 146.163 513.11 146.027 513.737C145.892 514.363 145.973 515.017 146.257 515.591C146.541 516.165 147.01 516.624 147.588 516.893C148.166 517.162 148.818 517.225 149.437 517.07C150.055 516.916 150.602 516.555 150.989 516.045C151.375 515.536 151.578 514.909 151.563 514.268C151.547 513.627 151.316 513.011 150.906 512.52C150.666 512.235 150.374 512.001 150.044 511.831C149.714 511.66 149.354 511.558 148.985 511.529L148.75 511.517Z" fill="#1C1D26"/>
<path opacity="0.7" d="M183.385 451.675H183.189C182.567 451.623 181.991 451.325 181.587 450.847C181.183 450.368 180.984 449.748 181.033 449.122C181.085 448.495 181.381 447.914 181.858 447.507C182.335 447.1 182.953 446.901 183.576 446.952C184.198 447.004 184.774 447.302 185.178 447.78C185.582 448.259 185.781 448.879 185.732 449.505C185.679 450.132 185.383 450.713 184.909 451.123C184.482 451.483 183.942 451.679 183.385 451.675ZM181.453 449.144C181.425 449.528 181.511 449.911 181.698 450.245C181.886 450.58 182.168 450.851 182.508 451.025C182.849 451.199 183.233 451.268 183.612 451.223C183.991 451.178 184.349 451.022 184.64 450.773C184.834 450.608 184.994 450.405 185.11 450.177C185.227 449.949 185.297 449.7 185.318 449.445C185.339 449.189 185.31 448.932 185.232 448.688C185.154 448.444 185.029 448.218 184.864 448.023C184.693 447.833 184.486 447.679 184.255 447.571C184.024 447.463 183.774 447.402 183.52 447.392C183.266 447.37 183.011 447.399 182.769 447.477C182.527 447.555 182.302 447.68 182.108 447.846C181.914 448.011 181.754 448.213 181.638 448.441C181.522 448.669 181.451 448.917 181.431 449.173L181.453 449.144Z" fill="#1C1D26"/>
<path opacity="0.7" d="M147.204 401.707H147.12C146.831 401.678 146.564 401.538 146.376 401.315C146.188 401.092 146.093 400.804 146.112 400.512C146.126 400.293 146.203 400.083 146.335 399.907C146.466 399.732 146.646 399.599 146.851 399.524C147.057 399.45 147.279 399.438 147.491 399.49C147.704 399.541 147.896 399.654 148.046 399.814C148.195 399.974 148.295 400.175 148.333 400.391C148.37 400.607 148.344 400.83 148.258 401.032C148.171 401.234 148.028 401.405 147.846 401.526C147.663 401.647 147.45 401.712 147.232 401.712L147.204 401.707ZM146.526 400.546C146.516 400.68 146.545 400.815 146.61 400.932C146.675 401.05 146.774 401.145 146.893 401.207C147.012 401.268 147.146 401.293 147.279 401.277C147.412 401.262 147.538 401.207 147.64 401.12C147.742 401.033 147.816 400.917 147.853 400.788C147.89 400.659 147.888 400.521 147.847 400.393C147.807 400.264 147.729 400.151 147.625 400.067C147.52 399.983 147.393 399.932 147.26 399.92C147.171 399.912 147.081 399.921 146.995 399.948C146.91 399.975 146.83 400.019 146.762 400.078C146.694 400.136 146.638 400.207 146.597 400.288C146.557 400.368 146.532 400.456 146.526 400.546Z" fill="#1C1D26"/>
<path opacity="0.7" d="M171.967 430.895H171.732C171.363 430.866 171.004 430.764 170.675 430.594C170.346 430.425 170.053 430.191 169.814 429.907C169.575 429.623 169.394 429.294 169.282 428.94C169.17 428.585 169.129 428.211 169.162 427.841C169.209 427.297 169.413 426.778 169.748 426.348C170.084 425.919 170.536 425.596 171.05 425.421C171.564 425.245 172.117 425.223 172.643 425.358C173.169 425.493 173.645 425.78 174.012 426.182C174.38 426.584 174.623 427.085 174.712 427.624C174.802 428.163 174.734 428.716 174.517 429.217C174.299 429.717 173.942 430.144 173.488 430.444C173.035 430.744 172.504 430.905 171.962 430.907L171.967 430.895ZM171.967 425.654C171.404 425.651 170.857 425.851 170.427 426.218C169.944 426.629 169.642 427.217 169.587 427.852C169.556 428.246 169.621 428.642 169.777 429.004C169.934 429.367 170.177 429.685 170.485 429.931C170.792 430.177 171.156 430.342 171.542 430.413C171.928 430.484 172.326 430.458 172.7 430.337C173.074 430.217 173.413 430.005 173.687 429.721C173.96 429.438 174.16 429.09 174.269 428.71C174.377 428.33 174.391 427.929 174.309 427.543C174.227 427.156 174.052 426.796 173.798 426.494C173.596 426.252 173.347 426.053 173.067 425.909C172.788 425.765 172.482 425.678 172.169 425.654H171.967Z" fill="#1C1D26"/>
<path opacity="0.3" d="M194.938 455.536L198.556 411.277C198.579 410.994 198.546 410.709 198.46 410.439C198.374 410.169 198.235 409.919 198.053 409.703C197.87 409.487 197.647 409.309 197.396 409.179C197.145 409.05 196.871 408.972 196.59 408.949C196.31 408.925 196.027 408.957 195.759 409.044C195.49 409.13 195.242 409.269 195.027 409.452C194.812 409.635 194.635 409.859 194.506 410.112C194.378 410.364 194.3 410.639 194.277 410.922L190.66 455.181C190.542 456.652 190.064 458.071 189.267 459.31C188.471 460.549 187.381 461.57 186.096 462.282L183.895 463.516L185.872 465.088C187.024 466.002 187.934 467.188 188.52 468.541C189.106 469.894 189.351 471.372 189.232 472.844L184.399 532.021C184.108 535.571 181.89 537.302 178.771 538.682C178.573 538.772 178.41 538.924 178.308 539.117C178.206 539.309 178.17 539.53 178.205 539.745C178.241 539.961 178.347 540.158 178.506 540.306C178.665 540.454 178.869 540.545 179.085 540.565C181.436 540.758 183.766 540.004 185.565 538.468C187.364 536.933 188.483 534.742 188.677 532.376L193.51 473.199C193.63 471.727 193.386 470.249 192.8 468.896C192.213 467.542 191.303 466.356 190.15 465.444L188.173 463.865L190.374 462.637C191.658 461.924 192.747 460.903 193.544 459.664C194.34 458.425 194.819 457.006 194.938 455.536Z" fill="#1C1D26"/>
<path opacity="0.3" d="M253.066 524.316C252.462 521.555 244.913 523.189 243.35 523.443C240.315 523.997 237.343 524.86 234.48 526.019C231.327 527.264 227.665 529.096 224.4 527.202C222.513 526.109 229.065 523.95 229.658 523.73C232.443 522.746 235.131 521.504 237.689 520.022C238.725 519.402 240.729 517.92 239.867 516.415C239.15 515.169 236.58 515.288 235.017 515.479C230.283 516.063 225.639 517.235 221.191 518.968C216.865 520.698 212.63 522.648 208.501 524.812C206.902 525.72 205.162 526.351 203.355 526.678C201.384 526.96 198.97 526.537 198.192 525.438C197.413 524.339 198.416 523.054 198.645 521.949C198.97 520.629 198.834 519.236 198.259 518.004C197.878 517.179 197.239 516.502 196.439 516.077C194.305 514.95 191.08 515.367 188.935 516.257C187.545 516.849 186.275 517.694 185.189 518.748C183 520.799 181.464 523.456 180.776 526.385C180.603 527.302 180.251 528.176 179.742 528.956C179.233 529.737 178.575 530.409 177.808 530.933C174.806 532.968 169.307 532.849 165.101 531.829C157.76 530.076 152.16 525.979 150.81 521.352C150.155 519.148 149.836 516.843 146.89 515.981C144.986 515.417 140.999 515.812 141.85 518.235C142.159 518.899 142.563 519.515 143.049 520.061C143.827 521.093 144.656 523.037 142.343 523.663C141.594 523.823 140.825 523.861 140.064 523.775C132.627 523.274 125.784 520.777 121.349 517.26C119.903 516.117 118.676 514.717 117.731 513.129C117.205 512.256 117.014 511.314 116.437 510.452C115.886 509.622 115.108 508.97 114.197 508.575C111.341 507.341 104.633 507.984 104.162 510.689C103.91 512.154 104.817 513.743 105.282 515.136C105.366 515.311 105.385 515.51 105.338 515.699C105.204 516.054 104.672 516.156 104.218 516.184C98.2207 516.584 92.4023 514.239 87.3679 511.793C82.0367 509.201 76.1679 505.825 68.7591 505.786C67.2271 505.715 65.6938 505.892 64.2175 506.31C63.8437 506.41 63.496 506.591 63.1983 506.839C63.0172 507.029 62.897 507.269 62.853 507.528C62.8091 507.788 62.8435 508.054 62.9519 508.294C63.1923 508.79 63.55 509.22 63.9935 509.545C66.2335 511.382 69.3695 512.126 72.2311 513.073C80.7213 515.842 88.9306 519.419 96.7479 523.753C97.5375 524.198 98.9375 525.229 97.8287 526.007C96.7199 526.785 94.4687 526.283 93.1415 526.064C90.7335 525.669 88.4207 525.038 86.0743 524.446C82.9719 523.657 79.3543 522.941 75.9943 523.595C74.2191 523.939 72.6343 524.672 71.7999 525.663C71.5123 525.954 71.3229 526.328 71.2586 526.732C71.1943 527.137 71.2582 527.552 71.4415 527.918C72.5951 529.986 77.8535 530.877 80.7263 531.863C84.4045 533.126 88.0011 534.619 91.4951 536.332C94.4799 537.82 97.2519 539.449 100.276 540.909C111.078 546.122 126.165 546.793 139.655 547.3C154.299 547.863 169.01 547.384 183.615 546.567C194.255 545.97 204.699 544.792 215.126 543.405C218.122 543.011 221.101 542.526 224.086 542.115C227.116 541.765 230.113 541.168 233.046 540.328C234.1 540.058 235.084 539.562 235.93 538.874C236.731 538.124 236.983 537.144 235.549 536.862C232.548 536.259 229.457 536.947 226.522 537.482C223.229 538.091 219.967 538.791 216.733 539.584C215.26 539.98 213.764 540.287 212.253 540.503C210.736 540.717 209.19 540.618 207.712 540.21C207.23 540.058 206.704 539.787 206.676 539.359C206.648 538.93 207.051 538.66 207.465 538.496C213.508 536.084 219.925 534.551 226.388 533.142C230.773 532.184 235.236 531.598 239.654 530.848C243.681 530.167 247.925 530.009 251.414 527.439C252.109 526.988 252.648 526.332 252.96 525.562C253.111 525.165 253.148 524.733 253.066 524.316Z" fill="#5082F2"/>
<path opacity="0.3" d="M79.7799 501.497C78.1391 496.802 72.2927 488.489 71.0607 493.398C70.3999 496.154 79.7799 501.497 79.7799 501.497Z" fill="#5082F2"/>
<path opacity="0.3" d="M226.601 510.739C229.725 507.871 233.623 506.163 234.127 508.688C234.597 511.077 226.601 510.739 226.601 510.739Z" fill="#5082F2"/>
<path opacity="0.3" d="M98.3996 487.925C96.2604 486.798 94.5916 484.989 95.846 484.234C97.1004 483.479 98.3996 487.925 98.3996 487.925Z" fill="#5082F2"/>
</g>
<defs>
<clipPath id="clip0_15438_860">
<rect width="280" height="210" fill="white" transform="translate(20 342)"/>
</clipPath>
</defs>
</svg>
