<svg width="280" height="208" viewBox="0 0 280 208" fill="none" xmlns="http://www.w3.org/2000/svg">
<g clip-path="url(#clip0_12934_10082)">
<path d="M140 208C199.966 208 248.579 205.171 248.579 201.681C248.579 198.191 199.966 195.362 140 195.362C80.0341 195.362 31.4219 198.191 31.4219 201.681C31.4219 205.171 80.0341 208 140 208Z" fill="#1B1B21"/>
<path opacity="0.1" d="M76.8883 157.564C76.9555 157.062 77.2137 156.603 77.6096 156.285C78.0055 155.966 78.509 155.81 79.0163 155.851C83.8099 155.778 88.2955 159.155 92.4563 162.778C93.3803 163.576 94.3827 164.403 95.4187 163.565C95.7392 163.301 95.9732 162.947 96.0907 162.549C96.2699 161.899 96.2699 161.212 96.0907 160.562C95.9366 160.025 95.6799 159.523 95.3347 159.083C93.5259 156.71 91.3251 155.572 89.5387 153.121C88.5381 151.717 87.7091 150.199 87.0691 148.599C86.5091 147.193 85.3891 144.921 85.8371 143.017C86.3355 140.74 88.0435 140.935 89.0795 141.247C92.3555 142.224 95.4131 144.552 98.1907 147.449C101.153 150.531 103.836 154.243 106.507 157.933C107.515 159.334 108.579 160.774 109.867 161.282C111.155 161.79 112.784 160.97 113.328 158.949C113.871 156.928 113.232 154.606 113.098 152.596C112.918 150.198 113.035 147.787 113.445 145.417C113.627 144.165 114.051 142.959 114.694 141.867C116.139 139.757 118.278 140.499 119.678 142.096C120.747 143.431 121.573 144.943 122.12 146.562C123.69 151.035 124.633 155.703 124.92 160.434C125.132 163.364 125.58 166.418 126.79 168.69C128.744 172.363 132.39 172.073 135.218 170.147C140.14 166.797 143.937 159.228 144.951 150.765C145.281 148.008 145.365 145.027 146.373 142.716C147.252 140.717 149.509 139.366 150.612 141.521C151.057 142.598 151.181 143.78 150.971 144.926C150.773 146.061 150.494 147.18 150.136 148.276C149.576 150.173 149.016 153.729 150.528 154.84C150.754 154.977 151.006 155.063 151.269 155.091C151.531 155.12 151.796 155.092 152.046 155.008C156.996 153.981 161.6 149.336 164.624 142.855C165.719 140.416 166.556 137.87 167.121 135.258C167.485 133.661 167.636 131.947 168.04 130.362C168.298 129.114 168.821 127.936 169.574 126.907C171.5 124.607 175.947 125.69 176.199 130.619C176.35 133.471 175.588 136.263 175.308 139.054C175.135 140.795 176.216 140.784 177.022 140.728C180.886 140.338 184.302 136.452 187.332 132.411C190.932 127.604 194.92 121.364 199.836 121.179C200.956 121.14 202.821 121.285 203.493 123.01C203.805 124.067 203.805 125.191 203.493 126.248C202.496 130.368 199.573 132.495 197.333 134.532C191.018 140.437 185.463 147.101 180.796 154.371C180.085 155.488 179.352 157.33 180.029 158.424C180.159 158.632 180.348 158.797 180.573 158.896C180.798 158.996 181.047 159.026 181.289 158.982C183.602 158.804 185.769 156.973 187.88 155.454C189.992 153.936 192.388 152.607 194.6 153.752C195.282 154.16 195.876 154.698 196.348 155.336C196.82 155.974 197.161 156.699 197.35 157.469C197.745 158.819 197.809 160.244 197.535 161.623C196.723 165.413 193.212 167.116 191.28 168.986C188.619 171.544 186.184 174.325 184 177.298C181.984 180.05 180.08 183.064 178.064 185.766C170.784 195.44 160.704 196.875 151.744 197.997C141.994 199.214 132.222 198.555 122.528 197.276C115.478 196.339 108.528 194.34 101.646 191.968C99.2827 191.114 96.9363 190.181 94.6179 189.076C92.1259 187.893 88.4579 187.161 87.5003 182.5C87.2987 181.495 87.5339 180.68 88.2003 180.306C90.2667 179.134 93.2123 180.703 95.1555 181.736C97.8379 183.165 100.38 185.202 103.136 186.302C103.578 186.519 104.061 186.644 104.554 186.67C105.046 186.696 105.539 186.622 106.003 186.453C106.457 186.262 106.831 185.921 107.061 185.487C107.354 184.921 107.426 184.266 107.263 183.65C107.149 183.318 106.957 183.017 106.703 182.774C101.743 177.707 95.8183 173.68 89.2755 170.928C87.1755 170.03 85.0307 169.293 83.0091 168.02C81.3751 167.013 79.9649 165.683 78.8651 164.112C77.9243 162.611 76.4123 159.959 76.8883 157.564Z" fill="#5082F2"/>
<path opacity="0.1" d="M183.999 116.529C183.625 116.916 183.135 117.17 182.602 117.254C182.07 117.338 181.525 117.247 181.049 116.995C180.573 116.743 180.193 116.343 179.965 115.856C179.738 115.369 179.676 114.822 179.788 114.296C181.72 104.946 185.92 98.1469 190.915 101.675C194.645 104.304 188.798 111.555 183.999 116.529Z" fill="#5082F2"/>
<path opacity="0.3" d="M170.447 120.895C171.975 120.054 173.27 118.849 174.217 117.388C175.163 115.927 175.733 114.255 175.873 112.521L179.659 66.5515C179.855 64.1885 179.554 61.8106 178.773 59.5707C177.993 57.3307 176.752 55.2782 175.128 53.5449L163.464 41.0909C162.822 40.4022 162.331 39.5881 162.021 38.7002C161.712 37.8123 161.591 36.8699 161.666 35.9329L162.226 29.2007L132.036 26.7278L131.476 33.46C131.399 34.3966 131.127 35.3069 130.676 36.1326C130.226 36.9583 129.608 37.6812 128.861 38.2551L115.309 48.6548C113.425 50.1022 111.865 51.9258 110.729 54.0088C109.593 56.0919 108.906 58.3885 108.712 60.7516L104.921 106.721C104.778 108.453 105.066 110.193 105.761 111.786C106.456 113.38 107.535 114.777 108.903 115.854C107.375 116.694 106.08 117.899 105.134 119.36C104.188 120.821 103.621 122.494 103.482 124.227L98.6492 182.841C98.4215 185.627 99.3128 188.39 101.127 190.522C102.942 192.654 105.531 193.981 108.326 194.212L158.166 198.292C159.55 198.406 160.943 198.247 162.266 197.824C163.588 197.402 164.814 196.723 165.873 195.828C166.932 194.933 167.804 193.838 168.439 192.607C169.074 191.376 169.459 190.032 169.573 188.652L174.406 130.038C174.554 128.307 174.27 126.566 173.579 124.971C172.888 123.375 171.812 121.975 170.447 120.895Z" fill="#5082F2"/>
<path opacity="0.3" d="M132.045 26.738L131.617 31.9287L161.8 34.4023L162.228 29.2116L132.045 26.738Z" fill="#5082F2"/>
<path opacity="0.3" d="M174.849 54.7451L163.184 42.2799C163.184 42.2799 155.663 42.6037 161.504 51.7976C166.483 59.5737 175.157 58.3624 174.849 54.7451Z" fill="#1C1D26"/>
<path opacity="0.2" d="M98.6551 182.818C98.4274 185.605 99.3186 188.368 101.133 190.5C102.947 192.632 105.537 193.959 108.332 194.19L158.172 198.27C159.556 198.384 160.949 198.225 162.271 197.802C163.594 197.379 164.82 196.701 165.879 195.806C166.938 194.91 167.81 193.816 168.445 192.584C169.08 191.353 169.465 190.009 169.579 188.63L98.6551 182.818Z" fill="#5082F2"/>
<path opacity="0.3" d="M172.67 55.8224C173.973 57.2148 174.97 58.863 175.596 60.6615C176.223 62.46 176.466 64.3692 176.31 66.2667L172.525 112.242C172.426 113.424 172.036 114.563 171.39 115.559C170.743 116.554 169.859 117.374 168.818 117.947L164.41 120.381L168.358 123.502C169.293 124.235 170.03 125.188 170.505 126.275C170.98 127.362 171.177 128.55 171.08 129.731L166.247 188.345C166.092 190.244 165.186 192.005 163.73 193.24C162.274 194.474 160.386 195.083 158.48 194.932L108.64 190.851C107.694 190.777 106.771 190.517 105.925 190.087C105.08 189.656 104.327 189.064 103.711 188.344C103.095 187.624 102.627 186.791 102.334 185.89C102.041 184.99 101.929 184.041 102.004 183.098L106.837 124.484C106.933 123.302 107.322 122.161 107.968 121.165C108.614 120.169 109.497 119.347 110.538 118.773L114.946 116.339L111.026 113.219C110.092 112.485 109.354 111.532 108.879 110.445C108.404 109.358 108.207 108.171 108.304 106.989L112.095 61.0194C112.252 59.1217 112.805 57.2776 113.719 55.605C114.632 53.9325 115.885 52.4684 117.398 51.3063C121.878 48.4203 133.638 55.6047 147.409 56.7323C161.179 57.8599 169.792 54.3766 172.67 55.8224Z" fill="#5082F2"/>
<path opacity="0.2" d="M147.38 56.7379C133.615 55.6215 121.844 48.4204 117.364 51.3064C125.204 55.6047 134.164 58.2674 147.162 59.3337C160.159 60.3999 172.67 55.8224 172.67 55.8224C169.791 54.3766 161.145 57.8711 147.38 56.7379Z" fill="#5082F2"/>
<path opacity="0.2" d="M104.927 106.721C104.784 108.453 105.073 110.193 105.767 111.786C106.462 113.38 107.541 114.777 108.909 115.854L170.447 120.878C171.975 120.037 173.27 118.833 174.217 117.372C175.164 115.91 175.733 114.238 175.874 112.505L104.927 106.721Z" fill="#5082F2"/>
<path d="M162.859 20.9788L132.76 18.5044C131.5 18.4008 130.394 19.3356 130.29 20.5923L129.69 27.8917C129.587 29.1484 130.525 30.2512 131.786 30.3549L161.884 32.8292C163.145 32.9329 164.251 31.9981 164.354 30.7414L164.954 23.4419C165.058 22.1852 164.119 21.0824 162.859 20.9788Z" fill="#5082F2"/>
<path opacity="0.2" d="M133.313 29.2286C133.276 29.2258 133.241 29.2157 133.208 29.199C133.175 29.1823 133.145 29.1593 133.122 29.1313C133.098 29.1033 133.079 29.0708 133.068 29.0358C133.057 29.0008 133.053 28.9638 133.056 28.9272L133.761 20.0961C133.767 20.022 133.802 19.9534 133.859 19.9052C133.916 19.8571 133.989 19.8333 134.064 19.8393C134.138 19.8452 134.207 19.8803 134.255 19.9368C134.303 19.9933 134.327 20.0667 134.321 20.1407L133.593 28.9662C133.589 29.0373 133.558 29.1041 133.506 29.1529C133.453 29.2016 133.385 29.2287 133.313 29.2286Z" fill="#1C1D26"/>
<path opacity="0.2" d="M138.773 29.6752C138.736 29.6724 138.701 29.6624 138.668 29.6457C138.635 29.629 138.605 29.6059 138.581 29.5779C138.558 29.5499 138.539 29.5174 138.528 29.4824C138.517 29.4474 138.513 29.4105 138.516 29.3738L139.244 20.5483C139.251 20.4747 139.286 20.4068 139.343 20.3589C139.399 20.3109 139.472 20.2868 139.546 20.2915C139.583 20.2943 139.618 20.3043 139.651 20.3211C139.684 20.3379 139.712 20.361 139.736 20.3891C139.759 20.4172 139.777 20.4497 139.788 20.4847C139.798 20.5197 139.802 20.5565 139.798 20.5929L139.053 29.4184C139.046 29.4881 139.014 29.5527 138.962 29.6001C138.911 29.6474 138.843 29.6742 138.773 29.6752Z" fill="#1C1D26"/>
<path opacity="0.2" d="M144.228 30.1441C144.191 30.1412 144.156 30.1312 144.123 30.1145C144.09 30.0978 144.061 30.0748 144.037 30.0468C144.013 30.0187 143.994 29.9863 143.983 29.9512C143.972 29.9162 143.968 29.8793 143.971 29.8426L144.699 21.0171C144.707 20.9441 144.743 20.877 144.799 20.8293C144.855 20.7817 144.927 20.757 145.001 20.7603C145.038 20.7631 145.074 20.7732 145.107 20.7899C145.14 20.8066 145.169 20.8296 145.193 20.8576C145.217 20.8856 145.235 20.9181 145.246 20.9531C145.258 20.9882 145.262 21.0251 145.259 21.0617L144.531 29.8873C144.528 29.924 144.518 29.9597 144.501 29.9925C144.484 30.0253 144.461 30.0545 144.433 30.0784C144.405 30.1022 144.372 30.1203 144.337 30.1316C144.302 30.1429 144.265 30.1471 144.228 30.1441Z" fill="#1C1D26"/>
<path opacity="0.2" d="M149.688 30.5683C149.651 30.5655 149.616 30.5554 149.583 30.5387C149.55 30.522 149.52 30.499 149.497 30.471C149.473 30.443 149.454 30.4105 149.443 30.3755C149.432 30.3404 149.428 30.3035 149.431 30.2668L150.159 21.4413C150.166 21.3678 150.201 21.2999 150.258 21.2519C150.314 21.204 150.387 21.1798 150.461 21.1845C150.498 21.1873 150.533 21.1974 150.566 21.2142C150.599 21.2309 150.627 21.2541 150.651 21.2822C150.674 21.3103 150.692 21.3428 150.703 21.3778C150.713 21.4128 150.717 21.4496 150.713 21.486L149.985 30.3115C149.983 30.348 149.974 30.3836 149.957 30.4164C149.941 30.4491 149.919 30.4784 149.891 30.5023C149.863 30.5262 149.831 30.5444 149.796 30.5557C149.761 30.5671 149.725 30.5713 149.688 30.5683Z" fill="#1C1D26"/>
<path opacity="0.2" d="M155.12 31.0148C155.083 31.012 155.047 31.002 155.014 30.9853C154.981 30.9686 154.952 30.9456 154.928 30.9176C154.904 30.8895 154.886 30.8571 154.875 30.822C154.863 30.787 154.859 30.7501 154.862 30.7134L155.59 21.8879C155.6 21.8154 155.636 21.749 155.692 21.7016C155.748 21.6542 155.819 21.6291 155.893 21.6311C155.93 21.6339 155.965 21.644 155.998 21.6607C156.031 21.6774 156.06 21.7004 156.084 21.7284C156.108 21.7564 156.126 21.7889 156.138 21.8239C156.149 21.8589 156.153 21.8959 156.15 21.9325L155.422 30.7581C155.42 30.795 155.411 30.8312 155.394 30.8644C155.378 30.8975 155.355 30.927 155.326 30.951C155.298 30.975 155.265 30.9931 155.23 31.004C155.194 31.015 155.157 31.0187 155.12 31.0148Z" fill="#1C1D26"/>
<path opacity="0.2" d="M160.602 31.4614C160.566 31.4586 160.53 31.4486 160.497 31.4319C160.464 31.4152 160.435 31.3922 160.411 31.3641C160.387 31.3361 160.369 31.3037 160.357 31.2686C160.346 31.2336 160.342 31.1967 160.345 31.16L161.05 22.3289C161.057 22.2553 161.093 22.1874 161.149 22.1395C161.206 22.0916 161.279 22.0674 161.353 22.0721C161.426 22.0792 161.494 22.1148 161.541 22.1712C161.588 22.2277 161.611 22.3004 161.605 22.3735L160.882 31.2047C160.875 31.2743 160.843 31.3389 160.791 31.3863C160.74 31.4337 160.672 31.4604 160.602 31.4614Z" fill="#1C1D26"/>
<path opacity="0.2" d="M114.24 91.3645C113.389 86.6698 106.529 87.0047 106.137 91.7552L104.905 106.721C104.761 108.453 105.05 110.193 105.744 111.786C106.439 113.38 107.518 114.777 108.886 115.854C107.359 116.694 106.064 117.898 105.118 119.36C104.172 120.821 103.604 122.493 103.465 124.227L98.6326 182.841C98.4049 185.627 99.2962 188.39 101.111 190.522C102.925 192.654 105.514 193.981 108.309 194.212L121.189 195.267C122.608 195.383 124.035 195.172 125.359 194.65C126.684 194.129 127.87 193.312 128.827 192.261C129.784 191.21 130.485 189.954 130.878 188.589C131.27 187.225 131.343 185.789 131.09 184.393L114.24 91.3645Z" fill="#5082F2"/>
<path opacity="0.3" d="M163.799 168.115C163.711 169.191 163.304 170.216 162.63 171.062C161.957 171.907 161.047 172.535 160.015 172.865C158.984 173.195 157.878 173.213 156.837 172.916C155.795 172.62 154.865 172.022 154.165 171.199C153.464 170.375 153.024 169.363 152.9 168.291C152.776 167.218 152.974 166.133 153.469 165.173C153.964 164.212 154.733 163.42 155.68 162.895C156.627 162.371 157.708 162.138 158.787 162.226C160.235 162.345 161.576 163.032 162.516 164.137C163.455 165.241 163.917 166.672 163.799 168.115Z" fill="#5082F2"/>
<path opacity="0.3" d="M146.39 146.975C146.327 147.736 146.04 148.462 145.564 149.061C145.087 149.66 144.443 150.104 143.714 150.338C142.984 150.572 142.201 150.585 141.464 150.375C140.727 150.165 140.069 149.742 139.573 149.16C139.077 148.577 138.765 147.861 138.678 147.102C138.59 146.343 138.73 145.575 139.081 144.895C139.431 144.215 139.976 143.655 140.646 143.284C141.316 142.913 142.081 142.748 142.845 142.81C143.868 142.896 144.816 143.382 145.481 144.163C146.145 144.943 146.472 145.954 146.39 146.975Z" fill="#5082F2"/>
<path opacity="0.3" d="M130.188 99.9221C129.423 99.9576 128.664 99.7662 128.008 99.3721C127.352 98.978 126.828 98.3989 126.502 97.708C126.175 97.017 126.062 96.2452 126.176 95.49C126.289 94.7348 126.625 94.0302 127.14 93.4651C127.656 92.9 128.327 92.4998 129.071 92.3151C129.814 92.1304 130.596 92.1695 131.317 92.4274C132.038 92.6853 132.666 93.1504 133.122 93.764C133.578 94.3777 133.841 95.1122 133.879 95.875C133.903 96.3824 133.828 96.8897 133.656 97.3679C133.483 97.8461 133.218 98.2857 132.876 98.6616C132.533 99.0376 132.119 99.3424 131.658 99.5587C131.197 99.775 130.697 99.8985 130.188 99.9221Z" fill="#5082F2"/>
<path opacity="0.3" d="M140.756 76.8284C140.214 76.8554 139.675 76.7214 139.209 76.4432C138.743 76.1651 138.371 75.7553 138.138 75.2658C137.906 74.7764 137.825 74.2292 137.905 73.6937C137.985 73.1582 138.223 72.6583 138.588 72.2575C138.953 71.8567 139.429 71.573 139.956 71.4422C140.483 71.3114 141.037 71.3395 141.549 71.5229C142.06 71.7063 142.505 72.0368 142.827 72.4725C143.149 72.9081 143.335 73.4294 143.36 73.9703C143.394 74.6931 143.138 75.3998 142.65 75.9355C142.162 76.4712 141.481 76.7922 140.756 76.8284Z" fill="#5082F2"/>
<path opacity="0.3" d="M157.757 130.278C157.731 130.593 157.611 130.892 157.414 131.139C157.217 131.386 156.951 131.569 156.649 131.665C156.348 131.761 156.025 131.766 155.72 131.679C155.416 131.593 155.144 131.418 154.94 131.177C154.735 130.936 154.606 130.641 154.57 130.327C154.534 130.014 154.592 129.697 154.736 129.416C154.881 129.135 155.105 128.904 155.382 128.75C155.658 128.597 155.974 128.528 156.29 128.554C156.714 128.589 157.106 128.791 157.381 129.114C157.656 129.437 157.791 129.856 157.757 130.278Z" fill="#5082F2"/>
<path opacity="0.7" d="M128.75 173.954H128.481C128.052 173.925 127.633 173.811 127.249 173.619C126.864 173.427 126.522 173.162 126.241 172.837C125.964 172.514 125.755 172.14 125.626 171.735C125.496 171.331 125.448 170.905 125.485 170.482C125.537 169.856 125.771 169.26 126.157 168.764C126.544 168.269 127.067 167.897 127.663 167.693C128.258 167.489 128.9 167.462 129.511 167.616C130.121 167.77 130.673 168.098 131.1 168.559C131.527 169.02 131.809 169.596 131.914 170.215C132.018 170.834 131.939 171.469 131.687 172.044C131.435 172.619 131.02 173.109 130.493 173.453C129.967 173.797 129.351 173.981 128.722 173.982L128.75 173.954ZM128.75 167.903C128.113 167.906 127.496 168.125 127.001 168.525C126.506 168.925 126.163 169.481 126.027 170.101C125.892 170.721 125.973 171.369 126.257 171.938C126.541 172.506 127.01 172.961 127.588 173.227C128.166 173.494 128.818 173.556 129.437 173.403C130.055 173.25 130.602 172.892 130.989 172.388C131.375 171.883 131.578 171.262 131.563 170.627C131.547 169.993 131.316 169.382 130.906 168.896C130.666 168.614 130.374 168.382 130.044 168.213C129.714 168.045 129.354 167.943 128.985 167.914L128.75 167.903Z" fill="#1C1D26"/>
<path opacity="0.7" d="M163.386 108.63H163.19C162.568 108.579 161.992 108.284 161.588 107.81C161.183 107.336 160.984 106.722 161.034 106.102C161.085 105.481 161.382 104.905 161.859 104.502C162.335 104.099 162.953 103.902 163.576 103.952C164.198 104.004 164.774 104.299 165.179 104.773C165.583 105.247 165.782 105.861 165.732 106.481C165.679 107.102 165.383 107.677 164.909 108.083C164.482 108.44 163.943 108.634 163.386 108.63ZM161.454 106.124C161.426 106.504 161.511 106.883 161.699 107.214C161.887 107.546 162.168 107.814 162.509 107.987C162.849 108.159 163.233 108.227 163.612 108.183C163.992 108.139 164.349 107.984 164.64 107.737C164.835 107.573 164.994 107.372 165.111 107.147C165.227 106.921 165.298 106.674 165.319 106.421C165.34 106.168 165.31 105.914 165.232 105.672C165.154 105.431 165.029 105.207 164.864 105.013C164.693 104.825 164.486 104.673 164.255 104.566C164.025 104.458 163.775 104.398 163.52 104.388C163.267 104.366 163.012 104.395 162.769 104.472C162.527 104.549 162.302 104.674 162.108 104.837C161.914 105.001 161.755 105.202 161.638 105.427C161.522 105.653 161.452 105.899 161.431 106.152L161.454 106.124Z" fill="#1C1D26"/>
<path opacity="0.7" d="M127.204 59.138H127.12C126.831 59.1096 126.564 58.9704 126.376 58.7496C126.188 58.5288 126.093 58.2437 126.112 57.9547C126.126 57.7375 126.203 57.5293 126.335 57.3555C126.466 57.1817 126.646 57.0499 126.851 56.9765C127.057 56.903 127.279 56.891 127.491 56.9419C127.704 56.9928 127.896 57.1045 128.046 57.2631C128.195 57.4217 128.295 57.6204 128.333 57.8348C128.37 58.0491 128.344 58.2697 128.258 58.4695C128.171 58.6693 128.028 58.8396 127.846 58.9593C127.663 59.0791 127.45 59.1431 127.232 59.1436L127.204 59.138ZM126.526 57.9882C126.516 58.1211 126.545 58.2542 126.61 58.3707C126.675 58.4872 126.774 58.5818 126.893 58.6426C127.012 58.7034 127.146 58.7277 127.279 58.7124C127.412 58.6972 127.538 58.643 127.64 58.5568C127.742 58.4706 127.816 58.3561 127.853 58.2279C127.89 58.0997 127.888 57.9635 127.847 57.8364C127.807 57.7093 127.729 57.5971 127.625 57.5138C127.52 57.4306 127.393 57.38 127.26 57.3686C127.171 57.3602 127.081 57.3696 126.995 57.3964C126.91 57.4231 126.83 57.4667 126.762 57.5244C126.694 57.5821 126.638 57.6529 126.597 57.7325C126.557 57.8122 126.532 57.8991 126.526 57.9882Z" fill="#1C1D26"/>
<path opacity="0.7" d="M151.967 88.0487H151.731C151.363 88.0199 151.003 87.9186 150.674 87.7506C150.345 87.5826 150.053 87.3512 149.814 87.0699C149.575 86.7886 149.394 86.4629 149.282 86.1116C149.17 85.7603 149.129 85.3904 149.161 85.0231C149.209 84.4841 149.413 83.9706 149.748 83.545C150.083 83.1194 150.535 82.8002 151.049 82.6261C151.563 82.452 152.117 82.4306 152.643 82.5644C153.169 82.6983 153.644 82.9816 154.012 83.38C154.379 83.7784 154.622 84.2746 154.712 84.8083C154.801 85.342 154.733 85.8901 154.516 86.386C154.299 86.8819 153.942 87.3041 153.488 87.6013C153.034 87.8985 152.504 88.0578 151.961 88.0599L151.967 88.0487ZM151.967 82.8572C151.403 82.8548 150.857 83.0527 150.427 83.4155C149.943 83.8232 149.641 84.4052 149.587 85.0343C149.555 85.4246 149.62 85.8166 149.777 86.1758C149.933 86.5349 150.176 86.8501 150.484 87.0934C150.792 87.3367 151.155 87.5008 151.541 87.5709C151.928 87.6411 152.326 87.6153 152.7 87.4958C153.074 87.3763 153.413 87.1668 153.686 86.8858C153.96 86.6047 154.16 86.2609 154.268 85.8845C154.377 85.5082 154.391 85.111 154.309 84.7281C154.227 84.3452 154.051 83.9883 153.798 83.689C153.595 83.4495 153.347 83.2526 153.067 83.1098C152.787 82.967 152.482 82.8812 152.168 82.8572H151.967Z" fill="#1C1D26"/>
<path opacity="0.3" d="M174.938 112.454L178.555 68.6169C178.578 68.3368 178.546 68.055 178.459 67.7875C178.373 67.52 178.235 67.2721 178.052 67.058C177.869 66.8439 177.646 66.6677 177.395 66.5396C177.145 66.4115 176.871 66.334 176.59 66.3114C176.309 66.2877 176.027 66.3195 175.758 66.405C175.49 66.4905 175.241 66.6279 175.026 66.8094C174.811 66.991 174.635 67.213 174.506 67.4628C174.377 67.7127 174.3 67.9853 174.277 68.2652L170.659 112.103C170.542 113.56 170.063 114.965 169.267 116.193C168.47 117.42 167.38 118.432 166.095 119.136L163.895 120.359L165.871 121.916C167.023 122.821 167.933 123.996 168.519 125.336C169.106 126.676 169.35 128.14 169.231 129.597L164.399 188.211C164.107 191.728 161.89 193.441 158.771 194.809C158.573 194.898 158.41 195.049 158.307 195.239C158.205 195.43 158.169 195.649 158.205 195.862C158.241 196.075 158.347 196.271 158.506 196.417C158.665 196.564 158.868 196.654 159.084 196.674C161.435 196.865 163.766 196.118 165.565 194.597C167.364 193.076 168.483 190.906 168.677 188.563L173.51 129.949C173.63 128.492 173.385 127.027 172.799 125.687C172.213 124.347 171.303 123.172 170.15 122.268L168.173 120.705L170.374 119.488C171.658 118.782 172.747 117.77 173.543 116.543C174.339 115.316 174.819 113.911 174.938 112.454Z" fill="#1C1D26"/>
<path opacity="0.3" d="M233.067 180.58C232.462 177.845 224.913 179.464 223.351 179.715C220.315 180.264 217.343 181.119 214.48 182.266C211.328 183.5 207.665 185.314 204.4 183.438C202.513 182.355 209.065 180.217 209.659 179.999C212.443 179.024 215.132 177.795 217.689 176.326C218.725 175.712 220.73 174.244 219.868 172.754C219.151 171.52 216.58 171.637 215.018 171.827C210.284 172.405 205.639 173.566 201.192 175.282C196.866 176.996 192.63 178.928 188.502 181.071C186.903 181.971 185.163 182.595 183.356 182.919C181.384 183.198 178.971 182.779 178.192 181.691C177.414 180.602 178.416 179.33 178.646 178.235C178.971 176.927 178.834 175.548 178.26 174.328C177.878 173.51 177.239 172.84 176.44 172.419C174.306 171.302 171.08 171.715 168.936 172.597C167.546 173.184 166.276 174.02 165.189 175.065C163 177.096 161.465 179.728 160.776 182.629C160.603 183.537 160.252 184.403 159.742 185.176C159.233 185.949 158.576 186.614 157.808 187.134C154.807 189.149 149.308 189.032 145.102 188.021C137.76 186.285 132.16 182.227 130.811 177.644C130.156 175.461 129.836 173.178 126.891 172.324C124.987 171.766 121 172.156 121.851 174.557C122.16 175.215 122.563 175.824 123.049 176.365C123.828 177.387 124.656 179.313 122.344 179.932C121.595 180.091 120.825 180.129 120.064 180.044C112.628 179.547 105.784 177.074 101.349 173.591C99.903 172.459 98.677 171.072 97.7316 169.499C97.2052 168.634 97.0148 167.702 96.438 166.848C95.8868 166.026 95.1089 165.38 94.198 164.989C91.342 163.766 84.6332 164.403 84.1628 167.082C83.9108 168.534 84.818 170.108 85.2828 171.487C85.3662 171.66 85.386 171.858 85.3388 172.045C85.2044 172.396 84.6724 172.497 84.2188 172.525C78.2212 172.921 72.4028 170.599 67.3684 168.176C62.0372 165.608 56.1684 162.265 48.7596 162.226C47.2276 162.156 45.6943 162.331 44.218 162.745C43.8442 162.844 43.4965 163.023 43.1988 163.269C43.0177 163.457 42.8975 163.695 42.8535 163.952C42.8096 164.209 42.844 164.473 42.9524 164.71C43.1928 165.201 43.5505 165.627 43.994 165.949C46.234 167.769 49.37 168.506 52.2316 169.443C60.7218 172.187 68.9311 175.729 76.7484 180.022C77.538 180.463 78.938 181.484 77.8292 182.255C76.7204 183.025 74.4692 182.528 73.142 182.311C70.734 181.92 68.4212 181.295 66.0748 180.708C62.9724 179.927 59.3548 179.218 55.9948 179.865C54.2196 180.206 52.6348 180.932 51.8004 181.914C51.5128 182.202 51.3234 182.572 51.2591 182.973C51.1947 183.374 51.2587 183.785 51.442 184.147C52.5956 186.196 57.854 187.078 60.7268 188.055C64.405 189.306 68.0016 190.785 71.4956 192.481C74.4804 193.955 77.2524 195.568 80.2764 197.014C91.0788 202.178 106.165 202.842 119.656 203.344C134.3 203.903 149.011 203.428 163.616 202.619C174.256 202.027 184.7 200.86 195.127 199.487C198.123 199.096 201.102 198.616 204.087 198.209C207.117 197.863 210.113 197.271 213.047 196.439C214.101 196.171 215.084 195.68 215.931 194.999C216.732 194.257 216.984 193.285 215.55 193.006C212.548 192.409 209.457 193.09 206.523 193.62C203.23 194.223 199.967 194.917 196.734 195.702C195.26 196.094 193.764 196.398 192.254 196.612C190.736 196.825 189.191 196.726 187.712 196.322C187.231 196.171 186.704 195.903 186.676 195.479C186.648 195.055 187.052 194.787 187.466 194.625C193.508 192.236 199.926 190.717 206.388 189.322C210.773 188.373 215.236 187.792 219.655 187.05C223.681 186.374 227.926 186.218 231.415 183.673C232.109 183.226 232.649 182.577 232.96 181.814C233.112 181.421 233.149 180.993 233.067 180.58Z" fill="#5082F2"/>
<path opacity="0.3" d="M59.7799 157.978C58.1391 153.328 52.2927 145.094 51.0607 149.956C50.3999 152.686 59.7799 157.978 59.7799 157.978Z" fill="#5082F2"/>
<path opacity="0.3" d="M206.602 167.132C209.726 164.291 213.624 162.6 214.128 165.1C214.598 167.467 206.602 167.132 206.602 167.132Z" fill="#5082F2"/>
<path opacity="0.3" d="M78.4006 144.535C76.2614 143.419 74.5926 141.627 75.847 140.879C77.1014 140.131 78.4006 144.535 78.4006 144.535Z" fill="#5082F2"/>
</g>
<defs>
<clipPath id="clip0_12934_10082">
<rect width="280" height="208" fill="white"/>
</clipPath>
</defs>
</svg>
