<svg width="822" height="1323" viewBox="0 0 822 1323" fill="none" xmlns="http://www.w3.org/2000/svg">
<path opacity="0.7" d="M65.1992 664.836H63.6243C61.1117 664.663 58.6582 663.994 56.4055 662.868C54.1528 661.741 52.1457 660.18 50.5 658.273C48.8811 656.373 47.6559 654.171 46.8955 651.793C46.1351 649.416 45.8547 646.911 46.0706 644.425C46.3764 640.748 47.7459 637.24 50.0118 634.329C52.2777 631.418 55.3421 629.229 58.8308 628.031C62.3195 626.832 66.0817 626.675 69.658 627.579C73.2344 628.483 76.4702 630.409 78.9705 633.122C81.4707 635.835 83.1273 639.216 83.7379 642.855C84.3485 646.493 83.8868 650.231 82.4091 653.611C80.9314 656.992 78.5016 659.869 75.4164 661.891C72.3312 663.913 68.724 664.994 65.0352 665L65.1992 664.836ZM65.1992 629.264C61.4676 629.283 57.8538 630.573 54.9542 632.922C52.0546 635.272 50.0424 638.539 49.2497 642.186C48.4571 645.833 48.9312 649.642 50.594 652.983C52.2568 656.324 55.0089 658.998 58.396 660.565C61.7832 662.131 65.6031 662.495 69.2252 661.598C72.8474 660.7 76.0555 658.595 78.32 655.628C80.5845 652.662 81.7702 649.012 81.6814 645.281C81.5925 641.55 80.2345 637.961 77.8313 635.105C76.431 633.446 74.7151 632.081 72.7833 631.089C70.8514 630.098 68.742 629.5 66.5773 629.33L65.1992 629.264Z" fill="#C6D7FF"/>
<path d="M45.9539 464.149C45.7267 466.908 44.6864 469.538 42.9646 471.706C41.2429 473.874 38.9169 475.483 36.2807 476.33C33.6446 477.176 30.8166 477.222 28.1545 476.461C25.4923 475.701 23.1154 474.168 21.3242 472.057C19.5331 469.946 18.4082 467.351 18.0918 464.6C17.7753 461.85 18.2815 459.067 19.5463 456.604C20.8111 454.142 22.7778 452.109 25.1977 450.764C27.6176 449.419 30.382 448.821 33.1415 449.047C36.8422 449.353 40.2701 451.115 42.6723 453.947C45.0746 456.779 46.2548 460.448 45.9539 464.149Z" fill="#C6D7FF"/>
<path d="M49.9703 154.739C49.8243 156.512 49.1556 158.203 48.0487 159.597C46.9418 160.991 45.4466 162.025 43.7519 162.569C42.0572 163.113 40.2393 163.143 38.5279 162.654C36.8165 162.165 35.2884 161.179 34.137 159.822C32.9856 158.465 32.2624 156.797 32.059 155.029C31.8556 153.261 32.1809 151.472 32.994 149.889C33.8071 148.305 35.0714 146.999 36.6271 146.134C38.1827 145.269 39.9599 144.885 41.7338 145.03C44.1129 145.227 46.3165 146.36 47.8608 148.18C49.4051 150.001 50.1638 152.359 49.9703 154.739Z" fill="#ECF2FF"/>
<path opacity="0.7" d="M65.1573 308.87H63.9139C61.9303 308.734 59.9933 308.206 58.2149 307.317C56.4365 306.427 54.8519 305.194 53.5526 303.689C52.2746 302.189 51.3073 300.451 50.707 298.574C50.1067 296.697 49.8853 294.72 50.0557 292.756C50.2972 289.854 51.3783 287.084 53.1672 284.786C54.9561 282.488 57.3753 280.76 60.1296 279.814C62.8838 278.867 65.854 278.744 68.6774 279.457C71.5008 280.171 74.0554 281.692 76.0293 283.833C78.0032 285.975 79.311 288.645 79.7931 291.517C80.2752 294.389 79.9106 297.34 78.744 300.009C77.5774 302.678 75.6592 304.949 73.2235 306.545C70.7878 308.142 67.94 308.995 65.0278 309L65.1573 308.87ZM65.1573 280.788C62.2113 280.802 59.3583 281.821 57.0691 283.676C54.7799 285.53 53.1914 288.11 52.5656 290.989C51.9398 293.868 52.3141 296.875 53.6269 299.513C54.9396 302.15 57.1123 304.262 59.7863 305.498C62.4604 306.735 65.4761 307.023 68.3357 306.314C71.1953 305.606 73.728 303.943 75.5158 301.601C77.3036 299.259 78.2396 296.378 78.1695 293.432C78.0994 290.487 77.0272 287.653 75.13 285.399C74.0244 284.089 72.6698 283.011 71.1447 282.228C69.6195 281.446 67.9542 280.973 66.2452 280.839L65.1573 280.788Z" fill="#9EBBFF"/>
<path d="M415.954 141.149C415.727 143.908 414.686 146.538 412.965 148.706C411.243 150.874 408.917 152.483 406.281 153.33C403.645 154.176 400.817 154.222 398.154 153.461C395.492 152.701 393.115 151.168 391.324 149.057C389.533 146.946 388.408 144.351 388.092 141.6C387.775 138.85 388.281 136.067 389.546 133.604C390.811 131.142 392.778 129.109 395.198 127.764C397.618 126.419 400.382 125.821 403.141 126.047C406.842 126.353 410.27 128.115 412.672 130.947C415.075 133.779 416.255 137.448 415.954 141.149Z" fill="#ECF2FF"/>
<path opacity="0.7" d="M626.262 49.784H624.19C620.884 49.5569 617.655 48.6769 614.691 47.1946C611.727 45.7124 609.086 43.6574 606.921 41.1484C604.791 38.649 603.179 35.7511 602.178 32.623C601.178 29.495 600.809 26.1992 601.093 22.9274C601.495 18.0897 603.297 13.4738 606.279 9.64325C609.26 5.81266 613.292 2.93312 617.883 1.35606C622.473 -0.221009 627.423 -0.427301 632.129 0.762309C636.835 1.95192 641.092 4.48597 644.382 8.05517C647.672 11.6244 649.852 16.0742 650.655 20.8616C651.459 25.649 650.851 30.5669 648.907 35.0148C646.962 39.4626 643.765 43.2481 639.706 45.9091C635.646 48.5701 630.9 49.9917 626.046 50L626.262 49.784ZM626.262 2.97918C621.352 3.00356 616.597 4.70145 612.782 7.79256C608.967 10.8837 606.319 15.1833 605.276 19.9819C604.233 24.7806 604.857 29.7915 607.045 34.1878C609.233 38.584 612.854 42.103 617.311 44.1638C621.767 46.2247 626.793 46.7042 631.56 45.5234C636.326 44.3427 640.547 41.5721 643.526 37.669C646.506 33.7658 648.066 28.9633 647.949 24.054C647.832 19.1446 646.045 14.4217 642.883 10.6648C641.041 8.4811 638.783 6.68489 636.241 5.3804C633.699 4.07591 630.924 3.28905 628.075 3.06549L626.262 2.97918Z" fill="#C6D7FF"/>
<path opacity="0.7" d="M216.199 727.836H214.624C212.112 727.663 209.658 726.994 207.406 725.868C205.153 724.741 203.146 723.18 201.5 721.273C199.881 719.373 198.656 717.171 197.896 714.793C197.135 712.416 196.855 709.911 197.071 707.425C197.376 703.748 198.746 700.24 201.012 697.329C203.278 694.418 206.342 692.229 209.831 691.031C213.32 689.832 217.082 689.675 220.658 690.579C224.234 691.483 227.47 693.409 229.97 696.122C232.471 698.835 234.127 702.216 234.738 705.855C235.349 709.493 234.887 713.231 233.409 716.611C231.931 719.992 229.502 722.869 226.416 724.891C223.331 726.913 219.724 727.994 216.035 728L216.199 727.836ZM216.199 692.264C212.468 692.283 208.854 693.573 205.954 695.922C203.055 698.272 201.042 701.539 200.25 705.186C199.457 708.833 199.931 712.642 201.594 715.983C203.257 719.324 206.009 721.998 209.396 723.565C212.783 725.131 216.603 725.495 220.225 724.598C223.847 723.7 227.055 721.595 229.32 718.628C231.585 715.662 232.77 712.012 232.681 708.281C232.593 704.55 231.234 700.961 228.831 698.105C227.431 696.446 225.715 695.081 223.783 694.089C221.851 693.098 219.742 692.5 217.577 692.33L216.199 692.264Z" fill="#9EBBFF"/>
<path d="M650.954 260.149C650.727 262.908 649.686 265.538 647.965 267.706C646.243 269.874 643.917 271.483 641.281 272.33C638.645 273.176 635.817 273.222 633.154 272.461C630.492 271.701 628.115 270.168 626.324 268.057C624.533 265.946 623.408 263.351 623.092 260.6C622.775 257.85 623.281 255.067 624.546 252.604C625.811 250.142 627.778 248.109 630.198 246.764C632.618 245.419 635.382 244.821 638.141 245.047C641.842 245.353 645.27 247.115 647.672 249.947C650.075 252.779 651.255 256.448 650.954 260.149Z" fill="#C6D7FF"/>
<path opacity="0.7" d="M800.231 184.81H798.407C795.498 184.61 792.657 183.836 790.048 182.531C787.44 181.227 785.116 179.419 783.211 177.211C781.336 175.011 779.917 172.461 779.037 169.708C778.156 166.956 777.832 164.055 778.082 161.176C778.436 156.919 780.022 152.857 782.645 149.486C785.269 146.115 788.817 143.581 792.857 142.193C796.896 140.806 801.252 140.624 805.394 141.671C809.535 142.718 813.281 144.948 816.176 148.089C819.071 151.229 820.989 155.145 821.697 159.358C822.404 163.571 821.869 167.899 820.158 171.813C818.447 175.727 815.633 179.058 812.061 181.4C808.489 183.742 804.312 184.993 800.041 185L800.231 184.81ZM800.231 143.622C795.91 143.643 791.725 145.137 788.368 147.857C785.011 150.578 782.681 154.361 781.763 158.584C780.845 162.807 781.394 167.217 783.319 171.085C785.245 174.954 788.431 178.051 792.353 179.864C796.275 181.678 800.698 182.1 804.892 181.061C809.086 180.022 812.801 177.583 815.423 174.149C818.045 170.714 819.418 166.488 819.315 162.168C819.212 157.847 817.64 153.691 814.857 150.385C813.236 148.463 811.249 146.883 809.012 145.735C806.775 144.587 804.333 143.894 801.826 143.698L800.231 143.622Z" fill="#9EBBFF"/>
<path d="M520.954 666.149C520.727 668.908 519.686 671.538 517.965 673.706C516.243 675.874 513.917 677.483 511.281 678.33C508.645 679.176 505.817 679.222 503.154 678.461C500.492 677.701 498.115 676.168 496.324 674.057C494.533 671.946 493.408 669.351 493.092 666.6C492.775 663.85 493.281 661.067 494.546 658.604C495.811 656.142 497.778 654.109 500.198 652.764C502.618 651.419 505.382 650.821 508.141 651.047C511.842 651.353 515.27 653.115 517.672 655.947C520.075 658.779 521.255 662.448 520.954 666.149Z" fill="#C6D7FF"/>
<path d="M402 402C512.937 402 602.87 396.75 602.87 390.273C602.87 383.797 512.937 378.546 402 378.546C291.062 378.546 201.13 383.797 201.13 390.273C201.13 396.75 291.062 402 402 402Z" fill="#F5F5F5"/>
<path opacity="0.1" d="M285.243 308.403C285.367 307.47 285.845 306.62 286.577 306.028C287.31 305.437 288.241 305.148 289.18 305.223C298.048 305.088 306.346 311.356 314.044 318.079C315.753 319.56 317.607 321.093 319.524 319.54C320.117 319.049 320.55 318.392 320.767 317.654C321.099 316.447 321.099 315.173 320.767 313.966C320.482 312.97 320.007 312.037 319.369 311.221C316.022 306.818 311.951 304.705 308.646 300.157C306.795 297.552 305.261 294.735 304.077 291.766C303.041 289.156 300.969 284.939 301.798 281.407C302.72 277.18 305.88 277.543 307.797 278.123C313.857 279.936 319.514 284.256 324.652 289.632C330.133 295.35 335.095 302.239 340.037 309.087C341.902 311.687 343.87 314.36 346.253 315.303C348.636 316.245 351.65 314.722 352.655 310.972C353.66 307.222 352.479 302.913 352.231 299.183C351.898 294.733 352.114 290.259 352.873 285.861C353.21 283.536 353.994 281.299 355.183 279.273C357.856 275.357 361.814 276.735 364.404 279.697C366.38 282.176 367.909 284.98 368.921 287.985C371.827 296.286 373.57 304.949 374.101 313.728C374.494 319.167 375.323 324.833 377.561 329.049C381.176 335.866 387.921 335.327 393.153 331.753C402.259 325.538 409.283 311.49 411.158 295.786C411.769 290.668 411.925 285.136 413.79 280.847C415.416 277.139 419.591 274.632 421.632 278.63C422.454 280.63 422.684 282.823 422.295 284.95C421.93 287.056 421.414 289.133 420.752 291.165C419.716 294.687 418.68 301.286 421.477 303.348C421.894 303.601 422.361 303.76 422.846 303.814C423.331 303.868 423.822 303.815 424.284 303.659C433.443 301.753 441.959 293.134 447.553 281.106C449.58 276.58 451.128 271.855 452.173 267.007C452.847 264.044 453.127 260.864 453.873 257.922C454.351 255.607 455.318 253.42 456.711 251.51C460.275 247.242 468.501 249.251 468.967 258.399C469.247 263.692 467.838 268.872 467.32 274.052C466.999 277.284 468.998 277.263 470.49 277.159C477.638 276.434 483.958 269.224 489.563 261.724C496.224 252.805 503.601 241.223 512.697 240.881C514.769 240.808 518.218 241.078 519.462 244.279C520.038 246.24 520.038 248.326 519.462 250.287C517.618 257.932 512.21 261.879 508.066 265.661C496.382 276.618 486.106 288.986 477.473 302.478C476.157 304.55 474.8 307.968 476.053 309.999C476.293 310.385 476.644 310.69 477.059 310.875C477.475 311.06 477.937 311.115 478.384 311.034C482.663 310.703 486.672 307.305 490.578 304.487C494.484 301.67 498.918 299.204 503.01 301.328C504.272 302.085 505.371 303.084 506.244 304.268C507.117 305.453 507.747 306.798 508.097 308.227C508.828 310.731 508.945 313.375 508.439 315.934C506.936 322.968 500.441 326.128 496.867 329.598C491.945 334.346 487.439 339.507 483.399 345.024C479.669 350.131 476.147 355.725 472.417 360.739C458.949 378.691 440.301 381.354 423.725 383.436C405.688 385.694 387.61 384.472 369.677 382.1C356.634 380.359 343.777 376.651 331.044 372.248C326.672 370.663 322.332 368.933 318.043 366.882C313.432 364.686 306.647 363.329 304.875 354.678C304.502 352.814 304.937 351.301 306.17 350.607C309.993 348.432 315.442 351.343 319.037 353.259C324 355.911 328.703 359.692 333.8 361.733C334.619 362.136 335.512 362.368 336.424 362.416C337.335 362.464 338.247 362.327 339.104 362.013C339.945 361.66 340.637 361.027 341.062 360.221C341.604 359.17 341.737 357.956 341.435 356.812C341.225 356.195 340.87 355.637 340.399 355.186C331.225 345.784 320.263 338.31 308.159 333.204C304.274 331.536 300.306 330.168 296.566 327.806C293.543 325.937 290.934 323.469 288.9 320.555C287.159 317.768 284.362 312.847 285.243 308.403Z" fill="#407BFF"/>
<path opacity="0.1" d="M483.399 232.251C482.706 232.969 481.799 233.441 480.815 233.597C479.83 233.753 478.821 233.584 477.941 233.116C477.061 232.648 476.357 231.906 475.936 231.002C475.515 230.099 475.4 229.083 475.608 228.108C479.182 210.756 486.952 198.138 496.193 204.685C503.093 209.564 492.277 223.021 483.399 232.251Z" fill="#407BFF"/>
<path opacity="0.3" d="M458.327 240.353C461.154 238.793 463.55 236.557 465.301 233.846C467.053 231.134 468.106 228.031 468.366 224.814L475.369 139.504C475.733 135.119 475.175 130.706 473.731 126.549C472.288 122.393 469.991 118.584 466.988 115.367L445.408 92.2552C444.221 90.9772 443.312 89.4664 442.74 87.8186C442.167 86.1708 441.943 84.422 442.083 82.6832L443.119 70.1898L387.268 65.6006L386.232 78.094C386.089 79.8322 385.585 81.5214 384.752 83.0537C383.919 84.586 382.775 85.9276 381.394 86.9927L356.323 106.292C352.837 108.978 349.952 112.362 347.85 116.228C345.748 120.094 344.478 124.356 344.119 128.741L337.105 214.05C336.84 217.263 337.373 220.492 338.659 223.449C339.944 226.406 341.941 229 344.471 230.998C341.645 232.557 339.249 234.793 337.499 237.504C335.749 240.216 334.699 243.32 334.442 246.537L325.502 355.31C325.08 360.482 326.729 365.609 330.086 369.565C333.443 373.522 338.233 375.985 343.404 376.412L435.608 383.985C438.168 384.196 440.745 383.901 443.192 383.117C445.638 382.332 447.906 381.073 449.866 379.411C451.826 377.75 453.439 375.719 454.613 373.434C455.788 371.149 456.501 368.655 456.711 366.094L465.652 257.321C465.925 254.108 465.4 250.877 464.122 247.917C462.844 244.956 460.853 242.357 458.327 240.353Z" fill="#407BFF"/>
<path opacity="0.3" d="M387.284 65.6196L386.492 75.2524L442.33 79.8429L443.122 70.2101L387.284 65.6196Z" fill="#407BFF"/>
<path opacity="0.3" d="M466.47 117.594L444.89 94.4618C444.89 94.4618 430.977 95.0626 441.782 112.124C450.992 126.555 467.04 124.307 466.47 117.594Z" fill="white"/>
<path opacity="0.2" d="M325.512 355.269C325.091 360.44 326.74 365.567 330.096 369.524C333.453 373.481 338.243 375.943 343.414 376.371L435.618 383.944C438.179 384.155 440.756 383.86 443.202 383.075C445.649 382.29 447.916 381.031 449.876 379.37C451.836 377.709 453.449 375.677 454.624 373.392C455.798 371.107 456.511 368.613 456.721 366.053L325.512 355.269Z" fill="#407BFF"/>
<path opacity="0.3" d="M462.44 119.594C464.85 122.178 466.694 125.236 467.853 128.574C469.013 131.912 469.463 135.454 469.174 138.976L462.171 224.296C461.989 226.489 461.267 228.603 460.071 230.45C458.874 232.297 457.24 233.82 455.313 234.883L447.159 239.4L454.463 245.19C456.191 246.552 457.555 248.321 458.434 250.338C459.312 252.355 459.678 254.559 459.498 256.751L450.557 365.525C450.269 369.05 448.595 372.316 445.901 374.608C443.207 376.9 439.714 378.029 436.188 377.749L343.984 370.176C342.233 370.037 340.527 369.555 338.962 368.757C337.397 367.959 336.005 366.86 334.865 365.524C333.725 364.188 332.86 362.64 332.318 360.969C331.776 359.299 331.569 357.538 331.707 355.787L340.648 247.014C340.827 244.819 341.545 242.703 342.74 240.854C343.935 239.005 345.569 237.48 347.496 236.416L355.649 231.899L348.397 226.108C346.669 224.746 345.305 222.978 344.427 220.961C343.548 218.944 343.182 216.74 343.362 214.547L350.376 129.238C350.667 125.716 351.69 122.294 353.379 119.19C355.069 116.086 357.387 113.369 360.187 111.213C368.475 105.857 390.231 119.19 415.706 121.282C441.181 123.375 457.115 116.91 462.44 119.594Z" fill="#407BFF"/>
<path opacity="0.2" d="M415.654 121.292C390.189 119.221 368.413 105.857 360.125 111.213C374.629 119.19 391.205 124.131 415.25 126.11C439.296 128.088 462.44 119.594 462.44 119.594C457.115 116.91 441.119 123.395 415.654 121.292Z" fill="#407BFF"/>
<path opacity="0.2" d="M337.115 214.05C336.85 217.263 337.384 220.492 338.669 223.449C339.954 226.406 341.951 229 344.481 230.998L458.327 240.321C461.154 238.762 463.55 236.526 465.301 233.815C467.053 231.103 468.106 228 468.366 224.782L337.115 214.05Z" fill="#407BFF"/>
<path d="M444.29 54.9318L388.607 50.34C386.275 50.1477 384.23 51.8824 384.038 54.2146L382.928 67.7607C382.737 70.0929 384.473 72.1394 386.805 72.3317L442.487 76.9235C444.82 77.1159 446.865 75.3812 447.056 73.049L448.167 59.5029C448.358 57.1707 446.622 55.1242 444.29 54.9318Z" fill="#407BFF"/>
<path opacity="0.2" d="M389.63 70.2416C389.562 70.2364 389.496 70.2177 389.435 70.1867C389.374 70.1557 389.32 70.113 389.276 70.061C389.231 70.009 389.198 69.9488 389.177 69.8838C389.156 69.8188 389.148 69.7502 389.154 69.6822L390.459 53.2937C390.47 53.1563 390.535 53.0289 390.64 52.9396C390.745 52.8502 390.881 52.8062 391.018 52.8171C391.156 52.8281 391.283 52.8932 391.373 52.9982C391.462 53.1031 391.506 53.2392 391.495 53.3766L390.148 69.7547C390.14 69.8866 390.082 70.0105 389.986 70.101C389.89 70.1915 389.762 70.2418 389.63 70.2416Z" fill="white"/>
<path opacity="0.2" d="M399.731 71.0703C399.663 71.0651 399.597 71.0465 399.536 71.0155C399.475 70.9845 399.421 70.9418 399.377 70.8898C399.332 70.8378 399.299 70.7775 399.278 70.7125C399.257 70.6475 399.249 70.579 399.255 70.5109L400.602 54.1328C400.615 53.9963 400.68 53.8703 400.785 53.7813C400.889 53.6924 401.024 53.6475 401.161 53.6562C401.229 53.6614 401.295 53.6801 401.355 53.7112C401.415 53.7424 401.469 53.7853 401.512 53.8374C401.556 53.8896 401.588 53.9499 401.608 54.0149C401.628 54.0799 401.634 54.1481 401.627 54.2157L400.249 70.5938C400.237 70.723 400.177 70.843 400.081 70.9309C399.986 71.0188 399.861 71.0684 399.731 71.0703Z" fill="white"/>
<path opacity="0.2" d="M409.822 71.9405C409.754 71.9353 409.687 71.9167 409.626 71.8857C409.566 71.8547 409.511 71.812 409.467 71.76C409.423 71.708 409.389 71.6477 409.368 71.5827C409.347 71.5177 409.34 71.4492 409.345 71.3811L410.692 55.003C410.708 54.8675 410.774 54.743 410.878 54.6545C410.982 54.5661 411.115 54.5203 411.252 54.5265C411.32 54.5317 411.386 54.5503 411.447 54.5813C411.508 54.6123 411.562 54.655 411.606 54.707C411.65 54.759 411.684 54.8193 411.705 54.8843C411.726 54.9493 411.734 55.0178 411.728 55.0859L410.381 71.464C410.376 71.5321 410.357 71.5985 410.326 71.6594C410.295 71.7202 410.253 71.7744 410.201 71.8187C410.149 71.8629 410.088 71.8965 410.023 71.9174C409.958 71.9384 409.89 71.9462 409.822 71.9405Z" fill="white"/>
<path opacity="0.2" d="M419.923 72.7278C419.855 72.7226 419.788 72.704 419.728 72.673C419.667 72.642 419.613 72.5993 419.568 72.5473C419.524 72.4953 419.49 72.435 419.469 72.37C419.449 72.305 419.441 72.2365 419.446 72.1684L420.793 55.7903C420.806 55.6538 420.872 55.5278 420.976 55.4388C421.081 55.3499 421.216 55.305 421.353 55.3137C421.42 55.3189 421.486 55.3376 421.547 55.3687C421.607 55.3999 421.66 55.4428 421.704 55.4949C421.747 55.5471 421.78 55.6074 421.8 55.6724C421.819 55.7374 421.826 55.8056 421.819 55.8732L420.472 72.2513C420.468 72.3189 420.451 72.3851 420.421 72.4459C420.391 72.5067 420.349 72.5609 420.298 72.6053C420.247 72.6497 420.187 72.6835 420.123 72.7045C420.058 72.7255 419.99 72.7335 419.923 72.7278Z" fill="white"/>
<path opacity="0.2" d="M429.972 73.5566C429.904 73.5514 429.837 73.5327 429.777 73.5017C429.716 73.4707 429.662 73.428 429.617 73.376C429.573 73.324 429.539 73.2638 429.519 73.1988C429.498 73.1338 429.49 73.0653 429.495 72.9972L430.842 56.619C430.86 56.4845 430.927 56.3614 431.03 56.2734C431.134 56.1854 431.266 56.1388 431.402 56.1425C431.47 56.1477 431.536 56.1664 431.597 56.1974C431.658 56.2284 431.712 56.2711 431.756 56.3231C431.801 56.3751 431.834 56.4353 431.855 56.5003C431.876 56.5653 431.884 56.6339 431.878 56.7019L430.531 73.0801C430.528 73.1487 430.51 73.2158 430.479 73.2773C430.449 73.3389 430.406 73.3936 430.354 73.4381C430.301 73.4827 430.241 73.5162 430.175 73.5365C430.109 73.5569 430.04 73.5637 429.972 73.5566Z" fill="white"/>
<path opacity="0.2" d="M440.115 74.3853C440.046 74.3801 439.98 74.3615 439.919 74.3305C439.858 74.2995 439.804 74.2568 439.76 74.2048C439.716 74.1528 439.682 74.0926 439.661 74.0275C439.64 73.9625 439.632 73.894 439.638 73.8259L440.943 57.4374C440.957 57.3009 441.022 57.1749 441.127 57.086C441.231 56.9971 441.366 56.9522 441.503 56.9609C441.639 56.974 441.764 57.0401 441.851 57.1449C441.938 57.2496 441.981 57.3845 441.969 57.5203L440.633 73.9088C440.62 74.038 440.56 74.158 440.464 74.2459C440.369 74.3338 440.244 74.3834 440.115 74.3853Z" fill="white"/>
<path opacity="0.2" d="M354.344 185.552C352.769 176.839 340.078 177.461 339.353 186.277L337.074 214.05C336.809 217.263 337.342 220.492 338.628 223.449C339.913 226.406 341.91 229 344.44 230.998C341.614 232.557 339.218 234.793 337.468 237.504C335.718 240.216 334.668 243.32 334.411 246.537L325.471 355.31C325.049 360.482 326.698 365.609 330.055 369.566C333.412 373.522 338.202 375.985 343.373 376.412L367.201 378.37C369.826 378.585 372.465 378.194 374.915 377.227C377.365 376.259 379.56 374.742 381.33 372.792C383.1 370.841 384.398 368.51 385.124 365.979C385.85 363.447 385.985 360.782 385.517 358.19L354.344 185.552Z" fill="#407BFF"/>
<path opacity="0.3" d="M446.03 327.982C445.866 329.979 445.113 331.882 443.867 333.452C442.621 335.021 440.937 336.185 439.03 336.797C437.122 337.41 435.075 337.443 433.149 336.893C431.222 336.342 429.502 335.233 428.206 333.705C426.91 332.177 426.095 330.3 425.866 328.309C425.637 326.319 426.004 324.305 426.919 322.523C427.834 320.74 429.258 319.27 431.009 318.296C432.76 317.322 434.761 316.89 436.758 317.053C439.436 317.275 441.917 318.551 443.655 320.6C445.394 322.649 446.248 325.304 446.03 327.982Z" fill="#407BFF"/>
<path opacity="0.3" d="M413.821 288.752C413.705 290.165 413.173 291.512 412.292 292.623C411.411 293.734 410.22 294.559 408.87 294.993C407.52 295.427 406.071 295.451 404.708 295.061C403.344 294.672 402.127 293.887 401.209 292.806C400.292 291.725 399.715 290.396 399.553 288.987C399.391 287.579 399.651 286.153 400.299 284.892C400.947 283.631 401.954 282.59 403.194 281.901C404.434 281.213 405.85 280.907 407.263 281.023C409.156 281.182 410.909 282.084 412.139 283.533C413.368 284.981 413.973 286.858 413.821 288.752Z" fill="#407BFF"/>
<path opacity="0.3" d="M383.849 201.432C382.434 201.498 381.03 201.143 379.816 200.412C378.602 199.681 377.632 198.606 377.029 197.324C376.426 196.041 376.216 194.609 376.426 193.208C376.637 191.806 377.258 190.498 378.211 189.45C379.164 188.401 380.407 187.658 381.782 187.316C383.157 186.973 384.603 187.045 385.937 187.524C387.271 188.003 388.433 188.866 389.277 190.005C390.12 191.143 390.608 192.507 390.677 193.922C390.723 194.864 390.582 195.805 390.264 196.692C389.946 197.58 389.455 198.396 388.821 199.093C388.187 199.791 387.421 200.357 386.568 200.758C385.715 201.159 384.791 201.389 383.849 201.432Z" fill="#407BFF"/>
<path opacity="0.3" d="M403.399 158.576C402.395 158.626 401.399 158.377 400.537 157.861C399.675 157.345 398.985 156.584 398.556 155.676C398.126 154.768 397.976 153.752 398.124 152.759C398.272 151.765 398.712 150.837 399.387 150.093C400.063 149.35 400.944 148.823 401.919 148.58C402.894 148.338 403.919 148.39 404.865 148.73C405.81 149.07 406.633 149.684 407.23 150.492C407.826 151.301 408.17 152.268 408.216 153.272C408.278 154.613 407.806 155.925 406.903 156.919C406 157.913 404.74 158.509 403.399 158.576Z" fill="#407BFF"/>
<path opacity="0.3" d="M434.852 257.766C434.803 258.35 434.582 258.906 434.217 259.364C433.852 259.822 433.36 260.162 432.802 260.34C432.244 260.519 431.646 260.528 431.083 260.367C430.52 260.205 430.018 259.881 429.639 259.434C429.26 258.988 429.022 258.439 428.955 257.857C428.889 257.276 428.995 256.687 429.263 256.166C429.53 255.645 429.946 255.215 430.457 254.93C430.969 254.645 431.554 254.519 432.137 254.566C432.921 254.632 433.647 255.006 434.156 255.605C434.664 256.205 434.915 256.982 434.852 257.766Z" fill="#407BFF"/>
<path opacity="0.7" d="M381.187 338.818H380.689C379.896 338.764 379.121 338.553 378.41 338.197C377.699 337.841 377.065 337.348 376.545 336.746C376.034 336.147 375.647 335.451 375.407 334.701C375.167 333.95 375.079 333.16 375.147 332.375C375.243 331.214 375.676 330.107 376.391 329.188C377.107 328.269 378.074 327.578 379.176 327.199C380.277 326.821 381.465 326.771 382.595 327.057C383.724 327.342 384.746 327.95 385.535 328.807C386.324 329.663 386.847 330.731 387.04 331.879C387.233 333.028 387.087 334.208 386.621 335.275C386.154 336.342 385.387 337.25 384.413 337.889C383.439 338.527 382.3 338.868 381.135 338.87L381.187 338.818ZM381.187 327.589C380.008 327.595 378.867 328.002 377.952 328.744C377.036 329.485 376.401 330.517 376.151 331.668C375.9 332.819 376.05 334.022 376.575 335.076C377.1 336.131 377.969 336.975 379.039 337.47C380.108 337.964 381.314 338.079 382.458 337.796C383.602 337.513 384.615 336.848 385.33 335.912C386.045 334.975 386.419 333.823 386.391 332.645C386.363 331.467 385.934 330.334 385.175 329.433C384.733 328.909 384.191 328.478 383.581 328.165C382.971 327.852 382.305 327.663 381.622 327.609L381.187 327.589Z" fill="white"/>
<path opacity="0.7" d="M445.263 217.593H444.901C443.75 217.498 442.684 216.951 441.937 216.071C441.189 215.191 440.821 214.051 440.912 212.9C441.007 211.748 441.556 210.68 442.438 209.932C443.32 209.184 444.463 208.817 445.616 208.912C446.766 209.007 447.832 209.554 448.58 210.434C449.328 211.314 449.696 212.454 449.604 213.605C449.506 214.757 448.959 215.825 448.081 216.578C447.292 217.24 446.293 217.6 445.263 217.593ZM441.689 212.942C441.638 213.646 441.796 214.35 442.143 214.965C442.49 215.58 443.011 216.079 443.641 216.399C444.271 216.719 444.981 216.845 445.683 216.763C446.384 216.681 447.046 216.393 447.584 215.936C447.943 215.631 448.239 215.259 448.455 214.84C448.67 214.421 448.801 213.963 448.839 213.494C448.878 213.024 448.823 212.552 448.679 212.103C448.535 211.655 448.303 211.239 447.998 210.88C447.682 210.531 447.299 210.249 446.872 210.05C446.445 209.85 445.983 209.738 445.512 209.72C445.043 209.68 444.571 209.734 444.123 209.877C443.675 210.02 443.259 210.25 442.9 210.554C442.541 210.858 442.246 211.23 442.031 211.649C441.816 212.068 441.686 212.525 441.648 212.994L441.689 212.942Z" fill="white"/>
<path opacity="0.7" d="M378.327 125.747H378.172C377.637 125.694 377.143 125.436 376.795 125.026C376.447 124.616 376.272 124.087 376.307 123.551C376.333 123.148 376.477 122.761 376.72 122.439C376.963 122.116 377.295 121.872 377.675 121.735C378.055 121.599 378.467 121.577 378.86 121.671C379.252 121.766 379.609 121.973 379.885 122.267C380.162 122.562 380.346 122.93 380.416 123.328C380.485 123.726 380.437 124.135 380.277 124.506C380.117 124.877 379.852 125.193 379.515 125.415C379.178 125.637 378.783 125.756 378.379 125.757L378.327 125.747ZM377.074 123.613C377.054 123.86 377.108 124.107 377.229 124.323C377.35 124.539 377.531 124.714 377.752 124.827C377.972 124.94 378.221 124.985 378.467 124.957C378.713 124.929 378.945 124.828 379.134 124.668C379.323 124.508 379.46 124.296 379.528 124.058C379.597 123.82 379.593 123.567 379.518 123.331C379.443 123.095 379.299 122.887 379.106 122.733C378.912 122.578 378.678 122.484 378.431 122.463C378.266 122.447 378.099 122.465 377.941 122.515C377.783 122.564 377.637 122.645 377.51 122.752C377.384 122.859 377.28 122.991 377.205 123.138C377.13 123.286 377.085 123.448 377.074 123.613Z" fill="white"/>
<path opacity="0.7" d="M424.139 179.398H423.704C423.022 179.345 422.357 179.157 421.748 178.845C421.14 178.533 420.598 178.104 420.156 177.582C419.714 177.06 419.38 176.455 419.173 175.803C418.965 175.151 418.889 174.465 418.949 173.783C419.037 172.783 419.415 171.83 420.035 171.04C420.655 170.251 421.491 169.658 422.442 169.335C423.393 169.012 424.417 168.972 425.39 169.221C426.363 169.469 427.243 169.995 427.923 170.734C428.602 171.473 429.052 172.394 429.218 173.385C429.383 174.375 429.258 175.392 428.856 176.313C428.454 177.233 427.793 178.016 426.954 178.568C426.115 179.119 425.133 179.415 424.129 179.419L424.139 179.398ZM424.139 169.764C423.097 169.759 422.086 170.127 421.29 170.8C420.396 171.557 419.837 172.637 419.736 173.804C419.678 174.528 419.799 175.256 420.088 175.922C420.378 176.589 420.827 177.174 421.397 177.625C421.966 178.077 422.638 178.381 423.353 178.511C424.068 178.642 424.804 178.594 425.496 178.372C426.188 178.15 426.814 177.761 427.321 177.24C427.827 176.718 428.196 176.08 428.397 175.382C428.598 174.684 428.624 173.946 428.472 173.236C428.32 172.525 427.996 171.863 427.527 171.307C427.152 170.863 426.692 170.498 426.175 170.233C425.657 169.968 425.092 169.808 424.512 169.764H424.139Z" fill="white"/>
<path opacity="0.3" d="M466.636 224.689L473.329 143.337C473.371 142.817 473.311 142.294 473.151 141.798C472.991 141.302 472.735 140.842 472.397 140.444C472.06 140.047 471.647 139.72 471.183 139.482C470.719 139.245 470.212 139.101 469.692 139.059C469.173 139.015 468.65 139.074 468.154 139.232C467.657 139.391 467.197 139.646 466.8 139.983C466.402 140.32 466.075 140.732 465.837 141.196C465.599 141.659 465.455 142.165 465.414 142.685L458.721 224.037C458.503 226.741 457.618 229.349 456.144 231.627C454.671 233.905 452.655 235.782 450.278 237.089L446.206 239.358L449.863 242.248C451.995 243.928 453.677 246.108 454.762 248.595C455.847 251.082 456.299 253.799 456.079 256.503L447.139 365.276C446.6 371.803 442.497 374.983 436.727 377.521C436.361 377.685 436.059 377.966 435.87 378.319C435.681 378.673 435.614 379.079 435.68 379.475C435.747 379.871 435.942 380.233 436.237 380.506C436.531 380.778 436.907 380.945 437.307 380.981C441.656 381.336 445.968 379.95 449.296 377.128C452.624 374.305 454.695 370.277 455.054 365.929L463.994 257.155C464.216 254.451 463.764 251.734 462.68 249.246C461.595 246.759 459.911 244.579 457.778 242.901L454.121 240L458.193 237.742C460.568 236.432 462.583 234.555 464.056 232.277C465.529 230 466.416 227.393 466.636 224.689Z" fill="white"/>
<path opacity="0.3" d="M574.173 351.115C573.054 346.039 559.089 349.043 556.198 349.509C550.582 350.528 545.084 352.114 539.788 354.243C533.955 356.533 527.18 359.9 521.14 356.419C517.649 354.409 529.77 350.442 530.868 350.038C536.02 348.228 540.993 345.946 545.724 343.221C547.641 342.082 551.35 339.357 549.754 336.591C548.428 334.302 543.673 334.519 540.782 334.871C532.024 335.944 523.432 338.098 515.204 341.284C507.201 344.463 499.365 348.049 491.728 352.026C488.769 353.696 485.551 354.855 482.207 355.455C478.56 355.973 474.095 355.196 472.655 353.176C471.215 351.156 473.07 348.794 473.494 346.764C474.095 344.336 473.843 341.776 472.779 339.512C472.074 337.995 470.892 336.751 469.412 335.969C465.465 333.898 459.498 334.664 455.53 336.301C452.959 337.39 450.609 338.942 448.599 340.88C444.55 344.649 441.709 349.534 440.436 354.917C440.115 356.603 439.465 358.209 438.523 359.644C437.58 361.078 436.365 362.313 434.945 363.277C429.392 367.017 419.218 366.799 411.438 364.924C397.856 361.702 387.496 354.171 384.999 345.666C383.787 341.615 383.197 337.378 377.747 335.793C374.225 334.757 366.848 335.483 368.423 339.937C368.995 341.158 369.742 342.289 370.64 343.294C372.08 345.189 373.614 348.763 369.335 349.913C367.949 350.207 366.526 350.277 365.118 350.12C351.36 349.198 338.7 344.609 330.495 338.145C327.82 336.043 325.552 333.47 323.803 330.552C322.829 328.946 322.477 327.216 321.409 325.631C320.39 324.105 318.951 322.907 317.265 322.181C311.982 319.912 299.571 321.093 298.7 326.066C298.234 328.759 299.912 331.681 300.772 334.239C300.927 334.562 300.963 334.929 300.876 335.275C300.627 335.928 299.643 336.115 298.804 336.166C287.708 336.902 276.944 332.592 267.631 328.096C257.768 323.331 246.911 317.126 233.204 317.053C230.37 316.924 227.534 317.249 224.802 318.017C224.111 318.201 223.468 318.533 222.917 318.991C222.582 319.339 222.36 319.78 222.278 320.257C222.197 320.733 222.261 321.223 222.461 321.663C222.906 322.576 223.568 323.365 224.388 323.963C228.532 327.34 234.334 328.708 239.628 330.448C255.335 335.539 270.522 342.112 284.984 350.079C286.444 350.897 289.034 352.793 286.983 354.223C284.932 355.652 280.767 354.73 278.312 354.326C273.857 353.601 269.578 352.441 265.238 351.353C259.498 349.903 252.806 348.587 246.59 349.789C243.305 350.421 240.374 351.768 238.83 353.591C238.298 354.124 237.948 354.812 237.829 355.555C237.71 356.299 237.828 357.062 238.167 357.735C240.301 361.536 250.029 363.173 255.344 364.986C262.149 367.308 268.802 370.052 275.266 373.201C280.788 375.936 285.916 378.93 291.511 381.613C311.495 391.195 339.405 392.428 364.362 393.36C391.453 394.396 418.669 393.516 445.688 392.014C465.372 390.916 484.693 388.75 503.984 386.202C509.526 385.477 515.038 384.586 520.56 383.83C526.165 383.187 531.709 382.089 537.136 380.546C539.086 380.048 540.905 379.137 542.471 377.873C543.953 376.495 544.419 374.693 541.767 374.175C536.214 373.066 530.495 374.33 525.066 375.314C518.975 376.433 512.938 377.721 506.957 379.178C504.23 379.906 501.463 380.469 498.669 380.867C495.861 381.261 493.002 381.078 490.267 380.328C489.376 380.049 488.402 379.551 488.351 378.764C488.299 377.977 489.045 377.479 489.811 377.179C500.99 372.745 512.862 369.927 524.818 367.338C532.93 365.577 541.187 364.499 549.361 363.121C556.809 361.868 564.662 361.578 571.117 356.854C572.401 356.025 573.399 354.82 573.976 353.404C574.256 352.675 574.324 351.881 574.173 351.115Z" fill="#407BFF"/>
<path opacity="0.3" d="M253.593 309.17C250.557 300.54 239.742 285.26 237.462 294.283C236.24 299.349 253.593 309.17 253.593 309.17Z" fill="#407BFF"/>
<path opacity="0.3" d="M525.211 326.159C530.992 320.886 538.203 317.748 539.135 322.388C540.006 326.78 525.211 326.159 525.211 326.159Z" fill="#407BFF"/>
<path opacity="0.3" d="M288.04 284.224C284.082 282.152 280.995 278.827 283.316 277.439C285.636 276.051 288.04 284.224 288.04 284.224Z" fill="#407BFF"/>
<path opacity="0.7" d="M47.1992 1259.84H45.6243C43.1117 1259.66 40.6582 1258.99 38.4055 1257.87C36.1528 1256.74 34.1457 1255.18 32.5 1253.27C30.8811 1251.37 29.6559 1249.17 28.8955 1246.79C28.1351 1244.42 27.8547 1241.91 28.0706 1239.42C28.3764 1235.75 29.7459 1232.24 32.0118 1229.33C34.2777 1226.42 37.3421 1224.23 40.8308 1223.03C44.3195 1221.83 48.0817 1221.68 51.658 1222.58C55.2344 1223.48 58.4702 1225.41 60.9705 1228.12C63.4707 1230.83 65.1273 1234.22 65.7379 1237.85C66.3485 1241.49 65.8868 1245.23 64.4091 1248.61C62.9314 1251.99 60.5016 1254.87 57.4164 1256.89C54.3312 1258.91 50.724 1259.99 47.0352 1260L47.1992 1259.84ZM47.1992 1224.26C43.4676 1224.28 39.8538 1225.57 36.9542 1227.92C34.0546 1230.27 32.0424 1233.54 31.2497 1237.19C30.4571 1240.83 30.9312 1244.64 32.594 1247.98C34.2568 1251.32 37.0089 1254 40.396 1255.56C43.7832 1257.13 47.6031 1257.5 51.2252 1256.6C54.8474 1255.7 58.0555 1253.59 60.32 1250.63C62.5845 1247.66 63.7702 1244.01 63.6814 1240.28C63.5925 1236.55 62.2345 1232.96 59.8313 1230.11C58.431 1228.45 56.7151 1227.08 54.7833 1226.09C52.8514 1225.1 50.742 1224.5 48.5773 1224.33L47.1992 1224.26Z" fill="#C6D7FF"/>
<path d="M27.9539 1059.15C27.7267 1061.91 26.6864 1064.54 24.9646 1066.71C23.2429 1068.87 20.9169 1070.48 18.2807 1071.33C15.6446 1072.18 12.8166 1072.22 10.1545 1071.46C7.49227 1070.7 5.11536 1069.17 3.32424 1067.06C1.53313 1064.95 0.408238 1062.35 0.0917692 1059.6C-0.2247 1056.85 0.281475 1054.07 1.5463 1051.6C2.81112 1049.14 4.7778 1047.11 7.19769 1045.76C9.61758 1044.42 12.382 1043.82 15.1415 1044.05C18.8422 1044.35 22.2701 1046.12 24.6723 1048.95C27.0746 1051.78 28.2548 1055.45 27.9539 1059.15Z" fill="#C6D7FF"/>
<path d="M31.9703 749.739C31.8243 751.512 31.1556 753.203 30.0487 754.597C28.9418 755.991 27.4466 757.025 25.7519 757.569C24.0572 758.113 22.2393 758.143 20.5279 757.654C18.8165 757.165 17.2884 756.179 16.137 754.822C14.9856 753.465 14.2624 751.797 14.059 750.029C13.8556 748.261 14.1809 746.472 14.994 744.889C15.8071 743.305 17.0714 741.999 18.6271 741.134C20.1827 740.269 21.9599 739.885 23.7338 740.03C26.1129 740.227 28.3165 741.36 29.8608 743.18C31.4051 745.001 32.1638 747.359 31.9703 749.739Z" fill="#ECF2FF"/>
<path opacity="0.7" d="M47.1573 903.87H45.9139C43.9303 903.734 41.9933 903.206 40.2149 902.317C38.4365 901.427 36.8519 900.194 35.5526 898.689C34.2746 897.189 33.3073 895.451 32.707 893.574C32.1067 891.697 31.8853 889.72 32.0557 887.756C32.2972 884.854 33.3783 882.084 35.1672 879.786C36.9561 877.488 39.3753 875.76 42.1296 874.814C44.8838 873.867 47.854 873.744 50.6774 874.457C53.5008 875.171 56.0554 876.692 58.0293 878.833C60.0032 880.975 61.311 883.645 61.7931 886.517C62.2752 889.389 61.9106 892.34 60.744 895.009C59.5774 897.678 57.6592 899.949 55.2235 901.545C52.7878 903.142 49.94 903.995 47.0278 904L47.1573 903.87ZM47.1573 875.788C44.2113 875.802 41.3583 876.821 39.0691 878.676C36.7799 880.53 35.1914 883.11 34.5656 885.989C33.9398 888.868 34.3141 891.875 35.6269 894.513C36.9396 897.15 39.1123 899.262 41.7863 900.498C44.4604 901.735 47.4761 902.023 50.3357 901.314C53.1953 900.606 55.728 898.943 57.5158 896.601C59.3036 894.259 60.2396 891.378 60.1695 888.432C60.0994 885.487 59.0272 882.653 57.13 880.399C56.0244 879.089 54.6698 878.011 53.1447 877.228C51.6195 876.446 49.9542 875.973 48.2452 875.839L47.1573 875.788Z" fill="#9EBBFF"/>
<path d="M397.954 736.149C397.727 738.908 396.686 741.538 394.965 743.706C393.243 745.874 390.917 747.483 388.281 748.33C385.645 749.176 382.817 749.222 380.154 748.461C377.492 747.701 375.115 746.168 373.324 744.057C371.533 741.946 370.408 739.351 370.092 736.6C369.775 733.85 370.281 731.067 371.546 728.604C372.811 726.142 374.778 724.109 377.198 722.764C379.618 721.419 382.382 720.821 385.141 721.047C388.842 721.353 392.27 723.115 394.672 725.947C397.075 728.779 398.255 732.448 397.954 736.149Z" fill="#ECF2FF"/>
<path opacity="0.7" d="M608.262 644.784H606.19C602.884 644.557 599.655 643.677 596.691 642.195C593.727 640.712 591.086 638.657 588.921 636.148C586.791 633.649 585.179 630.751 584.178 627.623C583.178 624.495 582.809 621.199 583.093 617.927C583.495 613.09 585.297 608.474 588.279 604.643C591.26 600.813 595.292 597.933 599.883 596.356C604.473 594.779 609.423 594.573 614.129 595.762C618.835 596.952 623.092 599.486 626.382 603.055C629.672 606.624 631.852 611.074 632.655 615.862C633.459 620.649 632.851 625.567 630.907 630.015C628.962 634.463 625.765 638.248 621.706 640.909C617.646 643.57 612.9 644.992 608.046 645L608.262 644.784ZM608.262 597.979C603.352 598.004 598.597 599.701 594.782 602.793C590.967 605.884 588.319 610.183 587.276 614.982C586.233 619.781 586.857 624.792 589.045 629.188C591.233 633.584 594.854 637.103 599.311 639.164C603.767 641.225 608.793 641.704 613.56 640.523C618.326 639.343 622.547 636.572 625.526 632.669C628.506 628.766 630.066 623.963 629.949 619.054C629.832 614.145 628.045 609.422 624.883 605.665C623.041 603.481 620.783 601.685 618.241 600.38C615.699 599.076 612.924 598.289 610.075 598.065L608.262 597.979Z" fill="#C6D7FF"/>
<path opacity="0.7" d="M198.199 1322.84H196.624C194.112 1322.66 191.658 1321.99 189.406 1320.87C187.153 1319.74 185.146 1318.18 183.5 1316.27C181.881 1314.37 180.656 1312.17 179.896 1309.79C179.135 1307.42 178.855 1304.91 179.071 1302.42C179.376 1298.75 180.746 1295.24 183.012 1292.33C185.278 1289.42 188.342 1287.23 191.831 1286.03C195.32 1284.83 199.082 1284.68 202.658 1285.58C206.234 1286.48 209.47 1288.41 211.97 1291.12C214.471 1293.83 216.127 1297.22 216.738 1300.85C217.349 1304.49 216.887 1308.23 215.409 1311.61C213.931 1314.99 211.502 1317.87 208.416 1319.89C205.331 1321.91 201.724 1322.99 198.035 1323L198.199 1322.84ZM198.199 1287.26C194.468 1287.28 190.854 1288.57 187.954 1290.92C185.055 1293.27 183.042 1296.54 182.25 1300.19C181.457 1303.83 181.931 1307.64 183.594 1310.98C185.257 1314.32 188.009 1317 191.396 1318.56C194.783 1320.13 198.603 1320.5 202.225 1319.6C205.847 1318.7 209.055 1316.59 211.32 1313.63C213.585 1310.66 214.77 1307.01 214.681 1303.28C214.593 1299.55 213.234 1295.96 210.831 1293.11C209.431 1291.45 207.715 1290.08 205.783 1289.09C203.851 1288.1 201.742 1287.5 199.577 1287.33L198.199 1287.26Z" fill="#9EBBFF"/>
<path d="M632.954 855.149C632.727 857.908 631.686 860.538 629.965 862.706C628.243 864.874 625.917 866.483 623.281 867.33C620.645 868.176 617.817 868.222 615.154 867.461C612.492 866.701 610.115 865.168 608.324 863.057C606.533 860.946 605.408 858.351 605.092 855.6C604.775 852.85 605.281 850.067 606.546 847.604C607.811 845.142 609.778 843.109 612.198 841.764C614.618 840.419 617.382 839.821 620.141 840.047C623.842 840.353 627.27 842.115 629.672 844.947C632.075 847.779 633.255 851.448 632.954 855.149Z" fill="#C6D7FF"/>
<path opacity="0.7" d="M782.231 779.81H780.407C777.498 779.61 774.657 778.836 772.048 777.531C769.44 776.227 767.116 774.419 765.211 772.211C763.336 770.011 761.917 767.461 761.037 764.708C760.156 761.956 759.832 759.055 760.082 756.176C760.436 751.919 762.022 747.857 764.645 744.486C767.269 741.115 770.817 738.581 774.857 737.193C778.896 735.806 783.252 735.624 787.394 736.671C791.535 737.718 795.281 739.948 798.176 743.089C801.071 746.229 802.989 750.145 803.697 754.358C804.404 758.571 803.869 762.899 802.158 766.813C800.447 770.727 797.633 774.058 794.061 776.4C790.489 778.742 786.312 779.993 782.041 780L782.231 779.81ZM782.231 738.622C777.91 738.643 773.725 740.137 770.368 742.857C767.011 745.578 764.681 749.361 763.763 753.584C762.845 757.807 763.394 762.217 765.319 766.085C767.245 769.954 770.431 773.051 774.353 774.864C778.275 776.678 782.698 777.1 786.892 776.061C791.086 775.022 794.801 772.583 797.423 769.149C800.045 765.714 801.418 761.488 801.315 757.168C801.212 752.847 799.64 748.691 796.857 745.385C795.236 743.463 793.249 741.883 791.012 740.735C788.775 739.587 786.333 738.894 783.826 738.698L782.231 738.622Z" fill="#9EBBFF"/>
<path d="M502.954 1261.15C502.727 1263.91 501.686 1266.54 499.965 1268.71C498.243 1270.87 495.917 1272.48 493.281 1273.33C490.645 1274.18 487.817 1274.22 485.154 1273.46C482.492 1272.7 480.115 1271.17 478.324 1269.06C476.533 1266.95 475.408 1264.35 475.092 1261.6C474.775 1258.85 475.281 1256.07 476.546 1253.6C477.811 1251.14 479.778 1249.11 482.198 1247.76C484.618 1246.42 487.382 1245.82 490.141 1246.05C493.842 1246.35 497.27 1248.12 499.672 1250.95C502.075 1253.78 503.255 1257.45 502.954 1261.15Z" fill="#C6D7FF"/>
</svg>
