<svg width="868" height="574" viewBox="0 0 868 574" fill="none" xmlns="http://www.w3.org/2000/svg">
<path d="M27.9539 464.149C27.7267 466.908 26.6864 469.538 24.9646 471.706C23.2429 473.874 20.9169 475.483 18.2807 476.33C15.6446 477.176 12.8166 477.222 10.1545 476.461C7.49227 475.701 5.11536 474.168 3.32424 472.057C1.53313 469.946 0.408238 467.351 0.0917692 464.6C-0.2247 461.85 0.281475 459.067 1.5463 456.604C2.81112 454.142 4.7778 452.109 7.19769 450.764C9.61758 449.419 12.382 448.821 15.1415 449.047C18.8422 449.353 22.2701 451.115 24.6723 453.947C27.0746 456.779 28.2548 460.448 27.9539 464.149Z" fill="#C6D7FF"/>
<path d="M31.9703 154.739C31.8243 156.512 31.1556 158.203 30.0487 159.597C28.9418 160.991 27.4466 162.025 25.7519 162.569C24.0572 163.113 22.2393 163.143 20.5279 162.654C18.8165 162.165 17.2884 161.179 16.137 159.822C14.9856 158.465 14.2624 156.797 14.059 155.029C13.8556 153.261 14.1809 151.472 14.994 149.889C15.8071 148.305 17.0714 146.999 18.6271 146.134C20.1827 145.269 21.9599 144.885 23.7338 145.03C26.1129 145.227 28.3165 146.36 29.8608 148.18C31.4051 150.001 32.1638 152.359 31.9703 154.739Z" fill="#ECF2FF"/>
<path opacity="0.7" d="M47.1573 308.87H45.9139C43.9303 308.734 41.9933 308.206 40.2149 307.317C38.4365 306.427 36.8519 305.194 35.5526 303.689C34.2746 302.189 33.3073 300.451 32.707 298.574C32.1067 296.697 31.8853 294.72 32.0557 292.756C32.2972 289.854 33.3783 287.084 35.1672 284.786C36.9561 282.488 39.3753 280.76 42.1296 279.814C44.8838 278.867 47.854 278.744 50.6774 279.457C53.5008 280.171 56.0554 281.692 58.0293 283.833C60.0032 285.975 61.311 288.645 61.7931 291.517C62.2752 294.389 61.9106 297.34 60.744 300.009C59.5774 302.678 57.6592 304.949 55.2235 306.545C52.7878 308.142 49.94 308.995 47.0278 309L47.1573 308.87ZM47.1573 280.788C44.2113 280.802 41.3583 281.821 39.0691 283.676C36.7799 285.53 35.1914 288.11 34.5656 290.989C33.9398 293.868 34.3141 296.875 35.6269 299.513C36.9396 302.15 39.1123 304.262 41.7863 305.498C44.4604 306.735 47.4761 307.023 50.3357 306.314C53.1953 305.606 55.728 303.943 57.5158 301.601C59.3036 299.259 60.2396 296.378 60.1695 293.432C60.0994 290.487 59.0272 287.653 57.13 285.399C56.0244 284.089 54.6698 283.011 53.1447 282.228C51.6195 281.446 49.9542 280.973 48.2452 280.839L47.1573 280.788Z" fill="#9EBBFF"/>
<path d="M397.954 141.149C397.727 143.908 396.686 146.538 394.965 148.706C393.243 150.874 390.917 152.483 388.281 153.33C385.645 154.176 382.817 154.222 380.154 153.461C377.492 152.701 375.115 151.168 373.324 149.057C371.533 146.946 370.408 144.351 370.092 141.6C369.775 138.85 370.281 136.067 371.546 133.604C372.811 131.142 374.778 129.109 377.198 127.764C379.618 126.419 382.382 125.821 385.141 126.047C388.842 126.353 392.27 128.115 394.672 130.947C397.075 133.779 398.255 137.448 397.954 141.149Z" fill="#ECF2FF"/>
<path opacity="0.7" d="M608.262 49.784H606.19C602.884 49.5569 599.655 48.6769 596.691 47.1946C593.727 45.7124 591.086 43.6574 588.921 41.1484C586.791 38.649 585.179 35.7511 584.178 32.623C583.178 29.495 582.809 26.1992 583.093 22.9274C583.495 18.0897 585.297 13.4738 588.279 9.64325C591.26 5.81266 595.292 2.93312 599.883 1.35606C604.473 -0.221009 609.423 -0.427301 614.129 0.762309C618.835 1.95192 623.092 4.48597 626.382 8.05517C629.672 11.6244 631.852 16.0742 632.655 20.8616C633.459 25.649 632.851 30.5669 630.907 35.0148C628.962 39.4626 625.765 43.2481 621.706 45.9091C617.646 48.5701 612.9 49.9917 608.046 50L608.262 49.784ZM608.262 2.97918C603.352 3.00356 598.597 4.70145 594.782 7.79256C590.967 10.8837 588.319 15.1833 587.276 19.9819C586.233 24.7806 586.857 29.7915 589.045 34.1878C591.233 38.584 594.854 42.103 599.311 44.1638C603.767 46.2247 608.793 46.7042 613.56 45.5234C618.326 44.3427 622.547 41.5721 625.526 37.669C628.506 33.7658 630.066 28.9633 629.949 24.054C629.832 19.1446 628.045 14.4217 624.883 10.6648C623.041 8.4811 620.783 6.68489 618.241 5.3804C615.699 4.07591 612.924 3.28905 610.075 3.06549L608.262 2.97918Z" fill="#C6D7FF"/>
<path d="M632.954 260.149C632.727 262.908 631.686 265.538 629.965 267.706C628.243 269.874 625.917 271.483 623.281 272.33C620.645 273.176 617.817 273.222 615.154 272.461C612.492 271.701 610.115 270.168 608.324 268.057C606.533 265.946 605.408 263.351 605.092 260.6C604.775 257.85 605.281 255.067 606.546 252.604C607.811 250.142 609.778 248.109 612.198 246.764C614.618 245.419 617.382 244.821 620.141 245.047C623.842 245.353 627.27 247.115 629.672 249.947C632.075 252.779 633.255 256.448 632.954 260.149Z" fill="#C6D7FF"/>
<path opacity="0.7" d="M782.231 184.81H780.407C777.498 184.61 774.657 183.836 772.048 182.531C769.44 181.227 767.116 179.419 765.211 177.211C763.336 175.011 761.917 172.461 761.037 169.708C760.156 166.956 759.832 164.055 760.082 161.176C760.436 156.919 762.022 152.857 764.645 149.486C767.269 146.115 770.817 143.581 774.857 142.193C778.896 140.806 783.252 140.624 787.394 141.671C791.535 142.718 795.281 144.948 798.176 148.089C801.071 151.229 802.989 155.145 803.697 159.358C804.404 163.571 803.869 167.899 802.158 171.813C800.447 175.727 797.633 179.058 794.061 181.4C790.489 183.742 786.312 184.993 782.041 185L782.231 184.81ZM782.231 143.622C777.91 143.643 773.725 145.137 770.368 147.857C767.011 150.578 764.681 154.361 763.763 158.584C762.845 162.807 763.394 167.217 765.319 171.085C767.245 174.954 770.431 178.051 774.353 179.864C778.275 181.678 782.698 182.1 786.892 181.061C791.086 180.022 794.801 177.583 797.423 174.149C800.045 170.714 801.418 166.488 801.315 162.168C801.212 157.847 799.64 153.691 796.857 150.385C795.236 148.463 793.249 146.883 791.012 145.735C788.775 144.587 786.333 143.894 783.826 143.698L782.231 143.622Z" fill="#9EBBFF"/>
<g clip-path="url(#clip0_15438_858)">
<path d="M500 574C657.625 574 785.406 566.546 785.406 557.352C785.406 548.157 657.625 540.703 500 540.703C342.375 540.703 214.594 548.157 214.594 557.352C214.594 566.546 342.375 574 500 574Z" fill="#F5F5F5"/>
<path opacity="0.1" d="M334.106 441.122C334.282 439.797 334.961 438.59 336.001 437.75C337.042 436.91 338.366 436.501 339.699 436.607C352.3 436.415 364.09 445.313 375.027 454.858C377.456 456.961 380.091 459.138 382.814 456.932C383.657 456.235 384.272 455.303 384.58 454.255C385.052 452.542 385.052 450.733 384.58 449.019C384.175 447.604 383.501 446.281 382.593 445.122C377.839 438.871 372.054 435.871 367.358 429.415C364.728 425.716 362.549 421.717 360.867 417.502C359.395 413.796 356.451 407.81 357.628 402.795C358.938 396.795 363.428 397.309 366.151 398.133C374.762 400.707 382.799 406.839 390.1 414.472C397.887 422.591 404.938 432.371 411.96 442.092C414.609 445.784 417.406 449.578 420.792 450.917C424.177 452.255 428.461 450.093 429.889 444.769C431.316 439.445 429.638 433.327 429.285 428.032C428.813 421.714 429.119 415.362 430.198 409.119C430.676 405.818 431.791 402.642 433.48 399.765C437.278 394.206 442.901 396.162 446.581 400.368C449.39 403.887 451.562 407.869 452.999 412.134C457.128 423.919 459.605 436.218 460.359 448.681C460.918 456.402 462.096 464.447 465.276 470.433C470.413 480.11 479.996 479.345 487.429 474.271C500.368 465.447 510.348 445.504 513.012 423.208C513.881 415.943 514.102 408.09 516.751 402.001C519.062 396.736 524.995 393.177 527.894 398.854C529.062 401.692 529.389 404.806 528.836 407.825C528.317 410.815 527.584 413.764 526.643 416.649C525.171 421.649 523.699 431.018 527.674 433.945C528.266 434.304 528.93 434.53 529.619 434.606C530.308 434.683 531.006 434.607 531.663 434.386C544.675 431.68 556.775 419.443 564.724 402.368C567.604 395.943 569.804 389.234 571.289 382.352C572.246 378.146 572.643 373.631 573.703 369.454C574.382 366.167 575.757 363.063 577.736 360.35C582.8 354.291 594.488 357.144 595.15 370.131C595.548 377.646 593.546 384.999 592.81 392.353C592.353 396.942 595.194 396.912 597.314 396.765C607.471 395.736 616.45 385.499 624.413 374.852C633.878 362.189 644.359 345.746 657.283 345.261C660.227 345.158 665.129 345.54 666.895 350.085C667.714 352.869 667.714 355.83 666.895 358.615C664.275 369.469 656.591 375.072 650.703 380.44C634.103 395.997 619.502 413.555 607.235 432.709C605.366 435.651 603.437 440.504 605.219 443.386C605.559 443.935 606.058 444.369 606.648 444.631C607.239 444.893 607.895 444.972 608.531 444.857C614.61 444.387 620.307 439.563 625.856 435.562C631.405 431.562 637.706 428.062 643.52 431.077C645.313 432.151 646.874 433.57 648.115 435.252C649.355 436.933 650.25 438.843 650.748 440.872C651.787 444.427 651.953 448.18 651.233 451.814C649.099 461.8 639.869 466.285 634.791 471.212C627.798 477.952 621.396 485.279 615.655 493.111C610.356 500.362 605.351 508.303 600.052 515.422C580.916 540.909 554.42 544.689 530.868 547.645C505.24 550.851 479.554 549.116 454.074 545.748C435.541 543.277 417.274 538.012 399.183 531.761C392.971 529.511 386.803 527.055 380.709 524.143C374.159 521.025 364.517 519.098 362 506.818C361.47 504.171 362.088 502.024 363.84 501.038C369.272 497.95 377.014 502.082 382.122 504.803C389.173 508.568 395.856 513.936 403.098 516.834C404.262 517.405 405.531 517.735 406.826 517.803C408.121 517.872 409.417 517.677 410.635 517.231C411.829 516.73 412.812 515.831 413.417 514.686C414.187 513.195 414.376 511.471 413.947 509.848C413.648 508.971 413.144 508.18 412.475 507.539C399.439 494.19 383.864 483.58 366.666 476.33C361.146 473.963 355.508 472.021 350.195 468.668C345.899 466.014 342.192 462.511 339.302 458.373C336.829 454.417 332.854 447.431 334.106 441.122Z" fill="#407BFF"/>
<path opacity="0.1" d="M615.655 333.01C614.671 334.028 613.383 334.698 611.984 334.92C610.585 335.141 609.152 334.902 607.901 334.237C606.651 333.572 605.651 332.519 605.052 331.236C604.454 329.954 604.29 328.511 604.586 327.127C609.664 302.493 620.704 284.579 633.834 293.874C643.638 300.801 628.27 319.906 615.655 333.01Z" fill="#407BFF"/>
<path opacity="0.3" d="M580.033 344.511C584.048 342.296 587.453 339.123 589.942 335.273C592.431 331.424 593.927 327.018 594.296 322.45L604.247 201.338C604.763 195.112 603.97 188.847 601.92 182.946C599.869 177.044 596.605 171.637 592.339 167.07L561.677 134.259C559.99 132.444 558.698 130.299 557.885 127.96C557.072 125.621 556.754 123.138 556.952 120.669L558.424 102.933L479.068 96.4174L477.596 114.154C477.393 116.622 476.677 119.02 475.493 121.195C474.309 123.371 472.684 125.275 470.722 126.788L435.1 154.187C430.148 158 426.047 162.804 423.061 168.292C420.075 173.781 418.269 179.831 417.759 186.057L407.794 307.17C407.417 311.731 408.176 316.316 410.002 320.514C411.828 324.712 414.665 328.393 418.26 331.23C414.244 333.444 410.841 336.617 408.354 340.467C405.867 344.317 404.375 348.723 404.011 353.291L391.308 507.715C390.709 515.057 393.052 522.336 397.821 527.953C402.59 533.57 409.396 537.066 416.744 537.674L547.752 548.424C551.39 548.724 555.052 548.306 558.528 547.191C562.004 546.077 565.226 544.29 568.01 541.931C570.795 539.572 573.087 536.689 574.756 533.445C576.425 530.201 577.437 526.66 577.736 523.025L590.44 368.601C590.828 364.04 590.081 359.453 588.266 355.25C586.45 351.046 583.622 347.357 580.033 344.511Z" fill="#407BFF"/>
<path opacity="0.3" d="M479.091 96.4444L477.965 110.12L557.303 116.637L558.429 102.961L479.091 96.4444Z" fill="#407BFF"/>
<path opacity="0.3" d="M591.603 170.232L560.941 137.391C560.941 137.391 541.172 138.244 556.525 162.467C569.611 182.954 592.412 179.762 591.603 170.232Z" fill="white"/>
<path opacity="0.2" d="M391.322 507.656C390.724 514.998 393.066 522.277 397.836 527.894C402.605 533.512 409.411 537.008 416.758 537.615L547.766 548.366C551.405 548.666 555.066 548.247 558.542 547.133C562.018 546.018 565.241 544.231 568.025 541.872C570.81 539.514 573.102 536.63 574.771 533.386C576.439 530.142 577.452 526.602 577.751 522.966L391.322 507.656Z" fill="#407BFF"/>
<path opacity="0.3" d="M585.876 173.071C589.3 176.739 591.92 181.082 593.568 185.82C595.215 190.558 595.854 195.588 595.444 200.588L585.494 321.715C585.235 324.829 584.21 327.83 582.51 330.452C580.81 333.075 578.487 335.237 575.749 336.746L564.164 343.158L574.542 351.379C576.997 353.313 578.936 355.823 580.184 358.687C581.432 361.551 581.952 364.679 581.696 367.792L568.993 522.216C568.583 527.221 566.204 531.859 562.376 535.112C558.549 538.366 553.586 539.969 548.576 539.571L417.568 528.82C415.08 528.623 412.655 527.938 410.432 526.805C408.209 525.672 406.231 524.112 404.612 522.215C402.992 520.318 401.762 518.121 400.992 515.749C400.222 513.378 399.928 510.877 400.125 508.392L412.828 353.968C413.082 350.852 414.103 347.848 415.801 345.223C417.498 342.598 419.82 340.433 422.558 338.922L434.143 332.51L423.839 324.289C421.383 322.355 419.445 319.844 418.197 316.981C416.949 314.117 416.429 310.989 416.685 307.876L426.65 186.763C427.064 181.763 428.517 176.905 430.917 172.498C433.318 168.092 436.612 164.234 440.59 161.173C452.366 153.569 483.278 172.497 519.475 175.468C555.671 178.439 578.31 169.262 585.876 173.071Z" fill="#407BFF"/>
<path opacity="0.2" d="M519.401 175.483C483.219 172.541 452.278 153.569 440.502 161.173C461.11 172.497 484.662 179.512 518.827 182.321C552.992 185.13 585.876 173.071 585.876 173.071C578.31 169.262 555.583 178.468 519.401 175.483Z" fill="#407BFF"/>
<path opacity="0.2" d="M407.809 307.17C407.432 311.732 408.19 316.316 410.016 320.514C411.842 324.712 414.679 328.393 418.275 331.23L580.033 344.467C584.048 342.252 587.453 339.078 589.942 335.229C592.431 331.38 593.927 326.974 594.296 322.406L407.809 307.17Z" fill="#407BFF"/>
<path d="M560.087 81.2711L480.971 74.7521C477.657 74.4791 474.751 76.9418 474.479 80.2528L472.902 99.484C472.63 102.795 475.096 105.7 478.41 105.974L557.526 112.492C560.84 112.766 563.747 110.303 564.018 106.992L565.596 87.7606C565.867 84.4496 563.401 81.5441 560.087 81.2711Z" fill="#407BFF"/>
<path opacity="0.2" d="M482.424 103.006C482.328 102.999 482.233 102.972 482.147 102.928C482.06 102.884 481.983 102.824 481.92 102.75C481.857 102.676 481.81 102.591 481.78 102.498C481.75 102.406 481.739 102.309 481.747 102.212L483.602 78.9454C483.618 78.7504 483.71 78.5695 483.859 78.4427C484.008 78.3158 484.202 78.2533 484.397 78.2689C484.592 78.2845 484.773 78.3769 484.9 78.5259C485.027 78.6748 485.09 78.868 485.074 79.0631L483.16 102.315C483.149 102.502 483.067 102.678 482.93 102.807C482.793 102.935 482.612 103.007 482.424 103.006Z" fill="white"/>
<path opacity="0.2" d="M496.776 104.183C496.68 104.175 496.585 104.149 496.499 104.105C496.412 104.061 496.335 104 496.272 103.926C496.209 103.853 496.162 103.767 496.132 103.675C496.102 103.582 496.091 103.485 496.099 103.389L498.013 80.1367C498.032 79.9429 498.125 79.764 498.273 79.6378C498.422 79.5115 498.613 79.4478 498.808 79.4602C498.904 79.4675 498.998 79.4941 499.083 79.5383C499.169 79.5824 499.245 79.6434 499.307 79.7174C499.369 79.7915 499.415 79.8771 499.443 79.9694C499.471 80.0616 499.48 80.1585 499.47 80.2544L497.512 103.506C497.494 103.69 497.409 103.86 497.273 103.985C497.138 104.11 496.961 104.18 496.776 104.183Z" fill="white"/>
<path opacity="0.2" d="M511.114 105.418C511.017 105.411 510.922 105.384 510.836 105.34C510.75 105.296 510.673 105.236 510.61 105.162C510.547 105.088 510.499 105.002 510.469 104.91C510.44 104.818 510.428 104.721 510.436 104.624L512.35 81.3721C512.372 81.1797 512.467 81.0029 512.614 80.8774C512.762 80.7518 512.951 80.6868 513.145 80.6955C513.242 80.703 513.336 80.7294 513.423 80.7734C513.509 80.8174 513.586 80.8781 513.649 80.9519C513.712 81.0257 513.76 81.1112 513.789 81.2035C513.819 81.2958 513.83 81.3931 513.822 81.4897L511.908 104.742C511.901 104.838 511.875 104.933 511.831 105.019C511.786 105.105 511.726 105.182 511.652 105.245C511.578 105.308 511.492 105.356 511.4 105.385C511.308 105.415 511.21 105.426 511.114 105.418Z" fill="white"/>
<path opacity="0.2" d="M525.466 106.536C525.369 106.528 525.275 106.502 525.188 106.458C525.102 106.414 525.025 106.353 524.962 106.28C524.899 106.206 524.851 106.12 524.821 106.028C524.792 105.936 524.78 105.838 524.788 105.742L526.702 82.4898C526.721 82.296 526.814 82.1171 526.963 81.9909C527.111 81.8646 527.302 81.8009 527.497 81.8133C527.593 81.8206 527.687 81.8472 527.773 81.8913C527.858 81.9355 527.934 81.9964 527.996 82.0705C528.058 82.1445 528.104 82.2302 528.132 82.3224C528.16 82.4147 528.17 82.5116 528.159 82.6075L526.246 105.859C526.24 105.955 526.215 106.049 526.173 106.136C526.131 106.222 526.071 106.299 525.998 106.362C525.926 106.425 525.841 106.473 525.75 106.503C525.658 106.533 525.562 106.544 525.466 106.536Z" fill="white"/>
<path opacity="0.2" d="M539.744 107.712C539.647 107.705 539.553 107.679 539.466 107.635C539.38 107.591 539.303 107.53 539.24 107.456C539.177 107.382 539.129 107.297 539.1 107.204C539.07 107.112 539.059 107.015 539.067 106.918L540.981 83.6664C541.006 83.4754 541.101 83.3006 541.248 83.1757C541.395 83.0507 541.583 82.9845 541.775 82.9899C541.872 82.9973 541.966 83.0238 542.053 83.0677C542.139 83.1117 542.216 83.1724 542.279 83.2462C542.342 83.32 542.39 83.4055 542.42 83.4978C542.449 83.5901 542.461 83.6874 542.453 83.784L540.539 107.036C540.533 107.133 540.508 107.229 540.465 107.316C540.422 107.403 540.361 107.481 540.286 107.544C540.212 107.608 540.126 107.655 540.033 107.684C539.939 107.713 539.841 107.723 539.744 107.712Z" fill="white"/>
<path opacity="0.2" d="M554.155 108.889C554.058 108.882 553.964 108.855 553.877 108.811C553.791 108.767 553.714 108.706 553.651 108.633C553.588 108.559 553.54 108.473 553.511 108.381C553.481 108.289 553.47 108.191 553.478 108.095L555.332 84.8282C555.351 84.6345 555.445 84.4555 555.593 84.3293C555.741 84.203 555.933 84.1394 556.127 84.1517C556.32 84.1704 556.498 84.2642 556.622 84.4129C556.746 84.5616 556.806 84.7531 556.79 84.9459L554.891 108.212C554.873 108.396 554.788 108.566 554.652 108.691C554.516 108.816 554.339 108.886 554.155 108.889Z" fill="white"/>
<path opacity="0.2" d="M432.288 266.711C430.051 254.342 412.019 255.224 410.988 267.74L407.75 307.17C407.373 311.731 408.131 316.316 409.957 320.514C411.784 324.712 414.62 328.393 418.216 331.23C414.2 333.444 410.797 336.617 408.31 340.467C405.823 344.317 404.331 348.723 403.967 353.291L391.263 507.715C390.665 515.057 393.008 522.336 397.777 527.953C402.546 533.57 409.352 537.066 416.7 537.674L450.556 540.453C454.285 540.758 458.036 540.203 461.517 538.829C464.997 537.456 468.116 535.302 470.631 532.533C473.146 529.764 474.991 526.455 476.022 522.861C477.054 519.267 477.245 515.484 476.58 511.804L432.288 266.711Z" fill="#407BFF"/>
<path opacity="0.3" d="M562.56 468.918C562.326 471.753 561.257 474.455 559.486 476.682C557.716 478.91 555.324 480.563 552.614 481.433C549.903 482.302 546.995 482.349 544.258 481.568C541.52 480.787 539.076 479.212 537.234 477.043C535.393 474.874 534.236 472.208 533.911 469.382C533.585 466.556 534.106 463.697 535.406 461.167C536.707 458.637 538.729 456.548 541.217 455.166C543.706 453.784 546.548 453.17 549.386 453.402C553.191 453.717 556.716 455.528 559.186 458.437C561.656 461.346 562.869 465.116 562.56 468.918Z" fill="#407BFF"/>
<path opacity="0.3" d="M516.796 413.222C516.632 415.229 515.876 417.142 514.623 418.719C513.371 420.296 511.679 421.467 509.761 422.083C507.843 422.699 505.785 422.733 503.847 422.18C501.91 421.628 500.18 420.514 498.876 418.979C497.573 417.444 496.754 415.557 496.524 413.557C496.293 411.557 496.662 409.534 497.583 407.743C498.503 405.953 499.935 404.475 501.696 403.497C503.458 402.52 505.47 402.086 507.478 402.251C510.168 402.476 512.659 403.757 514.405 405.813C516.152 407.87 517.011 410.534 516.796 413.222Z" fill="#407BFF"/>
<path opacity="0.3" d="M474.211 289.256C472.199 289.35 470.205 288.846 468.48 287.808C466.755 286.769 465.377 285.244 464.52 283.423C463.663 281.603 463.365 279.569 463.664 277.58C463.962 275.59 464.845 273.733 466.199 272.245C467.554 270.756 469.319 269.702 471.273 269.215C473.227 268.728 475.282 268.831 477.177 269.511C479.072 270.19 480.724 271.416 481.922 273.032C483.121 274.649 483.813 276.584 483.911 278.594C483.976 279.931 483.777 281.267 483.325 282.527C482.872 283.787 482.176 284.945 481.275 285.936C480.374 286.926 479.286 287.729 478.074 288.299C476.861 288.869 475.549 289.194 474.211 289.256Z" fill="#407BFF"/>
<path opacity="0.3" d="M501.987 228.413C500.561 228.485 499.146 228.131 497.921 227.399C496.696 226.666 495.717 225.586 495.106 224.297C494.496 223.007 494.282 221.566 494.493 220.155C494.703 218.744 495.328 217.427 496.287 216.371C497.247 215.315 498.499 214.567 499.885 214.223C501.27 213.878 502.727 213.952 504.07 214.435C505.413 214.919 506.583 215.789 507.431 216.937C508.278 218.085 508.766 219.458 508.832 220.883C508.92 222.788 508.249 224.65 506.966 226.061C505.683 227.472 503.893 228.318 501.987 228.413Z" fill="#407BFF"/>
<path opacity="0.3" d="M546.677 369.233C546.607 370.061 546.294 370.851 545.776 371.501C545.257 372.151 544.558 372.634 543.765 372.887C542.973 373.14 542.123 373.153 541.323 372.925C540.523 372.696 539.809 372.235 539.271 371.601C538.733 370.967 538.395 370.188 538.3 369.362C538.204 368.537 538.356 367.701 538.736 366.961C539.116 366.222 539.707 365.611 540.434 365.207C541.161 364.802 541.991 364.622 542.82 364.689C543.934 364.783 544.965 365.314 545.688 366.165C546.411 367.017 546.767 368.12 546.677 369.233Z" fill="#407BFF"/>
<path opacity="0.7" d="M470.428 484.302H469.721C468.594 484.224 467.493 483.924 466.482 483.42C465.472 482.915 464.571 482.215 463.833 481.36C463.107 480.509 462.557 479.522 462.216 478.456C461.875 477.391 461.749 476.268 461.846 475.154C461.983 473.506 462.597 471.934 463.614 470.629C464.63 469.324 466.005 468.343 467.57 467.806C469.136 467.269 470.823 467.199 472.428 467.604C474.032 468.009 475.484 468.872 476.606 470.088C477.727 471.304 478.471 472.819 478.745 474.45C479.019 476.081 478.811 477.756 478.148 479.271C477.485 480.786 476.395 482.075 475.011 482.982C473.627 483.888 472.009 484.372 470.354 484.375L470.428 484.302ZM470.428 468.359C468.753 468.367 467.132 468.946 465.831 469.999C464.53 471.052 463.628 472.516 463.272 474.151C462.916 475.785 463.129 477.492 463.875 478.989C464.621 480.487 465.856 481.685 467.375 482.387C468.895 483.089 470.609 483.253 472.234 482.85C473.859 482.448 475.298 481.504 476.314 480.175C477.33 478.846 477.862 477.21 477.822 475.538C477.782 473.865 477.173 472.257 476.095 470.977C475.466 470.233 474.697 469.621 473.83 469.177C472.963 468.733 472.017 468.465 471.046 468.389L470.428 468.359Z" fill="white"/>
<path opacity="0.7" d="M561.471 312.2H560.956C559.321 312.065 557.806 311.287 556.744 310.039C555.681 308.79 555.158 307.171 555.288 305.537C555.423 303.901 556.203 302.385 557.456 301.324C558.71 300.262 560.334 299.741 561.971 299.875C563.606 300.01 565.121 300.787 566.183 302.036C567.245 303.285 567.769 304.904 567.638 306.537C567.499 308.173 566.722 309.689 565.475 310.758C564.353 311.698 562.934 312.209 561.471 312.2ZM556.392 305.596C556.319 306.596 556.543 307.595 557.037 308.469C557.53 309.342 558.271 310.05 559.165 310.504C560.06 310.958 561.069 311.138 562.066 311.021C563.063 310.904 564.003 310.495 564.768 309.846C565.279 309.414 565.699 308.885 566.005 308.29C566.311 307.696 566.497 307.046 566.551 306.38C566.606 305.713 566.529 305.042 566.324 304.406C566.119 303.769 565.79 303.179 565.357 302.669C564.907 302.174 564.363 301.773 563.756 301.49C563.15 301.207 562.493 301.048 561.824 301.022C561.158 300.966 560.487 301.041 559.85 301.245C559.213 301.448 558.623 301.775 558.113 302.207C557.603 302.638 557.183 303.167 556.877 303.761C556.572 304.355 556.387 305.004 556.333 305.67L556.392 305.596Z" fill="white"/>
<path opacity="0.7" d="M466.365 181.806H466.144C465.384 181.731 464.682 181.364 464.188 180.783C463.694 180.201 463.445 179.45 463.494 178.689C463.532 178.116 463.736 177.568 464.081 177.11C464.426 176.652 464.898 176.305 465.438 176.111C465.978 175.918 466.563 175.886 467.121 176.02C467.679 176.154 468.186 176.449 468.578 176.866C468.971 177.284 469.233 177.808 469.332 178.373C469.431 178.937 469.363 179.519 469.135 180.045C468.908 180.571 468.531 181.02 468.052 181.335C467.573 181.651 467.012 181.82 466.438 181.821L466.365 181.806ZM464.584 178.777C464.556 179.127 464.633 179.478 464.804 179.785C464.975 180.091 465.234 180.341 465.547 180.501C465.86 180.661 466.214 180.725 466.563 180.685C466.913 180.645 467.242 180.502 467.511 180.275C467.779 180.048 467.974 179.746 468.071 179.408C468.168 179.071 468.163 178.712 468.056 178.377C467.949 178.042 467.746 177.746 467.471 177.527C467.196 177.308 466.862 177.175 466.512 177.144C466.278 177.122 466.041 177.147 465.816 177.218C465.592 177.288 465.383 177.403 465.204 177.555C465.024 177.707 464.877 177.893 464.77 178.103C464.664 178.313 464.6 178.542 464.584 178.777Z" fill="white"/>
<path opacity="0.7" d="M531.457 257.975H530.838C529.869 257.899 528.925 257.632 528.06 257.189C527.195 256.746 526.426 256.137 525.797 255.396C525.169 254.655 524.694 253.797 524.4 252.871C524.105 251.945 523.997 250.971 524.082 250.003C524.207 248.583 524.743 247.23 525.625 246.109C526.506 244.988 527.694 244.147 529.045 243.688C530.396 243.229 531.852 243.173 533.234 243.525C534.617 243.878 535.867 244.625 536.832 245.674C537.798 246.724 538.437 248.031 538.673 249.437C538.908 250.843 538.729 252.288 538.158 253.594C537.587 254.9 536.648 256.013 535.456 256.796C534.263 257.579 532.869 257.998 531.442 258.004L531.457 257.975ZM531.457 244.297C529.975 244.29 528.54 244.812 527.409 245.768C526.137 246.842 525.344 248.375 525.201 250.033C525.118 251.061 525.289 252.094 525.701 253.04C526.112 253.986 526.751 254.817 527.56 255.458C528.369 256.099 529.323 256.531 530.339 256.716C531.355 256.901 532.401 256.833 533.384 256.518C534.367 256.203 535.258 255.651 535.977 254.911C536.696 254.17 537.221 253.264 537.506 252.273C537.792 251.281 537.828 250.235 537.613 249.226C537.397 248.217 536.936 247.277 536.27 246.488C535.737 245.857 535.084 245.339 534.349 244.962C533.613 244.586 532.81 244.36 531.987 244.297H531.457Z" fill="white"/>
<path opacity="0.3" d="M591.838 322.274L601.347 206.779C601.408 206.041 601.322 205.299 601.095 204.594C600.868 203.889 600.504 203.236 600.024 202.672C599.544 202.108 598.958 201.644 598.298 201.306C597.639 200.969 596.919 200.765 596.18 200.705C595.443 200.643 594.7 200.727 593.995 200.952C593.289 201.177 592.635 201.539 592.071 202.017C591.506 202.496 591.041 203.081 590.703 203.739C590.365 204.397 590.16 205.115 590.101 205.853L580.592 321.347C580.283 325.187 579.025 328.889 576.931 332.123C574.837 335.357 571.973 338.022 568.595 339.878L562.81 343.099L568.006 347.202C571.035 349.586 573.426 352.681 574.967 356.212C576.508 359.743 577.151 363.6 576.838 367.439L564.135 521.863C563.37 531.129 557.54 535.644 549.341 539.247C548.821 539.48 548.393 539.879 548.124 540.381C547.855 540.883 547.76 541.46 547.854 542.021C547.949 542.583 548.227 543.098 548.645 543.484C549.063 543.871 549.598 544.109 550.166 544.159C556.345 544.664 562.472 542.696 567.2 538.689C571.929 534.682 574.871 528.964 575.381 522.79L588.084 368.366C588.399 364.526 587.758 360.669 586.217 357.137C584.675 353.606 582.283 350.511 579.252 348.129L574.056 344.011L579.841 340.805C583.217 338.945 586.079 336.28 588.172 333.047C590.265 329.813 591.525 326.112 591.838 322.274Z" fill="white"/>
<path opacity="0.3" d="M744.632 501.759C743.042 494.552 723.199 498.818 719.093 499.479C711.113 500.926 703.301 503.178 695.776 506.2C687.489 509.451 677.862 514.23 669.28 509.289C664.319 506.436 681.542 500.803 683.102 500.229C690.422 497.66 697.488 494.421 704.211 490.552C706.934 488.934 712.204 485.066 709.937 481.14C708.053 477.889 701.296 478.198 697.189 478.698C684.745 480.221 672.537 483.279 660.845 487.802C649.474 492.315 638.341 497.406 627.49 503.053C623.286 505.423 618.713 507.068 613.962 507.921C608.781 508.657 602.437 507.554 600.39 504.686C598.344 501.818 600.979 498.465 601.583 495.582C602.436 492.136 602.078 488.501 600.567 485.287C599.565 483.133 597.885 481.367 595.783 480.257C590.175 477.316 581.696 478.404 576.058 480.728C572.405 482.274 569.067 484.477 566.211 487.228C560.457 492.579 556.42 499.514 554.611 507.156C554.156 509.55 553.232 511.83 551.893 513.867C550.555 515.903 548.827 517.656 546.81 519.025C538.92 524.334 524.465 524.025 513.41 521.363C494.112 516.79 479.392 506.098 475.844 494.023C474.122 488.273 473.283 482.257 465.54 480.007C460.536 478.536 450.055 479.566 452.292 485.89C453.105 487.623 454.166 489.228 455.443 490.655C457.489 493.346 459.667 498.42 453.588 500.053C451.619 500.47 449.597 500.57 447.597 500.347C428.049 499.038 410.061 492.523 398.403 483.346C394.601 480.362 391.378 476.708 388.893 472.565C387.51 470.286 387.009 467.83 385.493 465.58C384.044 463.414 382 461.713 379.605 460.682C372.098 457.461 354.463 459.138 353.227 466.197C352.564 470.021 354.949 474.168 356.171 477.801C356.39 478.259 356.442 478.779 356.318 479.272C355.965 480.198 354.566 480.463 353.374 480.537C337.609 481.581 322.315 475.463 309.082 469.08C295.068 462.315 279.642 453.505 260.167 453.402C256.14 453.218 252.11 453.68 248.229 454.77C247.247 455.032 246.333 455.503 245.55 456.152C245.074 456.647 244.758 457.274 244.643 457.95C244.527 458.627 244.618 459.322 244.902 459.947C245.535 461.242 246.475 462.363 247.64 463.212C253.528 468.006 261.772 469.948 269.293 472.418C291.611 479.646 313.189 488.978 333.738 500.288C335.813 501.45 339.493 504.141 336.579 506.171C333.664 508.201 327.747 506.892 324.258 506.318C317.928 505.289 311.849 503.641 305.681 502.097C297.526 500.038 288.017 498.17 279.185 499.876C274.519 500.774 270.353 502.685 268.16 505.274C267.404 506.031 266.906 507.007 266.737 508.063C266.568 509.119 266.736 510.202 267.218 511.157C270.25 516.554 284.072 518.878 291.624 521.452C301.292 524.749 310.746 528.644 319.93 533.114C327.776 536.997 335.062 541.247 343.011 545.057C371.406 558.661 411.062 560.411 446.522 561.734C485.015 563.205 523.685 561.955 562.074 559.822C590.042 558.263 617.495 555.19 644.904 551.572C652.779 550.542 660.61 549.277 668.456 548.204C676.42 547.292 684.297 545.732 692.008 543.542C694.778 542.836 697.364 541.541 699.589 539.747C701.693 537.791 702.356 535.232 698.588 534.497C690.698 532.923 682.572 534.717 674.859 536.115C666.204 537.703 657.627 539.532 649.128 541.6C645.254 542.633 641.322 543.433 637.352 543.998C633.362 544.557 629.3 544.297 625.414 543.233C624.149 542.836 622.765 542.13 622.691 541.012C622.618 539.894 623.677 539.188 624.767 538.762C640.65 532.467 657.519 528.467 674.506 524.79C686.031 522.29 697.763 520.76 709.377 518.804C719.961 517.025 731.119 516.613 740.289 509.907C742.115 508.729 743.533 507.02 744.352 505.009C744.75 503.974 744.847 502.847 744.632 501.759Z" fill="#407BFF"/>
<path opacity="0.3" d="M289.136 442.21C284.823 429.959 269.455 408.266 266.217 421.076C264.48 428.268 289.136 442.21 289.136 442.21Z" fill="#407BFF"/>
<path opacity="0.3" d="M675.065 466.329C683.279 458.844 693.524 454.388 694.849 460.976C696.085 467.211 675.065 466.329 675.065 466.329Z" fill="#407BFF"/>
<path opacity="0.3" d="M338.08 406.795C332.457 403.853 328.07 399.133 331.368 397.162C334.665 395.192 338.08 406.795 338.08 406.795Z" fill="#407BFF"/>
</g>
<defs>
<clipPath id="clip0_15438_858">
<rect width="736" height="548" fill="white" transform="translate(132 26)"/>
</clipPath>
</defs>
</svg>
