<svg width="2307" height="800" viewBox="0 0 2307 800" fill="none" xmlns="http://www.w3.org/2000/svg">
<path fill-rule="evenodd" clip-rule="evenodd" d="M0 336L80.0833 345.667C160.167 355.333 320.333 374.667 480.5 442.333C640.667 510 800.833 626 961 684C1121.17 742 1281.33 742 1441.5 751.667C1601.67 761.333 1761.83 780.667 1841.92 790.333L1922 800H1841.92C1761.83 800 1601.67 800 1441.5 800C1281.33 800 1121.17 800 961 800C800.833 800 640.667 800 480.5 800C320.333 800 160.167 800 80.0833 800H0V336Z" fill="#9EBBFF"/>
<path opacity="0.8" fill-rule="evenodd" clip-rule="evenodd" d="M2307 0H2242.92C2178.83 0 2050.67 0 1922.5 40.7407C1794.33 79.6296 1666.17 159.259 1538 159.259C1409.83 159.259 1281.67 79.6296 1153.5 146.296C1025.33 212.963 897.167 425.926 769 533.333C640.833 640.741 512.667 640.741 384.5 612.963C256.333 587.037 128.167 533.333 64.0833 507.407L0 479.63V800H64.0833C128.167 800 256.333 800 384.5 800C512.667 800 640.833 800 769 800C897.167 800 1025.33 800 1153.5 800C1281.67 800 1409.83 800 1538 800C1666.17 800 1794.33 800 1922.5 800C2050.67 800 2178.83 800 2242.92 800H2307V0Z" fill="#ECF2FF"/>
<g clip-path="url(#clip0_15550_849)">
<path d="M1048 750C1158.94 750 1248.87 744.75 1248.87 738.273C1248.87 731.797 1158.94 726.546 1048 726.546C937.062 726.546 847.13 731.797 847.13 738.273C847.13 744.75 937.062 750 1048 750Z" fill="#F5F5F5"/>
<path opacity="0.1" d="M931.243 656.403C931.367 655.47 931.845 654.62 932.577 654.028C933.31 653.437 934.241 653.148 935.18 653.223C944.048 653.088 952.346 659.356 960.044 666.079C961.753 667.56 963.607 669.093 965.524 667.54C966.117 667.049 966.55 666.392 966.767 665.654C967.099 664.447 967.099 663.173 966.767 661.966C966.482 660.97 966.007 660.037 965.369 659.221C962.022 654.818 957.951 652.705 954.646 648.157C952.795 645.552 951.261 642.735 950.077 639.766C949.041 637.156 946.969 632.939 947.798 629.407C948.72 625.18 951.88 625.543 953.797 626.123C959.857 627.936 965.514 632.256 970.652 637.632C976.133 643.35 981.095 650.239 986.037 657.087C987.902 659.687 989.87 662.36 992.253 663.303C994.636 664.245 997.65 662.722 998.655 658.972C999.66 655.222 998.479 650.913 998.231 647.183C997.898 642.733 998.114 638.259 998.873 633.861C999.21 631.536 999.994 629.299 1001.18 627.273C1003.86 623.357 1007.81 624.735 1010.4 627.697C1012.38 630.176 1013.91 632.98 1014.92 635.985C1017.83 644.286 1019.57 652.949 1020.1 661.728C1020.49 667.167 1021.32 672.833 1023.56 677.049C1027.18 683.866 1033.92 683.327 1039.15 679.753C1048.26 673.538 1055.28 659.49 1057.16 643.786C1057.77 638.668 1057.92 633.136 1059.79 628.847C1061.42 625.139 1065.59 622.632 1067.63 626.63C1068.45 628.63 1068.68 630.823 1068.3 632.95C1067.93 635.056 1067.41 637.133 1066.75 639.165C1065.72 642.687 1064.68 649.286 1067.48 651.348C1067.89 651.601 1068.36 651.76 1068.85 651.814C1069.33 651.868 1069.82 651.815 1070.28 651.659C1079.44 649.753 1087.96 641.134 1093.55 629.106C1095.58 624.58 1097.13 619.855 1098.17 615.007C1098.85 612.044 1099.13 608.864 1099.87 605.922C1100.35 603.607 1101.32 601.42 1102.71 599.51C1106.27 595.242 1114.5 597.251 1114.97 606.399C1115.25 611.692 1113.84 616.872 1113.32 622.052C1113 625.284 1115 625.263 1116.49 625.159C1123.64 624.434 1129.96 617.224 1135.56 609.724C1142.22 600.805 1149.6 589.223 1158.7 588.881C1160.77 588.808 1164.22 589.078 1165.46 592.279C1166.04 594.24 1166.04 596.326 1165.46 598.287C1163.62 605.932 1158.21 609.879 1154.07 613.661C1142.38 624.618 1132.11 636.986 1123.47 650.478C1122.16 652.55 1120.8 655.968 1122.05 657.999C1122.29 658.385 1122.64 658.69 1123.06 658.875C1123.48 659.06 1123.94 659.115 1124.38 659.034C1128.66 658.703 1132.67 655.305 1136.58 652.487C1140.48 649.67 1144.92 647.204 1149.01 649.328C1150.27 650.085 1151.37 651.084 1152.24 652.268C1153.12 653.453 1153.75 654.798 1154.1 656.227C1154.83 658.731 1154.95 661.375 1154.44 663.934C1152.94 670.968 1146.44 674.128 1142.87 677.598C1137.94 682.346 1133.44 687.507 1129.4 693.024C1125.67 698.131 1122.15 703.725 1118.42 708.739C1104.95 726.691 1086.3 729.354 1069.72 731.436C1051.69 733.694 1033.61 732.472 1015.68 730.1C1002.63 728.359 989.777 724.651 977.044 720.248C972.672 718.663 968.332 716.933 964.043 714.882C959.432 712.686 952.647 711.329 950.875 702.678C950.502 700.814 950.937 699.301 952.17 698.607C955.993 696.432 961.442 699.343 965.037 701.259C970 703.911 974.703 707.692 979.8 709.733C980.619 710.136 981.512 710.368 982.424 710.416C983.335 710.464 984.247 710.327 985.104 710.013C985.945 709.66 986.637 709.027 987.062 708.221C987.604 707.17 987.737 705.956 987.435 704.812C987.225 704.195 986.87 703.637 986.399 703.186C977.225 693.784 966.263 686.31 954.159 681.204C950.274 679.536 946.306 678.168 942.566 675.806C939.543 673.937 936.934 671.469 934.9 668.555C933.159 665.768 930.362 660.847 931.243 656.403Z" fill="#407BFF"/>
<path opacity="0.1" d="M1129.4 580.251C1128.71 580.969 1127.8 581.441 1126.81 581.597C1125.83 581.753 1124.82 581.584 1123.94 581.116C1123.06 580.648 1122.36 579.906 1121.94 579.002C1121.52 578.099 1121.4 577.083 1121.61 576.108C1125.18 558.756 1132.95 546.138 1142.19 552.685C1149.09 557.564 1138.28 571.021 1129.4 580.251Z" fill="#407BFF"/>
<path opacity="0.3" d="M1104.33 588.353C1107.15 586.793 1109.55 584.557 1111.3 581.846C1113.05 579.134 1114.11 576.031 1114.37 572.814L1121.37 487.504C1121.73 483.119 1121.17 478.706 1119.73 474.549C1118.29 470.393 1115.99 466.584 1112.99 463.367L1091.41 440.255C1090.22 438.977 1089.31 437.466 1088.74 435.819C1088.17 434.171 1087.94 432.422 1088.08 430.683L1089.12 418.19L1033.27 413.601L1032.23 426.094C1032.09 427.832 1031.58 429.521 1030.75 431.054C1029.92 432.586 1028.78 433.928 1027.39 434.993L1002.32 454.292C998.837 456.978 995.952 460.362 993.85 464.228C991.748 468.094 990.478 472.356 990.119 476.741L983.105 562.05C982.84 565.263 983.373 568.492 984.659 571.449C985.944 574.406 987.941 577 990.471 578.998C987.645 580.557 985.249 582.793 983.499 585.504C981.749 588.216 980.699 591.32 980.442 594.537L971.502 703.31C971.08 708.482 972.729 713.609 976.086 717.566C979.443 721.522 984.233 723.985 989.404 724.412L1081.61 731.985C1084.17 732.196 1086.75 731.901 1089.19 731.117C1091.64 730.332 1093.91 729.073 1095.87 727.411C1097.83 725.75 1099.44 723.719 1100.61 721.434C1101.79 719.149 1102.5 716.655 1102.71 714.094L1111.65 605.321C1111.93 602.108 1111.4 598.877 1110.12 595.917C1108.84 592.956 1106.85 590.357 1104.33 588.353Z" fill="#407BFF"/>
<path opacity="0.3" d="M1033.28 413.62L1032.49 423.252L1088.33 427.843L1089.12 418.21L1033.28 413.62Z" fill="#407BFF"/>
<path opacity="0.3" d="M1112.47 465.594L1090.89 442.462C1090.89 442.462 1076.98 443.063 1087.78 460.124C1096.99 474.555 1113.04 472.307 1112.47 465.594Z" fill="white"/>
<path opacity="0.2" d="M971.512 703.269C971.091 708.44 972.74 713.567 976.096 717.524C979.453 721.481 984.243 723.943 989.414 724.371L1081.62 731.944C1084.18 732.155 1086.76 731.86 1089.2 731.075C1091.65 730.29 1093.92 729.031 1095.88 727.37C1097.84 725.709 1099.45 723.677 1100.62 721.392C1101.8 719.107 1102.51 716.614 1102.72 714.053L971.512 703.269Z" fill="#407BFF"/>
<path opacity="0.3" d="M1108.44 467.594C1110.85 470.178 1112.69 473.236 1113.85 476.574C1115.01 479.912 1115.46 483.454 1115.17 486.976L1108.17 572.296C1107.99 574.489 1107.27 576.603 1106.07 578.45C1104.87 580.297 1103.24 581.82 1101.31 582.883L1093.16 587.4L1100.46 593.19C1102.19 594.552 1103.56 596.321 1104.43 598.338C1105.31 600.355 1105.68 602.559 1105.5 604.751L1096.56 713.525C1096.27 717.05 1094.59 720.316 1091.9 722.608C1089.21 724.9 1085.71 726.029 1082.19 725.749L989.984 718.176C988.233 718.037 986.527 717.555 984.962 716.757C983.397 715.959 982.005 714.86 980.865 713.524C979.725 712.188 978.86 710.64 978.318 708.97C977.776 707.299 977.569 705.538 977.707 703.787L986.648 595.014C986.827 592.819 987.545 590.703 988.74 588.854C989.935 587.005 991.569 585.481 993.496 584.416L1001.65 579.899L994.397 574.108C992.669 572.747 991.305 570.978 990.427 568.961C989.548 566.944 989.182 564.74 989.362 562.547L996.376 477.238C996.667 473.716 997.69 470.294 999.379 467.19C1001.07 464.086 1003.39 461.369 1006.19 459.213C1014.48 453.857 1036.23 467.19 1061.71 469.282C1087.18 471.375 1103.12 464.911 1108.44 467.594Z" fill="#407BFF"/>
<path opacity="0.2" d="M1061.65 469.293C1036.19 467.221 1014.41 453.857 1006.12 459.213C1020.63 467.19 1037.21 472.131 1061.25 474.11C1085.3 476.088 1108.44 467.594 1108.44 467.594C1103.12 464.911 1087.12 471.395 1061.65 469.293Z" fill="#407BFF"/>
<path opacity="0.2" d="M983.115 562.05C982.85 565.263 983.384 568.492 984.669 571.449C985.954 574.406 987.951 577 990.481 578.998L1104.33 588.322C1107.15 586.762 1109.55 584.526 1111.3 581.815C1113.05 579.103 1114.11 576 1114.37 572.782L983.115 562.05Z" fill="#407BFF"/>
<path d="M1090.29 402.932L1034.61 398.34C1032.28 398.148 1030.23 399.882 1030.04 402.215L1028.93 415.761C1028.74 418.093 1030.47 420.139 1032.8 420.332L1088.49 424.924C1090.82 425.116 1092.87 423.381 1093.06 421.049L1094.17 407.503C1094.36 405.171 1092.62 403.124 1090.29 402.932Z" fill="#407BFF"/>
<path opacity="0.2" d="M1035.63 418.242C1035.56 418.236 1035.5 418.218 1035.43 418.187C1035.37 418.156 1035.32 418.113 1035.28 418.061C1035.23 418.009 1035.2 417.949 1035.18 417.884C1035.16 417.819 1035.15 417.75 1035.15 417.682L1036.46 401.294C1036.47 401.156 1036.54 401.029 1036.64 400.94C1036.74 400.85 1036.88 400.806 1037.02 400.817C1037.16 400.828 1037.28 400.893 1037.37 400.998C1037.46 401.103 1037.51 401.239 1037.49 401.377L1036.15 417.755C1036.14 417.887 1036.08 418.011 1035.99 418.101C1035.89 418.192 1035.76 418.242 1035.63 418.242Z" fill="white"/>
<path opacity="0.2" d="M1045.73 419.07C1045.66 419.065 1045.6 419.046 1045.54 419.015C1045.48 418.984 1045.42 418.942 1045.38 418.89C1045.33 418.838 1045.3 418.778 1045.28 418.713C1045.26 418.648 1045.25 418.579 1045.25 418.511L1046.6 402.133C1046.61 401.996 1046.68 401.87 1046.78 401.781C1046.89 401.692 1047.02 401.648 1047.16 401.656C1047.23 401.661 1047.29 401.68 1047.35 401.711C1047.42 401.742 1047.47 401.785 1047.51 401.837C1047.56 401.89 1047.59 401.95 1047.61 402.015C1047.63 402.08 1047.63 402.148 1047.63 402.216L1046.25 418.594C1046.24 418.723 1046.18 418.843 1046.08 418.931C1045.99 419.019 1045.86 419.068 1045.73 419.07Z" fill="white"/>
<path opacity="0.2" d="M1055.82 419.941C1055.75 419.935 1055.69 419.917 1055.63 419.886C1055.57 419.855 1055.51 419.812 1055.47 419.76C1055.42 419.708 1055.39 419.648 1055.37 419.583C1055.35 419.518 1055.34 419.449 1055.35 419.381L1056.69 403.003C1056.71 402.867 1056.77 402.743 1056.88 402.655C1056.98 402.566 1057.12 402.52 1057.25 402.526C1057.32 402.532 1057.39 402.55 1057.45 402.581C1057.51 402.612 1057.56 402.655 1057.61 402.707C1057.65 402.759 1057.68 402.819 1057.7 402.884C1057.73 402.949 1057.73 403.018 1057.73 403.086L1056.38 419.464C1056.38 419.532 1056.36 419.598 1056.33 419.659C1056.3 419.72 1056.25 419.774 1056.2 419.819C1056.15 419.863 1056.09 419.897 1056.02 419.917C1055.96 419.938 1055.89 419.946 1055.82 419.941Z" fill="white"/>
<path opacity="0.2" d="M1065.92 420.728C1065.85 420.723 1065.79 420.704 1065.73 420.673C1065.67 420.642 1065.61 420.599 1065.57 420.547C1065.52 420.495 1065.49 420.435 1065.47 420.37C1065.45 420.305 1065.44 420.237 1065.45 420.168L1066.79 403.79C1066.81 403.654 1066.87 403.528 1066.98 403.439C1067.08 403.35 1067.22 403.305 1067.35 403.314C1067.42 403.319 1067.49 403.338 1067.55 403.369C1067.61 403.4 1067.66 403.443 1067.7 403.495C1067.75 403.547 1067.78 403.607 1067.8 403.672C1067.82 403.737 1067.83 403.806 1067.82 403.873L1066.47 420.251C1066.47 420.319 1066.45 420.385 1066.42 420.446C1066.39 420.507 1066.35 420.561 1066.3 420.605C1066.25 420.65 1066.19 420.683 1066.12 420.705C1066.06 420.726 1065.99 420.733 1065.92 420.728Z" fill="white"/>
<path opacity="0.2" d="M1075.97 421.557C1075.9 421.551 1075.84 421.533 1075.78 421.502C1075.72 421.471 1075.66 421.428 1075.62 421.376C1075.57 421.324 1075.54 421.264 1075.52 421.199C1075.5 421.134 1075.49 421.065 1075.5 420.997L1076.84 404.619C1076.86 404.485 1076.93 404.361 1077.03 404.273C1077.13 404.185 1077.27 404.139 1077.4 404.143C1077.47 404.148 1077.54 404.166 1077.6 404.197C1077.66 404.228 1077.71 404.271 1077.76 404.323C1077.8 404.375 1077.83 404.435 1077.86 404.5C1077.88 404.565 1077.88 404.634 1077.88 404.702L1076.53 421.08C1076.53 421.149 1076.51 421.216 1076.48 421.277C1076.45 421.339 1076.41 421.394 1076.35 421.438C1076.3 421.483 1076.24 421.516 1076.18 421.537C1076.11 421.557 1076.04 421.564 1075.97 421.557Z" fill="white"/>
<path opacity="0.2" d="M1086.11 422.385C1086.05 422.38 1085.98 422.361 1085.92 422.33C1085.86 422.299 1085.8 422.257 1085.76 422.205C1085.72 422.153 1085.68 422.093 1085.66 422.028C1085.64 421.963 1085.63 421.894 1085.64 421.826L1086.94 405.437C1086.96 405.301 1087.02 405.175 1087.13 405.086C1087.23 404.997 1087.37 404.952 1087.5 404.961C1087.64 404.974 1087.76 405.04 1087.85 405.145C1087.94 405.25 1087.98 405.384 1087.97 405.52L1086.63 421.909C1086.62 422.038 1086.56 422.158 1086.46 422.246C1086.37 422.334 1086.24 422.383 1086.11 422.385Z" fill="white"/>
<path opacity="0.2" d="M1000.34 533.552C998.769 524.839 986.078 525.461 985.353 534.277L983.074 562.05C982.809 565.263 983.342 568.492 984.628 571.449C985.913 574.406 987.91 577 990.44 578.998C987.614 580.557 985.218 582.793 983.468 585.504C981.718 588.216 980.668 591.32 980.411 594.537L971.471 703.31C971.049 708.482 972.698 713.609 976.055 717.566C979.412 721.522 984.202 723.985 989.373 724.412L1013.2 726.37C1015.83 726.585 1018.47 726.194 1020.92 725.227C1023.37 724.259 1025.56 722.742 1027.33 720.792C1029.1 718.841 1030.4 716.51 1031.12 713.979C1031.85 711.447 1031.98 708.782 1031.52 706.19L1000.34 533.552Z" fill="#407BFF"/>
<path opacity="0.3" d="M1092.03 675.982C1091.87 677.979 1091.11 679.882 1089.87 681.451C1088.62 683.021 1086.94 684.185 1085.03 684.797C1083.12 685.41 1081.08 685.443 1079.15 684.893C1077.22 684.342 1075.5 683.233 1074.21 681.705C1072.91 680.177 1072.1 678.3 1071.87 676.309C1071.64 674.319 1072 672.305 1072.92 670.523C1073.83 668.74 1075.26 667.27 1077.01 666.296C1078.76 665.322 1080.76 664.89 1082.76 665.053C1085.44 665.275 1087.92 666.55 1089.66 668.6C1091.39 670.649 1092.25 673.304 1092.03 675.982Z" fill="#407BFF"/>
<path opacity="0.3" d="M1059.82 636.752C1059.71 638.165 1059.17 639.512 1058.29 640.623C1057.41 641.734 1056.22 642.559 1054.87 642.993C1053.52 643.427 1052.07 643.451 1050.71 643.061C1049.34 642.672 1048.13 641.887 1047.21 640.806C1046.29 639.725 1045.72 638.396 1045.55 636.987C1045.39 635.578 1045.65 634.153 1046.3 632.892C1046.95 631.631 1047.95 630.59 1049.19 629.901C1050.43 629.213 1051.85 628.907 1053.26 629.023C1055.16 629.182 1056.91 630.084 1058.14 631.533C1059.37 632.981 1059.97 634.858 1059.82 636.752Z" fill="#407BFF"/>
<path opacity="0.3" d="M1029.85 549.432C1028.43 549.498 1027.03 549.143 1025.82 548.412C1024.6 547.681 1023.63 546.606 1023.03 545.324C1022.43 544.041 1022.22 542.609 1022.43 541.208C1022.64 539.806 1023.26 538.498 1024.21 537.45C1025.16 536.401 1026.41 535.658 1027.78 535.316C1029.16 534.973 1030.6 535.045 1031.94 535.524C1033.27 536.003 1034.43 536.866 1035.28 538.005C1036.12 539.143 1036.61 540.507 1036.68 541.922C1036.72 542.864 1036.58 543.805 1036.26 544.692C1035.95 545.58 1035.46 546.396 1034.82 547.093C1034.19 547.791 1033.42 548.357 1032.57 548.758C1031.72 549.159 1030.79 549.389 1029.85 549.432Z" fill="#407BFF"/>
<path opacity="0.3" d="M1049.4 506.576C1048.4 506.626 1047.4 506.377 1046.54 505.861C1045.67 505.345 1044.99 504.584 1044.56 503.676C1044.13 502.768 1043.98 501.752 1044.12 500.759C1044.27 499.765 1044.71 498.837 1045.39 498.093C1046.06 497.35 1046.94 496.823 1047.92 496.58C1048.89 496.338 1049.92 496.39 1050.86 496.73C1051.81 497.07 1052.63 497.684 1053.23 498.492C1053.83 499.301 1054.17 500.268 1054.22 501.272C1054.28 502.613 1053.81 503.925 1052.9 504.919C1052 505.913 1050.74 506.509 1049.4 506.576Z" fill="#407BFF"/>
<path opacity="0.3" d="M1080.85 605.766C1080.8 606.35 1080.58 606.906 1080.22 607.364C1079.85 607.822 1079.36 608.162 1078.8 608.34C1078.24 608.519 1077.65 608.528 1077.08 608.367C1076.52 608.205 1076.02 607.881 1075.64 607.434C1075.26 606.988 1075.02 606.439 1074.96 605.857C1074.89 605.276 1075 604.687 1075.26 604.166C1075.53 603.645 1075.95 603.215 1076.46 602.93C1076.97 602.645 1077.55 602.519 1078.14 602.566C1078.92 602.632 1079.65 603.006 1080.16 603.605C1080.66 604.205 1080.91 604.982 1080.85 605.766Z" fill="#407BFF"/>
<path opacity="0.7" d="M1027.19 686.818H1026.69C1025.9 686.764 1025.12 686.553 1024.41 686.197C1023.7 685.841 1023.07 685.348 1022.55 684.746C1022.03 684.147 1021.65 683.451 1021.41 682.701C1021.17 681.95 1021.08 681.16 1021.15 680.375C1021.24 679.214 1021.68 678.107 1022.39 677.188C1023.11 676.269 1024.07 675.578 1025.18 675.199C1026.28 674.821 1027.47 674.771 1028.59 675.057C1029.72 675.342 1030.75 675.95 1031.53 676.807C1032.32 677.663 1032.85 678.731 1033.04 679.879C1033.23 681.028 1033.09 682.208 1032.62 683.275C1032.15 684.342 1031.39 685.25 1030.41 685.889C1029.44 686.527 1028.3 686.868 1027.13 686.87L1027.19 686.818ZM1027.19 675.589C1026.01 675.595 1024.87 676.002 1023.95 676.744C1023.04 677.485 1022.4 678.517 1022.15 679.668C1021.9 680.819 1022.05 682.022 1022.58 683.076C1023.1 684.131 1023.97 684.975 1025.04 685.47C1026.11 685.964 1027.31 686.079 1028.46 685.796C1029.6 685.513 1030.61 684.848 1031.33 683.912C1032.04 682.975 1032.42 681.823 1032.39 680.645C1032.36 679.467 1031.93 678.334 1031.18 677.433C1030.73 676.909 1030.19 676.478 1029.58 676.165C1028.97 675.852 1028.31 675.663 1027.62 675.609L1027.19 675.589Z" fill="white"/>
<path opacity="0.7" d="M1091.26 565.593H1090.9C1089.75 565.498 1088.68 564.951 1087.94 564.071C1087.19 563.191 1086.82 562.051 1086.91 560.9C1087.01 559.748 1087.56 558.68 1088.44 557.932C1089.32 557.184 1090.46 556.817 1091.62 556.912C1092.77 557.007 1093.83 557.554 1094.58 558.434C1095.33 559.314 1095.7 560.454 1095.6 561.605C1095.51 562.757 1094.96 563.825 1094.08 564.578C1093.29 565.24 1092.29 565.6 1091.26 565.593ZM1087.69 560.942C1087.64 561.646 1087.8 562.35 1088.14 562.965C1088.49 563.58 1089.01 564.079 1089.64 564.399C1090.27 564.719 1090.98 564.845 1091.68 564.763C1092.38 564.681 1093.05 564.393 1093.58 563.936C1093.94 563.631 1094.24 563.259 1094.45 562.84C1094.67 562.421 1094.8 561.963 1094.84 561.494C1094.88 561.024 1094.82 560.552 1094.68 560.103C1094.53 559.655 1094.3 559.239 1094 558.88C1093.68 558.531 1093.3 558.249 1092.87 558.05C1092.45 557.85 1091.98 557.738 1091.51 557.72C1091.04 557.68 1090.57 557.734 1090.12 557.877C1089.67 558.02 1089.26 558.25 1088.9 558.554C1088.54 558.858 1088.25 559.23 1088.03 559.649C1087.82 560.068 1087.69 560.525 1087.65 560.994L1087.69 560.942Z" fill="white"/>
<path opacity="0.7" d="M1024.33 473.747H1024.17C1023.64 473.694 1023.14 473.436 1022.8 473.026C1022.45 472.616 1022.27 472.087 1022.31 471.551C1022.33 471.148 1022.48 470.761 1022.72 470.439C1022.96 470.116 1023.29 469.872 1023.68 469.735C1024.06 469.599 1024.47 469.577 1024.86 469.671C1025.25 469.766 1025.61 469.973 1025.89 470.267C1026.16 470.562 1026.35 470.93 1026.42 471.328C1026.49 471.726 1026.44 472.135 1026.28 472.506C1026.12 472.877 1025.85 473.193 1025.52 473.415C1025.18 473.637 1024.78 473.756 1024.38 473.757L1024.33 473.747ZM1023.07 471.613C1023.05 471.86 1023.11 472.107 1023.23 472.323C1023.35 472.539 1023.53 472.714 1023.75 472.827C1023.97 472.94 1024.22 472.985 1024.47 472.957C1024.71 472.929 1024.94 472.828 1025.13 472.668C1025.32 472.508 1025.46 472.296 1025.53 472.058C1025.6 471.82 1025.59 471.567 1025.52 471.331C1025.44 471.095 1025.3 470.887 1025.11 470.733C1024.91 470.578 1024.68 470.484 1024.43 470.463C1024.27 470.447 1024.1 470.465 1023.94 470.515C1023.78 470.564 1023.64 470.645 1023.51 470.752C1023.38 470.859 1023.28 470.991 1023.21 471.138C1023.13 471.286 1023.09 471.448 1023.07 471.613Z" fill="white"/>
<path opacity="0.7" d="M1070.14 527.398H1069.7C1069.02 527.345 1068.36 527.157 1067.75 526.845C1067.14 526.533 1066.6 526.104 1066.16 525.582C1065.71 525.06 1065.38 524.455 1065.17 523.803C1064.97 523.151 1064.89 522.465 1064.95 521.783C1065.04 520.783 1065.41 519.83 1066.03 519.04C1066.65 518.251 1067.49 517.658 1068.44 517.335C1069.39 517.012 1070.42 516.972 1071.39 517.221C1072.36 517.469 1073.24 517.995 1073.92 518.734C1074.6 519.473 1075.05 520.394 1075.22 521.385C1075.38 522.375 1075.26 523.392 1074.86 524.313C1074.45 525.233 1073.79 526.016 1072.95 526.568C1072.11 527.119 1071.13 527.415 1070.13 527.419L1070.14 527.398ZM1070.14 517.764C1069.1 517.759 1068.09 518.127 1067.29 518.8C1066.4 519.557 1065.84 520.637 1065.74 521.804C1065.68 522.528 1065.8 523.256 1066.09 523.922C1066.38 524.589 1066.83 525.174 1067.4 525.625C1067.97 526.077 1068.64 526.381 1069.35 526.511C1070.07 526.642 1070.8 526.594 1071.5 526.372C1072.19 526.15 1072.81 525.761 1073.32 525.24C1073.83 524.718 1074.2 524.08 1074.4 523.382C1074.6 522.684 1074.62 521.946 1074.47 521.236C1074.32 520.525 1074 519.863 1073.53 519.307C1073.15 518.863 1072.69 518.498 1072.17 518.233C1071.66 517.968 1071.09 517.808 1070.51 517.764H1070.14Z" fill="white"/>
<path opacity="0.3" d="M1112.64 572.689L1119.33 491.337C1119.37 490.817 1119.31 490.294 1119.15 489.798C1118.99 489.302 1118.74 488.842 1118.4 488.444C1118.06 488.047 1117.65 487.72 1117.18 487.482C1116.72 487.245 1116.21 487.101 1115.69 487.059C1115.17 487.015 1114.65 487.074 1114.15 487.232C1113.66 487.391 1113.2 487.646 1112.8 487.983C1112.4 488.32 1112.08 488.732 1111.84 489.196C1111.6 489.659 1111.46 490.165 1111.41 490.685L1104.72 572.037C1104.5 574.741 1103.62 577.349 1102.14 579.627C1100.67 581.905 1098.66 583.782 1096.28 585.089L1092.21 587.358L1095.86 590.248C1097.99 591.928 1099.68 594.108 1100.76 596.595C1101.85 599.082 1102.3 601.799 1102.08 604.503L1093.14 713.276C1092.6 719.802 1088.5 722.983 1082.73 725.521C1082.36 725.685 1082.06 725.966 1081.87 726.319C1081.68 726.673 1081.61 727.079 1081.68 727.475C1081.75 727.871 1081.94 728.233 1082.24 728.506C1082.53 728.778 1082.91 728.945 1083.31 728.981C1087.66 729.336 1091.97 727.95 1095.3 725.128C1098.62 722.305 1100.69 718.277 1101.05 713.929L1109.99 605.155C1110.22 602.451 1109.76 599.734 1108.68 597.246C1107.59 594.759 1105.91 592.579 1103.78 590.901L1100.12 588L1104.19 585.742C1106.57 584.432 1108.58 582.555 1110.06 580.277C1111.53 578 1112.42 575.393 1112.64 572.689Z" fill="white"/>
<path opacity="0.3" d="M1220.17 699.115C1219.05 694.039 1205.09 697.043 1202.2 697.509C1196.58 698.528 1191.08 700.114 1185.79 702.243C1179.96 704.533 1173.18 707.9 1167.14 704.419C1163.65 702.409 1175.77 698.442 1176.87 698.037C1182.02 696.228 1186.99 693.946 1191.72 691.221C1193.64 690.081 1197.35 687.357 1195.75 684.591C1194.43 682.302 1189.67 682.519 1186.78 682.871C1178.02 683.944 1169.43 686.098 1161.2 689.284C1153.2 692.463 1145.37 696.049 1137.73 700.026C1134.77 701.696 1131.55 702.855 1128.21 703.455C1124.56 703.973 1120.1 703.196 1118.66 701.176C1117.22 699.156 1119.07 696.794 1119.49 694.764C1120.1 692.336 1119.84 689.776 1118.78 687.512C1118.07 685.995 1116.89 684.751 1115.41 683.969C1111.47 681.898 1105.5 682.664 1101.53 684.301C1098.96 685.39 1096.61 686.942 1094.6 688.88C1090.55 692.649 1087.71 697.533 1086.44 702.917C1086.11 704.603 1085.46 706.209 1084.52 707.643C1083.58 709.078 1082.36 710.313 1080.94 711.277C1075.39 715.016 1065.22 714.799 1057.44 712.924C1043.86 709.702 1033.5 702.171 1031 693.666C1029.79 689.615 1029.2 685.378 1023.75 683.793C1020.22 682.757 1012.85 683.483 1014.42 687.937C1014.99 689.158 1015.74 690.289 1016.64 691.294C1018.08 693.189 1019.61 696.763 1015.33 697.913C1013.95 698.207 1012.53 698.277 1011.12 698.12C997.36 697.198 984.7 692.609 976.495 686.145C973.82 684.043 971.552 681.47 969.803 678.552C968.829 676.946 968.477 675.216 967.409 673.631C966.39 672.105 964.951 670.907 963.265 670.181C957.982 667.912 945.571 669.093 944.7 674.066C944.234 676.759 945.912 679.681 946.772 682.239C946.927 682.562 946.963 682.929 946.876 683.275C946.627 683.928 945.643 684.115 944.804 684.166C933.708 684.902 922.944 680.592 913.631 676.096C903.768 671.331 892.911 665.126 879.204 665.053C876.37 664.924 873.534 665.249 870.802 666.017C870.111 666.201 869.468 666.533 868.917 666.991C868.582 667.339 868.36 667.78 868.278 668.257C868.197 668.733 868.261 669.223 868.461 669.663C868.906 670.576 869.568 671.365 870.388 671.963C874.532 675.34 880.334 676.708 885.628 678.448C901.335 683.539 916.522 690.112 930.984 698.079C932.444 698.897 935.034 700.793 932.983 702.223C930.932 703.652 926.767 702.73 924.312 702.326C919.857 701.601 915.578 700.441 911.238 699.353C905.498 697.903 898.806 696.587 892.59 697.789C889.305 698.421 886.374 699.768 884.83 701.591C884.298 702.124 883.948 702.812 883.829 703.555C883.71 704.299 883.828 705.062 884.167 705.734C886.301 709.536 896.029 711.173 901.344 712.986C908.149 715.308 914.802 718.052 921.266 721.201C926.788 723.936 931.916 726.93 937.511 729.613C957.495 739.195 985.405 740.428 1010.36 741.36C1037.45 742.396 1064.67 741.516 1091.69 740.014C1111.37 738.916 1130.69 736.75 1149.98 734.202C1155.53 733.477 1161.04 732.586 1166.56 731.83C1172.17 731.187 1177.71 730.089 1183.14 728.546C1185.09 728.048 1186.91 727.137 1188.47 725.873C1189.95 724.495 1190.42 722.693 1187.77 722.175C1182.21 721.066 1176.5 722.33 1171.07 723.314C1164.97 724.433 1158.94 725.721 1152.96 727.178C1150.23 727.906 1147.46 728.469 1144.67 728.867C1141.86 729.261 1139 729.078 1136.27 728.328C1135.38 728.049 1134.4 727.551 1134.35 726.764C1134.3 725.977 1135.04 725.479 1135.81 725.179C1146.99 720.745 1158.86 717.927 1170.82 715.338C1178.93 713.577 1187.19 712.499 1195.36 711.121C1202.81 709.868 1210.66 709.578 1217.12 704.854C1218.4 704.025 1219.4 702.82 1219.98 701.404C1220.26 700.675 1220.32 699.881 1220.17 699.115Z" fill="#407BFF"/>
<path opacity="0.3" d="M899.593 657.17C896.557 648.54 885.742 633.26 883.462 642.283C882.24 647.349 899.593 657.17 899.593 657.17Z" fill="#407BFF"/>
<path opacity="0.3" d="M1171.21 674.159C1176.99 668.886 1184.2 665.748 1185.14 670.388C1186.01 674.78 1171.21 674.159 1171.21 674.159Z" fill="#407BFF"/>
<path opacity="0.3" d="M934.04 632.224C930.082 630.152 926.995 626.827 929.316 625.439C931.636 624.051 934.04 632.224 934.04 632.224Z" fill="#407BFF"/>
</g>
<path d="M407.954 554.149C407.727 556.908 406.686 559.538 404.965 561.706C403.243 563.874 400.917 565.483 398.281 566.33C395.645 567.176 392.817 567.222 390.154 566.461C387.492 565.701 385.115 564.168 383.324 562.057C381.533 559.946 380.408 557.351 380.092 554.6C379.775 551.85 380.281 549.067 381.546 546.604C382.811 544.142 384.778 542.109 387.198 540.764C389.618 539.419 392.382 538.821 395.141 539.047C398.842 539.353 402.27 541.115 404.672 543.947C407.075 546.779 408.255 550.448 407.954 554.149Z" fill="#C6D7FF"/>
<path d="M411.97 244.739C411.824 246.512 411.156 248.203 410.049 249.597C408.942 250.991 407.447 252.025 405.752 252.569C404.057 253.113 402.239 253.143 400.528 252.654C398.816 252.165 397.288 251.179 396.137 249.822C394.986 248.465 394.262 246.797 394.059 245.029C393.856 243.261 394.181 241.472 394.994 239.889C395.807 238.305 397.071 236.999 398.627 236.134C400.183 235.269 401.96 234.885 403.734 235.03C406.113 235.227 408.316 236.36 409.861 238.18C411.405 240.001 412.164 242.359 411.97 244.739Z" fill="#ECF2FF"/>
<path opacity="0.7" d="M427.157 398.87H425.914C423.93 398.734 421.993 398.206 420.215 397.317C418.436 396.427 416.852 395.194 415.553 393.689C414.275 392.189 413.307 390.451 412.707 388.574C412.107 386.697 411.885 384.72 412.056 382.756C412.297 379.854 413.378 377.084 415.167 374.786C416.956 372.488 419.375 370.76 422.13 369.814C424.884 368.867 427.854 368.744 430.677 369.457C433.501 370.171 436.055 371.692 438.029 373.833C440.003 375.975 441.311 378.645 441.793 381.517C442.275 384.389 441.911 387.34 440.744 390.009C439.577 392.678 437.659 394.949 435.223 396.545C432.788 398.142 429.94 398.995 427.028 399L427.157 398.87ZM427.157 370.788C424.211 370.802 421.358 371.821 419.069 373.676C416.78 375.53 415.191 378.11 414.566 380.989C413.94 383.868 414.314 386.875 415.627 389.513C416.94 392.15 419.112 394.262 421.786 395.498C424.46 396.735 427.476 397.023 430.336 396.314C433.195 395.606 435.728 393.943 437.516 391.601C439.304 389.259 440.24 386.378 440.17 383.432C440.099 380.487 439.027 377.653 437.13 375.399C436.024 374.089 434.67 373.011 433.145 372.228C431.62 371.446 429.954 370.973 428.245 370.839L427.157 370.788Z" fill="#9EBBFF"/>
<path d="M777.954 231.149C777.727 233.908 776.686 236.538 774.965 238.706C773.243 240.874 770.917 242.483 768.281 243.33C765.645 244.176 762.817 244.222 760.154 243.461C757.492 242.701 755.115 241.168 753.324 239.057C751.533 236.946 750.408 234.351 750.092 231.6C749.775 228.85 750.281 226.067 751.546 223.604C752.811 221.142 754.778 219.109 757.198 217.764C759.618 216.419 762.382 215.821 765.141 216.047C768.842 216.353 772.27 218.115 774.672 220.947C777.075 223.779 778.255 227.448 777.954 231.149Z" fill="#ECF2FF"/>
<path opacity="0.7" d="M988.262 139.784H986.19C982.884 139.557 979.655 138.677 976.691 137.195C973.727 135.712 971.086 133.657 968.921 131.148C966.791 128.649 965.179 125.751 964.178 122.623C963.178 119.495 962.809 116.199 963.093 112.927C963.495 108.09 965.297 103.474 968.279 99.6432C971.26 95.8127 975.292 92.9331 979.883 91.3561C984.473 89.779 989.423 89.5727 994.129 90.7623C998.835 91.9519 1003.09 94.486 1006.38 98.0552C1009.67 101.624 1011.85 106.074 1012.66 110.862C1013.46 115.649 1012.85 120.567 1010.91 125.015C1008.96 129.463 1005.77 133.248 1001.71 135.909C997.646 138.57 992.9 139.992 988.046 140L988.262 139.784ZM988.262 92.9792C983.352 93.0036 978.597 94.7014 974.782 97.7926C970.967 100.884 968.319 105.183 967.276 109.982C966.233 114.781 966.857 119.792 969.045 124.188C971.233 128.584 974.854 132.103 979.311 134.164C983.767 136.225 988.793 136.704 993.56 135.523C998.326 134.343 1002.55 131.572 1005.53 127.669C1008.51 123.766 1010.07 118.963 1009.95 114.054C1009.83 109.145 1008.05 104.422 1004.88 100.665C1003.04 98.4811 1000.78 96.6849 998.241 95.3804C995.699 94.0759 992.924 93.289 990.075 93.0655L988.262 92.9792Z" fill="#C6D7FF"/>
<path d="M1012.95 350.149C1012.73 352.908 1011.69 355.538 1009.96 357.706C1008.24 359.874 1005.92 361.483 1003.28 362.33C1000.64 363.176 997.817 363.222 995.154 362.461C992.492 361.701 990.115 360.168 988.324 358.057C986.533 355.946 985.408 353.351 985.092 350.6C984.775 347.85 985.281 345.067 986.546 342.604C987.811 340.142 989.778 338.109 992.198 336.764C994.618 335.419 997.382 334.821 1000.14 335.047C1003.84 335.353 1007.27 337.115 1009.67 339.947C1012.07 342.779 1013.25 346.448 1012.95 350.149Z" fill="#C6D7FF"/>
<path opacity="0.7" d="M1162.23 274.81H1160.41C1157.5 274.61 1154.66 273.836 1152.05 272.531C1149.44 271.227 1147.12 269.419 1145.21 267.211C1143.34 265.011 1141.92 262.461 1141.04 259.708C1140.16 256.956 1139.83 254.055 1140.08 251.176C1140.44 246.919 1142.02 242.857 1144.65 239.486C1147.27 236.115 1150.82 233.581 1154.86 232.193C1158.9 230.806 1163.25 230.624 1167.39 231.671C1171.53 232.718 1175.28 234.948 1178.18 238.089C1181.07 241.229 1182.99 245.145 1183.7 249.358C1184.4 253.571 1183.87 257.899 1182.16 261.813C1180.45 265.727 1177.63 269.058 1174.06 271.4C1170.49 273.742 1166.31 274.993 1162.04 275L1162.23 274.81ZM1162.23 233.622C1157.91 233.643 1153.73 235.137 1150.37 237.857C1147.01 240.578 1144.68 244.361 1143.76 248.584C1142.85 252.807 1143.39 257.217 1145.32 261.085C1147.24 264.954 1150.43 268.051 1154.35 269.864C1158.28 271.678 1162.7 272.1 1166.89 271.061C1171.09 270.022 1174.8 267.583 1177.42 264.149C1180.05 260.714 1181.42 256.488 1181.32 252.168C1181.21 247.847 1179.64 243.691 1176.86 240.385C1175.24 238.463 1173.25 236.883 1171.01 235.735C1168.78 234.587 1166.33 233.894 1163.83 233.698L1162.23 233.622Z" fill="#9EBBFF"/>
<defs>
<clipPath id="clip0_15550_849">
<rect width="518" height="386" fill="white" transform="translate(789 364)"/>
</clipPath>
</defs>
</svg>
