<svg width="292" height="254" viewBox="0 0 292 254" fill="none" xmlns="http://www.w3.org/2000/svg">
<path d="M146 254C226.098 254 291.03 250.219 291.03 245.554C291.03 240.89 226.098 237.109 146 237.109C65.9022 237.109 0.970215 240.89 0.970215 245.554C0.970215 250.219 65.9022 254 146 254Z" fill="#F5F5F5"/>
<path opacity="0.1" d="M61.7004 186.591C61.7902 185.919 62.135 185.307 62.6638 184.88C63.1926 184.454 63.8652 184.247 64.5428 184.3C70.9457 184.203 76.9372 188.717 82.4948 193.559C83.729 194.626 85.068 195.731 86.4518 194.611C86.8798 194.258 87.1924 193.785 87.3494 193.253C87.5887 192.384 87.5887 191.467 87.3494 190.597C87.1435 189.88 86.8007 189.208 86.3396 188.62C83.9235 185.449 80.9839 183.927 78.5978 180.652C77.2612 178.776 76.1538 176.747 75.2991 174.609C74.5511 172.729 73.0551 169.692 73.6535 167.148C74.3192 164.104 76.6006 164.365 77.9844 164.783C82.3602 166.088 86.4443 169.2 90.1544 173.072C94.1113 177.19 97.6942 182.152 101.262 187.083C102.609 188.956 104.03 190.881 105.75 191.56C107.471 192.239 109.647 191.142 110.373 188.441C111.098 185.74 110.246 182.637 110.066 179.951C109.826 176.746 109.982 173.523 110.53 170.356C110.773 168.682 111.339 167.07 112.198 165.611C114.128 162.791 116.985 163.783 118.855 165.917C120.282 167.702 121.386 169.722 122.116 171.886C124.215 177.864 125.473 184.103 125.856 190.426C126.141 194.343 126.739 198.424 128.355 201.46C130.965 206.37 135.835 205.982 139.612 203.408C146.187 198.931 151.258 188.814 152.612 177.504C153.054 173.818 153.166 169.834 154.512 166.745C155.687 164.074 158.701 162.268 160.175 165.148C160.768 166.588 160.934 168.168 160.653 169.699C160.389 171.216 160.017 172.712 159.539 174.176C158.791 176.713 158.043 181.465 160.062 182.95C160.364 183.132 160.701 183.247 161.051 183.286C161.401 183.324 161.756 183.286 162.09 183.174C168.702 181.801 174.85 175.594 178.89 166.931C180.353 163.672 181.471 160.269 182.226 156.777C182.712 154.643 182.914 152.353 183.452 150.234C183.798 148.566 184.496 146.992 185.502 145.616C188.075 142.542 194.014 143.989 194.351 150.577C194.553 154.39 193.535 158.12 193.161 161.851C192.93 164.178 194.373 164.164 195.45 164.089C200.612 163.567 205.174 158.374 209.221 152.972C214.031 146.548 219.356 138.207 225.924 137.961C227.42 137.909 229.911 138.103 230.808 140.408C231.224 141.821 231.224 143.323 230.808 144.735C229.477 150.241 225.572 153.084 222.58 155.807C214.145 163.699 206.725 172.606 200.492 182.323C199.542 183.815 198.562 186.278 199.467 187.74C199.64 188.018 199.893 188.238 200.194 188.371C200.494 188.504 200.827 188.544 201.15 188.486C204.239 188.247 207.134 185.8 209.954 183.771C212.774 181.741 215.975 179.966 218.93 181.495C219.841 182.04 220.634 182.76 221.265 183.613C221.895 184.466 222.35 185.435 222.603 186.464C223.131 188.268 223.215 190.172 222.85 192.015C221.765 197.081 217.075 199.356 214.494 201.856C210.941 205.275 207.688 208.992 204.77 212.965C202.078 216.643 199.534 220.672 196.842 224.283C187.118 237.213 173.654 239.13 161.686 240.63C148.663 242.257 135.61 241.376 122.662 239.668C113.245 238.414 103.962 235.743 94.7695 232.572C91.613 231.431 88.4788 230.185 85.3821 228.708C82.0535 227.126 77.1541 226.149 75.875 219.919C75.6058 218.576 75.9199 217.486 76.81 216.987C79.5702 215.42 83.5046 217.516 86.1002 218.897C89.6831 220.807 93.079 223.53 96.7592 225C97.3508 225.29 97.9951 225.457 98.6534 225.492C99.3116 225.526 99.9701 225.427 100.589 225.201C101.196 224.947 101.695 224.491 102.003 223.91C102.394 223.154 102.49 222.279 102.272 221.456C102.12 221.011 101.864 220.609 101.524 220.284C94.8998 213.513 86.9855 208.13 78.2462 204.452C75.4412 203.251 72.5764 202.266 69.8761 200.565C67.6934 199.219 65.8098 197.441 64.3409 195.343C63.0842 193.336 61.0646 189.792 61.7004 186.591Z" fill="#407BFF"/>
<path opacity="0.1" d="M204.77 131.746C204.271 132.262 203.616 132.603 202.905 132.715C202.194 132.827 201.466 132.706 200.83 132.368C200.195 132.031 199.687 131.497 199.383 130.846C199.079 130.195 198.996 129.464 199.146 128.762C201.726 116.265 207.336 107.177 214.008 111.892C218.99 115.407 211.181 125.098 204.77 131.746Z" fill="#407BFF"/>
<path opacity="0.3" d="M186.669 137.58C188.71 136.457 190.439 134.847 191.704 132.894C192.969 130.941 193.729 128.706 193.917 126.389L198.974 64.9487C199.236 61.7904 198.833 58.6123 197.791 55.6185C196.749 52.6247 195.09 49.8814 192.922 47.5648L177.341 30.9196C176.484 29.9992 175.828 28.9111 175.415 27.7243C175.001 26.5375 174.84 25.278 174.94 24.0257L175.688 15.0279L135.364 11.7227L134.616 20.7205C134.512 21.9724 134.148 23.189 133.547 24.2926C132.945 25.3961 132.12 26.3624 131.122 27.1294L113.021 41.0291C110.505 42.9635 108.421 45.4008 106.904 48.1849C105.386 50.969 104.469 54.0385 104.209 57.1968L99.1455 118.637C98.954 120.951 99.3394 123.277 100.267 125.407C101.195 127.536 102.637 129.404 104.464 130.843C102.423 131.966 100.694 133.576 99.4301 135.529C98.1665 137.482 97.4082 139.717 97.2231 142.034L90.7679 220.374C90.4638 224.098 91.6542 227.791 94.0777 230.64C96.5013 233.49 99.9597 235.264 103.693 235.572L170.265 241.026C172.114 241.178 173.975 240.965 175.741 240.4C177.507 239.835 179.145 238.928 180.56 237.731C181.975 236.535 183.14 235.072 183.988 233.426C184.836 231.781 185.35 229.985 185.502 228.141L191.957 149.801C192.155 147.487 191.775 145.16 190.853 143.028C189.93 140.896 188.493 139.024 186.669 137.58Z" fill="#407BFF"/>
<path opacity="0.3" d="M135.375 11.7364L134.803 18.674L175.119 21.9801L175.691 15.0425L135.375 11.7364Z" fill="#407BFF"/>
<path opacity="0.3" d="M192.548 49.1689L176.967 32.5087C176.967 32.5087 166.922 32.9415 174.723 45.2295C181.373 55.6226 192.96 54.0035 192.548 49.1689Z" fill="white"/>
<path opacity="0.2" d="M90.7752 220.344C90.4711 224.068 91.6615 227.761 94.0851 230.611C96.5086 233.46 99.967 235.234 103.701 235.542L170.273 240.996C172.121 241.148 173.982 240.935 175.748 240.37C177.515 239.805 179.152 238.898 180.567 237.702C181.982 236.505 183.147 235.042 183.995 233.397C184.843 231.751 185.358 229.955 185.509 228.111L90.7752 220.344Z" fill="#407BFF"/>
<path opacity="0.3" d="M189.639 50.6088C191.378 52.4699 192.71 54.6728 193.547 57.0766C194.384 59.4803 194.709 62.032 194.501 64.5682L189.444 126.016C189.313 127.596 188.792 129.118 187.928 130.448C187.064 131.779 185.884 132.875 184.492 133.641L178.606 136.894L183.879 141.065C185.127 142.046 186.112 143.319 186.746 144.772C187.38 146.225 187.644 147.812 187.514 149.391L181.059 227.73C180.851 230.269 179.642 232.622 177.697 234.272C175.752 235.923 173.23 236.736 170.684 236.534L104.112 231.08C102.848 230.98 101.616 230.633 100.486 230.058C99.3567 229.483 98.3516 228.692 97.5285 227.73C96.7054 226.767 96.0804 225.653 95.6892 224.45C95.298 223.246 95.1482 221.978 95.2485 220.717L101.704 142.378C101.833 140.797 102.352 139.273 103.214 137.942C104.077 136.61 105.257 135.512 106.648 134.745L112.535 131.492L107.299 127.322C106.051 126.341 105.066 125.067 104.432 123.614C103.798 122.161 103.534 120.575 103.663 118.995L108.727 57.5549C108.937 55.0185 109.676 52.5537 110.896 50.3183C112.115 48.0829 113.79 46.1261 115.811 44.573C121.795 40.7157 137.503 50.3179 155.896 51.825C174.29 53.3321 185.794 48.6765 189.639 50.6088Z" fill="#407BFF"/>
<path opacity="0.2" d="M155.859 51.8324C137.473 50.3403 121.75 40.7157 115.766 44.573C126.238 50.3179 138.206 53.8767 155.567 55.3017C172.928 56.7268 189.639 50.6088 189.639 50.6088C185.794 48.6765 174.245 53.347 155.859 51.8324Z" fill="#407BFF"/>
<path opacity="0.2" d="M99.1528 118.637C98.9613 120.951 99.3467 123.277 100.275 125.407C101.203 127.536 102.644 129.404 104.471 130.843L186.669 137.558C188.709 136.435 190.439 134.824 191.704 132.872C192.969 130.919 193.729 128.684 193.917 126.367L99.1528 118.637Z" fill="#407BFF"/>
<path d="M176.534 4.039L136.331 0.731939C134.647 0.593423 133.17 1.84277 133.032 3.52244L132.23 13.2784C132.092 14.9581 133.345 16.432 135.029 16.5705L175.232 19.8776C176.916 20.0161 178.393 18.7667 178.531 17.0871L179.333 7.33111C179.471 5.65144 178.218 4.17751 176.534 4.039Z" fill="#407BFF"/>
<path opacity="0.2" d="M137.069 15.0652C137.02 15.0614 136.972 15.048 136.928 15.0257C136.884 15.0034 136.845 14.9726 136.813 14.9351C136.781 14.8977 136.757 14.8543 136.742 14.8075C136.726 14.7607 136.721 14.7113 136.725 14.6623L137.667 2.85918C137.675 2.76025 137.722 2.6685 137.798 2.60414C137.874 2.53978 137.972 2.50807 138.071 2.51598C138.171 2.5239 138.262 2.57079 138.327 2.64635C138.392 2.7219 138.423 2.81994 138.415 2.91887L137.443 14.7145C137.437 14.8095 137.395 14.8988 137.326 14.964C137.256 15.0291 137.164 15.0654 137.069 15.0652Z" fill="white"/>
<path opacity="0.2" d="M144.362 15.6621C144.313 15.6583 144.265 15.6449 144.221 15.6225C144.177 15.6002 144.138 15.5695 144.106 15.532C144.074 15.4946 144.05 15.4512 144.035 15.4044C144.019 15.3575 144.014 15.3082 144.018 15.2592L144.99 3.46352C145 3.36521 145.047 3.27444 145.123 3.21039C145.198 3.14635 145.295 3.11405 145.394 3.12031C145.443 3.12403 145.491 3.1375 145.534 3.15991C145.578 3.18233 145.616 3.21323 145.648 3.25079C145.679 3.28836 145.703 3.33183 145.717 3.37862C145.731 3.42541 145.736 3.47457 145.731 3.5232L144.736 15.3189C144.727 15.4119 144.684 15.4983 144.615 15.5616C144.546 15.6249 144.456 15.6607 144.362 15.6621Z" fill="white"/>
<path opacity="0.2" d="M151.648 16.2888C151.598 16.285 151.551 16.2716 151.507 16.2493C151.463 16.2269 151.424 16.1962 151.392 16.1587C151.36 16.1213 151.335 16.0779 151.32 16.0311C151.305 15.9843 151.299 15.9349 151.304 15.8859L152.276 4.09023C152.287 3.99265 152.335 3.90296 152.41 3.83927C152.485 3.77557 152.581 3.74261 152.68 3.74703C152.729 3.75079 152.777 3.76422 152.821 3.78654C152.865 3.80886 152.904 3.83963 152.936 3.87707C152.968 3.91452 152.992 3.9579 153.007 4.00473C153.022 4.05156 153.028 4.1009 153.024 4.14992L152.052 15.9456C152.048 15.9946 152.034 16.0424 152.012 16.0863C151.99 16.1301 151.959 16.1691 151.921 16.201C151.884 16.2329 151.84 16.2571 151.793 16.2721C151.746 16.2872 151.697 16.2929 151.648 16.2888Z" fill="white"/>
<path opacity="0.2" d="M158.941 16.8558C158.891 16.852 158.843 16.8386 158.8 16.8163C158.756 16.794 158.716 16.7632 158.685 16.7258C158.653 16.6883 158.628 16.6449 158.613 16.5981C158.598 16.5513 158.592 16.5019 158.597 16.4529L159.569 4.65725C159.578 4.55895 159.626 4.46818 159.701 4.40414C159.777 4.34009 159.874 4.30779 159.973 4.31405C160.022 4.31778 160.069 4.33124 160.113 4.35366C160.156 4.37607 160.195 4.40697 160.226 4.44454C160.258 4.4821 160.281 4.52557 160.296 4.57236C160.31 4.61915 160.315 4.66831 160.309 4.71694L159.337 16.5126C159.334 16.5613 159.322 16.609 159.3 16.6528C159.278 16.6966 159.248 16.7356 159.211 16.7676C159.174 16.7996 159.131 16.8239 159.085 16.839C159.038 16.8542 158.989 16.8599 158.941 16.8558Z" fill="white"/>
<path opacity="0.2" d="M166.196 17.4527C166.147 17.4489 166.099 17.4355 166.055 17.4132C166.011 17.3908 165.972 17.3601 165.94 17.3226C165.908 17.2852 165.884 17.2418 165.869 17.195C165.854 17.1481 165.848 17.0988 165.852 17.0498L166.825 5.25413C166.838 5.15725 166.886 5.06856 166.961 5.00519C167.035 4.94181 167.131 4.90823 167.229 4.91093C167.278 4.91469 167.326 4.92812 167.37 4.95044C167.414 4.97276 167.453 5.00353 167.485 5.04097C167.517 5.07842 167.541 5.1218 167.556 5.16862C167.571 5.21545 167.577 5.26479 167.573 5.31382L166.6 17.1095C166.598 17.1589 166.585 17.2072 166.563 17.2515C166.541 17.2959 166.51 17.3353 166.472 17.3674C166.434 17.3994 166.39 17.4236 166.343 17.4382C166.296 17.4529 166.246 17.4578 166.196 17.4527Z" fill="white"/>
<path opacity="0.2" d="M173.519 18.0495C173.47 18.0458 173.422 18.0323 173.378 18.01C173.334 17.9877 173.295 17.9569 173.263 17.9195C173.231 17.8821 173.207 17.8387 173.192 17.7918C173.177 17.745 173.171 17.6957 173.175 17.6467L174.118 5.84354C174.127 5.74523 174.175 5.65446 174.25 5.59042C174.325 5.52637 174.423 5.49407 174.522 5.50034C174.619 5.5098 174.71 5.5574 174.773 5.63283C174.836 5.70825 174.866 5.8054 174.858 5.90322L173.893 17.7063C173.884 17.7994 173.841 17.8858 173.772 17.9491C173.703 18.0124 173.613 18.0482 173.519 18.0495Z" fill="white"/>
<path opacity="0.2" d="M111.592 98.1123C110.455 91.8377 101.292 92.2853 100.769 98.6345L99.123 118.637C98.9316 120.951 99.3169 123.277 100.245 125.407C101.173 127.536 102.614 129.404 104.441 130.843C102.401 131.966 100.671 133.576 99.4077 135.529C98.144 137.482 97.3857 139.717 97.2007 142.034L90.7454 220.374C90.4413 224.098 91.6317 227.791 94.0553 230.64C96.4788 233.49 99.9372 235.264 103.671 235.572L120.875 236.982C122.77 237.136 124.676 236.855 126.445 236.158C128.214 235.461 129.798 234.369 131.076 232.964C132.354 231.559 133.292 229.881 133.816 228.057C134.34 226.234 134.437 224.315 134.099 222.448L111.592 98.1123Z" fill="#407BFF"/>
<path opacity="0.3" d="M177.79 200.692C177.672 202.13 177.128 203.501 176.228 204.631C175.329 205.761 174.113 206.599 172.736 207.041C171.359 207.482 169.881 207.506 168.49 207.109C167.099 206.713 165.857 205.914 164.921 204.814C163.985 203.713 163.397 202.361 163.232 200.927C163.067 199.494 163.331 198.043 163.992 196.76C164.653 195.476 165.681 194.417 166.945 193.716C168.209 193.015 169.654 192.703 171.096 192.821C173.029 192.98 174.82 193.899 176.076 195.375C177.331 196.851 177.948 198.763 177.79 200.692Z" fill="#407BFF"/>
<path opacity="0.3" d="M154.535 172.438C154.452 173.456 154.067 174.426 153.431 175.226C152.795 176.026 151.935 176.62 150.96 176.933C149.985 177.245 148.94 177.262 147.955 176.982C146.971 176.702 146.092 176.136 145.429 175.358C144.767 174.579 144.351 173.622 144.234 172.607C144.117 171.593 144.304 170.566 144.772 169.658C145.24 168.75 145.967 168 146.862 167.504C147.757 167.008 148.78 166.788 149.8 166.872C151.167 166.986 152.433 167.636 153.32 168.679C154.208 169.722 154.645 171.074 154.535 172.438Z" fill="#407BFF"/>
<path opacity="0.3" d="M132.895 109.55C131.873 109.597 130.86 109.342 129.983 108.815C129.107 108.288 128.407 107.514 127.971 106.591C127.535 105.667 127.384 104.635 127.536 103.626C127.688 102.617 128.136 101.675 128.824 100.92C129.513 100.165 130.41 99.6297 131.403 99.3828C132.396 99.136 133.44 99.1882 134.403 99.5329C135.366 99.8775 136.205 100.499 136.814 101.319C137.423 102.139 137.775 103.121 137.825 104.141C137.858 104.819 137.757 105.497 137.527 106.136C137.297 106.775 136.943 107.363 136.485 107.865C136.027 108.368 135.474 108.775 134.858 109.064C134.242 109.353 133.575 109.518 132.895 109.55Z" fill="#407BFF"/>
<path opacity="0.3" d="M147.01 78.6841C146.285 78.7203 145.566 78.5411 144.944 78.1694C144.321 77.7976 143.824 77.2499 143.513 76.5957C143.203 75.9415 143.095 75.2102 143.202 74.4945C143.308 73.7787 143.626 73.1107 144.114 72.575C144.601 72.0393 145.238 71.6601 145.942 71.4853C146.646 71.3105 147.386 71.348 148.068 71.5932C148.751 71.8383 149.345 72.28 149.776 72.8623C150.207 73.4446 150.455 74.1413 150.488 74.8642C150.533 75.8303 150.192 76.7748 149.54 77.4907C148.888 78.2067 147.978 78.6358 147.01 78.6841Z" fill="#407BFF"/>
<path opacity="0.3" d="M169.719 150.122C169.684 150.542 169.525 150.942 169.261 151.272C168.998 151.602 168.642 151.847 168.24 151.976C167.837 152.104 167.405 152.111 166.999 151.995C166.592 151.879 166.229 151.645 165.956 151.323C165.682 151.002 165.511 150.606 165.462 150.187C165.414 149.769 165.491 149.345 165.684 148.97C165.877 148.594 166.177 148.285 166.547 148.079C166.916 147.874 167.338 147.783 167.76 147.817C168.326 147.864 168.85 148.134 169.217 148.566C169.584 148.998 169.765 149.557 169.719 150.122Z" fill="#407BFF"/>
<path opacity="0.7" d="M130.973 208.496H130.614C130.041 208.457 129.481 208.305 128.968 208.049C128.454 207.793 127.997 207.437 127.622 207.004C127.253 206.572 126.973 206.071 126.8 205.531C126.627 204.99 126.563 204.421 126.612 203.855C126.682 203.019 126.994 202.222 127.51 201.56C128.027 200.898 128.725 200.401 129.521 200.128C130.316 199.856 131.174 199.82 131.989 200.025C132.804 200.231 133.542 200.669 134.112 201.286C134.682 201.902 135.06 202.671 135.199 203.498C135.338 204.326 135.233 205.175 134.896 205.944C134.559 206.713 134.005 207.367 133.302 207.827C132.599 208.286 131.776 208.532 130.935 208.533L130.973 208.496ZM130.973 200.408C130.122 200.413 129.298 200.706 128.637 201.24C127.976 201.774 127.517 202.517 127.337 203.346C127.156 204.176 127.264 205.041 127.643 205.801C128.022 206.561 128.649 207.169 129.422 207.525C130.194 207.881 131.065 207.964 131.89 207.76C132.716 207.556 133.448 207.077 133.964 206.403C134.48 205.728 134.75 204.898 134.73 204.05C134.71 203.202 134.4 202.386 133.852 201.737C133.533 201.359 133.142 201.049 132.702 200.823C132.261 200.598 131.78 200.462 131.287 200.423L130.973 200.408Z" fill="white"/>
<path opacity="0.7" d="M177.237 121.189H176.975C176.144 121.12 175.374 120.726 174.835 120.093C174.295 119.459 174.029 118.638 174.095 117.809C174.164 116.979 174.56 116.21 175.197 115.672C175.833 115.133 176.659 114.869 177.491 114.937C178.322 115.005 179.091 115.399 179.631 116.033C180.171 116.666 180.437 117.488 180.371 118.316C180.3 119.146 179.905 119.915 179.271 120.458C178.701 120.934 177.98 121.194 177.237 121.189ZM174.656 117.839C174.619 118.346 174.733 118.853 174.983 119.296C175.234 119.739 175.61 120.098 176.065 120.329C176.52 120.559 177.033 120.65 177.539 120.591C178.046 120.532 178.523 120.324 178.912 119.995C179.172 119.776 179.385 119.508 179.541 119.206C179.696 118.904 179.791 118.575 179.818 118.236C179.846 117.898 179.807 117.558 179.703 117.235C179.598 116.912 179.431 116.613 179.211 116.354C178.983 116.103 178.706 115.899 178.398 115.756C178.09 115.613 177.756 115.532 177.416 115.519C177.078 115.49 176.737 115.528 176.413 115.631C176.089 115.735 175.789 115.9 175.53 116.119C175.271 116.338 175.058 116.606 174.902 116.908C174.747 117.209 174.653 117.538 174.626 117.876L174.656 117.839Z" fill="white"/>
<path opacity="0.7" d="M128.909 55.0403H128.796C128.41 55.0024 128.054 54.8163 127.802 54.5212C127.551 54.2261 127.425 53.8451 127.45 53.4588C127.469 53.1686 127.572 52.8902 127.748 52.6579C127.923 52.4256 128.163 52.2496 128.438 52.1514C128.712 52.0532 129.009 52.0371 129.293 52.1052C129.576 52.1732 129.834 52.3224 130.033 52.5344C130.233 52.7465 130.366 53.012 130.416 53.2985C130.467 53.585 130.432 53.8799 130.316 54.1469C130.201 54.4139 130.01 54.6415 129.766 54.8015C129.523 54.9616 129.238 55.0472 128.946 55.0478L128.909 55.0403ZM128.003 53.5035C127.989 53.6813 128.028 53.8592 128.115 54.0148C128.203 54.1705 128.334 54.2969 128.493 54.3782C128.652 54.4595 128.832 54.492 129.009 54.4716C129.187 54.4512 129.354 54.3788 129.491 54.2635C129.627 54.1483 129.726 53.9953 129.776 53.824C129.825 53.6526 129.822 53.4706 129.768 53.3007C129.714 53.1308 129.61 52.9808 129.471 52.8696C129.331 52.7583 129.161 52.6907 128.983 52.6755C128.864 52.6642 128.744 52.6769 128.63 52.7126C128.516 52.7484 128.41 52.8065 128.319 52.8837C128.227 52.9608 128.152 53.0554 128.098 53.1619C128.044 53.2683 128.012 53.3845 128.003 53.5035Z" fill="white"/>
<path opacity="0.7" d="M161.985 93.6805H161.671C161.178 93.642 160.698 93.5066 160.259 93.282C159.819 93.0575 159.428 92.7483 159.109 92.3723C158.79 91.9964 158.548 91.561 158.399 91.0915C158.249 90.622 158.194 90.1275 158.237 89.6367C158.301 88.9163 158.574 88.23 159.021 87.6612C159.469 87.0924 160.073 86.6656 160.759 86.433C161.446 86.2003 162.186 86.1716 162.888 86.3505C163.591 86.5294 164.226 86.9082 164.716 87.4406C165.207 87.9731 165.532 88.6363 165.652 89.3496C165.771 90.0629 165.68 90.7955 165.39 91.4582C165.1 92.121 164.623 92.6853 164.017 93.0825C163.411 93.4797 162.702 93.6926 161.977 93.6954L161.985 93.6805ZM161.985 86.7419C161.232 86.7386 160.503 87.0031 159.928 87.488C159.282 88.033 158.879 88.8109 158.806 89.6516C158.764 90.1733 158.851 90.6973 159.06 91.1773C159.269 91.6573 159.594 92.0785 160.005 92.4037C160.416 92.7289 160.901 92.9481 161.417 93.0419C161.933 93.1358 162.465 93.1013 162.964 92.9415C163.464 92.7818 163.916 92.5018 164.282 92.1262C164.647 91.7506 164.914 91.291 165.059 90.788C165.204 90.285 165.223 89.7542 165.113 89.2424C165.003 88.7306 164.769 88.2536 164.431 87.8536C164.16 87.5335 163.828 87.2704 163.454 87.0795C163.081 86.8887 162.673 86.7739 162.254 86.7419H161.985Z" fill="white"/>
<path opacity="0.3" d="M192.668 126.3L197.5 67.7092C197.531 67.3349 197.487 66.9582 197.372 66.6007C197.256 66.2431 197.071 65.9118 196.827 65.6256C196.584 65.3395 196.286 65.104 195.95 64.9328C195.615 64.7616 195.25 64.658 194.874 64.6278C194.499 64.5962 194.122 64.6387 193.764 64.7529C193.405 64.8671 193.073 65.0508 192.786 65.2934C192.499 65.5361 192.263 65.8328 192.091 66.1667C191.919 66.5006 191.815 66.8651 191.785 67.2392L186.953 125.829C186.796 127.777 186.157 129.655 185.093 131.296C184.029 132.937 182.573 134.289 180.857 135.23L177.917 136.864L180.558 138.946C182.096 140.155 183.311 141.725 184.095 143.516C184.878 145.308 185.204 147.264 185.046 149.212L178.59 227.551C178.201 232.252 175.239 234.542 171.073 236.37C170.809 236.488 170.591 236.69 170.454 236.945C170.318 237.2 170.269 237.492 170.317 237.777C170.365 238.062 170.506 238.323 170.719 238.52C170.932 238.716 171.203 238.836 171.492 238.862C174.632 239.118 177.745 238.12 180.148 236.087C182.551 234.054 184.046 231.153 184.305 228.021L190.76 149.682C190.92 147.734 190.594 145.777 189.811 143.986C189.028 142.194 187.812 140.624 186.272 139.416L183.632 137.327L186.572 135.7C188.287 134.757 189.741 133.405 190.805 131.765C191.869 130.124 192.509 128.247 192.668 126.3Z" fill="white"/>
<path opacity="0.3" d="M270.31 217.352C269.502 213.696 259.419 215.86 257.332 216.196C253.277 216.93 249.308 218.072 245.484 219.605C241.273 221.254 236.381 223.679 232.02 221.172C229.499 219.725 238.251 216.867 239.044 216.576C242.763 215.273 246.354 213.63 249.77 211.667C251.154 210.846 253.832 208.884 252.68 206.892C251.722 205.243 248.289 205.4 246.202 205.653C239.878 206.426 233.675 207.977 227.734 210.272C221.956 212.561 216.299 215.144 210.784 218.009C208.648 219.211 206.324 220.046 203.91 220.478C201.277 220.851 198.053 220.292 197.014 218.837C195.974 217.382 197.313 215.681 197.62 214.219C198.053 212.47 197.871 210.626 197.103 208.996C196.594 207.903 195.741 207.007 194.672 206.444C191.823 204.952 187.514 205.504 184.649 206.683C182.793 207.467 181.097 208.585 179.645 209.981C176.721 212.695 174.67 216.213 173.751 220.09C173.519 221.305 173.05 222.461 172.37 223.495C171.69 224.528 170.812 225.417 169.786 226.111C165.777 228.805 158.432 228.648 152.814 227.298C143.008 224.977 135.528 219.553 133.725 213.428C132.85 210.511 132.424 207.459 128.489 206.318C125.946 205.571 120.62 206.094 121.757 209.302C122.17 210.181 122.709 210.995 123.358 211.719C124.398 213.085 125.505 215.659 122.416 216.487C121.415 216.698 120.388 216.749 119.371 216.636C109.438 215.972 100.297 212.667 94.3731 208.011C92.4415 206.497 90.8038 204.644 89.541 202.542C88.8379 201.386 88.5836 200.14 87.8131 198.998C87.077 197.9 86.0379 197.037 84.8211 196.514C81.0063 194.88 72.0453 195.731 71.417 199.312C71.0804 201.252 72.2921 203.356 72.913 205.198C73.0244 205.431 73.0509 205.695 72.9878 205.944C72.8083 206.414 72.0977 206.549 71.4918 206.586C63.4807 207.116 55.709 204.012 48.9845 200.774C41.8635 197.342 34.0245 192.873 24.1284 192.821C22.0822 192.728 20.0341 192.962 18.0621 193.515C17.5629 193.648 17.0984 193.887 16.7008 194.216C16.459 194.467 16.2983 194.785 16.2397 195.128C16.181 195.471 16.227 195.824 16.3717 196.141C16.6929 196.798 17.1705 197.367 17.7629 197.797C20.7549 200.229 24.9437 201.214 28.766 202.468C40.1066 206.134 51.0718 210.868 61.5135 216.606C62.5681 217.195 64.4381 218.561 62.9571 219.59C61.4761 220.62 58.4691 219.956 56.6963 219.665C53.4799 219.143 50.3907 218.307 47.2566 217.524C43.1127 216.479 38.2806 215.532 33.7926 216.397C31.4214 216.852 29.3046 217.822 28.1901 219.135C27.806 219.519 27.553 220.015 27.4671 220.55C27.3811 221.086 27.4666 221.635 27.7113 222.12C29.2522 224.858 36.2759 226.037 40.1132 227.342C45.0263 229.015 49.8303 230.991 54.4972 233.259C58.4841 235.228 62.1867 237.385 66.2259 239.317C80.6548 246.218 100.806 247.106 118.825 247.778C138.385 248.524 158.035 247.89 177.543 246.808C191.755 246.017 205.705 244.458 219.633 242.622C223.635 242.1 227.614 241.458 231.601 240.914C235.648 240.451 239.651 239.66 243.569 238.549C244.977 238.19 246.291 237.534 247.421 236.624C248.491 235.631 248.828 234.333 246.913 233.96C242.903 233.162 238.775 234.072 234.855 234.781C230.457 235.587 226.098 236.514 221.78 237.564C219.811 238.087 217.813 238.494 215.796 238.78C213.768 239.064 211.704 238.932 209.73 238.392C209.086 238.19 208.383 237.832 208.346 237.265C208.308 236.698 208.847 236.34 209.401 236.124C217.471 232.93 226.044 230.901 234.675 229.036C240.532 227.768 246.494 226.992 252.396 225.999C257.774 225.097 263.444 224.888 268.104 221.485C269.031 220.888 269.752 220.021 270.168 219.001C270.37 218.476 270.42 217.904 270.31 217.352Z" fill="#407BFF"/>
<path opacity="0.3" d="M38.8491 187.143C36.6575 180.928 28.8483 169.923 27.2027 176.422C26.3201 180.07 38.8491 187.143 38.8491 187.143Z" fill="#407BFF"/>
<path opacity="0.3" d="M234.959 199.378C239.133 195.581 244.339 193.321 245.013 196.663C245.641 199.826 234.959 199.378 234.959 199.378Z" fill="#407BFF"/>
<path opacity="0.3" d="M63.7203 169.177C60.8629 167.685 58.6339 165.29 60.3094 164.29C61.9849 163.291 63.7203 169.177 63.7203 169.177Z" fill="#407BFF"/>
</svg>
