<svg width="374" height="278" viewBox="0 0 374 278" fill="none" xmlns="http://www.w3.org/2000/svg">
<g clip-path="url(#clip0_12934_4039)">
<path d="M187 278C267.098 278 332.03 274.219 332.03 269.554C332.03 264.89 267.098 261.109 187 261.109C106.902 261.109 41.9702 264.89 41.9702 269.554C41.9702 274.219 106.902 278 187 278Z" fill="#1B1B21"/>
<path opacity="0.1" d="M102.7 210.591C102.79 209.919 103.135 209.307 103.664 208.88C104.193 208.454 104.865 208.247 105.543 208.3C111.946 208.203 117.937 212.717 123.495 217.559C124.729 218.626 126.068 219.73 127.452 218.611C127.88 218.258 128.192 217.785 128.349 217.253C128.589 216.384 128.589 215.467 128.349 214.597C128.144 213.88 127.801 213.208 127.34 212.62C124.924 209.449 121.984 207.927 119.598 204.652C118.261 202.776 117.154 200.747 116.299 198.609C115.551 196.729 114.055 193.692 114.653 191.148C115.319 188.104 117.601 188.365 118.984 188.783C123.36 190.088 127.444 193.2 131.154 197.072C135.111 201.19 138.694 206.152 142.262 211.083C143.609 212.956 145.03 214.881 146.75 215.56C148.471 216.239 150.647 215.142 151.373 212.441C152.098 209.74 151.246 206.637 151.066 203.951C150.826 200.746 150.982 197.523 151.53 194.356C151.773 192.682 152.339 191.07 153.198 189.611C155.128 186.791 157.985 187.783 159.855 189.917C161.282 191.702 162.386 193.722 163.116 195.885C165.215 201.864 166.473 208.103 166.856 214.426C167.141 218.343 167.739 222.424 169.355 225.46C171.965 230.37 176.835 229.982 180.612 227.408C187.187 222.931 192.258 212.814 193.612 201.504C194.054 197.818 194.166 193.834 195.512 190.745C196.687 188.074 199.701 186.268 201.175 189.148C201.768 190.588 201.934 192.168 201.653 193.699C201.389 195.216 201.017 196.712 200.539 198.176C199.791 200.713 199.043 205.465 201.062 206.95C201.364 207.132 201.701 207.247 202.051 207.286C202.401 207.324 202.756 207.286 203.09 207.174C209.702 205.801 215.85 199.594 219.89 190.931C221.353 187.672 222.471 184.269 223.226 180.777C223.712 178.643 223.914 176.353 224.452 174.234C224.798 172.566 225.496 170.992 226.502 169.616C229.075 166.542 235.014 167.989 235.351 174.577C235.553 178.39 234.535 182.12 234.161 185.851C233.93 188.178 235.373 188.163 236.45 188.089C241.612 187.567 246.174 182.374 250.221 176.972C255.031 170.548 260.356 162.207 266.924 161.961C268.42 161.909 270.911 162.103 271.808 164.408C272.224 165.821 272.224 167.323 271.808 168.735C270.477 174.241 266.572 177.084 263.58 179.807C255.145 187.699 247.725 196.606 241.492 206.323C240.542 207.815 239.562 210.278 240.467 211.74C240.64 212.018 240.893 212.238 241.194 212.371C241.494 212.504 241.827 212.544 242.15 212.486C245.239 212.247 248.134 209.8 250.954 207.771C253.774 205.741 256.975 203.966 259.93 205.495C260.841 206.04 261.634 206.76 262.265 207.613C262.895 208.466 263.35 209.435 263.603 210.464C264.131 212.268 264.215 214.172 263.85 216.015C262.765 221.081 258.075 223.356 255.494 225.856C251.941 229.275 248.688 232.992 245.77 236.965C243.078 240.643 240.534 244.672 237.842 248.283C228.118 261.213 214.654 263.13 202.686 264.63C189.663 266.257 176.61 265.376 163.662 263.668C154.245 262.414 144.962 259.743 135.77 256.572C132.613 255.431 129.479 254.185 126.382 252.708C123.054 251.126 118.154 250.148 116.875 243.919C116.606 242.576 116.92 241.486 117.81 240.987C120.57 239.42 124.505 241.516 127.1 242.897C130.683 244.806 134.079 247.53 137.759 249C138.351 249.289 138.995 249.457 139.653 249.491C140.312 249.526 140.97 249.427 141.589 249.201C142.196 248.947 142.695 248.491 143.003 247.91C143.394 247.153 143.49 246.279 143.272 245.456C143.12 245.011 142.864 244.609 142.524 244.284C135.9 237.513 127.986 232.13 119.246 228.452C116.441 227.251 113.576 226.266 110.876 224.565C108.693 223.219 106.81 221.441 105.341 219.342C104.084 217.336 102.065 213.792 102.7 210.591Z" fill="#5082F2"/>
<path opacity="0.1" d="M245.77 155.746C245.271 156.262 244.616 156.603 243.905 156.715C243.194 156.827 242.466 156.706 241.83 156.368C241.195 156.031 240.687 155.497 240.383 154.846C240.079 154.195 239.996 153.464 240.146 152.762C242.726 140.265 248.336 131.177 255.008 135.892C259.99 139.407 252.181 149.098 245.77 155.746Z" fill="#5082F2"/>
<path opacity="0.3" d="M227.669 161.58C229.71 160.457 231.439 158.847 232.704 156.894C233.969 154.941 234.729 152.706 234.917 150.389L239.974 88.9487C240.236 85.7904 239.833 82.6123 238.791 79.6185C237.749 76.6247 236.09 73.8814 233.922 71.5648L218.341 54.9196C217.484 53.9992 216.828 52.9111 216.415 51.7243C216.001 50.5375 215.84 49.278 215.94 48.0257L216.688 39.0279L176.364 35.7227L175.616 44.7205C175.512 45.9724 175.148 47.189 174.547 48.2926C173.945 49.3961 173.12 50.3624 172.122 51.1294L154.021 65.0291C151.505 66.9635 149.421 69.4008 147.904 72.1849C146.386 74.969 145.469 78.0385 145.209 81.1968L140.145 142.637C139.954 144.951 140.339 147.277 141.267 149.407C142.195 151.536 143.637 153.404 145.464 154.843C143.423 155.966 141.694 157.576 140.43 159.529C139.167 161.482 138.408 163.717 138.223 166.035L131.768 244.374C131.464 248.098 132.654 251.791 135.078 254.64C137.501 257.49 140.96 259.264 144.693 259.572L211.265 265.026C213.114 265.178 214.975 264.965 216.741 264.4C218.507 263.835 220.145 262.928 221.56 261.731C222.975 260.535 224.14 259.072 224.988 257.426C225.836 255.781 226.35 253.985 226.502 252.141L232.957 173.801C233.155 171.487 232.775 169.16 231.853 167.028C230.93 164.896 229.493 163.024 227.669 161.58Z" fill="#5082F2"/>
<path opacity="0.3" d="M176.375 35.7364L175.803 42.674L216.119 45.9801L216.691 39.0425L176.375 35.7364Z" fill="#5082F2"/>
<path opacity="0.3" d="M233.548 73.1689L217.967 56.5087C217.967 56.5087 207.922 56.9415 215.723 69.2295C222.373 79.6225 233.96 78.0035 233.548 73.1689Z" fill="#1C1D26"/>
<path opacity="0.2" d="M131.775 244.344C131.471 248.068 132.662 251.761 135.085 254.611C137.509 257.46 140.967 259.234 144.701 259.542L211.273 264.996C213.121 265.148 214.982 264.935 216.748 264.37C218.515 263.805 220.152 262.898 221.567 261.702C222.982 260.505 224.147 259.042 224.995 257.397C225.843 255.751 226.358 253.955 226.509 252.111L131.775 244.344Z" fill="#5082F2"/>
<path opacity="0.3" d="M230.639 74.6089C232.378 76.4699 233.71 78.6728 234.547 81.0766C235.384 83.4804 235.709 86.032 235.501 88.5682L230.444 150.016C230.313 151.596 229.792 153.118 228.928 154.449C228.064 155.779 226.884 156.875 225.492 157.641L219.606 160.894L224.879 165.065C226.127 166.046 227.112 167.319 227.746 168.772C228.38 170.225 228.644 171.812 228.514 173.391L222.059 251.73C221.851 254.269 220.642 256.622 218.697 258.272C216.752 259.923 214.23 260.736 211.684 260.534L145.112 255.08C143.848 254.98 142.616 254.633 141.486 254.058C140.357 253.483 139.352 252.692 138.529 251.73C137.705 250.767 137.08 249.653 136.689 248.45C136.298 247.246 136.148 245.978 136.248 244.717L142.704 166.378C142.833 164.797 143.352 163.273 144.214 161.942C145.077 160.61 146.257 159.512 147.648 158.745L153.535 155.492L148.299 151.322C147.051 150.341 146.066 149.067 145.432 147.614C144.798 146.161 144.534 144.575 144.663 142.995L149.727 81.5549C149.937 79.0185 150.676 76.5538 151.896 74.3184C153.115 72.0829 154.79 70.1261 156.811 68.573C162.795 64.7157 178.503 74.3179 196.896 75.825C215.29 77.3321 226.794 72.6765 230.639 74.6089Z" fill="#5082F2"/>
<path opacity="0.2" d="M196.859 75.8324C178.473 74.3402 162.75 64.7157 156.766 68.573C167.238 74.3179 179.206 77.8767 196.567 79.3017C213.928 80.7268 230.639 74.6088 230.639 74.6088C226.794 72.6765 215.245 77.347 196.859 75.8324Z" fill="#5082F2"/>
<path opacity="0.2" d="M140.153 142.637C139.961 144.951 140.347 147.277 141.275 149.407C142.203 151.536 143.644 153.404 145.471 154.843L227.669 161.558C229.709 160.435 231.439 158.825 232.704 156.872C233.969 154.919 234.729 152.684 234.917 150.367L140.153 142.637Z" fill="#5082F2"/>
<path d="M217.534 28.039L177.331 24.7319C175.647 24.5934 174.17 25.8428 174.032 27.5224L173.23 37.2784C173.092 38.9581 174.345 40.432 176.029 40.5705L216.232 43.8776C217.916 44.0161 219.393 42.7667 219.531 41.0871L220.333 31.3311C220.471 29.6514 219.218 28.1775 217.534 28.039Z" fill="#5082F2"/>
<path opacity="0.2" d="M178.069 39.0652C178.02 39.0614 177.972 39.048 177.928 39.0257C177.884 39.0033 177.845 38.9726 177.813 38.9351C177.781 38.8977 177.757 38.8543 177.742 38.8075C177.726 38.7606 177.721 38.7113 177.725 38.6623L178.667 26.8592C178.675 26.7602 178.722 26.6685 178.798 26.6041C178.874 26.5398 178.972 26.508 179.071 26.516C179.171 26.5239 179.262 26.5708 179.327 26.6463C179.392 26.7219 179.423 26.8199 179.415 26.9189L178.443 38.7145C178.437 38.8095 178.395 38.8987 178.326 38.9639C178.256 39.0291 178.164 39.0653 178.069 39.0652Z" fill="#1C1D26"/>
<path opacity="0.2" d="M185.362 39.6621C185.313 39.6583 185.265 39.6449 185.221 39.6226C185.177 39.6003 185.138 39.5695 185.106 39.532C185.074 39.4946 185.05 39.4512 185.035 39.4044C185.019 39.3576 185.014 39.3082 185.018 39.2592L185.99 27.4635C186 27.3652 186.047 27.2745 186.123 27.2104C186.198 27.1464 186.295 27.1141 186.394 27.1203C186.443 27.1241 186.491 27.1375 186.534 27.1599C186.578 27.1823 186.616 27.2133 186.648 27.2508C186.679 27.2884 186.703 27.3318 186.717 27.3786C186.731 27.4254 186.736 27.4746 186.731 27.5232L185.736 39.3189C185.727 39.4119 185.684 39.4983 185.615 39.5616C185.546 39.6249 185.456 39.6607 185.362 39.6621Z" fill="#1C1D26"/>
<path opacity="0.2" d="M192.648 40.2888C192.598 40.285 192.551 40.2716 192.507 40.2493C192.463 40.227 192.424 40.1962 192.392 40.1587C192.36 40.1213 192.335 40.0779 192.32 40.0311C192.305 39.9843 192.299 39.9349 192.304 39.8859L193.276 28.0902C193.287 27.9927 193.335 27.903 193.41 27.8393C193.485 27.7756 193.581 27.7426 193.68 27.747C193.729 27.7508 193.777 27.7642 193.821 27.7865C193.865 27.8089 193.904 27.8396 193.936 27.8771C193.968 27.9145 193.992 27.9579 194.007 28.0047C194.022 28.0516 194.028 28.1009 194.024 28.1499L193.052 39.9456C193.048 39.9946 193.034 40.0424 193.012 40.0863C192.99 40.1301 192.959 40.1691 192.921 40.201C192.884 40.2329 192.84 40.2571 192.793 40.2721C192.746 40.2872 192.697 40.2929 192.648 40.2888Z" fill="#1C1D26"/>
<path opacity="0.2" d="M199.941 40.8558C199.891 40.852 199.843 40.8386 199.8 40.8163C199.756 40.794 199.716 40.7632 199.685 40.7258C199.653 40.6883 199.628 40.6449 199.613 40.5981C199.598 40.5513 199.592 40.5019 199.597 40.4529L200.569 28.6573C200.578 28.559 200.626 28.4682 200.701 28.4041C200.777 28.3401 200.874 28.3078 200.973 28.3141C201.022 28.3178 201.069 28.3312 201.113 28.3537C201.156 28.3761 201.195 28.407 201.226 28.4445C201.258 28.4821 201.281 28.5256 201.296 28.5724C201.31 28.6192 201.315 28.6683 201.309 28.7169L200.337 40.5126C200.334 40.5613 200.322 40.609 200.3 40.6528C200.278 40.6966 200.248 40.7356 200.211 40.7676C200.174 40.7996 200.131 40.8239 200.085 40.839C200.038 40.8542 199.989 40.8599 199.941 40.8558Z" fill="#1C1D26"/>
<path opacity="0.2" d="M207.196 41.4527C207.147 41.4489 207.099 41.4355 207.055 41.4132C207.011 41.3908 206.972 41.3601 206.94 41.3226C206.908 41.2852 206.884 41.2418 206.869 41.195C206.854 41.1481 206.848 41.0988 206.852 41.0498L207.825 29.2541C207.838 29.1572 207.886 29.0686 207.961 29.0052C208.035 28.9418 208.131 28.9082 208.229 28.9109C208.278 28.9147 208.326 28.9281 208.37 28.9504C208.414 28.9727 208.453 29.0035 208.485 29.041C208.517 29.0784 208.541 29.1218 208.556 29.1686C208.571 29.2154 208.577 29.2648 208.573 29.3138L207.6 41.1095C207.598 41.1589 207.585 41.2072 207.563 41.2515C207.541 41.2959 207.51 41.3353 207.472 41.3673C207.434 41.3994 207.39 41.4235 207.343 41.4382C207.296 41.4529 207.246 41.4578 207.196 41.4527Z" fill="#1C1D26"/>
<path opacity="0.2" d="M214.519 42.0495C214.47 42.0458 214.422 42.0324 214.378 42.01C214.334 41.9877 214.295 41.9569 214.263 41.9195C214.231 41.8821 214.207 41.8387 214.192 41.7919C214.177 41.745 214.171 41.6957 214.175 41.6467L215.118 29.8435C215.127 29.7452 215.175 29.6545 215.25 29.5904C215.325 29.5264 215.423 29.4941 215.522 29.5003C215.619 29.5098 215.71 29.5574 215.773 29.6328C215.836 29.7082 215.866 29.8054 215.858 29.9032L214.893 41.7063C214.884 41.7994 214.841 41.8858 214.772 41.9491C214.703 42.0124 214.613 42.0482 214.519 42.0495Z" fill="#1C1D26"/>
<path opacity="0.2" d="M152.592 122.112C151.455 115.838 142.292 116.285 141.769 122.635L140.123 142.637C139.932 144.951 140.317 147.277 141.245 149.407C142.173 151.536 143.614 153.404 145.441 154.843C143.401 155.966 141.671 157.576 140.408 159.529C139.144 161.482 138.386 163.717 138.201 166.035L131.745 244.374C131.441 248.098 132.632 251.791 135.055 254.64C137.479 257.49 140.937 259.264 144.671 259.572L161.875 260.982C163.77 261.136 165.676 260.855 167.445 260.158C169.214 259.461 170.798 258.369 172.076 256.964C173.354 255.559 174.292 253.881 174.816 252.057C175.34 250.234 175.437 248.315 175.099 246.448L152.592 122.112Z" fill="#5082F2"/>
<path opacity="0.3" d="M218.79 224.692C218.672 226.13 218.128 227.501 217.228 228.631C216.329 229.761 215.113 230.599 213.736 231.041C212.359 231.482 210.881 231.506 209.49 231.109C208.099 230.713 206.857 229.914 205.921 228.814C204.985 227.713 204.397 226.361 204.232 224.927C204.067 223.494 204.331 222.043 204.992 220.76C205.653 219.476 206.681 218.417 207.945 217.716C209.209 217.015 210.654 216.703 212.096 216.821C214.029 216.98 215.82 217.899 217.076 219.375C218.331 220.851 218.948 222.763 218.79 224.692Z" fill="#5082F2"/>
<path opacity="0.3" d="M195.535 196.438C195.452 197.455 195.067 198.426 194.431 199.226C193.795 200.026 192.935 200.62 191.96 200.933C190.985 201.245 189.94 201.262 188.955 200.982C187.971 200.702 187.092 200.136 186.429 199.358C185.767 198.579 185.351 197.622 185.234 196.607C185.117 195.593 185.304 194.566 185.772 193.658C186.24 192.75 186.967 192 187.862 191.504C188.757 191.008 189.78 190.788 190.8 190.872C192.167 190.986 193.433 191.636 194.32 192.679C195.208 193.722 195.645 195.074 195.535 196.438Z" fill="#5082F2"/>
<path opacity="0.3" d="M173.895 133.55C172.873 133.597 171.86 133.342 170.983 132.815C170.107 132.288 169.407 131.514 168.971 130.591C168.535 129.667 168.384 128.635 168.536 127.626C168.688 126.617 169.136 125.675 169.824 124.92C170.513 124.165 171.41 123.63 172.403 123.383C173.396 123.136 174.44 123.188 175.403 123.533C176.366 123.878 177.205 124.499 177.814 125.319C178.423 126.139 178.775 127.121 178.825 128.141C178.858 128.819 178.757 129.497 178.527 130.136C178.297 130.775 177.943 131.363 177.485 131.865C177.027 132.368 176.474 132.775 175.858 133.064C175.242 133.353 174.575 133.518 173.895 133.55Z" fill="#5082F2"/>
<path opacity="0.3" d="M188.01 102.684C187.285 102.72 186.566 102.541 185.944 102.169C185.321 101.798 184.824 101.25 184.513 100.596C184.203 99.9416 184.095 99.2103 184.202 98.4945C184.308 97.7788 184.626 97.1107 185.114 96.575C185.601 96.0394 186.238 95.6601 186.942 95.4853C187.646 95.3105 188.386 95.3481 189.068 95.5932C189.751 95.8383 190.345 96.28 190.776 96.8623C191.207 97.4446 191.455 98.1413 191.488 98.8642C191.533 99.8303 191.192 100.775 190.54 101.491C189.888 102.207 188.978 102.636 188.01 102.684Z" fill="#5082F2"/>
<path opacity="0.3" d="M210.719 174.122C210.684 174.542 210.525 174.942 210.261 175.272C209.998 175.602 209.642 175.847 209.24 175.976C208.837 176.104 208.405 176.111 207.999 175.995C207.592 175.879 207.229 175.645 206.956 175.323C206.682 175.002 206.511 174.606 206.462 174.187C206.414 173.769 206.491 173.345 206.684 172.97C206.877 172.594 207.177 172.285 207.547 172.079C207.916 171.874 208.338 171.783 208.76 171.817C209.326 171.864 209.85 172.134 210.217 172.566C210.584 172.998 210.765 173.557 210.719 174.122Z" fill="#5082F2"/>
<path opacity="0.7" d="M171.973 232.496H171.614C171.041 232.457 170.481 232.305 169.968 232.049C169.454 231.793 168.997 231.437 168.622 231.004C168.253 230.572 167.973 230.071 167.8 229.531C167.627 228.99 167.563 228.421 167.612 227.855C167.682 227.019 167.994 226.222 168.51 225.56C169.027 224.898 169.725 224.401 170.521 224.128C171.316 223.855 172.174 223.82 172.989 224.025C173.804 224.231 174.542 224.669 175.112 225.286C175.682 225.902 176.06 226.671 176.199 227.498C176.338 228.326 176.233 229.175 175.896 229.944C175.559 230.713 175.005 231.367 174.302 231.826C173.599 232.286 172.776 232.532 171.935 232.533L171.973 232.496ZM171.973 224.408C171.122 224.413 170.298 224.706 169.637 225.24C168.976 225.774 168.517 226.517 168.337 227.346C168.156 228.176 168.264 229.041 168.643 229.801C169.022 230.561 169.649 231.169 170.422 231.525C171.194 231.881 172.065 231.964 172.89 231.76C173.716 231.556 174.448 231.077 174.964 230.403C175.48 229.728 175.75 228.898 175.73 228.05C175.71 227.202 175.4 226.386 174.852 225.736C174.533 225.359 174.142 225.049 173.702 224.823C173.261 224.598 172.78 224.462 172.287 224.423L171.973 224.408Z" fill="#1C1D26"/>
<path opacity="0.7" d="M218.237 145.189H217.975C217.144 145.12 216.374 144.726 215.835 144.093C215.295 143.459 215.029 142.638 215.095 141.809C215.164 140.979 215.56 140.21 216.197 139.672C216.833 139.133 217.659 138.869 218.491 138.937C219.322 139.005 220.091 139.399 220.631 140.033C221.171 140.666 221.437 141.488 221.371 142.316C221.3 143.146 220.905 143.915 220.271 144.458C219.701 144.934 218.98 145.194 218.237 145.189ZM215.656 141.839C215.619 142.346 215.733 142.853 215.983 143.296C216.234 143.739 216.61 144.098 217.065 144.329C217.52 144.559 218.033 144.65 218.539 144.591C219.046 144.532 219.523 144.324 219.912 143.995C220.172 143.776 220.385 143.508 220.541 143.206C220.696 142.904 220.791 142.575 220.818 142.236C220.846 141.898 220.807 141.558 220.703 141.235C220.598 140.912 220.431 140.613 220.211 140.354C219.983 140.103 219.706 139.899 219.398 139.756C219.09 139.613 218.756 139.532 218.416 139.519C218.078 139.49 217.737 139.528 217.413 139.631C217.089 139.735 216.789 139.9 216.53 140.119C216.271 140.338 216.058 140.606 215.902 140.908C215.747 141.209 215.653 141.538 215.626 141.876L215.656 141.839Z" fill="#1C1D26"/>
<path opacity="0.7" d="M169.909 79.0403H169.796C169.41 79.0024 169.054 78.8163 168.802 78.5212C168.551 78.2261 168.425 77.8451 168.45 77.4588C168.469 77.1686 168.572 76.8902 168.748 76.6579C168.923 76.4256 169.163 76.2496 169.438 76.1514C169.712 76.0532 170.009 76.0371 170.293 76.1052C170.576 76.1732 170.834 76.3224 171.033 76.5344C171.233 76.7465 171.366 77.012 171.416 77.2985C171.467 77.585 171.432 77.8799 171.316 78.1469C171.201 78.4139 171.01 78.6415 170.766 78.8015C170.523 78.9616 170.238 79.0472 169.946 79.0478L169.909 79.0403ZM169.003 77.5035C168.989 77.6813 169.028 77.8592 169.115 78.0148C169.203 78.1705 169.334 78.2969 169.493 78.3782C169.652 78.4595 169.832 78.492 170.009 78.4716C170.187 78.4512 170.354 78.3788 170.491 78.2635C170.627 78.1483 170.726 77.9953 170.776 77.824C170.825 77.6526 170.822 77.4706 170.768 77.3007C170.714 77.1308 170.61 76.9808 170.471 76.8696C170.331 76.7583 170.161 76.6907 169.983 76.6755C169.864 76.6642 169.744 76.6769 169.63 76.7126C169.516 76.7484 169.41 76.8065 169.319 76.8837C169.227 76.9608 169.152 77.0554 169.098 77.1619C169.044 77.2683 169.012 77.3845 169.003 77.5035Z" fill="#1C1D26"/>
<path opacity="0.7" d="M202.985 117.681H202.671C202.178 117.642 201.698 117.507 201.259 117.282C200.819 117.058 200.428 116.748 200.109 116.372C199.79 115.996 199.548 115.561 199.399 115.092C199.249 114.622 199.194 114.128 199.237 113.637C199.301 112.916 199.574 112.23 200.021 111.661C200.469 111.092 201.073 110.666 201.759 110.433C202.446 110.2 203.186 110.172 203.888 110.351C204.591 110.529 205.226 110.908 205.716 111.441C206.207 111.973 206.532 112.636 206.652 113.35C206.771 114.063 206.68 114.796 206.39 115.458C206.1 116.121 205.623 116.685 205.017 117.083C204.411 117.48 203.702 117.693 202.977 117.695L202.985 117.681ZM202.985 110.742C202.232 110.739 201.503 111.003 200.928 111.488C200.282 112.033 199.879 112.811 199.806 113.652C199.764 114.173 199.851 114.697 200.06 115.177C200.269 115.657 200.594 116.079 201.005 116.404C201.416 116.729 201.901 116.948 202.417 117.042C202.933 117.136 203.465 117.101 203.964 116.942C204.464 116.782 204.916 116.502 205.282 116.126C205.647 115.751 205.914 115.291 206.059 114.788C206.204 114.285 206.223 113.754 206.113 113.242C206.003 112.731 205.769 112.254 205.431 111.854C205.16 111.534 204.828 111.27 204.454 111.08C204.081 110.889 203.673 110.774 203.254 110.742H202.985Z" fill="#1C1D26"/>
<path opacity="0.3" d="M233.668 150.3L238.5 91.7092C238.531 91.3349 238.487 90.9582 238.372 90.6007C238.256 90.2431 238.071 89.9118 237.827 89.6256C237.584 89.3394 237.286 89.104 236.95 88.9328C236.615 88.7616 236.25 88.658 235.874 88.6278C235.499 88.5962 235.122 88.6387 234.764 88.7529C234.405 88.8671 234.073 89.0508 233.786 89.2934C233.499 89.5361 233.263 89.8328 233.091 90.1667C232.919 90.5006 232.815 90.8651 232.785 91.2391L227.953 149.829C227.796 151.777 227.157 153.655 226.093 155.296C225.029 156.937 223.573 158.289 221.857 159.23L218.917 160.864L221.558 162.946C223.096 164.155 224.311 165.725 225.095 167.516C225.878 169.308 226.204 171.264 226.046 173.212L219.59 251.551C219.201 256.252 216.239 258.542 212.073 260.37C211.809 260.488 211.591 260.69 211.454 260.945C211.318 261.2 211.269 261.492 211.317 261.777C211.365 262.062 211.506 262.323 211.719 262.52C211.932 262.716 212.203 262.836 212.492 262.862C215.632 263.118 218.745 262.12 221.148 260.087C223.551 258.054 225.046 255.153 225.305 252.021L231.76 173.682C231.92 171.734 231.594 169.777 230.811 167.986C230.028 166.194 228.812 164.624 227.272 163.416L224.632 161.327L227.572 159.7C229.287 158.757 230.741 157.405 231.805 155.765C232.869 154.124 233.509 152.247 233.668 150.3Z" fill="#1C1D26"/>
<path opacity="0.3" d="M311.31 241.352C310.502 237.696 300.419 239.86 298.332 240.196C294.277 240.93 290.308 242.072 286.484 243.605C282.273 245.254 277.381 247.679 273.02 245.172C270.499 243.725 279.251 240.867 280.044 240.576C283.763 239.273 287.354 237.63 290.77 235.667C292.154 234.846 294.832 232.884 293.68 230.892C292.722 229.243 289.289 229.4 287.202 229.653C280.878 230.426 274.675 231.977 268.734 234.272C262.956 236.561 257.299 239.144 251.784 242.009C249.648 243.211 247.324 244.046 244.91 244.478C242.277 244.851 239.053 244.292 238.014 242.837C236.974 241.382 238.313 239.681 238.62 238.219C239.053 236.47 238.871 234.626 238.103 232.996C237.594 231.903 236.741 231.007 235.672 230.444C232.823 228.952 228.514 229.504 225.649 230.683C223.793 231.467 222.097 232.585 220.645 233.981C217.721 236.695 215.67 240.213 214.751 244.09C214.519 245.305 214.05 246.461 213.37 247.495C212.69 248.528 211.812 249.417 210.786 250.111C206.777 252.805 199.432 252.648 193.814 251.298C184.008 248.977 176.528 243.553 174.725 237.428C173.85 234.511 173.424 231.459 169.489 230.318C166.946 229.571 161.62 230.094 162.757 233.302C163.17 234.181 163.709 234.995 164.358 235.719C165.398 237.085 166.505 239.659 163.416 240.487C162.415 240.698 161.388 240.749 160.371 240.636C150.438 239.972 141.297 236.667 135.373 232.011C133.441 230.497 131.804 228.644 130.541 226.542C129.838 225.386 129.584 224.14 128.813 222.998C128.077 221.9 127.038 221.037 125.821 220.514C122.006 218.88 113.045 219.731 112.417 223.312C112.08 225.252 113.292 227.356 113.913 229.198C114.024 229.431 114.051 229.695 113.988 229.944C113.808 230.415 113.098 230.549 112.492 230.586C104.481 231.116 96.709 228.012 89.9845 224.774C82.8635 221.342 75.0245 216.873 65.1284 216.821C63.0822 216.728 61.0341 216.962 59.0621 217.515C58.5629 217.648 58.0984 217.887 57.7008 218.216C57.459 218.467 57.2983 218.785 57.2397 219.128C57.181 219.471 57.227 219.824 57.3717 220.141C57.6929 220.798 58.1705 221.367 58.7629 221.797C61.7549 224.229 65.9437 225.214 69.766 226.468C81.1066 230.134 92.0718 234.868 102.513 240.606C103.568 241.195 105.438 242.561 103.957 243.59C102.476 244.62 99.4691 243.956 97.6963 243.665C94.4799 243.143 91.3907 242.307 88.2566 241.524C84.1127 240.479 79.2806 239.532 74.7926 240.397C72.4214 240.852 70.3046 241.822 69.1901 243.135C68.806 243.519 68.553 244.015 68.4671 244.55C68.3811 245.086 68.4666 245.635 68.7113 246.12C70.2522 248.858 77.2759 250.037 81.1132 251.342C86.0263 253.015 90.8303 254.991 95.4972 257.259C99.4841 259.228 103.187 261.385 107.226 263.317C121.655 270.218 141.806 271.106 159.825 271.778C179.385 272.524 199.035 271.89 218.543 270.808C232.755 270.017 246.705 268.458 260.633 266.622C264.635 266.1 268.614 265.458 272.601 264.914C276.648 264.451 280.651 263.66 284.569 262.549C285.977 262.19 287.291 261.534 288.421 260.624C289.491 259.631 289.828 258.333 287.913 257.96C283.903 257.162 279.775 258.072 275.855 258.781C271.457 259.587 267.098 260.514 262.78 261.564C260.811 262.087 258.813 262.494 256.796 262.78C254.768 263.064 252.704 262.932 250.73 262.392C250.086 262.19 249.383 261.832 249.346 261.265C249.308 260.698 249.847 260.34 250.401 260.124C258.471 256.93 267.044 254.901 275.675 253.036C281.532 251.768 287.494 250.992 293.396 249.999C298.774 249.097 304.444 248.888 309.104 245.485C310.031 244.888 310.752 244.021 311.168 243.001C311.37 242.476 311.42 241.904 311.31 241.352Z" fill="#5082F2"/>
<path opacity="0.3" d="M79.8491 211.143C77.6575 204.928 69.8483 193.923 68.2027 200.422C67.3201 204.07 79.8491 211.143 79.8491 211.143Z" fill="#5082F2"/>
<path opacity="0.3" d="M275.959 223.378C280.133 219.581 285.339 217.321 286.013 220.663C286.641 223.826 275.959 223.378 275.959 223.378Z" fill="#5082F2"/>
<path opacity="0.3" d="M104.72 193.177C101.863 191.685 99.6339 189.29 101.309 188.29C102.985 187.291 104.72 193.177 104.72 193.177Z" fill="#5082F2"/>
</g>
<defs>
<clipPath id="clip0_12934_4039">
<rect width="374" height="278" fill="white"/>
</clipPath>
</defs>
</svg>
