<svg width="3271" height="1134" viewBox="0 0 3271 1134" fill="none" xmlns="http://www.w3.org/2000/svg">
<path fill-rule="evenodd" clip-rule="evenodd" d="M135 476L248.542 489.708C362.083 503.417 589.167 530.833 816.25 626.792C1043.33 722.75 1270.42 887.25 1497.5 969.5C1724.58 1051.75 1951.67 1051.75 2178.75 1065.46C2405.83 1079.17 2632.92 1106.58 2746.46 1120.29L2860 1134H2746.46C2632.92 1134 2405.83 1134 2178.75 1134C1951.67 1134 1724.58 1134 1497.5 1134C1270.42 1134 1043.33 1134 816.25 1134C589.167 1134 362.083 1134 248.542 1134H135V476Z" fill="#9EBBFF"/>
<path opacity="0.8" fill-rule="evenodd" clip-rule="evenodd" d="M3271 0H3180.14C3089.28 0 2907.56 0 2725.83 57.75C2544.11 112.875 2362.39 225.75 2180.67 225.75C1998.94 225.75 1817.22 112.875 1635.5 207.375C1453.78 301.875 1272.06 603.75 1090.33 756C908.611 908.25 726.889 908.25 545.167 868.875C363.444 832.125 181.722 756 90.8611 719.25L0 679.875V1134H90.8611C181.722 1134 363.444 1134 545.167 1134C726.889 1134 908.611 1134 1090.33 1134C1272.06 1134 1453.78 1134 1635.5 1134C1817.22 1134 1998.94 1134 2180.67 1134C2362.39 1134 2544.11 1134 2725.83 1134C2907.56 1134 3089.28 1134 3180.14 1134H3271V0Z" fill="#ECF2FF"/>
<path opacity="0.7" d="M1184.48 339.784H1182.41C1179.1 339.557 1175.87 338.677 1172.91 337.195C1169.95 335.712 1167.31 333.657 1165.14 331.148C1163.01 328.649 1161.4 325.751 1160.4 322.623C1159.4 319.495 1159.03 316.199 1159.31 312.927C1159.71 308.09 1161.52 303.474 1164.5 299.643C1167.48 295.813 1171.51 292.933 1176.1 291.356C1180.69 289.779 1185.64 289.573 1190.35 290.762C1195.05 291.952 1199.31 294.486 1202.6 298.055C1205.89 301.624 1208.07 306.074 1208.87 310.862C1209.68 315.649 1209.07 320.567 1207.13 325.015C1205.18 329.463 1201.98 333.248 1197.93 335.909C1193.87 338.57 1189.12 339.992 1184.27 340L1184.48 339.784ZM1184.48 292.979C1179.57 293.004 1174.82 294.701 1171 297.793C1167.19 300.884 1164.54 305.183 1163.5 309.982C1162.45 314.781 1163.08 319.792 1165.26 324.188C1167.45 328.584 1171.07 332.103 1175.53 334.164C1179.99 336.225 1185.01 336.704 1189.78 335.523C1194.54 334.343 1198.77 331.572 1201.75 327.669C1204.73 323.766 1206.29 318.963 1206.17 314.054C1206.05 309.145 1204.26 304.422 1201.1 300.665C1199.26 298.481 1197 296.685 1194.46 295.38C1191.92 294.076 1189.14 293.289 1186.29 293.065L1184.48 292.979Z" fill="#C6D7FF"/>
<path d="M1171.2 554.669C1171.01 557.034 1170.11 559.288 1168.64 561.146C1167.16 563.005 1165.17 564.384 1162.91 565.109C1160.65 565.835 1158.23 565.874 1155.94 565.222C1153.66 564.57 1151.63 563.256 1150.09 561.447C1148.55 559.637 1147.59 557.413 1147.32 555.055C1147.05 552.698 1147.48 550.313 1148.57 548.202C1149.65 546.091 1151.34 544.349 1153.41 543.196C1155.48 542.043 1157.85 541.53 1160.22 541.724C1163.39 541.986 1166.33 543.497 1168.39 545.924C1170.45 548.351 1171.46 551.496 1171.2 554.669Z" fill="#C6D7FF"/>
<path d="M918.795 342.405C918.6 344.77 917.708 347.024 916.232 348.883C914.757 350.741 912.763 352.12 910.503 352.846C908.244 353.571 905.82 353.611 903.538 352.959C901.256 352.307 899.219 350.993 897.684 349.183C896.148 347.374 895.184 345.15 894.913 342.792C894.642 340.434 895.075 338.049 896.16 335.938C897.244 333.827 898.929 332.085 901.004 330.932C903.078 329.779 905.447 329.267 907.813 329.46C910.985 329.723 913.923 331.234 915.982 333.661C918.041 336.088 919.053 339.233 918.795 342.405Z" fill="#ECF2FF"/>
<path d="M1110.17 419.95C1110.04 421.527 1109.44 423.029 1108.46 424.268C1107.47 425.507 1106.14 426.427 1104.64 426.91C1103.13 427.394 1101.52 427.42 1099.99 426.986C1098.47 426.551 1097.12 425.675 1096.09 424.469C1095.07 423.262 1094.43 421.78 1094.24 420.208C1094.06 418.636 1094.35 417.046 1095.08 415.639C1095.8 414.231 1096.92 413.07 1098.31 412.301C1099.69 411.533 1101.27 411.191 1102.84 411.32C1104.96 411.495 1106.92 412.502 1108.29 414.12C1109.66 415.738 1110.34 417.835 1110.17 419.95Z" fill="#ECF2FF"/>
<path opacity="0.7" d="M934.959 710.001H933.633C931.517 709.855 929.451 709.292 927.554 708.343C925.657 707.395 923.967 706.08 922.581 704.474C921.218 702.874 920.186 701.02 919.546 699.018C918.905 697.016 918.669 694.906 918.851 692.812C919.108 689.716 920.262 686.762 922.17 684.311C924.078 681.859 926.659 680.016 929.596 679.007C932.534 677.997 935.702 677.865 938.714 678.627C941.726 679.388 944.451 681.01 946.556 683.294C948.662 685.579 950.057 688.426 950.571 691.49C951.085 694.554 950.696 697.702 949.452 700.548C948.207 703.395 946.161 705.818 943.563 707.521C940.965 709.224 937.928 710.134 934.821 710.139L934.959 710.001ZM934.959 680.046C931.817 680.061 928.774 681.148 926.332 683.126C923.89 685.104 922.196 687.856 921.528 690.927C920.861 693.999 921.26 697.205 922.66 700.019C924.06 702.833 926.378 705.085 929.23 706.404C932.083 707.723 935.299 708.03 938.35 707.274C941.4 706.518 944.101 704.745 946.008 702.247C947.915 699.749 948.914 696.675 948.839 693.533C948.764 690.391 947.621 687.369 945.597 684.964C944.418 683.567 942.973 682.417 941.346 681.582C939.719 680.747 937.943 680.244 936.12 680.101L934.959 680.046Z" fill="#C6D7FF"/>
<path d="M1192.59 875.085C1192.4 877.45 1191.51 879.705 1190.03 881.563C1188.55 883.421 1186.56 884.801 1184.3 885.526C1182.04 886.252 1179.62 886.291 1177.33 885.639C1175.05 884.987 1173.02 883.673 1171.48 881.864C1169.95 880.054 1168.98 877.83 1168.71 875.472C1168.44 873.115 1168.87 870.73 1169.96 868.619C1171.04 866.508 1172.73 864.766 1174.8 863.612C1176.87 862.459 1179.24 861.947 1181.61 862.141C1184.78 862.403 1187.72 863.914 1189.78 866.341C1191.84 868.768 1192.85 871.913 1192.59 875.085Z" fill="#C6D7FF"/>
<path opacity="0.7" d="M901.199 1000H899.624C897.112 999.831 894.658 999.162 892.406 998.036C890.153 996.909 888.146 995.347 886.5 993.44C884.881 991.541 883.656 989.338 882.896 986.961C882.135 984.584 881.855 982.079 882.071 979.592C882.376 975.916 883.746 972.408 886.012 969.497C888.278 966.585 891.342 964.397 894.831 963.198C898.32 962 902.082 961.843 905.658 962.747C909.234 963.651 912.47 965.577 914.97 968.29C917.471 971.002 919.127 974.384 919.738 978.022C920.349 981.661 919.887 985.399 918.409 988.779C916.931 992.159 914.502 995.036 911.416 997.059C908.331 999.081 904.724 1000.16 901.035 1000.17L901.199 1000ZM901.199 964.432C897.468 964.45 893.854 965.741 890.954 968.09C888.055 970.439 886.042 973.707 885.25 977.354C884.457 981.001 884.931 984.809 886.594 988.15C888.257 991.492 891.009 994.166 894.396 995.732C897.783 997.298 901.603 997.663 905.225 996.765C908.847 995.868 912.055 993.762 914.32 990.796C916.585 987.83 917.77 984.18 917.681 980.449C917.593 976.718 916.234 973.128 913.831 970.273C912.431 968.613 910.715 967.248 908.783 966.257C906.851 965.265 904.742 964.667 902.577 964.497L901.199 964.432Z" fill="#9EBBFF"/>
<path d="M1045.71 1119.77C1045.5 1122.33 1044.53 1124.77 1042.94 1126.78C1041.34 1128.8 1039.18 1130.29 1036.73 1131.08C1034.28 1131.86 1031.66 1131.9 1029.18 1131.2C1026.71 1130.49 1024.5 1129.07 1022.84 1127.11C1021.18 1125.15 1020.13 1122.74 1019.84 1120.18C1019.55 1117.63 1020.02 1115.05 1021.19 1112.76C1022.36 1110.47 1024.19 1108.59 1026.44 1107.34C1028.68 1106.09 1031.25 1105.53 1033.81 1105.74C1037.25 1106.03 1040.43 1107.66 1042.66 1110.29C1044.89 1112.92 1045.99 1116.33 1045.71 1119.77Z" fill="#C6D7FF"/>
<path opacity="0.7" d="M1159.13 1104.2H1157.8C1155.69 1104.06 1153.62 1103.5 1151.73 1102.55C1149.83 1101.6 1148.14 1100.28 1146.75 1098.68C1145.39 1097.08 1144.36 1095.22 1143.72 1093.22C1143.08 1091.22 1142.84 1089.11 1143.02 1087.02C1143.28 1083.92 1144.43 1080.97 1146.34 1078.51C1148.25 1076.06 1150.83 1074.22 1153.77 1073.21C1156.71 1072.2 1159.87 1072.07 1162.89 1072.83C1165.9 1073.59 1168.62 1075.21 1170.73 1077.5C1172.83 1079.78 1174.23 1082.63 1174.74 1085.69C1175.26 1088.76 1174.87 1091.91 1173.62 1094.75C1172.38 1097.6 1170.33 1100.02 1167.73 1101.72C1165.14 1103.43 1162.1 1104.34 1158.99 1104.34L1159.13 1104.2ZM1159.13 1074.25C1155.99 1074.26 1152.94 1075.35 1150.5 1077.33C1148.06 1079.31 1146.37 1082.06 1145.7 1085.13C1145.03 1088.2 1145.43 1091.41 1146.83 1094.22C1148.23 1097.04 1150.55 1099.29 1153.4 1100.61C1156.25 1101.93 1159.47 1102.23 1162.52 1101.48C1165.57 1100.72 1168.27 1098.95 1170.18 1096.45C1172.09 1093.95 1173.08 1090.88 1173.01 1087.74C1172.94 1084.6 1171.79 1081.57 1169.77 1079.17C1168.59 1077.77 1167.14 1076.62 1165.52 1075.79C1163.89 1074.95 1162.11 1074.45 1160.29 1074.3L1159.13 1074.25Z" fill="#9EBBFF"/>
</svg>
