<svg width="320" height="952" viewBox="0 0 320 952" fill="none" xmlns="http://www.w3.org/2000/svg">
<g clip-path="url(#clip0_149_632)">
<path fill-rule="evenodd" clip-rule="evenodd" d="M-747 294L-633.458 307.708C-519.917 321.417 -292.833 348.833 -65.75 444.792C161.333 540.75 388.417 705.25 615.5 787.5C842.583 869.75 1069.67 869.75 1296.75 883.458C1523.83 897.167 1750.92 924.583 1864.46 938.292L1978 952H1864.46C1750.92 952 1523.83 952 1296.75 952C1069.67 952 842.583 952 615.5 952C388.417 952 161.333 952 -65.75 952C-292.833 952 -519.917 952 -633.458 952H-747V294Z" fill="#9EBBFF"/>
<path opacity="0.8" fill-rule="evenodd" clip-rule="evenodd" d="M2389 -182H2298.14C2207.28 -182 2025.56 -182 1843.83 -124.25C1662.11 -69.125 1480.39 43.75 1298.67 43.75C1116.94 43.75 935.222 -69.125 753.5 25.375C571.778 119.875 390.056 421.75 208.333 574C26.6111 726.25 -155.111 726.25 -336.833 686.875C-518.556 650.125 -700.278 574 -791.139 537.25L-882 497.875V952H-791.139C-700.278 952 -518.556 952 -336.833 952C-155.111 952 26.6111 952 208.333 952C390.056 952 571.778 952 753.5 952C935.222 952 1116.94 952 1298.67 952C1480.39 952 1662.11 952 1843.83 952C2025.56 952 2207.28 952 2298.14 952H2389V-182Z" fill="#ECF2FF"/>
</g>
<defs>
<clipPath id="clip0_149_632">
<rect width="320" height="952" fill="white"/>
</clipPath>
</defs>
</svg>
