<svg aria-hidden="true" style="position:absolute;width:0;height:0;overflow:hidden" xmlns="http://www.w3.org/2000/svg">
  <defs>
    <symbol id="calendar" viewBox="0 0 32 32">
      <path fill="none" stroke="#407bff" style="stroke:var(--color1, #407bff)" stroke-linejoin="round"
            stroke-linecap="round" stroke-width="1.6"
            d="M9 4v3m14-3v3M4 25V10a3.004 3.004 0 0 1 3-3h18a3.004 3.004 0 0 1 3 3v15M4 25a3.004 3.004 0 0 0 3 3h18a3.004 3.004 0 0 0 3-3M4 25V15a3.004 3.004 0 0 1 3-3h18a3.004 3.004 0 0 1 3 3v10m-12-8h.011v.011H16V17zm0 3h.011v.011H16V20zm0 3h.011v.011H16V23zm-3-3h.011v.011H13V20zm0 3h.011v.011H13V23zm-3-3h.011v.011H10V20zm0 3h.011v.011H10V23zm9-6h.011v.011H19V17zm0 3h.011v.011H19V20zm0 3h.011v.011H19V23zm3-6h.011v.011H22V17zm0 3h.011v.011H22V20z" />
    </symbol>
    <symbol id="presentation-chart-bar" viewBox="0 0 32 32">
      <path fill="none" stroke="#407bff" style="stroke:var(--color1, #407bff)" stroke-linejoin="round"
            stroke-linecap="round" stroke-width="1.6"
            d="M5 4v15a3.004 3.004 0 0 0 3 3h3M5 4H3m2 0h22M11 22h10m-10 0-1.333 4M27 4h2m-2 0v15a3.004 3.004 0 0 1-3 3h-3m0 0 1.333 4M9.667 26h12.667M9.667 26 9 28m13.333-2L23 28M12 15v2m4-5v5m4-8v8" />
    </symbol>
    <symbol id="wrench-schewdriver" viewBox="0 0 32 32">
      <path fill="none" stroke="#407bff" style="stroke:var(--color1, #407bff)" stroke-linejoin="round"
            stroke-linecap="round" stroke-width="1.6"
            d="M15.227 20.227 23 28a3.535 3.535 0 0 0 5.996-2.513 3.535 3.535 0 0 0-.995-2.488l-7.836-7.836m-4.938 5.064 3.328-4.04c.423-.512.987-.835 1.611-1.021.733-.219 1.551-.251 2.324-.187a6.006 6.006 0 0 0 6.486-5.404 6.013 6.013 0 0 0-.504-3.045l-4.368 4.369a4.01 4.01 0 0 1-3-3l4.368-4.368a6.008 6.008 0 0 0-7.912 2.943 6.01 6.01 0 0 0-.536 3.039c.121 1.435-.095 3.019-1.205 3.933l-.136.113m-.456 6.668L9.02 27.764a3.403 3.403 0 0 1-2.46 1.239A3.4 3.4 0 0 1 3 25.442a3.39 3.39 0 0 1 1.239-2.46l9.116-7.507-5.476-5.476H6l-3-5 2-2 5 3v1.879l5.68 5.68-2.327 1.916M24.5 24.5 21 21M6.489 25.5H6.5v.011h-.011V25.5z" />
    </symbol>
    <symbol id="icon-visible" viewBox="0 0 32 32">
      <path d="M16 26.667c-6.267 0-11.867-4-13.867-10 0 0 0 0 0 0-0.133-0.4-0.133-0.8 0-1.333 2-6 7.6-10 13.867-10s11.867 4 13.867 10c0.133 0.4 0.133 0.8 0 1.333-2 6-7.6 10-13.867 10zM3.333 16.267c1.867 5.467 6.933 9.067 12.667 9.067s10.8-3.6 12.667-9.067c0-0.133 0-0.267 0-0.4-1.867-5.6-6.933-9.2-12.667-9.2s-10.8 3.6-12.667 9.067c0 0.133 0 0.4 0 0.533v0z"/>
      <path d="M16 20.667c-1.2 0-2.4-0.533-3.333-1.333-0.933-0.933-1.333-2-1.333-3.333s0.533-2.4 1.333-3.333c1.733-1.733 4.8-1.733 6.533 0 0.933 0.933 1.333 2.133 1.333 3.333s-0.533 2.4-1.333 3.333-2 1.333-3.2 1.333zM16 12.667c-0.933 0-1.733 0.4-2.4 0.933s-0.933 1.467-0.933 2.4 0.4 1.733 0.933 2.4c1.2 1.2 3.467 1.2 4.667 0 0.667-0.667 0.933-1.467 0.933-2.4s-0.4-1.733-0.933-2.4c-0.533-0.533-1.333-0.933-2.267-0.933z"/>
    </symbol>
    <symbol id="icon-hidden" viewBox="0 0 32 32">
      <path d="M28 28.667c-0.133 0-0.4 0-0.533-0.133l-4.267-4.267c0 0 0 0 0 0l-4.8-4.8c0 0 0 0 0 0l-5.6-5.6c0 0 0 0 0 0s0 0 0 0l-4.933-5.067c0 0 0 0 0 0l-4.4-4.267c-0.267-0.267-0.267-0.667 0-0.933s0.667-0.267 0.933 0l3.867 3.867c2.4-1.467 5.067-2.133 7.733-2.133 0 0 0 0 0 0 6.4 0 12.267 4.267 14 10.533 0 0.133 0 0.267 0 0.4-0.933 3.067-2.8 5.733-5.333 7.6l3.733 3.733c0.267 0.267 0.267 0.667 0 0.933 0 0.133-0.267 0.133-0.4 0.133zM19.733 18.8l4 4c2.4-1.733 4.133-4.133 4.933-6.8-1.733-5.467-6.933-9.333-12.667-9.333-2.267 0-4.667 0.667-6.667 1.733l3.867 3.867c0.267-0.267 0.667-0.4 1.067-0.533 1.2-0.533 2.4-0.533 3.6 0 0.533 0.267 1.067 0.533 1.467 1.067 0.4 0.4 0.8 0.933 1.067 1.467s0.4 1.2 0.4 1.733-0.133 1.2-0.4 1.733c-0.267 0.4-0.4 0.8-0.667 1.067zM14.133 13.2l4.667 4.667c0.133-0.133 0.267-0.4 0.267-0.533 0.133-0.4 0.267-0.8 0.267-1.333s-0.133-0.933-0.267-1.333c-0.133-0.4-0.4-0.8-0.667-1.067-0.4-0.267-0.667-0.533-1.067-0.667-0.8-0.4-1.733-0.4-2.533 0-0.267 0.133-0.4 0.133-0.667 0.267zM16 26.667c-6.4 0-12.267-4.267-14-10.533 0-0.133 0-0.267 0-0.4 0.533-2 1.6-3.733 2.8-5.333 0.267-0.267 0.667-0.267 0.933-0.133 0.267 0.4 0.267 0.8 0.133 1.067-1.2 1.333-2 2.933-2.533 4.667 1.733 5.467 6.933 9.333 12.667 9.333 1.2 0 2.4-0.133 3.6-0.533 0.4-0.133 0.667 0.133 0.8 0.4 0.133 0.4-0.133 0.667-0.4 0.8-1.333 0.533-2.667 0.667-4 0.667z"/>
    </symbol>
    <symbol id="icon-upload" viewBox="0 0 32 32">
      <path d="M25.067 28.667h-18.133c-0.933 0-1.867-0.4-2.533-1.067s-1.067-1.6-1.067-2.533v-2.933c0-0.533 0.267-0.8 0.667-0.8s0.667 0.267 0.667 0.667v2.933c0 0.667 0.267 1.2 0.667 1.6s1.067 0.667 1.6 0.667h18c0.667 0 1.2-0.267 1.6-0.667s0.667-1.067 0.667-1.6v-2.933c0-0.4 0.267-0.667 0.667-0.667s0.667 0.267 0.667 0.667v2.933c0 0.933-0.4 1.867-1.067 2.533s-1.467 1.2-2.4 1.2zM16 22.667c-0.4 0-0.667-0.267-0.667-0.667v-16.4l-4.8 4.933c-0.267 0.133-0.8 0.133-1.067 0s-0.133-0.8 0-1.067l6-6c0 0 0 0 0 0v0c0 0 0 0 0 0v0c0 0 0.133-0.133 0.267-0.133s0.133 0 0.267 0v0c0 0 0 0 0 0s0 0 0 0v0c0 0 0 0 0 0v0c0 0 0 0 0 0s0 0 0 0v0c0.133 0 0.133 0 0.267 0s0.133 0.133 0.267 0.133v0c0 0 0 0 0 0v0c0 0 0 0 0 0l6 6c0.267 0.267 0.267 0.667 0 0.933s-0.667 0.267-0.933 0l-4.8-4.8v16.4c-0.133 0.4-0.4 0.667-0.8 0.667z"/>
    </symbol>
    <symbol id="icon-user" viewBox="0 0 32 32">
      <path d="M16 32c-8.8 0-16-7.2-16-16s7.2-16 16-16 16 7.2 16 16-7.2 16-16 16zM16 1.143c-8.229 0-14.857 6.629-14.857 14.857s6.629 14.857 14.857 14.857c8.229 0 14.857-6.629 14.857-14.857s-6.629-14.857-14.857-14.857z"/>
      <path d="M16 27.2c0 0 0 0 0 0-2.857 0-5.714-0.571-8.229-1.829-0.229-0.114-0.343-0.343-0.343-0.571 0-2.286 0.914-4.457 2.514-6.057s3.771-2.514 6.057-2.514c2.286 0 4.457 0.914 6.057 2.514s2.514 3.771 2.514 6.057c0 0.229-0.114 0.457-0.343 0.571-2.514 1.257-5.371 1.829-8.229 1.829zM8.571 24.571c2.4 1.029 4.8 1.6 7.429 1.6 2.514 0 5.029-0.571 7.429-1.6-0.114-1.829-0.914-3.657-2.171-4.914-1.371-1.371-3.2-2.171-5.257-2.171-1.943 0-3.771 0.8-5.257 2.171-1.257 1.257-2.057 2.971-2.171 4.914zM16 14.057c-1.257 0-2.4-0.457-3.2-1.371-0.914-0.8-1.371-2.057-1.371-3.2s0.457-2.4 1.371-3.314c0.8-0.914 2.057-1.371 3.2-1.371 1.257 0 2.4 0.457 3.2 1.371 0.914 0.8 1.371 2.057 1.371 3.314s-0.457 2.4-1.371 3.314c-0.8 0.8-1.943 1.257-3.2 1.257zM16 5.943c-0.914 0-1.829 0.343-2.4 1.029-0.686 0.571-1.029 1.486-1.029 2.514 0 0.914 0.343 1.829 1.029 2.514 1.257 1.371 3.543 1.371 4.8 0 0.686-0.686 1.029-1.6 1.029-2.514s-0.343-1.829-1.029-2.514c-0.571-0.686-1.486-1.029-2.4-1.029z"/>
    </symbol>
    <symbol id="icon-arrow_down" viewBox="0 0 32 32">
      <path d="M16.707 21.707c-0.188 0.187-0.442 0.293-0.707 0.293s-0.519-0.105-0.707-0.293l-10-10c-0.177-0.19-0.273-0.44-0.268-0.699s0.11-0.506 0.293-0.689c0.183-0.183 0.43-0.288 0.689-0.293s0.51 0.092 0.699 0.268l9.293 9.293 9.293-9.293c0.092-0.098 0.202-0.177 0.325-0.232s0.255-0.084 0.389-0.086c0.134-0.002 0.268 0.022 0.392 0.073s0.238 0.125 0.333 0.22 0.17 0.208 0.22 0.333c0.050 0.125 0.075 0.258 0.073 0.392s-0.032 0.267-0.086 0.389c-0.055 0.123-0.134 0.233-0.232 0.325l-10 10z"/>
    </symbol>
    <symbol id="icon-cog" viewBox="0 0 32 32">
      <path d="M17.8 29h-3.6c-1.2 0-2.2-0.8-2.4-2l-0.2-1.8c0-0.2-0.2-0.4-0.4-0.4l-0.4-0.2c-0.2-0.2-0.4-0.2-0.6 0l-1.6 0.6c-0.6 0.2-1.2 0.2-1.8 0-0.4-0.2-0.8-0.6-1.2-1.2l-1.8-3c-0.2-0.6-0.4-1.2-0.2-1.6 0-0.6 0.4-1.2 0.8-1.6l1.4-1.2c0.2 0 0.2-0.2 0.2-0.4v-0.4c0-0.2 0-0.4-0.2-0.6l-1.4-1c-0.4-0.4-0.8-1-0.8-1.6-0.2-0.6 0-1.2 0.2-1.6l1.8-3c0.4-0.6 0.8-1 1.4-1.2s1.2-0.2 1.8 0l1.6 0.6c0.2 0 0.4 0 0.6 0l0.4-0.2c0.2-0.2 0.4-0.2 0.4-0.4l0.2-1.8c0.2-1.2 1.2-2 2.4-2h3.4c1.2 0 2.2 0.8 2.4 2l0.2 1.8c0 0.2 0.2 0.4 0.4 0.4l0.4 0.2c0.2 0.2 0.4 0.2 0.6 0l1.6-0.6c0.6-0.2 1.2-0.2 1.8 0 0.4 0.2 0.8 0.6 1.2 1.2l1.8 3c0.2 0.6 0.4 1.2 0.2 1.6-0.2 0.6-0.4 1.2-0.8 1.4l-1.4 1.2c-0.2 0.2-0.2 0.4-0.2 0.6v0.4c0 0.2 0 0.4 0.2 0.6l1.4 1.2c1 0.8 1.2 2.2 0.6 3.2l-1.8 2.8c-0.2 0.6-0.8 1-1.4 1.2s-1.2 0.2-1.8 0l-1.6-0.6c-0.2 0-0.4 0-0.6 0l-0.4 0.2c-0.2 0.2-0.4 0.2-0.4 0.4l-0.2 1.8c0 1.2-1 2-2.2 2zM10.4 22.4c0.4 0 1 0.2 1.4 0.4l0.2 0.2c0.8 0.4 1.2 1 1.4 1.8l0.2 1.8c0 0.2 0.2 0.4 0.4 0.4h3.4c0.2 0 0.4-0.2 0.4-0.4l0.2-1.8c0.2-0.8 0.6-1.4 1.4-1.8l0.2-0.2c0.8-0.4 1.6-0.6 2.4-0.2l1.6 0.6c0.2 0 0.2 0 0.4 0s0.2-0.2 0.2-0.2l1.8-3c0.2-0.2 0-0.4-0.2-0.6l-1.4-1.2c0-0.4-0.4-1.2-0.4-2v-0.4c0-0.8 0.4-1.6 1-2.2l1.4-1.2c0 0 0.2-0.2 0.2-0.2 0-0.2 0-0.2 0-0.4l-1.8-3c0-0.2-0.2-0.2-0.2-0.2s-0.2 0-0.4 0l-1.6 0.6c-0.8 0.2-1.6 0.2-2.4-0.2h-0.4c-0.6-0.4-1.2-1-1.2-1.8l-0.4-1.8c0-0.2-0.2-0.4-0.4-0.4h-3.6c-0.2 0-0.4 0.2-0.4 0.4 0 0 0 0 0 0l-0.4 1.8c0 0.8-0.6 1.4-1.2 1.8l-0.4 0.2c-0.6 0.4-1.4 0.4-2.2 0.2l-1.6-0.6c-0.2 0-0.2 0-0.4 0s-0.2 0.2-0.2 0.2l-1.8 3c0 0.2 0 0.2 0 0.4s0 0.2 0.2 0.2l1.4 1.2c0.4 0.4 0.8 1.2 0.8 2v0.4c0 0.8-0.4 1.6-1 2.2l-1.2 1c0 0-0.2 0.2-0.2 0.2 0 0.2 0 0.2 0 0.4l1.8 3c0 0.2 0.2 0.2 0.2 0.2 0.2 0 0.2 0 0.4 0l1.6-0.6c0.2 0 0.6-0.2 0.8-0.2zM12.8 5.2v0 0z"/>
      <path d="M16 21c-1.4 0-2.6-0.6-3.6-1.4s-1.4-2.2-1.4-3.6 0.6-2.6 1.4-3.6c1.8-1.8 5.2-1.8 7 0 1 1 1.4 2.2 1.4 3.6s-0.6 2.6-1.4 3.6-2 1.4-3.4 1.4zM16 13c-0.8 0-1.6 0.4-2.2 0.8s-0.8 1.4-0.8 2.2 0.4 1.6 0.8 2.2c1.2 1.2 3.2 1.2 4.2 0 0.6-0.6 1-1.4 1-2.2s-0.4-1.6-0.8-2.2-1.4-0.8-2.2-0.8z"/>
    </symbol>
    <symbol id="icon-exit" viewBox="0 0 32 32">
      <path d="M18 29h-8c-1 0-2-0.4-2.8-1.2s-1.2-1.8-1.2-2.8v-18c0-1 0.4-2 1.2-2.8s1.8-1.2 2.8-1.2h8c1 0 2 0.4 2.8 1.2s1.2 1.8 1.2 2.8v5c0 0.6-0.4 1-1 1s-1-0.4-1-1v-5c0-0.6-0.2-1-0.6-1.4s-0.8-0.6-1.4-0.6h-8c-0.6 0-1 0.2-1.4 0.6s-0.6 0.8-0.6 1.4v18c0 0.6 0.2 1 0.6 1.4s0.8 0.6 1.4 0.6h8c0.6 0 1-0.2 1.4-0.6s0.6-0.8 0.6-1.4v-5c0-0.6 0.4-1 1-1s1 0.4 1 1v5c0 1-0.4 2-1.2 2.8s-1.8 1.2-2.8 1.2zM25 21c-0.2 0-0.6 0-0.8-0.2-0.4-0.4-0.4-1 0-1.4l2.2-2.2h-14.4c-0.6-0.2-1-0.6-1-1.2s0.4-1 1-1h14.6l-2.2-2.2c-0.4-0.4-0.4-1 0-1.4s1-0.4 1.4 0l4 4c0 0 0 0 0 0v0c0 0 0 0 0 0v0 0c0 0 0.2 0.2 0.2 0.4s0 0.2 0 0.4v0c0 0 0 0 0 0s0 0 0 0v0c0 0 0 0 0 0s0 0 0 0v0c0 0 0 0 0 0s0 0 0 0v0c0 0.2 0 0.2 0 0.4s-0.2 0.2-0.2 0.4v0 0c0 0 0 0 0 0v0c0 0 0 0 0 0l-4 4c-0.2 0-0.6 0-0.8 0z"/>
    </symbol>
    <symbol id="icon-logo" viewBox="0 0 68 32">
      <path fill="#9ebbff" style="fill: var(--color1, #9ebbff)" d="M10.546 4.879c0.449-0.353 1.016 0.412 1.076 1.118s-0.568 2.295-2.331 2.707c-1.763 0.412-1.972 1.501-1.913 2.148s-0.239 1.354-0.867 1.207-0.687-1.118-0.12-2.031c0.568-0.913 2.002-1.736 2.241-2.237s0.060-1.089 0.538-1.295c0.478-0.206 1.106 0.324 1.046 0.824 0 0 0.478-0.471 0.418-1.177-0.039-0.464-0.315-1.088-0.090-1.265z"/>
      <path fill="#9ebbff" style="fill: var(--color1, #9ebbff)" d="M22.141 9.176c0.166-0.472 1.345-0.206 1.614 0.441s0.179 1.148 0.448 1.589-0.478 1.177-1.031 1.089c-0.553-0.088-0.344-1.089-0.344-1.53s-0.956-0.824-0.687-1.589z"/>
      <path fill="#9ebbff" style="fill: var(--color1, #9ebbff)" d="M18.406 3.618c0.409-0.36 1.285 0.26 1.524 0.76s0.030 1.824-0.702 1.795c-0.732-0.029-0.441-1.065-0.702-1.28-0.463-0.382-0.448-0.986-0.119-1.275z"/>
      <path fill="#9ebbff" style="fill: var(--color1, #9ebbff)" d="M13.361 0.553c0.29 0.449 0.074 1.059-0.663 1.197s-0.877-0.471-1.275-0.334c-0.399 0.138-0.837 0.235-1.016-0.079s0.020-0.785 0.817-0.785 1.605-0.824 2.137 0z"/>
      <path fill="#9ebbff" style="fill: var(--color1, #9ebbff)" d="M8.724 4.843c0.347 0 0.627-0.298 0.627-0.666s-0.281-0.666-0.627-0.666c-0.347 0-0.628 0.298-0.628 0.666s0.281 0.666 0.628 0.666z"/>
      <path fill="#9ebbff" style="fill: var(--color1, #9ebbff)" d="M6.002 7.047c-0.223-0.111-0.954 1.039-0.456 1.177s0.812-1.001 0.456-1.177z"/>
      <path fill="#9ebbff" style="fill: var(--color1, #9ebbff)" d="M4.052 10.46c0 0 0.976 0.53 0.618 1.618s-1.135 0.952-1.375 0.618c-0.239-0.334-0.239-0.785 0.159-1.099s0.598-1.137 0.598-1.137z"/>
      <path fill="#9ebbff" style="fill: var(--color1, #9ebbff)" d="M24.771 16.326c0 0 0.299 0.442 0.15 1.236s-0.388 2.354 0.448 2.796c0.836 0.442 1.165-1.118 0.837-1.589s0.179-2.090-1.435-2.443z"/>
      <path fill="#9ebbff" style="fill: var(--color1, #9ebbff)" d="M25.832 23.418c0.355 0 0.643-0.343 0.643-0.765s-0.288-0.765-0.643-0.765-0.643 0.343-0.643 0.765c0 0.423 0.288 0.765 0.643 0.765z"/>
      <path fill="#9ebbff" style="fill: var(--color1, #9ebbff)" d="M0.625 23.712c0.554-0.283 1.016 0.177 1.076 1.030s0.867 1.589 0.448 2.030c-0.418 0.441-0.905-1.383-1.285-1.552-0.583-0.26-1.046-1.096-0.239-1.508z"/>
      <path fill="#9ebbff" style="fill: var(--color1, #9ebbff)" d="M24.157 24.565c-0.522 0.53 0.173 1.078-1.059 2.472-0.513 0.58 0.379 2.315-2.092 2.295 0 0-1.435 1.294-2.869 1.472s-2.032-0.059-3.407 0.706c-1.375 0.765-4.423-0.53-5.678-1.089s-1.733-0.618-2.808-0.618c-1.076 0-0.657-1.648-1.435-2.354s-1.674-1-1.734-1.647c-0.060-0.647-0.657-0.942-0.597-1.943s-0.956-1.295-1.076-2.531 0.537-1.471 0.298-2.177c-0.239-0.706-0.298-1.295 0.060-2.001 0.043-0.086 0.092-0.168 0.148-0.245 0.307-0.431 0.602-0.398 0.808-1.108 0.239-0.824-0.418-1.177 0.299-1.53s0.956 0.706 0.538 1.765c-0.419 1.060-0.957 2.060-0.239 2.236s0.538-2.001 1.495-3.002c0.956-1.001 0.538-1.235 1.793-2.236s1.375-0.588 1.793-1.648c0.418-1.060 1.599-2.177 2.803-2.707s1.741-0.765 1.561-1.648c-0.18-0.883 0.823-0.883 0.86-1.825s-0.801-1.589-1.518-1.354-1.435 0.235-1.195-0.529c0.239-0.765 1.744-0.706 2.456-0.354s1.31-0.529 2.266 0.354c0.956 0.883 2.211 1.177 2.032 3.238s-0.358 2.766 0.418 2.884c0.777 0.118 0.12-0.942 0.12-1.765s1.375-0.765 1.733-0.118c0.358 0.647-0.119 1.765 0.239 2.178s1.016 0.353 1.195 0.941c0.179 0.588-0.119 3.002 0.717 3.532s0.657-1.294 1.375-0.735c0.717 0.559 0.896 1.559 0.478 2.56-0.279 0.669-0.308 2.339-0.146 3.776 0.079 0.711 0.204 1.366 0.368 1.815 0.494 1.353 0.52 2.412-0.001 2.942z"/>
      <path fill="#c6d7ff" style="fill: var(--color2, #c6d7ff)" d="M14.249 9.565c1.569-0.488 2.887 2.212 2.34 3.372s-0.78 4.739 1.248 4.294c2.028-0.445 0.546-3.887 1.638-3.818s0.624 3.219 1.326 4.217c0.702 0.999 3.125 7.836-0.778 10.217s-9.425 2.305-11.54 0.538c-0.851-0.711-1.467-1.454-1.92-2.176-0.216-0.343-0.345-0.614-0.434-0.852-0.19-0.512-0.157-0.692-0.349-1.206-0.126-0.331-0.287-0.647-0.482-0.944-0.422-0.638-0.613-0.564-1.007-1.119-0.132-0.186-0.55-0.812-0.588-1.657-0.010-0.221-0.038-0.839 0.229-0.949 0.302-0.125 0.693 0.52 1.094 0.386 0.21-0.070 0.302-0.314 0.359-0.466 0.17-0.451 0-0.73-0.082-1.399-0.063-0.517-0.138-1.139 0.17-1.664 0.050-0.086 0.196-0.367 0.679-0.629 1.698-0.922 3.222-0.077 4.332-1.767s1.132-1.801 2.174-2.245c1.042-0.444 0.106-1.673 1.588-2.134z"/>
      <path fill="#407bff" style="fill: var(--color3, #407bff)" d="M13.626 32c-1.108 0-2.655-0.447-4.679-1.349-1.233-0.55-1.671-0.596-2.704-0.596-0.817 0-0.991-0.734-1.131-1.323-0.099-0.416-0.201-0.847-0.477-1.098-0.257-0.234-0.526-0.418-0.786-0.597-0.525-0.362-0.979-0.674-1.029-1.213-0.020-0.214-0.118-0.39-0.233-0.595-0.18-0.323-0.405-0.724-0.365-1.385 0.024-0.411-0.173-0.678-0.423-1.016-0.274-0.37-0.586-0.791-0.652-1.476-0.068-0.703 0.095-1.111 0.225-1.44 0.107-0.268 0.171-0.43 0.086-0.682-0.216-0.638-0.357-1.346 0.074-2.193 0.181-0.357 0.372-0.524 0.526-0.659 0.175-0.153 0.301-0.263 0.413-0.651 0.083-0.286 0.036-0.498-0.009-0.703-0.068-0.308-0.153-0.691 0.44-0.983 0.298-0.147 0.59-0.123 0.801 0.066 0.379 0.34 0.417 1.188 0.091 2.016-0.057 0.145-0.117 0.289-0.175 0.43-0.227 0.55-0.484 1.171-0.372 1.388 0.009 0.017 0.029 0.057 0.132 0.082 0.006 0.002 0.013 0.003 0.019 0.002 0.115-0.040 0.255-0.59 0.338-0.918 0.167-0.657 0.374-1.476 0.889-2.014 0.39-0.409 0.536-0.678 0.677-0.939 0.2-0.37 0.389-0.721 1.142-1.321 0.479-0.382 0.798-0.565 1.031-0.698 0.357-0.205 0.453-0.26 0.685-0.845 0.437-1.107 1.644-2.277 2.936-2.846l0.006-0.002c1.252-0.552 1.543-0.707 1.409-1.366-0.12-0.591 0.194-0.898 0.447-1.145 0.212-0.207 0.395-0.385 0.408-0.738 0.015-0.386-0.15-0.746-0.442-0.961-0.23-0.17-0.499-0.222-0.738-0.143-0.459 0.151-1.075 0.265-1.398-0.046-0.13-0.125-0.257-0.365-0.122-0.797 0.087-0.277 0.3-0.493 0.616-0.626 0.654-0.275 1.65-0.15 2.199 0.122 0.197 0.098 0.383 0.063 0.67-0.001 0.44-0.098 0.988-0.221 1.655 0.395 0.203 0.187 0.426 0.351 0.642 0.51 0.797 0.585 1.621 1.191 1.47 2.932-0.022 0.258-0.045 0.494-0.065 0.711-0.155 1.629-0.124 1.843 0.268 1.902 0.028 0.005 0.056 0.007 0.083 0.006 0.017-0.106-0.055-0.391-0.103-0.585-0.073-0.292-0.156-0.623-0.156-0.937 0-0.409 0.255-0.717 0.681-0.824 0.51-0.128 1.242 0.060 1.533 0.585 0.217 0.392 0.181 0.89 0.149 1.329-0.023 0.319-0.049 0.68 0.060 0.805 0.111 0.128 0.278 0.203 0.454 0.283 0.291 0.131 0.653 0.296 0.792 0.75 0.065 0.213 0.075 0.57 0.087 1.020 0.023 0.827 0.058 2.077 0.523 2.371 0.085 0.054 0.133 0.061 0.149 0.056 0.068-0.020 0.166-0.228 0.224-0.353 0.111-0.239 0.238-0.51 0.508-0.574 0.164-0.039 0.337 0.012 0.514 0.15 0.801 0.625 1.019 1.744 0.556 2.854-0.384 0.919-0.251 4.104 0.226 5.41 0.549 1.5 0.529 2.608-0.057 3.203-0.136 0.138-0.151 0.263-0.171 0.531-0.033 0.433-0.078 1.025-0.879 1.931-0.1 0.113-0.124 0.357-0.149 0.615-0.069 0.698-0.172 1.746-2.038 1.767-0.324 0.276-1.611 1.307-2.934 1.47-0.407 0.050-0.75 0.068-1.053 0.084-0.765 0.040-1.318 0.068-2.259 0.592-0.324 0.18-0.733 0.271-1.231 0.271zM3.276 14.449c-0.034 0-0.081 0.010-0.146 0.042-0.237 0.117-0.231 0.146-0.169 0.425 0.050 0.228 0.12 0.541 0.001 0.949-0.153 0.528-0.363 0.712-0.565 0.889-0.14 0.122-0.271 0.238-0.409 0.508-0.329 0.648-0.261 1.172-0.046 1.809 0.144 0.426 0.023 0.731-0.095 1.026-0.116 0.293-0.248 0.625-0.192 1.208 0.053 0.548 0.309 0.894 0.556 1.227 0.273 0.369 0.556 0.751 0.521 1.342-0.031 0.516 0.131 0.806 0.303 1.112 0.13 0.233 0.265 0.473 0.294 0.792 0.028 0.306 0.374 0.544 0.812 0.845 0.261 0.179 0.557 0.383 0.84 0.64 0.391 0.356 0.517 0.886 0.628 1.354 0.158 0.664 0.259 0.934 0.632 0.934 1.072 0 1.601 0.055 2.915 0.64 3.407 1.517 4.842 1.436 5.447 1.099 1.046-0.582 1.681-0.615 2.484-0.657 0.294-0.015 0.628-0.032 1.017-0.080 1.338-0.165 2.714-1.395 2.728-1.407 0.047-0.043 0.109-0.066 0.173-0.066h0.002c1.494 0.012 1.554-0.601 1.624-1.311 0.033-0.341 0.065-0.662 0.273-0.897 0.69-0.78 0.726-1.255 0.755-1.638 0.021-0.28 0.043-0.569 0.314-0.844 0.428-0.435 0.407-1.412-0.057-2.682-0.528-1.444-0.652-4.734-0.218-5.772 0.374-0.896 0.217-1.785-0.4-2.267-0.024-0.020-0.050-0.036-0.079-0.049-0.047 0.045-0.118 0.196-0.161 0.289-0.118 0.254-0.253 0.542-0.545 0.627-0.176 0.051-0.368 0.012-0.57-0.116-0.693-0.438-0.729-1.738-0.758-2.781-0.011-0.381-0.020-0.741-0.066-0.89-0.069-0.226-0.232-0.309-0.515-0.437-0.208-0.094-0.445-0.201-0.629-0.413-0.246-0.282-0.214-0.713-0.181-1.169 0.028-0.388 0.057-0.789-0.088-1.051-0.161-0.291-0.638-0.418-0.957-0.338-0.295 0.074-0.295 0.271-0.295 0.335 0 0.253 0.075 0.553 0.141 0.817 0.11 0.44 0.205 0.821-0.014 1.057-0.12 0.13-0.303 0.177-0.541 0.141-0.918-0.139-0.845-0.91-0.7-2.447 0.020-0.215 0.043-0.451 0.065-0.707 0.127-1.461-0.487-1.913-1.266-2.485-0.228-0.167-0.463-0.34-0.686-0.546-0.469-0.433-0.789-0.362-1.192-0.271-0.301 0.067-0.643 0.143-1.014-0.041-0.439-0.218-1.274-0.316-1.768-0.109-0.176 0.074-0.287 0.179-0.328 0.311-0.044 0.141-0.047 0.251-0.009 0.288 0.068 0.065 0.357 0.1 0.879-0.072 0.401-0.131 0.841-0.052 1.207 0.219 0.426 0.315 0.668 0.832 0.647 1.384s-0.32 0.843-0.559 1.077c-0.251 0.245-0.369 0.377-0.305 0.688 0.218 1.079-0.504 1.398-1.702 1.925l-0.006 0.003c-1.16 0.511-2.282 1.591-2.668 2.569-0.285 0.721-0.472 0.851-0.904 1.098-0.218 0.125-0.518 0.297-0.966 0.654-0.671 0.535-0.829 0.827-1.012 1.166-0.149 0.276-0.319 0.59-0.756 1.048-0.423 0.442-0.612 1.19-0.764 1.791-0.089 0.352-0.166 0.656-0.278 0.882-0.219 0.444-0.533 0.442-0.7 0.4-0.272-0.067-0.403-0.224-0.464-0.343-0.218-0.422 0.048-1.063 0.355-1.806 0.057-0.139 0.116-0.28 0.172-0.423 0.281-0.712 0.203-1.316 0.042-1.461-0.011-0.010-0.024-0.018-0.038-0.024s-0.029-0.008-0.044-0.007z"/>
      <path fill="#407bff" style="fill: var(--color3, #407bff)" d="M6.676 12.268c-0.070-0-0.14-0.009-0.208-0.025-0.256-0.060-0.457-0.234-0.564-0.49-0.202-0.478-0.077-1.177 0.326-1.824 0.328-0.526 0.904-1.004 1.413-1.426 0.374-0.311 0.728-0.603 0.818-0.792 0.078-0.163 0.106-0.347 0.133-0.525 0.050-0.324 0.106-0.692 0.501-0.863 0.27-0.117 0.599-0.065 0.878 0.139 0.141 0.102 0.256 0.235 0.337 0.388 0.086-0.177 0.159-0.414 0.136-0.691-0.012-0.142-0.050-0.308-0.087-0.469-0.090-0.394-0.175-0.767 0.069-0.959 0.178-0.14 0.392-0.168 0.601-0.080 0.392 0.166 0.737 0.75 0.786 1.33 0.065 0.771-0.613 2.471-2.478 2.907-1.657 0.387-1.818 1.386-1.766 1.947 0.047 0.512-0.109 1.002-0.397 1.248-0.137 0.12-0.314 0.185-0.497 0.184zM9.398 6.64c-0.051-0-0.102 0.010-0.149 0.030-0.192 0.083-0.227 0.253-0.276 0.573-0.030 0.195-0.064 0.416-0.166 0.629-0.126 0.264-0.476 0.554-0.918 0.921-0.487 0.404-1.038 0.861-1.333 1.334-0.329 0.529-0.449 1.124-0.298 1.481 0.061 0.145 0.162 0.235 0.299 0.267 0.145 0.034 0.264 0.009 0.365-0.077 0.195-0.166 0.302-0.539 0.266-0.928-0.051-0.55 0.049-1.879 2.059-2.349 1.64-0.383 2.24-1.846 2.184-2.508-0.040-0.476-0.325-0.916-0.555-1.014-0.079-0.034-0.142-0.026-0.209 0.027-0.053 0.062 0.024 0.4 0.066 0.581 0.040 0.174 0.081 0.353 0.095 0.521 0.066 0.785-0.452 1.305-0.474 1.326-0.028 0.028-0.064 0.046-0.104 0.053s-0.080 0.001-0.116-0.016c-0.036-0.017-0.065-0.045-0.085-0.079s-0.027-0.074-0.022-0.113c0.021-0.179-0.092-0.393-0.283-0.532-0.113-0.083-0.235-0.126-0.346-0.126v-0z"/>
      <path fill="#407bff" style="fill: var(--color3, #407bff)" d="M23.269 12.491c-0.043 0-0.086-0.003-0.128-0.010-0.619-0.099-0.56-0.894-0.521-1.42 0.008-0.112 0.016-0.218 0.016-0.297 0-0.101-0.133-0.25-0.261-0.393-0.26-0.29-0.616-0.688-0.416-1.258 0.079-0.224 0.302-0.358 0.612-0.366 0.49-0.012 1.149 0.288 1.36 0.798 0.136 0.327 0.185 0.617 0.229 0.872 0.045 0.263 0.084 0.49 0.206 0.691 0.137 0.225 0.105 0.514-0.087 0.794-0.212 0.309-0.613 0.589-1.012 0.589zM22.605 9.124h-0.022c-0.067 0.002-0.226 0.016-0.26 0.112-0.118 0.336 0.058 0.568 0.341 0.884 0.184 0.205 0.357 0.399 0.357 0.643 0 0.093-0.008 0.205-0.017 0.324-0.029 0.389-0.073 0.976 0.2 1.020 0.235 0.037 0.576-0.15 0.76-0.418 0.050-0.072 0.157-0.254 0.076-0.387-0.16-0.263-0.206-0.535-0.256-0.823-0.042-0.248-0.086-0.504-0.206-0.792-0.139-0.336-0.618-0.563-0.972-0.563z"/>
      <path fill="#407bff" style="fill: var(--color3, #407bff)" d="M19.253 6.363c-0.011 0-0.022 0-0.033-0.001-0.631-0.025-0.701-0.621-0.744-0.976-0.014-0.116-0.036-0.311-0.075-0.348-0.265-0.219-0.421-0.528-0.426-0.847-0.005-0.28 0.106-0.54 0.302-0.713 0.158-0.138 0.37-0.186 0.615-0.136 0.497 0.1 1.028 0.575 1.21 0.957 0.186 0.389 0.15 1.187-0.177 1.673-0.174 0.257-0.406 0.392-0.674 0.392zM18.713 3.7c-0.074 0-0.133 0.020-0.179 0.060-0.114 0.1-0.177 0.255-0.174 0.425 0.003 0.212 0.106 0.412 0.289 0.564 0.153 0.126 0.18 0.353 0.209 0.594 0.051 0.429 0.105 0.632 0.378 0.643 0.145 0.006 0.266-0.067 0.371-0.224 0.243-0.361 0.285-1.018 0.149-1.302-0.14-0.292-0.57-0.674-0.939-0.748-0.034-0.007-0.069-0.011-0.104-0.012z"/>
      <path fill="#407bff" style="fill: var(--color3, #407bff)" d="M12.487 1.959c-0.34 0-0.556-0.147-0.721-0.26-0.156-0.107-0.205-0.13-0.28-0.104-0.288 0.099-0.963 0.332-1.246-0.164-0.057-0.098-0.086-0.208-0.086-0.321s0.031-0.223 0.089-0.32c0.094-0.159 0.347-0.426 0.98-0.426 0.243 0 0.502-0.093 0.754-0.182 0.496-0.177 1.114-0.397 1.545 0.27 0.174 0.27 0.203 0.585 0.079 0.867-0.139 0.315-0.455 0.54-0.869 0.617-0.081 0.016-0.164 0.024-0.247 0.024zM11.538 1.207c0.182 0 0.326 0.099 0.448 0.182 0.178 0.122 0.346 0.237 0.677 0.175 0.291-0.054 0.499-0.195 0.588-0.396 0.073-0.164 0.054-0.352-0.051-0.514-0.253-0.393-0.549-0.31-1.090-0.117-0.283 0.101-0.575 0.205-0.885 0.205-0.322 0-0.559 0.087-0.649 0.239-0.024 0.040-0.037 0.086-0.037 0.132s0.013 0.092 0.037 0.132c0.087 0.152 0.329 0.15 0.785-0.007 0.057-0.020 0.117-0.031 0.177-0.031z"/>
      <path fill="#407bff" style="fill: var(--color3, #407bff)" d="M8.724 5.032c-0.452 0-0.82-0.383-0.82-0.855s0.368-0.855 0.82-0.855c0.452 0 0.819 0.383 0.819 0.855s-0.368 0.855-0.819 0.855zM8.724 3.7c-0.24 0-0.436 0.214-0.436 0.477s0.195 0.477 0.436 0.477c0.24 0 0.436-0.214 0.436-0.477s-0.195-0.477-0.436-0.477z"/>
      <path fill="#407bff" style="fill: var(--color3, #407bff)" d="M5.632 8.425c-0.047-0-0.093-0.007-0.138-0.019-0.16-0.044-0.27-0.163-0.301-0.326-0.071-0.37 0.279-0.947 0.541-1.141 0.158-0.117 0.279-0.098 0.354-0.061 0.307 0.152 0.314 0.62 0.163 1.005-0.136 0.345-0.365 0.542-0.619 0.542zM5.943 7.256c-0.141 0.119-0.387 0.506-0.375 0.73 0.003 0.048 0.012 0.050 0.030 0.055 0.111 0.031 0.231-0.132 0.295-0.296 0.086-0.218 0.079-0.408 0.050-0.489z"/>
      <path fill="#407bff" style="fill: var(--color3, #407bff)" d="M3.796 13.126c-0.261 0-0.515-0.12-0.658-0.32-0.324-0.452-0.243-1.009 0.196-1.355 0.284-0.223 0.479-0.822 0.531-1.034 0.007-0.028 0.020-0.055 0.039-0.077s0.043-0.040 0.070-0.052c0.027-0.012 0.056-0.017 0.086-0.016s0.058 0.009 0.084 0.023c0.386 0.209 1.030 0.864 0.708 1.842-0.253 0.769-0.693 0.944-0.933 0.98-0.041 0.006-0.082 0.009-0.123 0.009zM4.158 10.772c-0.099 0.29-0.291 0.742-0.584 0.973-0.343 0.27-0.28 0.622-0.122 0.842 0.067 0.094 0.225 0.183 0.41 0.155 0.263-0.039 0.484-0.296 0.625-0.722 0.209-0.633-0.102-1.045-0.328-1.248v-0z"/>
      <path fill="#407bff" style="fill: var(--color3, #407bff)" d="M25.652 20.624c-0.121 0-0.247-0.033-0.374-0.1-0.905-0.478-0.745-1.939-0.546-2.997 0.132-0.7-0.118-1.093-0.12-1.097-0.021-0.031-0.032-0.068-0.032-0.106s0.012-0.075 0.034-0.106c0.022-0.031 0.052-0.055 0.088-0.069s0.075-0.017 0.112-0.009c1.27 0.278 1.369 1.283 1.435 1.948 0.024 0.243 0.047 0.472 0.116 0.572 0.283 0.405 0.179 1.306-0.199 1.721-0.146 0.16-0.323 0.241-0.513 0.241zM25.096 16.631c0.058 0.232 0.091 0.558 0.014 0.966-0.274 1.455-0.156 2.328 0.35 2.594 0.17 0.090 0.3 0.072 0.419-0.060 0.274-0.301 0.335-1.015 0.169-1.254-0.126-0.18-0.152-0.444-0.182-0.749-0.055-0.564-0.117-1.192-0.77-1.496z"/>
      <path fill="#407bff" style="fill: var(--color3, #407bff)" d="M25.832 23.607c-0.46 0-0.834-0.428-0.834-0.954s0.374-0.954 0.834-0.954 0.835 0.428 0.835 0.954c0 0.526-0.375 0.954-0.835 0.954zM25.832 22.077c-0.248 0-0.45 0.258-0.45 0.576s0.202 0.576 0.45 0.576c0.249 0 0.451-0.258 0.451-0.576s-0.202-0.576-0.451-0.576z"/>
      <path fill="#407bff" style="fill: var(--color3, #407bff)" d="M2.013 27.030c-0.017 0-0.034-0.001-0.051-0.004-0.303-0.044-0.519-0.471-0.769-0.965-0.117-0.233-0.314-0.622-0.409-0.669-0.443-0.197-0.772-0.639-0.785-1.051-0.009-0.333 0.182-0.616 0.536-0.797 0.264-0.135 0.537-0.139 0.768-0.011 0.333 0.184 0.547 0.62 0.588 1.196 0.023 0.328 0.17 0.641 0.312 0.944 0.203 0.434 0.414 0.882 0.085 1.229-0.096 0.102-0.197 0.129-0.276 0.129zM0.944 23.818c-0.072 0-0.149 0.021-0.23 0.062-0.223 0.114-0.334 0.266-0.329 0.452 0.007 0.265 0.253 0.58 0.559 0.717 0.206 0.092 0.36 0.381 0.595 0.845 0.123 0.243 0.346 0.686 0.468 0.754l0.003-0.003c0.146-0.153 0.036-0.409-0.153-0.812-0.149-0.318-0.319-0.679-0.347-1.076-0.031-0.44-0.178-0.773-0.393-0.892-0.053-0.030-0.113-0.045-0.174-0.045z"/>
      <path fill="#407bff" style="fill: var(--color3, #407bff)" d="M15.181 21.667c0.153 0.752-0.336 1.542-1.045 1.84-0.992 0.445-2.237-0.079-2.537-1.121-0.069-0.238-0.084-0.487-0.036-0.719 0.005-0.025 0.019-0.047 0.039-0.063s0.045-0.025 0.070-0.025 0.051 0.008 0.071 0.024c0.020 0.016 0.034 0.038 0.040 0.062 0.163 0.765 0.808 1.337 1.579 1.329 0.765-0.006 1.392-0.57 1.557-1.326 0.027-0.14 0.235-0.138 0.262 0l0 0z"/>
      <path fill="#fff" style="fill: var(--color4, #fff)" opacity="0.5" d="M6.593 22.817c0.692-0.13 1.115-0.942 0.946-1.814s-0.867-1.472-1.559-1.342c-0.692 0.13-1.115 0.942-0.946 1.814s0.867 1.472 1.559 1.342z"/>
      <path fill="#fff" style="fill: var(--color4, #fff)" opacity="0.5" d="M6.63 18.799c0.715 0.219 1.433-2.086 2.7-2.608s2.102-2.163 2.491-3.225c0.389-1.062 1.984-1.755 1.647-2.497s-1.796-0.145-2.656 0.985-0.476 2.31-1.773 2.809c-1.297 0.499-3.889 4.082-2.409 4.536z"/>
      <path fill="#407bff" style="fill: var(--color3, #407bff)" opacity="0.2" d="M23.504 24.485c-0.49 0.478 0.162 0.974-0.995 2.232-0.482 0.523 0.356 2.091-1.966 2.072 0 0-1.348 1.169-2.696 1.329s-1.91-0.053-3.202 0.638c-1.292 0.691-4.157-0.478-5.337-0.983s-1.629-0.558-2.639-0.558c-1.011 0-0.618-1.488-1.348-2.126s-1.573-0.903-1.629-1.487c-0.056-0.584-0.618-0.85-0.562-1.754s-0.899-1.169-1.011-2.285c-0.112-1.116 0.505-1.328 0.28-1.966s-0.28-1.169 0.056-1.806c0.040-0.077 0.087-0.152 0.139-0.222 0.014 0.362 0.035 0.723 0.16 0.947 0.13 0.232 0.301 0.446 0.381 0.697 0.204 0.645-0.252 1.301-0.318 1.971-0.123 1.24 1.040 2.2 1.836 3.192 0.708 0.883 1.216 1.969 2.216 2.547 1.113 0.644 2.556 0.478 3.775 0.040s2.331-1.123 3.573-1.5c1.437-0.438 2.978-0.445 4.485-0.37 1.086 0.054 2.325 0.096 3.080-0.643 0.434-0.425 0.608-1.027 0.727-1.607 0.228-1.114 0.314-2.252 0.255-3.388 0.132 0.245 0.263 0.491 0.394 0.737 0.074 0.642 0.192 1.234 0.346 1.638 0.465 1.222 0.489 2.178-0 2.657z"/>
      <path fill="#407bff" style="fill: var(--color3, #407bff)" d="M16.942 16.62c0.821-0.082 1.578 0.802 1.692 1.976s-0.459 2.192-1.279 2.274c-0.82 0.082-1.578-0.802-1.692-1.976s0.459-2.191 1.279-2.274z"/>
      <path fill="#fff" style="fill: var(--color4, #fff)" d="M17 17.112c0.261 0.108 0.374 0.507 0.252 0.892s-0.434 0.61-0.695 0.503c-0.261-0.108-0.374-0.507-0.251-0.892s0.434-0.61 0.695-0.503z"/>
      <path fill="#8baeff" style="fill: var(--color5, #8baeff)" d="M17.879 19.634c0.124 0.090 0.139 0.311 0.034 0.492s-0.291 0.255-0.415 0.165c-0.123-0.090-0.139-0.311-0.034-0.492s0.291-0.255 0.415-0.165z"/>
      <path fill="#407bff" style="fill: var(--color3, #407bff)" d="M9.905 16.62c-0.821-0.082-1.578 0.802-1.692 1.976s0.459 2.192 1.279 2.274c0.821 0.082 1.578-0.802 1.692-1.976s-0.459-2.191-1.279-2.274z"/>
      <path fill="#fff" style="fill: var(--color4, #fff)" d="M9.847 17.112c-0.261 0.108-0.374 0.507-0.251 0.892s0.434 0.61 0.695 0.503 0.374-0.507 0.252-0.892c-0.123-0.385-0.434-0.61-0.695-0.503z"/>
      <path fill="#8baeff" style="fill: var(--color5, #8baeff)" d="M8.968 19.634c-0.124 0.090-0.139 0.311-0.034 0.492s0.291 0.255 0.415 0.165 0.139-0.311 0.034-0.492c-0.105-0.181-0.291-0.255-0.415-0.165z"/>
      <path fill="#407bff" style="fill: var(--color3, #407bff)" d="M32.384 8.313v5.687h-1.168v-5.687h1.168zM34.134 8.313v0.918h-4.641v-0.918h4.641zM34.802 8.313h2.121c0.435 0 0.809 0.065 1.121 0.195 0.315 0.13 0.557 0.323 0.727 0.578s0.254 0.569 0.254 0.941c0 0.305-0.052 0.566-0.156 0.785-0.102 0.216-0.246 0.397-0.434 0.543-0.185 0.143-0.402 0.258-0.652 0.344l-0.371 0.195h-1.844l-0.008-0.914h1.371c0.206 0 0.376-0.036 0.512-0.109s0.237-0.174 0.305-0.305c0.070-0.13 0.105-0.281 0.105-0.453 0-0.182-0.034-0.34-0.102-0.473s-0.171-0.234-0.309-0.305c-0.138-0.070-0.311-0.105-0.52-0.105h-0.949v4.77h-1.172v-5.687zM37.982 14l-1.297-2.535 1.238-0.008 1.312 2.488v0.055h-1.254zM42.24 9.285l-1.547 4.715h-1.246l2.113-5.687h0.793l-0.113 0.973zM43.525 14l-1.551-4.715-0.125-0.973h0.801l2.125 5.687h-1.25zM43.454 11.883v0.918h-3.004v-0.918h3.004zM48.529 12.113h1.168c-0.023 0.383-0.129 0.723-0.316 1.020-0.185 0.297-0.444 0.529-0.777 0.695-0.331 0.167-0.729 0.25-1.195 0.25-0.365 0-0.691-0.063-0.98-0.188-0.289-0.128-0.536-0.31-0.742-0.547-0.203-0.237-0.358-0.523-0.465-0.859s-0.16-0.712-0.16-1.129v-0.395c0-0.417 0.055-0.793 0.164-1.129 0.112-0.339 0.271-0.626 0.477-0.863 0.208-0.237 0.457-0.419 0.746-0.547s0.612-0.191 0.969-0.191c0.474 0 0.874 0.086 1.199 0.258 0.328 0.172 0.582 0.409 0.762 0.711 0.182 0.302 0.292 0.646 0.328 1.031h-1.172c-0.013-0.229-0.059-0.423-0.137-0.582-0.078-0.161-0.197-0.283-0.356-0.363-0.156-0.083-0.365-0.125-0.625-0.125-0.195 0-0.366 0.036-0.512 0.109s-0.268 0.184-0.367 0.332c-0.099 0.148-0.173 0.336-0.223 0.563-0.047 0.224-0.070 0.487-0.070 0.789v0.402c0 0.294 0.022 0.553 0.066 0.777 0.044 0.221 0.112 0.409 0.203 0.563 0.094 0.151 0.214 0.266 0.359 0.344 0.148 0.076 0.327 0.113 0.535 0.113 0.245 0 0.447-0.039 0.605-0.117s0.28-0.194 0.363-0.348c0.086-0.154 0.137-0.345 0.152-0.574zM51.638 8.313v5.687h-1.172v-5.687h1.172zM55.044 8.313l-2.254 2.809-1.301 1.398-0.211-1.109 0.879-1.203 1.449-1.894h1.437zM53.712 14l-1.676-2.629 0.867-0.727 2.195 3.355h-1.387zM59.368 13.086v0.914h-3.027v-0.914h3.027zM56.724 8.313v5.687h-1.172v-5.687h1.172zM58.974 10.629v0.891h-2.633v-0.891h2.633zM59.365 8.313v0.918h-3.023v-0.918h3.023zM60.052 8.313h2.121c0.435 0 0.809 0.065 1.121 0.195 0.315 0.13 0.557 0.323 0.727 0.578s0.254 0.569 0.254 0.941c0 0.305-0.052 0.566-0.156 0.785-0.102 0.216-0.246 0.397-0.434 0.543-0.185 0.143-0.402 0.258-0.652 0.344l-0.371 0.195h-1.844l-0.008-0.914h1.371c0.206 0 0.376-0.036 0.512-0.109s0.237-0.174 0.305-0.305c0.070-0.13 0.105-0.281 0.105-0.453 0-0.182-0.034-0.34-0.102-0.473s-0.171-0.234-0.309-0.305c-0.138-0.070-0.311-0.105-0.52-0.105h-0.949v4.77h-1.172v-5.687zM63.232 14l-1.297-2.535 1.238-0.008 1.312 2.488v0.055h-1.254zM34.513 20.357v0.27c0 0.432-0.059 0.82-0.176 1.164s-0.283 0.637-0.496 0.879c-0.214 0.24-0.469 0.423-0.766 0.551-0.294 0.128-0.621 0.191-0.98 0.191-0.357 0-0.684-0.064-0.98-0.191-0.294-0.128-0.549-0.311-0.766-0.551-0.216-0.242-0.384-0.535-0.504-0.879-0.117-0.344-0.176-0.732-0.176-1.164v-0.27c0-0.435 0.059-0.823 0.176-1.164 0.117-0.344 0.283-0.637 0.496-0.879 0.216-0.242 0.471-0.427 0.766-0.555 0.297-0.128 0.624-0.191 0.98-0.191 0.359 0 0.686 0.064 0.98 0.191 0.297 0.128 0.552 0.312 0.766 0.555 0.216 0.242 0.383 0.535 0.5 0.879 0.12 0.341 0.18 0.729 0.18 1.164zM33.329 20.626v-0.277c0-0.302-0.027-0.568-0.082-0.797s-0.135-0.422-0.242-0.578c-0.107-0.156-0.237-0.273-0.391-0.352-0.154-0.081-0.329-0.121-0.527-0.121s-0.374 0.040-0.527 0.121c-0.151 0.078-0.28 0.195-0.387 0.352-0.104 0.156-0.184 0.349-0.238 0.578s-0.082 0.495-0.082 0.797v0.277c0 0.299 0.027 0.565 0.082 0.797 0.055 0.229 0.135 0.423 0.242 0.582 0.107 0.156 0.237 0.275 0.391 0.355s0.329 0.121 0.527 0.121 0.374-0.040 0.527-0.121c0.154-0.081 0.283-0.199 0.387-0.355 0.104-0.159 0.184-0.353 0.238-0.582 0.055-0.232 0.082-0.497 0.082-0.797zM36.529 17.646v5.687h-1.172v-5.687h1.172zM38.794 20.076v0.914h-2.586v-0.914h2.586zM39.068 17.646v0.918h-2.859v-0.918h2.859zM43.111 22.431l1.133-4.785h0.633l0.144 0.797-1.207 4.891h-0.68l-0.023-0.902zM42.529 17.646l0.937 4.785-0.078 0.902h-0.758l-1.262-5.687h1.16zM46.017 22.411l0.926-4.766h1.16l-1.258 5.687h-0.758l-0.070-0.922zM45.232 17.646l1.141 4.805-0.031 0.883h-0.68l-1.215-4.895 0.156-0.793h0.629zM50.88 18.618l-1.547 4.715h-1.246l2.113-5.687h0.793l-0.113 0.973zM52.165 23.333l-1.551-4.715-0.125-0.973h0.801l2.125 5.687h-1.25zM52.095 21.216v0.918h-3.004v-0.918h3.004zM56.001 17.646v5.687h-1.168v-5.687h1.168zM57.751 17.646v0.918h-4.641v-0.918h4.641zM62.236 22.419v0.914h-3.027v-0.914h3.027zM59.591 17.646v5.687h-1.172v-5.687h1.172zM61.841 19.962v0.891h-2.633v-0.891h2.633zM62.232 17.646v0.918h-3.023v-0.918h3.023zM62.919 17.646h2.121c0.435 0 0.809 0.065 1.121 0.195 0.315 0.13 0.557 0.323 0.727 0.578s0.254 0.569 0.254 0.941c0 0.305-0.052 0.566-0.156 0.785-0.102 0.216-0.247 0.397-0.434 0.543-0.185 0.143-0.402 0.258-0.652 0.344l-0.371 0.195h-1.844l-0.008-0.914h1.371c0.206 0 0.376-0.036 0.512-0.109s0.237-0.174 0.305-0.305c0.070-0.13 0.105-0.281 0.105-0.453 0-0.182-0.034-0.34-0.102-0.473s-0.171-0.234-0.309-0.305c-0.138-0.070-0.311-0.105-0.52-0.105h-0.949v4.77h-1.172v-5.687zM66.099 23.333l-1.297-2.535 1.238-0.008 1.312 2.488v0.055h-1.254z"/>
    </symbol>
    <symbol id="icon-edit" viewBox="0 0 32 32">
      <path d="M21 29h-14c-1 0-2-0.4-2.8-1.2s-1.2-1.8-1.2-2.8v-14c0-1 0.4-2 1.2-2.8s1.8-1.2 2.8-1.2h6.4c0.6 0 1 0.4 1 1s-0.6 1-1 1h-6.4c-0.6 0-1 0.2-1.4 0.6s-0.6 0.8-0.6 1.4v14c0 0.6 0.2 1 0.6 1.4s0.8 0.6 1.4 0.6h14c0.6 0 1-0.2 1.4-0.6s0.6-0.8 0.6-1.4v-6.4c0-0.6 0.4-1 1-1s1 0.4 1 1v6.4c0 1-0.4 2-1.2 2.8s-1.8 1.2-2.8 1.2zM8 25c-0.2 0-0.6-0.2-0.8-0.2-0.2-0.2-0.4-0.6-0.2-1l1-3.6c0.4-1.2 1-2.2 1.8-3l14.2-14.2c1.4-1.4 3.6-1.4 5 0 0.6 0.6 1 1.6 1 2.6s-0.4 1.8-1 2.4l-14.2 14.2c-0.8 0.8-1.8 1.4-3 1.8l-3.6 1c0 0-0.2 0-0.2 0zM22.4 7.4l-11.2 11.2c-0.6 0.6-1 1.4-1.2 2.2l-0.6 1.8 1.8-0.6c0.8-0.2 1.6-0.6 2.2-1.2l11.2-11.2-2.2-2.2zM23.8 6l2.2 2.2 1.6-1.6c0.2-0.4 0.4-0.6 0.4-1s-0.2-0.8-0.4-1c-0.6-0.6-1.6-0.6-2.2 0l-1.6 1.4z"/>
    </symbol>
    <symbol id="icon-trash" viewBox="0 0 32 32">
      <path d="M21.2 30h-10.4c-1 0-2-0.4-2.8-1s-1.2-1.6-1.2-2.6l-1.4-17.6c0 0-0.2 0-0.2 0-0.6 0.2-1-0.2-1.2-0.6 0-0.6 0.2-1 0.8-1.2 0.4 0 1-0.2 1.4-0.2 0 0 0 0 0 0 1.2-0.2 2.6-0.4 3.8-0.6v-0.2c0-2.2 1.6-3.8 3.8-4 1.4 0 3 0 4.4 0 2.2 0 3.8 1.8 3.8 4v0.4c1.2 0.2 2.6 0.2 3.8 0.4 0 0 0 0 0 0 0.4 0 1 0.2 1.4 0.2 0.6 0 1 0.6 0.8 1.2 0 0.6-0.6 1-1.2 0.8 0 0-0.2 0-0.2 0l-1.4 17.4c0 1-0.6 2-1.2 2.6-0.8 0.6-1.8 1-2.8 1zM7.4 8.6l1.4 17.6c0 0.6 0.2 1 0.6 1.4 0.4 0.2 0.8 0.4 1.4 0.4h10.4c0.6 0 1-0.2 1.4-0.6s0.6-0.8 0.6-1.4l1.4-17.6c-1.2-0.2-2.4-0.2-3.6-0.4 0 0 0 0 0 0-3.4 0-6.6 0-10 0.2 0 0 0 0 0 0-1.2 0-2.4 0.2-3.6 0.4zM16 6c1.4 0 2.6 0 4 0.2v-0.2c0-1-0.8-2-1.8-2-1.4 0-3 0-4.4 0-1 0-1.8 1-1.8 2v0.2c1.4-0.2 2.6-0.2 4-0.2zM19.2 25c0 0 0 0 0 0-0.6 0-1-0.4-1-1l0.4-12c0-0.6 0.4-1 1-1s1 0.4 1 1l-0.4 12c0 0.6-0.4 1-1 1zM12.8 25c-0.6 0-1-0.4-1-1l-0.4-12c0-0.6 0.4-1 1-1s1 0.4 1 1l0.4 12c0 0.6-0.4 1-1 1 0 0 0 0 0 0z"/>
    </symbol>
    <symbol id="icon-minus" viewBox="0 0 32 32">
      <path d="M7 16c0-0.265 0.105-0.52 0.293-0.707s0.442-0.293 0.707-0.293h16c0.265 0 0.52 0.105 0.707 0.293s0.293 0.442 0.293 0.707-0.105 0.52-0.293 0.707c-0.187 0.188-0.442 0.293-0.707 0.293h-16c-0.265 0-0.52-0.105-0.707-0.293s-0.293-0.442-0.293-0.707z"/>
    </symbol>
    <symbol id="icon-plus" viewBox="0 0 32 32">
      <path d="M16 25.333c-0.8 0-1.333-0.533-1.333-1.333v-6.667h-6.667c-0.8 0-1.333-0.533-1.333-1.333s0.533-1.333 1.333-1.333h6.667v-6.667c0-0.8 0.533-1.333 1.333-1.333s1.333 0.533 1.333 1.333v6.667h6.667c0.8 0 1.333 0.533 1.333 1.333s-0.533 1.333-1.333 1.333h-6.667v6.667c0 0.8-0.533 1.333-1.333 1.333z"/>
    </symbol>
    <symbol id="icon-close" viewBox="0 0 32 32">
      <path d="M24 25.067c-0.267 0-0.533-0.133-0.667-0.267l-7.333-7.333-7.333 7.333c-0.4 0.4-1.067 0.4-1.467 0s-0.4-1.067 0-1.467l7.333-7.333-7.2-7.333c-0.4-0.4-0.4-1.067 0-1.467s1.067-0.4 1.467 0l7.333 7.333 7.333-7.333c0.4-0.4 1.067-0.4 1.467 0s0.4 1.067 0 1.467l-7.467 7.333 7.333 7.333c0.4 0.4 0.4 1.067 0 1.467-0.267 0.133-0.533 0.267-0.8 0.267z"/>
    </symbol>
    <symbol id="icon-arrow-left" viewBox="0 0 32 32">
      <path d="M10.294 16.707c-0.187-0.188-0.292-0.442-0.292-0.707s0.105-0.519 0.292-0.707l10-10c0.092-0.098 0.202-0.177 0.325-0.232s0.255-0.084 0.389-0.086c0.134-0.002 0.268 0.022 0.392 0.073s0.238 0.125 0.333 0.22c0.095 0.095 0.17 0.208 0.22 0.333s0.075 0.258 0.073 0.392c-0.002 0.134-0.032 0.267-0.086 0.389s-0.133 0.233-0.232 0.325l-9.293 9.293 9.293 9.293c0.098 0.092 0.177 0.202 0.232 0.325s0.084 0.255 0.086 0.39c0.002 0.134-0.022 0.268-0.073 0.392s-0.125 0.238-0.22 0.333c-0.095 0.095-0.208 0.17-0.333 0.22s-0.258 0.075-0.392 0.072c-0.134-0.002-0.267-0.032-0.389-0.086s-0.233-0.134-0.325-0.232l-10-10z"/>
    </symbol>
    <symbol id="icon-arrow-right" viewBox="0 0 32 32">
      <path d="M21.706 16.707c0.187-0.188 0.292-0.442 0.292-0.707s-0.105-0.519-0.292-0.707l-10-10c-0.092-0.098-0.202-0.177-0.325-0.232s-0.255-0.084-0.389-0.086c-0.134-0.002-0.268 0.022-0.392 0.073s-0.238 0.125-0.333 0.22c-0.095 0.095-0.17 0.208-0.22 0.333s-0.075 0.258-0.073 0.392c0.002 0.134 0.032 0.267 0.086 0.389s0.133 0.233 0.232 0.325l9.293 9.293-9.293 9.293c-0.098 0.092-0.177 0.202-0.232 0.325s-0.084 0.255-0.086 0.39c-0.002 0.134 0.022 0.268 0.073 0.392s0.125 0.238 0.22 0.333c0.095 0.095 0.208 0.17 0.333 0.22s0.258 0.075 0.392 0.072c0.134-0.002 0.267-0.032 0.389-0.086s0.233-0.134 0.325-0.232l10-10z"/>
    </symbol>
  </defs>
</svg>