<svg width="738" height="548" viewBox="0 0 738 548" fill="none" xmlns="http://www.w3.org/2000/svg">
<g clip-path="url(#clip0_12934_11590)">
<path d="M369 548C527.054 548 655.182 540.546 655.182 531.352C655.182 522.157 527.054 514.703 369 514.703C210.946 514.703 82.8184 522.157 82.8184 531.352C82.8184 540.546 210.946 548 369 548Z" fill="#1B1B21"/>
<path opacity="0.1" d="M202.654 415.122C202.832 413.797 203.512 412.59 204.556 411.75C205.599 410.91 206.926 410.501 208.263 410.607C220.898 410.415 232.721 419.313 243.687 428.858C246.123 430.961 248.765 433.138 251.495 430.932C252.34 430.235 252.957 429.303 253.267 428.255C253.739 426.542 253.739 424.733 253.267 423.019C252.86 421.605 252.184 420.281 251.274 419.122C246.506 412.872 240.706 409.871 235.997 403.415C233.36 399.716 231.175 395.717 229.488 391.502C228.012 387.796 225.06 381.81 226.241 376.795C227.555 370.795 232.056 371.309 234.787 372.133C243.422 374.707 251.481 380.84 258.802 388.473C266.61 396.591 273.68 406.371 280.72 416.092C283.377 419.784 286.181 423.578 289.576 424.917C292.971 426.255 297.266 424.093 298.698 418.769C300.13 413.445 298.447 407.327 298.093 402.032C297.619 395.714 297.926 389.362 299.008 383.119C299.487 379.818 300.605 376.642 302.299 373.765C306.107 368.206 311.746 370.162 315.436 374.368C318.252 377.887 320.43 381.869 321.871 386.134C326.012 397.919 328.495 410.218 329.251 422.681C329.812 430.402 330.993 438.447 334.181 444.433C339.332 454.11 348.941 453.345 356.395 448.271C369.369 439.447 379.376 419.504 382.048 397.209C382.918 389.943 383.14 382.09 385.797 376.001C388.114 370.736 394.062 367.177 396.97 372.854C398.141 375.692 398.469 378.806 397.915 381.825C397.394 384.815 396.659 387.764 395.715 390.649C394.239 395.65 392.763 405.018 396.748 407.945C397.343 408.304 398.008 408.53 398.699 408.606C399.39 408.683 400.09 408.607 400.748 408.386C413.796 405.68 425.929 393.444 433.899 376.369C436.787 369.943 438.993 363.235 440.482 356.352C441.442 352.146 441.84 347.631 442.903 343.454C443.584 340.167 444.963 337.063 446.947 334.351C452.025 328.291 463.744 331.144 464.408 344.131C464.807 351.646 462.799 359 462.061 366.353C461.604 370.942 464.453 370.912 466.578 370.765C476.762 369.736 485.766 359.5 493.751 348.852C503.242 336.189 513.751 319.746 526.71 319.261C529.662 319.158 534.577 319.541 536.349 324.085C537.169 326.87 537.169 329.831 536.349 332.615C533.721 343.469 526.017 349.072 520.113 354.44C503.467 369.997 488.826 387.555 476.526 406.709C474.652 409.651 472.718 414.504 474.504 417.387C474.846 417.935 475.345 418.369 475.938 418.631C476.53 418.893 477.187 418.972 477.825 418.857C483.921 418.387 489.633 413.563 495.198 409.562C500.762 405.562 507.079 402.062 512.91 405.077C514.707 406.152 516.273 407.57 517.517 409.252C518.761 410.933 519.658 412.843 520.157 414.872C521.199 418.427 521.366 422.18 520.644 425.814C518.504 435.8 509.249 440.286 504.157 445.212C497.145 451.953 490.726 459.279 484.969 467.111C479.655 474.362 474.637 482.304 469.323 489.422C450.135 514.909 423.567 518.689 399.951 521.645C374.254 524.851 348.498 523.116 322.948 519.748C304.366 517.277 286.048 512.012 267.908 505.761C261.68 503.511 255.495 501.055 249.385 498.143C242.816 495.025 233.149 493.099 230.625 480.818C230.093 478.171 230.713 476.024 232.47 475.038C237.916 471.95 245.68 476.083 250.802 478.803C257.872 482.568 264.573 487.936 271.835 490.834C273.002 491.405 274.273 491.735 275.572 491.803C276.871 491.872 278.171 491.677 279.392 491.231C280.589 490.73 281.575 489.831 282.181 488.686C282.953 487.195 283.143 485.471 282.713 483.848C282.413 482.971 281.907 482.18 281.237 481.539C268.165 468.19 252.549 457.58 235.304 450.33C229.769 447.963 224.116 446.021 218.787 442.668C214.48 440.014 210.763 436.511 207.865 432.373C205.385 428.417 201.4 421.431 202.654 415.122Z" fill="#5082F2"/>
<path opacity="0.1" d="M484.969 307.01C483.982 308.028 482.69 308.698 481.287 308.92C479.885 309.141 478.448 308.902 477.194 308.237C475.94 307.572 474.937 306.519 474.337 305.236C473.737 303.954 473.573 302.511 473.869 301.127C478.961 276.493 490.031 258.579 503.197 267.874C513.028 274.801 497.618 293.906 484.969 307.01Z" fill="#5082F2"/>
<path opacity="0.3" d="M449.25 318.511C453.277 316.296 456.69 313.123 459.186 309.273C461.682 305.424 463.182 301.018 463.552 296.45L473.53 175.338C474.048 169.112 473.253 162.847 471.196 156.946C469.14 151.044 465.868 145.637 461.589 141.07L430.844 108.259C429.153 106.444 427.858 104.3 427.042 101.96C426.227 99.6208 425.908 97.138 426.106 94.6694L427.582 76.9327L348.011 70.4175L346.535 88.1542C346.332 90.6219 345.613 93.0201 344.426 95.1955C343.239 97.3709 341.61 99.2755 339.642 100.788L303.923 128.187C298.958 132 294.846 136.804 291.852 142.293C288.858 147.781 287.047 153.831 286.536 160.057L276.543 281.17C276.165 285.732 276.926 290.316 278.757 294.514C280.588 298.712 283.433 302.393 287.038 305.23C283.011 307.444 279.598 310.618 277.105 314.467C274.611 318.317 273.115 322.724 272.75 327.291L260.012 481.715C259.412 489.057 261.761 496.336 266.543 501.953C271.326 507.57 278.15 511.066 285.517 511.674L416.881 522.424C420.529 522.725 424.201 522.306 427.687 521.191C431.172 520.077 434.403 518.29 437.195 515.931C439.987 513.573 442.285 510.689 443.959 507.445C445.632 504.201 446.648 500.66 446.947 497.025L459.685 342.601C460.075 338.04 459.326 333.453 457.505 329.25C455.685 325.046 452.849 321.357 449.25 318.511Z" fill="#5082F2"/>
<path opacity="0.3" d="M348.034 70.4445L346.905 84.1201L426.459 90.6372L427.587 76.9616L348.034 70.4445Z" fill="#5082F2"/>
<path opacity="0.3" d="M460.852 144.232L430.107 111.391C430.107 111.391 410.284 112.244 425.679 136.467C438.801 156.954 461.664 153.762 460.852 144.232Z" fill="#1C1D26"/>
<path opacity="0.2" d="M260.028 481.656C259.428 488.998 261.777 496.277 266.559 501.894C271.341 507.512 278.166 511.008 285.533 511.615L416.897 522.366C420.545 522.666 424.217 522.247 427.702 521.133C431.188 520.019 434.419 518.231 437.211 515.872C440.003 513.514 442.301 510.63 443.974 507.386C445.648 504.142 446.663 500.602 446.963 496.967L260.028 481.656Z" fill="#5082F2"/>
<path opacity="0.3" d="M455.11 147.071C458.543 150.739 461.17 155.082 462.822 159.82C464.474 164.558 465.115 169.588 464.704 174.588L454.726 295.715C454.467 298.829 453.439 301.83 451.734 304.452C450.029 307.075 447.701 309.237 444.955 310.746L433.339 317.158L443.745 325.379C446.207 327.313 448.15 329.823 449.402 332.687C450.654 335.551 451.174 338.679 450.918 341.792L438.18 496.216C437.77 501.221 435.384 505.859 431.546 509.112C427.708 512.366 422.731 513.969 417.708 513.571L286.344 502.82C283.85 502.623 281.418 501.938 279.189 500.805C276.96 499.672 274.977 498.112 273.353 496.215C271.729 494.318 270.495 492.121 269.723 489.749C268.951 487.378 268.656 484.877 268.854 482.392L281.591 327.968C281.846 324.852 282.87 321.848 284.572 319.223C286.274 316.598 288.602 314.433 291.348 312.922L302.964 306.51L292.632 298.289C290.17 296.355 288.226 293.844 286.975 290.981C285.723 288.117 285.202 284.989 285.459 281.876L295.451 160.763C295.865 155.763 297.323 150.905 299.73 146.498C302.137 142.092 305.44 138.234 309.429 135.173C321.237 127.569 352.233 146.497 388.528 149.468C424.822 152.439 447.523 143.262 455.11 147.071Z" fill="#5082F2"/>
<path opacity="0.2" d="M388.453 149.483C352.173 146.541 321.148 127.569 309.34 135.173C330.004 146.497 353.62 153.512 387.878 156.321C422.136 159.13 455.11 147.071 455.11 147.071C447.523 143.262 424.734 152.468 388.453 149.483Z" fill="#5082F2"/>
<path opacity="0.2" d="M276.558 281.17C276.18 285.732 276.941 290.316 278.772 294.514C280.603 298.712 283.448 302.393 287.053 305.23L449.25 318.467C453.277 316.252 456.69 313.078 459.186 309.229C461.682 305.38 463.182 300.974 463.553 296.406L276.558 281.17Z" fill="#5082F2"/>
<path d="M429.251 55.2712L349.92 48.7522C346.597 48.4792 343.683 50.9419 343.41 54.2529L341.828 73.4841C341.556 76.7951 344.029 79.7005 347.352 79.9736L426.683 86.4925C430.006 86.7656 432.92 84.3028 433.193 80.9918L434.774 61.7606C435.047 58.4496 432.574 55.5442 429.251 55.2712Z" fill="#5082F2"/>
<path opacity="0.2" d="M351.377 77.0062C351.28 76.9988 351.185 76.9723 351.098 76.9284C351.012 76.8844 350.935 76.8237 350.872 76.7499C350.808 76.6761 350.761 76.5906 350.731 76.4983C350.701 76.406 350.69 76.3087 350.698 76.2121L352.558 52.9455C352.573 52.7504 352.666 52.5696 352.816 52.4427C352.965 52.3159 353.159 52.2534 353.355 52.269C353.55 52.2846 353.732 52.377 353.859 52.5259C353.987 52.6749 354.049 52.8681 354.034 53.0631L352.115 76.315C352.104 76.5023 352.021 76.6782 351.884 76.8067C351.746 76.9352 351.565 77.0066 351.377 77.0062Z" fill="#1C1D26"/>
<path opacity="0.2" d="M365.767 78.1828C365.67 78.1754 365.576 78.1489 365.489 78.1049C365.402 78.061 365.325 78.0003 365.262 77.9265C365.199 77.8527 365.151 77.7672 365.121 77.6749C365.092 77.5826 365.08 77.4853 365.088 77.3887L367.007 54.1368C367.026 53.943 367.12 53.7641 367.268 53.6378C367.417 53.5116 367.609 53.4479 367.804 53.4603C367.901 53.4676 367.995 53.4941 368.081 53.5383C368.167 53.5825 368.243 53.6434 368.305 53.7175C368.367 53.7915 368.413 53.8772 368.441 53.9694C368.469 54.0617 368.479 54.1586 368.469 54.2544L366.505 77.5063C366.487 77.6897 366.402 77.8601 366.266 77.9848C366.13 78.1096 365.952 78.1801 365.767 78.1828Z" fill="#1C1D26"/>
<path opacity="0.2" d="M380.144 79.4182C380.047 79.4108 379.953 79.3843 379.866 79.3403C379.779 79.2963 379.702 79.2357 379.639 79.1618C379.576 79.088 379.528 79.0025 379.498 78.9102C379.469 78.8179 379.457 78.7206 379.465 78.624L381.384 55.3721C381.406 55.1798 381.501 55.003 381.649 54.8774C381.797 54.7519 381.987 54.6869 382.181 54.6956C382.278 54.703 382.373 54.7295 382.46 54.7735C382.546 54.8175 382.623 54.8781 382.687 54.9519C382.75 55.0258 382.798 55.1113 382.827 55.2036C382.857 55.2959 382.868 55.3932 382.86 55.4898L380.941 78.7417C380.934 78.8383 380.907 78.9326 380.863 79.019C380.819 79.1054 380.758 79.1823 380.684 79.2451C380.61 79.308 380.524 79.3557 380.432 79.3854C380.339 79.4151 380.241 79.4262 380.144 79.4182Z" fill="#1C1D26"/>
<path opacity="0.2" d="M394.535 80.536C394.438 80.5286 394.343 80.5021 394.257 80.4581C394.17 80.4141 394.093 80.3534 394.03 80.2796C393.967 80.2058 393.919 80.1203 393.889 80.028C393.859 79.9357 393.848 79.8384 393.856 79.7418L395.775 56.4899C395.794 56.2961 395.887 56.1172 396.036 55.991C396.185 55.8647 396.377 55.8011 396.572 55.8134C396.668 55.8207 396.762 55.8473 396.848 55.8915C396.934 55.9356 397.011 55.9966 397.072 56.0706C397.134 56.1447 397.181 56.2303 397.209 56.3226C397.237 56.4148 397.246 56.5117 397.236 56.6076L395.317 79.8595C395.312 79.9555 395.287 80.0494 395.244 80.1358C395.202 80.2221 395.142 80.299 395.069 80.3621C394.996 80.4251 394.912 80.473 394.82 80.5029C394.728 80.5327 394.631 80.544 394.535 80.536Z" fill="#1C1D26"/>
<path opacity="0.2" d="M408.852 81.7125C408.755 81.7051 408.661 81.6786 408.574 81.6346C408.487 81.5906 408.41 81.53 408.347 81.4562C408.284 81.3823 408.236 81.2968 408.206 81.2045C408.177 81.1122 408.165 81.015 408.173 80.9183L410.092 57.6664C410.118 57.4755 410.213 57.3007 410.36 57.1757C410.508 57.0508 410.696 56.9846 410.889 56.9899C410.986 56.9973 411.081 57.0238 411.168 57.0678C411.254 57.1118 411.331 57.1725 411.395 57.2463C411.458 57.3201 411.505 57.4056 411.535 57.4979C411.565 57.5902 411.576 57.6875 411.568 57.7841L409.649 81.036C409.644 81.1334 409.619 81.2286 409.575 81.316C409.532 81.4034 409.471 81.4811 409.396 81.5443C409.322 81.6076 409.235 81.6551 409.142 81.684C409.048 81.7129 408.95 81.7226 408.852 81.7125Z" fill="#1C1D26"/>
<path opacity="0.2" d="M423.303 82.8891C423.206 82.8816 423.111 82.8552 423.024 82.8112C422.938 82.7672 422.86 82.7065 422.797 82.6327C422.734 82.5589 422.686 82.4734 422.657 82.3811C422.627 82.2888 422.616 82.1915 422.624 82.0949L424.483 58.8283C424.502 58.6345 424.596 58.4556 424.745 58.3294C424.893 58.2031 425.085 58.1394 425.28 58.1518C425.474 58.1704 425.652 58.2643 425.776 58.4129C425.901 58.5616 425.961 58.7531 425.945 58.946L424.041 82.2125C424.023 82.396 423.937 82.5663 423.801 82.6911C423.665 82.8159 423.488 82.8863 423.303 82.8891Z" fill="#1C1D26"/>
<path opacity="0.2" d="M301.104 240.711C298.861 228.342 280.78 229.224 279.747 241.74L276.499 281.17C276.122 285.731 276.882 290.316 278.713 294.514C280.544 298.712 283.389 302.393 286.994 305.23C282.967 307.444 279.554 310.617 277.061 314.467C274.568 318.317 273.071 322.723 272.706 327.291L259.968 481.715C259.368 489.057 261.717 496.336 266.499 501.953C271.282 507.57 278.106 511.066 285.473 511.674L319.421 514.453C323.161 514.758 326.922 514.203 330.412 512.829C333.903 511.456 337.029 509.302 339.551 506.533C342.073 503.764 343.923 500.455 344.957 496.861C345.992 493.267 346.183 489.484 345.517 485.804L301.104 240.711Z" fill="#5082F2"/>
<path opacity="0.3" d="M431.73 442.918C431.496 445.753 430.423 448.455 428.648 450.682C426.873 452.91 424.475 454.563 421.757 455.433C419.039 456.302 416.123 456.349 413.378 455.568C410.633 454.787 408.182 453.212 406.336 451.043C404.489 448.874 403.329 446.208 403.003 443.382C402.677 440.556 403.198 437.697 404.503 435.167C405.807 432.637 407.834 430.548 410.329 429.166C412.824 427.784 415.675 427.17 418.52 427.402C422.336 427.717 425.87 429.528 428.347 432.437C430.823 435.346 432.04 439.116 431.73 442.918Z" fill="#5082F2"/>
<path opacity="0.3" d="M385.841 387.222C385.677 389.229 384.919 391.142 383.663 392.719C382.408 394.296 380.711 395.467 378.787 396.083C376.864 396.699 374.801 396.733 372.858 396.18C370.915 395.628 369.18 394.514 367.873 392.979C366.566 391.444 365.745 389.557 365.514 387.557C365.283 385.557 365.653 383.534 366.576 381.743C367.499 379.953 368.935 378.475 370.701 377.497C372.467 376.52 374.485 376.086 376.498 376.251C379.195 376.476 381.693 377.757 383.445 379.813C385.196 381.87 386.058 384.534 385.841 387.222Z" fill="#5082F2"/>
<path opacity="0.3" d="M343.141 263.257C341.124 263.35 339.125 262.846 337.395 261.808C335.666 260.769 334.284 259.244 333.424 257.423C332.564 255.603 332.266 253.569 332.565 251.58C332.865 249.59 333.75 247.734 335.108 246.245C336.466 244.756 338.237 243.702 340.196 243.215C342.155 242.729 344.215 242.831 346.115 243.511C348.016 244.19 349.672 245.416 350.874 247.032C352.075 248.649 352.769 250.584 352.868 252.594C352.933 253.931 352.734 255.267 352.28 256.527C351.826 257.787 351.128 258.945 350.224 259.936C349.321 260.926 348.23 261.729 347.015 262.299C345.799 262.869 344.483 263.194 343.141 263.257Z" fill="#5082F2"/>
<path opacity="0.3" d="M370.993 202.413C369.563 202.485 368.144 202.132 366.916 201.399C365.688 200.666 364.706 199.586 364.094 198.297C363.482 197.007 363.267 195.566 363.478 194.155C363.689 192.744 364.315 191.427 365.278 190.371C366.24 189.315 367.496 188.567 368.885 188.223C370.274 187.878 371.735 187.952 373.082 188.436C374.429 188.919 375.601 189.789 376.451 190.937C377.301 192.085 377.79 193.458 377.857 194.883C377.945 196.788 377.272 198.65 375.986 200.061C374.699 201.472 372.904 202.318 370.993 202.413Z" fill="#5082F2"/>
<path opacity="0.3" d="M415.804 343.233C415.734 344.061 415.42 344.851 414.9 345.501C414.38 346.151 413.679 346.634 412.884 346.887C412.09 347.14 411.237 347.153 410.435 346.925C409.633 346.696 408.917 346.235 408.378 345.601C407.838 344.967 407.499 344.188 407.404 343.362C407.308 342.537 407.461 341.701 407.841 340.961C408.222 340.222 408.815 339.611 409.543 339.207C410.272 338.802 411.105 338.622 411.937 338.689C413.054 338.783 414.088 339.314 414.812 340.165C415.537 341.017 415.894 342.12 415.804 343.233Z" fill="#5082F2"/>
<path opacity="0.7" d="M339.348 458.302H338.639C337.509 458.224 336.405 457.925 335.392 457.42C334.379 456.915 333.476 456.215 332.735 455.36C332.007 454.509 331.456 453.522 331.114 452.456C330.772 451.391 330.646 450.268 330.743 449.154C330.88 447.506 331.496 445.934 332.516 444.629C333.535 443.324 334.914 442.344 336.483 441.806C338.052 441.269 339.745 441.199 341.354 441.604C342.962 442.009 344.418 442.872 345.543 444.088C346.668 445.304 347.413 446.82 347.687 448.45C347.962 450.081 347.754 451.756 347.09 453.271C346.425 454.786 345.332 456.075 343.944 456.982C342.556 457.888 340.933 458.372 339.274 458.375L339.348 458.302ZM339.348 442.359C337.669 442.368 336.043 442.946 334.739 443.999C333.435 445.052 332.529 446.516 332.173 448.151C331.816 449.785 332.03 451.492 332.778 452.989C333.526 454.487 334.764 455.685 336.287 456.387C337.811 457.089 339.529 457.253 341.159 456.85C342.788 456.448 344.232 455.505 345.25 454.175C346.269 452.846 346.802 451.21 346.762 449.538C346.722 447.865 346.111 446.257 345.03 444.977C344.4 444.233 343.629 443.621 342.759 443.177C341.89 442.733 340.941 442.465 339.968 442.389L339.348 442.359Z" fill="#1C1D26"/>
<path opacity="0.7" d="M430.638 286.2H430.121C428.482 286.065 426.963 285.287 425.898 284.039C424.833 282.79 424.308 281.171 424.439 279.537C424.574 277.901 425.356 276.385 426.613 275.324C427.869 274.262 429.498 273.741 431.14 273.875C432.779 274.01 434.298 274.787 435.363 276.036C436.428 277.285 436.953 278.904 436.822 280.537C436.682 282.173 435.903 283.689 434.653 284.758C433.528 285.698 432.105 286.209 430.638 286.2ZM425.546 279.596C425.472 280.596 425.697 281.595 426.192 282.469C426.686 283.342 427.429 284.05 428.326 284.504C429.224 284.958 430.235 285.138 431.235 285.021C432.234 284.904 433.177 284.495 433.944 283.846C434.456 283.414 434.878 282.885 435.184 282.29C435.491 281.696 435.678 281.046 435.732 280.38C435.787 279.713 435.71 279.042 435.504 278.406C435.299 277.769 434.969 277.179 434.534 276.669C434.084 276.174 433.538 275.773 432.93 275.49C432.321 275.207 431.663 275.048 430.992 275.022C430.324 274.966 429.651 275.041 429.013 275.245C428.374 275.448 427.782 275.775 427.271 276.207C426.759 276.638 426.338 277.167 426.032 277.761C425.726 278.355 425.54 279.004 425.487 279.67L425.546 279.596Z" fill="#1C1D26"/>
<path opacity="0.7" d="M335.274 155.806H335.053C334.29 155.731 333.587 155.365 333.091 154.783C332.596 154.201 332.346 153.45 332.396 152.689C332.433 152.116 332.638 151.568 332.984 151.11C333.33 150.652 333.803 150.305 334.345 150.111C334.886 149.918 335.473 149.886 336.032 150.02C336.592 150.154 337.1 150.449 337.494 150.867C337.888 151.284 338.15 151.808 338.249 152.373C338.349 152.937 338.28 153.519 338.052 154.045C337.824 154.571 337.447 155.02 336.966 155.335C336.486 155.651 335.923 155.82 335.348 155.821L335.274 155.806ZM333.488 152.777C333.46 153.127 333.537 153.478 333.709 153.785C333.881 154.091 334.14 154.341 334.454 154.501C334.768 154.661 335.123 154.725 335.473 154.685C335.823 154.645 336.154 154.502 336.423 154.275C336.692 154.048 336.888 153.746 336.985 153.408C337.082 153.071 337.077 152.712 336.97 152.377C336.863 152.042 336.659 151.746 336.383 151.527C336.108 151.308 335.773 151.175 335.422 151.144C335.187 151.122 334.949 151.147 334.724 151.218C334.499 151.288 334.29 151.403 334.11 151.555C333.93 151.707 333.782 151.893 333.675 152.103C333.568 152.313 333.505 152.542 333.488 152.777Z" fill="#1C1D26"/>
<path opacity="0.7" d="M400.542 231.975H399.922C398.95 231.899 398.003 231.632 397.136 231.189C396.268 230.746 395.497 230.137 394.867 229.396C394.237 228.655 393.761 227.797 393.466 226.871C393.171 225.946 393.062 224.971 393.147 224.003C393.273 222.583 393.811 221.23 394.694 220.109C395.578 218.988 396.769 218.147 398.124 217.688C399.479 217.229 400.938 217.173 402.324 217.526C403.71 217.878 404.964 218.625 405.932 219.674C406.9 220.724 407.541 222.031 407.777 223.437C408.013 224.843 407.834 226.288 407.262 227.594C406.689 228.9 405.747 230.013 404.552 230.796C403.356 231.579 401.958 231.998 400.527 232.004L400.542 231.975ZM400.542 218.297C399.056 218.29 397.617 218.812 396.483 219.768C395.208 220.842 394.412 222.375 394.269 224.033C394.186 225.061 394.358 226.094 394.771 227.04C395.183 227.986 395.823 228.817 396.635 229.458C397.446 230.099 398.403 230.531 399.421 230.716C400.44 230.901 401.489 230.833 402.475 230.518C403.46 230.203 404.353 229.651 405.074 228.911C405.795 228.17 406.322 227.264 406.608 226.273C406.894 225.281 406.931 224.235 406.715 223.226C406.498 222.217 406.036 221.277 405.368 220.488C404.834 219.857 404.179 219.339 403.442 218.963C402.705 218.586 401.899 218.36 401.073 218.297H400.542Z" fill="#1C1D26"/>
<path opacity="0.3" d="M461.088 296.274L470.623 180.779C470.683 180.041 470.597 179.299 470.37 178.594C470.142 177.889 469.777 177.236 469.296 176.672C468.815 176.108 468.227 175.644 467.566 175.307C466.904 174.969 466.183 174.765 465.442 174.705C464.702 174.643 463.957 174.727 463.25 174.952C462.543 175.177 461.887 175.539 461.321 176.017C460.755 176.496 460.289 177.081 459.95 177.739C459.611 178.397 459.406 179.115 459.346 179.853L449.811 295.347C449.501 299.187 448.24 302.889 446.14 306.123C444.041 309.357 441.169 312.022 437.782 313.878L431.981 317.099L437.191 321.202C440.228 323.586 442.626 326.682 444.171 330.212C445.716 333.743 446.361 337.6 446.047 341.439L433.31 495.864C432.542 505.129 426.697 509.644 418.476 513.247C417.954 513.48 417.525 513.879 417.255 514.381C416.985 514.883 416.89 515.46 416.985 516.022C417.079 516.583 417.358 517.098 417.777 517.485C418.197 517.871 418.733 518.109 419.302 518.159C425.499 518.664 431.642 516.696 436.383 512.689C441.124 508.682 444.075 502.964 444.586 496.79L457.324 342.366C457.64 338.526 456.996 334.669 455.451 331.137C453.906 327.606 451.507 324.511 448.468 322.129L443.258 318.011L449.059 314.805C452.443 312.946 455.313 310.28 457.412 307.047C459.511 303.813 460.774 300.112 461.088 296.274Z" fill="#1C1D26"/>
<path opacity="0.3" d="M614.296 475.759C612.702 468.552 592.806 472.818 588.687 473.479C580.686 474.926 572.853 477.178 565.308 480.2C556.998 483.451 547.345 488.23 538.74 483.289C533.766 480.436 551.035 474.803 552.599 474.229C559.939 471.66 567.024 468.421 573.765 464.552C576.496 462.934 581.78 459.066 579.507 455.14C577.617 451.889 570.843 452.198 566.725 452.698C554.246 454.221 542.005 457.279 530.282 461.802C518.88 466.315 507.717 471.406 496.836 477.053C492.621 479.423 488.035 481.068 483.272 481.921C478.076 482.657 471.715 481.554 469.663 478.686C467.611 475.818 470.253 472.465 470.858 469.582C471.714 466.136 471.355 462.501 469.84 459.287C468.835 457.133 467.151 455.367 465.043 454.257C459.419 451.316 450.918 452.404 445.265 454.728C441.601 456.274 438.254 458.477 435.39 461.228C429.621 466.579 425.573 473.514 423.759 481.156C423.302 483.55 422.376 485.83 421.034 487.867C419.692 489.903 417.959 491.656 415.936 493.025C408.025 498.334 393.531 498.025 382.446 495.363C363.096 490.79 348.336 480.098 344.778 468.023C343.052 462.273 342.21 456.257 334.446 454.007C329.428 452.536 318.919 453.566 321.162 459.89C321.977 461.623 323.041 463.228 324.321 464.655C326.373 467.346 328.557 472.42 322.461 474.053C320.488 474.47 318.459 474.57 316.454 474.347C296.853 473.038 278.816 466.523 267.126 457.346C263.314 454.362 260.083 450.708 257.591 446.565C256.204 444.286 255.702 441.83 254.182 439.58C252.729 437.414 250.679 435.713 248.278 434.682C240.75 431.461 223.068 433.138 221.828 440.197C221.163 444.021 223.555 448.168 224.78 451.801C225 452.259 225.052 452.779 224.927 453.272C224.573 454.198 223.171 454.463 221.975 454.537C206.167 455.581 190.832 449.463 177.562 443.08C163.511 436.315 148.042 427.505 128.515 427.402C124.477 427.218 120.436 427.68 116.545 428.77C115.559 429.032 114.643 429.503 113.858 430.152C113.381 430.647 113.064 431.274 112.948 431.95C112.833 432.627 112.923 433.322 113.209 433.947C113.843 435.242 114.785 436.363 115.954 437.212C121.858 442.006 130.124 443.948 137.666 446.418C160.044 453.646 181.681 462.978 202.285 474.288C204.367 475.45 208.057 478.141 205.134 480.171C202.212 482.201 196.278 480.892 192.78 480.318C186.433 479.289 180.337 477.641 174.153 476.097C165.976 474.038 156.441 472.17 147.585 473.876C142.906 474.774 138.729 476.685 136.53 479.274C135.772 480.031 135.273 481.007 135.103 482.063C134.933 483.119 135.102 484.202 135.585 485.157C138.626 490.554 152.485 492.878 160.057 495.452C169.752 498.749 179.231 502.644 188.441 507.114C196.308 510.997 203.614 515.247 211.584 519.057C240.056 532.661 279.82 534.411 315.377 535.734C353.974 537.205 392.749 535.955 431.243 533.822C459.287 532.263 486.814 529.19 514.297 525.572C522.194 524.542 530.046 523.277 537.913 522.204C545.899 521.292 553.797 519.732 561.529 517.542C564.307 516.836 566.9 515.541 569.13 513.747C571.241 511.791 571.905 509.232 568.127 508.497C560.215 506.923 552.068 508.717 544.334 510.115C535.655 511.703 527.055 513.532 518.533 515.6C514.649 516.633 510.706 517.433 506.725 517.998C502.724 518.557 498.651 518.297 494.755 517.233C493.486 516.836 492.098 516.13 492.024 515.012C491.95 513.894 493.013 513.188 494.105 512.762C510.031 506.467 526.946 502.467 543.979 498.79C555.536 496.29 567.3 494.76 578.946 492.804C589.558 491.025 600.746 490.613 609.942 483.907C611.772 482.729 613.194 481.02 614.016 479.009C614.415 477.974 614.512 476.847 614.296 475.759Z" fill="#5082F2"/>
<path opacity="0.3" d="M157.562 416.21C153.238 403.959 137.828 382.266 134.581 395.076C132.839 402.268 157.562 416.21 157.562 416.21Z" fill="#5082F2"/>
<path opacity="0.3" d="M544.54 440.329C552.776 432.844 563.049 428.388 564.377 434.976C565.617 441.211 544.54 440.329 544.54 440.329Z" fill="#5082F2"/>
<path opacity="0.3" d="M206.64 380.795C201.001 377.853 196.603 373.133 199.909 371.162C203.215 369.192 206.64 380.795 206.64 380.795Z" fill="#5082F2"/>
</g>
<defs>
<clipPath id="clip0_12934_11590">
<rect width="738" height="548" fill="white"/>
</clipPath>
</defs>
</svg>
