<svg width="1403" height="583" viewBox="0 0 1403 583" fill="none" xmlns="http://www.w3.org/2000/svg">
<path d="M398.673 512C556.727 512 684.854 504.546 684.854 495.352C684.854 486.157 556.727 478.703 398.673 478.703C240.619 478.703 112.491 486.157 112.491 495.352C112.491 504.546 240.619 512 398.673 512Z" fill="#F5F5F5"/>
<path opacity="0.1" d="M232.328 379.122C232.505 377.797 233.185 376.59 234.229 375.75C235.272 374.91 236.599 374.501 237.936 374.607C250.571 374.415 262.394 383.313 273.36 392.858C275.796 394.961 278.438 397.138 281.168 394.932C282.013 394.235 282.63 393.303 282.94 392.255C283.412 390.542 283.412 388.733 282.94 387.019C282.533 385.605 281.857 384.281 280.947 383.122C276.18 376.872 270.379 373.871 265.67 367.415C263.033 363.716 260.848 359.717 259.161 355.502C257.685 351.796 254.733 345.81 255.914 340.795C257.228 334.795 261.73 335.309 264.46 336.133C273.095 338.707 281.154 344.84 288.475 352.472C296.283 360.591 303.353 370.371 310.393 380.092C313.05 383.784 315.854 387.578 319.249 388.917C322.644 390.255 326.939 388.093 328.371 382.769C329.803 377.445 328.12 371.327 327.766 366.032C327.292 359.714 327.599 353.362 328.681 347.119C329.161 343.818 330.278 340.642 331.972 337.765C335.78 332.206 341.419 334.162 345.109 338.368C347.925 341.887 350.103 345.869 351.544 350.134C355.685 361.919 358.168 374.218 358.924 386.681C359.485 394.402 360.666 402.447 363.854 408.433C369.005 418.11 378.614 417.345 386.068 412.271C399.042 403.447 409.049 383.504 411.721 361.208C412.591 353.943 412.813 346.09 415.47 340.001C417.787 334.736 423.735 331.177 426.643 336.854C427.814 339.692 428.142 342.806 427.588 345.825C427.067 348.815 426.332 351.764 425.388 354.649C423.912 359.65 422.436 369.018 426.422 371.945C427.016 372.304 427.682 372.53 428.373 372.606C429.064 372.683 429.763 372.607 430.422 372.386C443.469 369.68 455.602 357.443 463.573 340.369C466.46 333.943 468.667 327.235 470.155 320.352C471.115 316.146 471.513 311.631 472.576 307.454C473.257 304.167 474.636 301.063 476.62 298.35C481.698 292.291 493.417 295.144 494.081 308.131C494.48 315.646 492.473 323 491.735 330.353C491.277 334.942 494.126 334.912 496.251 334.765C506.436 333.736 515.439 323.5 523.424 312.852C532.915 300.189 543.424 283.746 556.383 283.261C559.335 283.158 564.25 283.54 566.022 288.085C566.843 290.869 566.843 293.83 566.022 296.615C563.394 307.469 555.69 313.072 549.786 318.44C533.14 333.997 518.499 351.555 506.199 370.709C504.325 373.651 502.391 378.504 504.177 381.387C504.519 381.935 505.019 382.369 505.611 382.631C506.203 382.893 506.861 382.972 507.498 382.857C513.594 382.387 519.306 377.563 524.871 373.562C530.435 369.562 536.753 366.062 542.583 369.077C544.38 370.151 545.946 371.57 547.19 373.252C548.434 374.933 549.331 376.843 549.83 378.872C550.872 382.427 551.039 386.18 550.317 389.814C548.177 399.8 538.922 404.285 533.83 409.212C526.818 415.952 520.399 423.279 514.642 431.111C509.329 438.362 504.31 446.304 498.997 453.422C479.809 478.909 453.241 482.689 429.625 485.645C403.927 488.851 378.171 487.116 352.622 483.748C334.039 481.277 315.722 476.012 297.582 469.761C291.353 467.511 285.168 465.055 279.058 462.143C272.49 459.025 262.822 457.099 260.298 444.818C259.766 442.171 260.386 440.024 262.143 439.038C267.589 435.95 275.353 440.082 280.475 442.803C287.545 446.568 294.246 451.936 301.508 454.834C302.675 455.405 303.947 455.735 305.245 455.803C306.544 455.872 307.844 455.677 309.065 455.231C310.262 454.73 311.248 453.831 311.854 452.686C312.627 451.195 312.816 449.471 312.386 447.848C312.086 446.971 311.58 446.18 310.91 445.539C297.839 432.19 282.222 421.58 264.977 414.33C259.442 411.963 253.789 410.021 248.46 406.668C244.153 404.014 240.436 400.511 237.538 396.373C235.058 392.417 231.073 385.431 232.328 379.122Z" fill="#407BFF"/>
<path opacity="0.1" d="M514.642 271.01C513.656 272.028 512.363 272.698 510.961 272.92C509.558 273.141 508.121 272.902 506.867 272.237C505.613 271.572 504.61 270.519 504.011 269.236C503.411 267.954 503.247 266.511 503.543 265.127C508.635 240.493 519.705 222.579 532.871 231.874C542.701 238.801 527.291 257.906 514.642 271.01Z" fill="#407BFF"/>
<path opacity="0.3" d="M478.923 282.511C482.95 280.296 486.363 277.123 488.859 273.273C491.355 269.424 492.855 265.018 493.225 260.45L503.203 139.338C503.721 133.112 502.926 126.847 500.869 120.946C498.813 115.044 495.54 109.637 491.262 105.07L460.517 72.2587C458.825 70.4444 457.531 68.2995 456.715 65.9601C455.899 63.6208 455.581 61.138 455.779 58.6694L457.255 40.9327L377.684 34.4174L376.208 52.1542C376.004 54.6219 375.286 57.0201 374.099 59.1955C372.912 61.3708 371.283 63.2754 369.315 64.7875L333.596 92.1868C328.63 95.9999 324.519 100.804 321.525 106.292C318.531 111.781 316.72 117.831 316.209 124.057L306.216 245.17C305.838 249.732 306.599 254.316 308.43 258.514C310.261 262.712 313.106 266.393 316.71 269.23C312.684 271.444 309.271 274.617 306.778 278.467C304.284 282.317 302.788 286.723 302.423 291.291L289.685 445.715C289.085 453.057 291.434 460.336 296.216 465.953C300.998 471.57 307.823 475.066 315.19 475.674L446.554 486.424C450.202 486.724 453.874 486.306 457.359 485.191C460.845 484.077 464.076 482.29 466.868 479.931C469.66 477.572 471.958 474.689 473.632 471.445C475.305 468.201 476.321 464.66 476.62 461.025L489.358 306.601C489.748 302.04 488.999 297.453 487.178 293.25C485.357 289.046 482.521 285.357 478.923 282.511Z" fill="#407BFF"/>
<path opacity="0.3" d="M377.707 34.4444L376.578 48.12L456.132 54.6371L457.26 40.9615L377.707 34.4444Z" fill="#407BFF"/>
<path opacity="0.3" d="M490.524 108.232L459.779 75.3913C459.779 75.3913 439.956 76.2443 455.351 100.467C468.473 120.954 491.336 117.762 490.524 108.232Z" fill="white"/>
<path opacity="0.2" d="M289.7 445.656C289.1 452.998 291.449 460.277 296.231 465.894C301.013 471.512 307.838 475.008 315.205 475.615L446.569 486.366C450.217 486.666 453.889 486.247 457.374 485.133C460.86 484.018 464.091 482.231 466.883 479.872C469.675 477.514 471.973 474.63 473.646 471.386C475.32 468.142 476.335 464.602 476.635 460.966L289.7 445.656Z" fill="#407BFF"/>
<path opacity="0.3" d="M484.783 111.071C488.216 114.739 490.843 119.082 492.495 123.82C494.147 128.558 494.788 133.588 494.377 138.588L484.399 259.715C484.139 262.829 483.111 265.83 481.407 268.452C479.702 271.075 477.373 273.237 474.628 274.746L463.012 281.158L473.417 289.379C475.879 291.313 477.823 293.823 479.075 296.687C480.326 299.551 480.847 302.679 480.591 305.792L467.853 460.216C467.443 465.221 465.057 469.859 461.219 473.112C457.381 476.366 452.404 477.969 447.381 477.571L316.017 466.82C313.522 466.623 311.091 465.938 308.862 464.805C306.633 463.672 304.649 462.112 303.025 460.215C301.401 458.318 300.168 456.121 299.396 453.749C298.624 451.378 298.328 448.877 298.526 446.392L311.264 291.968C311.518 288.852 312.542 285.848 314.245 283.223C315.947 280.598 318.275 278.433 321.02 276.922L332.637 270.51L322.305 262.289C319.843 260.355 317.899 257.844 316.647 254.981C315.396 252.117 314.875 248.989 315.131 245.876L325.124 124.763C325.538 119.763 326.995 114.905 329.402 110.498C331.809 106.092 335.113 102.234 339.101 99.1727C350.909 91.5691 381.905 110.497 418.2 113.468C454.495 116.439 477.196 107.262 484.783 111.071Z" fill="#407BFF"/>
<path opacity="0.2" d="M418.126 113.483C381.846 110.541 350.821 91.5691 339.013 99.1726C359.677 110.497 383.293 117.512 417.551 120.321C451.809 123.13 484.783 111.071 484.783 111.071C477.196 107.262 454.406 116.468 418.126 113.483Z" fill="#407BFF"/>
<path opacity="0.2" d="M306.231 245.17C305.853 249.732 306.614 254.316 308.445 258.514C310.276 262.712 313.12 266.393 316.725 269.23L478.923 282.467C482.949 280.252 486.363 277.079 488.859 273.229C491.355 269.38 492.855 264.974 493.225 260.406L306.231 245.17Z" fill="#407BFF"/>
<path d="M458.923 19.2711L379.592 12.7522C376.269 12.4791 373.355 14.9419 373.083 18.2529L371.501 37.4841C371.228 40.7951 373.701 43.7005 377.024 43.9735L456.355 50.4925C459.678 50.7655 462.593 48.3028 462.865 44.9918L464.447 25.7606C464.719 22.4496 462.246 19.5442 458.923 19.2711Z" fill="#407BFF"/>
<path opacity="0.2" d="M381.049 41.0062C380.952 40.9988 380.858 40.9723 380.771 40.9283C380.684 40.8843 380.607 40.8237 380.544 40.7499C380.481 40.676 380.433 40.5905 380.403 40.4982C380.373 40.4059 380.362 40.3087 380.37 40.212L382.23 16.9454C382.246 16.7504 382.339 16.5696 382.488 16.4427C382.637 16.3158 382.831 16.2533 383.027 16.2689C383.223 16.2845 383.404 16.377 383.532 16.5259C383.659 16.6748 383.722 16.8681 383.706 17.0631L381.787 40.315C381.776 40.5023 381.693 40.6782 381.556 40.8067C381.419 40.9352 381.238 41.0065 381.049 41.0062Z" fill="white"/>
<path opacity="0.2" d="M395.44 42.1828C395.343 42.1754 395.249 42.1489 395.162 42.1049C395.075 42.0609 394.998 42.0002 394.935 41.9264C394.872 41.8526 394.824 41.7671 394.794 41.6748C394.764 41.5825 394.753 41.4852 394.761 41.3886L396.68 18.1367C396.699 17.9429 396.793 17.764 396.941 17.6378C397.09 17.5115 397.282 17.4478 397.477 17.4602C397.574 17.4675 397.668 17.4941 397.754 17.5383C397.84 17.5824 397.916 17.6434 397.978 17.7174C398.04 17.7915 398.086 17.8771 398.114 17.9694C398.142 18.0616 398.152 18.1585 398.141 18.2544L396.178 41.5063C396.16 41.6897 396.075 41.86 395.939 41.9848C395.803 42.1096 395.625 42.18 395.44 42.1828Z" fill="white"/>
<path opacity="0.2" d="M409.816 43.4182C409.719 43.4108 409.625 43.3843 409.538 43.3403C409.451 43.2963 409.374 43.2357 409.311 43.1618C409.248 43.088 409.2 43.0025 409.17 42.9102C409.141 42.8179 409.129 42.7206 409.138 42.624L411.056 19.3721C411.079 19.1798 411.173 19.003 411.321 18.8774C411.469 18.7519 411.659 18.6869 411.853 18.6956C411.95 18.703 412.045 18.7295 412.132 18.7735C412.218 18.8175 412.296 18.8781 412.359 18.9519C412.422 19.0258 412.47 19.1113 412.499 19.2036C412.529 19.2959 412.54 19.3932 412.532 19.4898L410.614 42.7417C410.606 42.8383 410.58 42.9326 410.535 43.019C410.491 43.1054 410.43 43.1823 410.356 43.2451C410.282 43.308 410.196 43.3557 410.104 43.3854C410.011 43.4151 409.913 43.4262 409.816 43.4182Z" fill="white"/>
<path opacity="0.2" d="M424.207 44.5359C424.11 44.5285 424.016 44.502 423.929 44.458C423.842 44.414 423.765 44.3534 423.702 44.2795C423.639 44.2057 423.591 44.1202 423.561 44.0279C423.532 43.9356 423.52 43.8383 423.529 43.7417L425.447 20.4898C425.466 20.296 425.56 20.1171 425.708 19.9909C425.857 19.8646 426.049 19.801 426.244 19.8133C426.341 19.8206 426.435 19.8472 426.521 19.8914C426.607 19.9356 426.683 19.9965 426.745 20.0705C426.807 20.1446 426.853 20.2302 426.881 20.3225C426.909 20.4147 426.919 20.5116 426.909 20.6075L424.99 43.8594C424.984 43.9554 424.959 44.0493 424.917 44.1357C424.874 44.222 424.815 44.2989 424.742 44.362C424.669 44.425 424.584 44.4729 424.492 44.5028C424.401 44.5326 424.304 44.5439 424.207 44.5359Z" fill="white"/>
<path opacity="0.2" d="M438.525 45.7125C438.428 45.7051 438.333 45.6786 438.246 45.6346C438.16 45.5906 438.083 45.5299 438.019 45.4561C437.956 45.3823 437.909 45.2968 437.879 45.2045C437.849 45.1122 437.838 45.0149 437.846 44.9183L439.765 21.6664C439.79 21.4754 439.886 21.3006 440.033 21.1757C440.18 21.0508 440.368 20.9846 440.562 20.9899C440.659 20.9973 440.753 21.0238 440.84 21.0678C440.927 21.1118 441.004 21.1724 441.067 21.2462C441.13 21.32 441.178 21.4056 441.208 21.4979C441.237 21.5902 441.249 21.6874 441.241 21.7841L439.322 45.0359C439.316 45.1333 439.291 45.2286 439.248 45.316C439.204 45.4034 439.143 45.481 439.069 45.5443C438.994 45.6075 438.908 45.6551 438.814 45.684C438.721 45.7129 438.622 45.7226 438.525 45.7125Z" fill="white"/>
<path opacity="0.2" d="M452.975 46.889C452.878 46.8816 452.783 46.8551 452.696 46.8112C452.61 46.7672 452.533 46.7065 452.469 46.6327C452.406 46.5589 452.358 46.4734 452.329 46.3811C452.299 46.2888 452.288 46.1915 452.296 46.0949L454.156 22.8283C454.174 22.6345 454.268 22.4556 454.417 22.3293C454.565 22.2031 454.758 22.1394 454.953 22.1518C455.146 22.1704 455.324 22.2642 455.448 22.4129C455.573 22.5616 455.633 22.7531 455.617 22.9459L453.713 46.2125C453.695 46.3959 453.609 46.5663 453.473 46.6911C453.337 46.8158 453.16 46.8863 452.975 46.889Z" fill="white"/>
<path opacity="0.2" d="M330.777 204.711C328.533 192.342 310.452 193.224 309.419 205.74L306.172 245.17C305.794 249.731 306.554 254.316 308.385 258.514C310.216 262.712 313.061 266.393 316.666 269.23C312.64 271.444 309.227 274.617 306.733 278.467C304.24 282.317 302.744 286.723 302.378 291.291L289.641 445.715C289.04 453.057 291.39 460.336 296.172 465.953C300.954 471.57 307.778 475.066 315.146 475.674L349.094 478.453C352.834 478.758 356.594 478.203 360.085 476.829C363.575 475.456 366.702 473.302 369.224 470.533C371.746 467.764 373.596 464.455 374.63 460.861C375.664 457.267 375.856 453.484 375.19 449.804L330.777 204.711Z" fill="#407BFF"/>
<path opacity="0.3" d="M461.403 406.918C461.168 409.753 460.096 412.455 458.321 414.682C456.545 416.91 454.147 418.563 451.429 419.433C448.711 420.302 445.795 420.349 443.051 419.568C440.306 418.786 437.855 417.212 436.008 415.043C434.162 412.874 433.002 410.208 432.675 407.382C432.349 404.556 432.871 401.697 434.175 399.167C435.479 396.637 437.507 394.548 440.002 393.166C442.497 391.784 445.347 391.17 448.192 391.402C452.008 391.717 455.542 393.528 458.019 396.437C460.496 399.346 461.713 403.116 461.403 406.918Z" fill="#407BFF"/>
<path opacity="0.3" d="M415.514 351.222C415.349 353.229 414.591 355.142 413.336 356.719C412.08 358.296 410.383 359.467 408.46 360.083C406.537 360.699 404.473 360.733 402.53 360.18C400.588 359.628 398.853 358.514 397.546 356.979C396.239 355.444 395.418 353.557 395.187 351.557C394.956 349.557 395.325 347.534 396.249 345.743C397.172 343.953 398.607 342.475 400.374 341.497C402.14 340.52 404.157 340.086 406.171 340.251C408.868 340.476 411.366 341.757 413.117 343.813C414.868 345.87 415.73 348.534 415.514 351.222Z" fill="#407BFF"/>
<path opacity="0.3" d="M372.813 227.257C370.796 227.35 368.797 226.846 367.067 225.808C365.338 224.769 363.956 223.244 363.096 221.423C362.237 219.603 361.938 217.569 362.238 215.58C362.537 213.59 363.422 211.734 364.78 210.245C366.138 208.756 367.909 207.702 369.868 207.215C371.827 206.728 373.887 206.831 375.788 207.511C377.688 208.19 379.344 209.416 380.546 211.032C381.748 212.649 382.442 214.584 382.54 216.594C382.606 217.931 382.406 219.267 381.952 220.527C381.499 221.787 380.8 222.945 379.896 223.936C378.993 224.926 377.902 225.729 376.687 226.299C375.471 226.869 374.155 227.194 372.813 227.257Z" fill="#407BFF"/>
<path opacity="0.3" d="M400.665 166.413C399.236 166.485 397.817 166.131 396.588 165.399C395.36 164.666 394.378 163.586 393.766 162.297C393.154 161.007 392.94 159.566 393.151 158.155C393.361 156.744 393.988 155.427 394.95 154.371C395.913 153.315 397.168 152.567 398.557 152.223C399.946 151.878 401.407 151.952 402.754 152.435C404.101 152.919 405.274 153.789 406.124 154.937C406.974 156.085 407.463 157.458 407.529 158.883C407.617 160.788 406.944 162.65 405.658 164.061C404.372 165.472 402.576 166.318 400.665 166.413Z" fill="#407BFF"/>
<path opacity="0.3" d="M445.477 307.233C445.407 308.061 445.092 308.851 444.573 309.501C444.053 310.151 443.352 310.634 442.557 310.887C441.762 311.14 440.91 311.153 440.108 310.925C439.306 310.696 438.59 310.235 438.05 309.601C437.511 308.967 437.172 308.188 437.077 307.362C436.981 306.537 437.133 305.701 437.514 304.961C437.895 304.222 438.487 303.611 439.216 303.207C439.945 302.802 440.778 302.622 441.61 302.689C442.726 302.783 443.76 303.314 444.485 304.165C445.21 305.017 445.567 306.12 445.477 307.233Z" fill="#407BFF"/>
<path opacity="0.7" d="M369.02 422.302H368.311C367.181 422.224 366.077 421.925 365.064 421.42C364.051 420.915 363.148 420.215 362.407 419.36C361.679 418.509 361.128 417.522 360.786 416.456C360.444 415.391 360.318 414.268 360.415 413.154C360.552 411.506 361.168 409.934 362.188 408.629C363.207 407.324 364.586 406.343 366.155 405.806C367.724 405.269 369.417 405.199 371.026 405.604C372.635 406.009 374.09 406.872 375.215 408.088C376.34 409.304 377.085 410.82 377.36 412.45C377.634 414.081 377.427 415.756 376.762 417.271C376.097 418.786 375.004 420.075 373.616 420.982C372.228 421.888 370.606 422.372 368.946 422.375L369.02 422.302ZM369.02 406.359C367.341 406.367 365.716 406.946 364.411 407.999C363.107 409.052 362.202 410.516 361.845 412.151C361.488 413.785 361.702 415.492 362.45 416.989C363.198 418.487 364.436 419.685 365.959 420.387C367.483 421.089 369.202 421.253 370.831 420.85C372.46 420.448 373.904 419.505 374.922 418.175C375.941 416.846 376.474 415.21 376.434 413.538C376.394 411.865 375.784 410.257 374.702 408.977C374.073 408.233 373.301 407.621 372.432 407.177C371.563 406.733 370.614 406.465 369.64 406.389L369.02 406.359Z" fill="white"/>
<path opacity="0.7" d="M460.311 250.2H459.794C458.155 250.065 456.636 249.287 455.571 248.039C454.506 246.79 453.981 245.171 454.111 243.537C454.247 241.901 455.029 240.385 456.285 239.324C457.542 238.262 459.17 237.741 460.812 237.875C462.452 238.01 463.97 238.787 465.036 240.036C466.101 241.285 466.626 242.904 466.495 244.537C466.355 246.173 465.576 247.689 464.325 248.758C463.201 249.698 461.778 250.209 460.311 250.2ZM455.218 243.596C455.145 244.596 455.37 245.596 455.864 246.469C456.359 247.342 457.102 248.05 457.999 248.504C458.896 248.958 459.908 249.138 460.908 249.021C461.907 248.904 462.85 248.495 463.617 247.846C464.129 247.414 464.55 246.885 464.857 246.291C465.164 245.696 465.35 245.046 465.405 244.38C465.46 243.713 465.382 243.042 465.177 242.406C464.971 241.769 464.642 241.179 464.207 240.669C463.756 240.174 463.211 239.773 462.602 239.49C461.994 239.207 461.335 239.048 460.665 239.022C459.997 238.966 459.324 239.041 458.686 239.245C458.047 239.448 457.455 239.775 456.943 240.207C456.432 240.638 456.011 241.167 455.705 241.761C455.399 242.355 455.213 243.004 455.159 243.67L455.218 243.596Z" fill="white"/>
<path opacity="0.7" d="M364.946 119.806H364.725C363.963 119.731 363.259 119.364 362.763 118.783C362.268 118.201 362.018 117.45 362.068 116.689C362.105 116.116 362.31 115.568 362.656 115.11C363.002 114.652 363.475 114.305 364.017 114.111C364.559 113.918 365.145 113.886 365.705 114.02C366.264 114.154 366.772 114.449 367.166 114.866C367.56 115.284 367.822 115.808 367.922 116.373C368.021 116.937 367.952 117.519 367.724 118.045C367.496 118.571 367.119 119.02 366.638 119.335C366.158 119.651 365.595 119.82 365.02 119.821L364.946 119.806ZM363.16 116.777C363.132 117.127 363.209 117.478 363.381 117.785C363.553 118.091 363.812 118.341 364.126 118.501C364.44 118.661 364.795 118.725 365.145 118.685C365.495 118.645 365.826 118.502 366.095 118.275C366.364 118.048 366.56 117.746 366.657 117.408C366.755 117.071 366.749 116.712 366.642 116.377C366.535 116.042 366.331 115.746 366.055 115.527C365.78 115.308 365.445 115.175 365.094 115.144C364.859 115.122 364.622 115.147 364.396 115.218C364.171 115.288 363.962 115.403 363.782 115.555C363.602 115.707 363.454 115.893 363.347 116.103C363.24 116.313 363.177 116.542 363.16 116.777Z" fill="white"/>
<path opacity="0.7" d="M430.215 195.975H429.595C428.623 195.899 427.676 195.632 426.809 195.189C425.941 194.746 425.17 194.137 424.54 193.396C423.91 192.655 423.434 191.797 423.139 190.871C422.844 189.945 422.735 188.971 422.82 188.003C422.946 186.583 423.483 185.23 424.367 184.109C425.251 182.988 426.442 182.147 427.797 181.688C429.152 181.229 430.611 181.173 431.997 181.526C433.383 181.878 434.637 182.625 435.605 183.674C436.573 184.724 437.214 186.031 437.45 187.437C437.686 188.843 437.507 190.288 436.934 191.594C436.362 192.9 435.42 194.013 434.225 194.796C433.029 195.579 431.631 195.998 430.2 196.004L430.215 195.975ZM430.215 182.297C428.729 182.29 427.29 182.812 426.156 183.768C424.881 184.842 424.085 186.375 423.942 188.033C423.859 189.061 424.031 190.094 424.443 191.04C424.856 191.986 425.496 192.817 426.307 193.458C427.119 194.099 428.076 194.531 429.094 194.716C430.113 194.901 431.161 194.833 432.147 194.518C433.133 194.203 434.026 193.651 434.747 192.911C435.468 192.17 435.995 191.264 436.281 190.273C436.567 189.281 436.604 188.235 436.387 187.226C436.171 186.217 435.709 185.277 435.041 184.488C434.507 183.857 433.852 183.339 433.115 182.962C432.377 182.586 431.572 182.36 430.746 182.297H430.215Z" fill="white"/>
<path opacity="0.3" d="M490.76 260.274L500.295 144.779C500.356 144.041 500.27 143.299 500.042 142.594C499.815 141.889 499.45 141.236 498.969 140.672C498.488 140.108 497.899 139.644 497.238 139.306C496.577 138.969 495.855 138.765 495.115 138.705C494.375 138.643 493.63 138.727 492.923 138.952C492.216 139.177 491.56 139.539 490.994 140.017C490.427 140.496 489.961 141.081 489.622 141.739C489.283 142.397 489.078 143.115 489.019 143.853L479.484 259.347C479.174 263.187 477.912 266.889 475.813 270.123C473.713 273.357 470.841 276.022 467.454 277.878L461.654 281.099L466.864 285.202C469.901 287.586 472.298 290.681 473.843 294.212C475.388 297.743 476.033 301.6 475.72 305.439L462.982 459.863C462.215 469.129 456.37 473.644 448.148 477.247C447.627 477.48 447.197 477.879 446.928 478.381C446.658 478.883 446.563 479.46 446.657 480.021C446.752 480.583 447.031 481.098 447.45 481.485C447.869 481.871 448.406 482.109 448.975 482.159C455.171 482.664 461.315 480.696 466.056 476.689C470.797 472.682 473.747 466.964 474.259 460.79L486.997 306.366C487.312 302.526 486.669 298.669 485.124 295.137C483.578 291.606 481.179 288.511 478.141 286.129L472.93 282.011L478.731 278.805C482.115 276.945 484.985 274.28 487.084 271.047C489.183 267.813 490.446 264.112 490.76 260.274Z" fill="white"/>
<path opacity="0.3" d="M643.969 439.759C642.375 432.552 622.479 436.818 618.361 437.479C610.359 438.926 602.526 441.178 594.981 444.2C586.671 447.451 577.018 452.23 568.413 447.289C563.439 444.436 580.708 438.803 582.272 438.229C589.612 435.66 596.697 432.421 603.438 428.552C606.169 426.934 611.453 423.066 609.18 419.14C607.291 415.889 600.516 416.198 596.398 416.698C583.919 418.221 571.679 421.279 559.955 425.802C548.553 430.315 537.39 435.406 526.509 441.053C522.294 443.423 517.708 445.068 512.945 445.921C507.749 446.657 501.388 445.554 499.336 442.686C497.284 439.818 499.926 436.465 500.532 433.582C501.388 430.136 501.028 426.501 499.513 423.287C498.509 421.133 496.824 419.366 494.716 418.257C489.093 415.316 480.591 416.404 474.938 418.728C471.274 420.274 467.927 422.477 465.063 425.228C459.294 430.579 455.246 437.514 453.432 445.156C452.976 447.55 452.049 449.83 450.707 451.867C449.365 453.903 447.632 455.656 445.61 457.025C437.698 462.334 423.204 462.025 412.119 459.363C392.769 454.79 378.009 444.098 374.452 432.023C372.725 426.273 371.883 420.257 364.12 418.007C359.101 416.536 348.592 417.566 350.836 423.89C351.65 425.623 352.714 427.228 353.994 428.655C356.046 431.346 358.23 436.42 352.134 438.053C350.161 438.47 348.132 438.57 346.127 438.347C326.526 437.038 308.489 430.523 296.799 421.346C292.988 418.362 289.756 414.708 287.264 410.565C285.877 408.286 285.375 405.83 283.855 403.58C282.402 401.414 280.352 399.713 277.951 398.682C270.423 395.461 252.741 397.138 251.501 404.197C250.837 408.021 253.228 412.168 254.453 415.801C254.673 416.259 254.725 416.779 254.6 417.272C254.246 418.198 252.844 418.463 251.648 418.537C235.84 419.581 220.505 413.463 207.236 407.08C193.184 400.315 177.716 391.505 158.188 391.402C154.15 391.218 150.109 391.68 146.218 392.77C145.233 393.032 144.316 393.503 143.531 394.152C143.054 394.647 142.737 395.274 142.621 395.95C142.506 396.627 142.596 397.322 142.882 397.947C143.516 399.242 144.458 400.363 145.627 401.212C151.531 406.006 159.797 407.948 167.339 410.418C189.717 417.646 211.354 426.978 231.959 438.288C234.04 439.45 237.73 442.141 234.807 444.171C231.885 446.201 225.951 444.892 222.453 444.318C216.106 443.289 210.01 441.641 203.826 440.097C195.649 438.038 186.114 436.17 177.258 437.876C172.579 438.774 168.402 440.685 166.203 443.274C165.445 444.031 164.946 445.007 164.776 446.063C164.607 447.119 164.775 448.202 165.258 449.157C168.299 454.554 182.158 456.878 189.73 459.452C199.425 462.749 208.905 466.644 218.114 471.114C225.981 474.997 233.287 479.247 241.257 483.057C269.729 496.661 309.493 498.411 345.05 499.734C383.647 501.205 422.422 499.955 460.916 497.822C488.96 496.263 516.487 493.19 543.97 489.572C551.867 488.542 559.719 487.277 567.586 486.204C575.572 485.292 583.47 483.732 591.202 481.542C593.98 480.836 596.573 479.541 598.804 477.747C600.914 475.791 601.578 473.232 597.8 472.497C589.889 470.923 581.741 472.717 574.007 474.115C565.328 475.703 556.728 477.532 548.206 479.6C544.322 480.633 540.379 481.433 536.398 481.998C532.398 482.557 528.324 482.297 524.428 481.233C523.159 480.836 521.771 480.13 521.697 479.012C521.624 477.894 522.686 477.188 523.779 476.762C539.705 470.467 556.619 466.467 573.653 462.79C585.21 460.29 596.973 458.76 608.619 456.804C619.231 455.025 630.419 454.613 639.615 447.907C641.445 446.729 642.867 445.02 643.689 443.009C644.088 441.974 644.185 440.847 643.969 439.759Z" fill="#407BFF"/>
<path opacity="0.3" d="M187.236 380.21C182.911 367.959 167.502 346.266 164.254 359.076C162.513 366.268 187.236 380.21 187.236 380.21Z" fill="#407BFF"/>
<path opacity="0.3" d="M574.213 404.329C582.449 396.844 592.722 392.388 594.051 398.976C595.291 405.211 574.213 404.329 574.213 404.329Z" fill="#407BFF"/>
<path opacity="0.3" d="M236.313 344.795C230.674 341.853 226.276 337.133 229.582 335.162C232.888 333.192 236.313 344.795 236.313 344.795Z" fill="#407BFF"/>
<path d="M1340.95 15.1488C1340.73 17.9081 1339.69 20.5381 1337.96 22.7062C1336.24 24.8743 1333.92 26.4833 1331.28 27.3297C1328.64 28.1761 1325.82 28.2219 1323.15 27.4614C1320.49 26.7008 1318.12 25.1681 1316.32 23.0568C1314.53 20.9456 1313.41 18.3507 1313.09 15.6002C1312.78 12.8498 1313.28 10.0673 1314.55 7.60446C1315.81 5.14163 1317.78 3.10908 1320.2 1.76381C1322.62 0.418552 1325.38 -0.179051 1328.14 0.046575C1331.84 0.352964 1335.27 2.11548 1337.67 4.94706C1340.07 7.77864 1341.25 11.4478 1340.95 15.1488Z" fill="#ECF2FF"/>
<path d="M601.954 35.1488C601.727 37.9081 600.686 40.5381 598.965 42.7062C597.243 44.8743 594.917 46.4833 592.281 47.3297C589.645 48.1761 586.817 48.2219 584.154 47.4614C581.492 46.7008 579.115 45.1681 577.324 43.0568C575.533 40.9456 574.408 38.3507 574.092 35.6002C573.775 32.8498 574.281 30.0673 575.546 27.6045C576.811 25.1416 578.778 23.1091 581.198 21.7638C583.618 20.4186 586.382 19.8209 589.141 20.0466C592.842 20.353 596.27 22.1155 598.672 24.9471C601.075 27.7786 602.255 31.4478 601.954 35.1488Z" fill="#ECF2FF"/>
<path d="M65.9703 129.739C65.8243 131.512 65.1556 133.203 64.0487 134.597C62.9418 135.991 61.4466 137.025 59.7519 137.569C58.0572 138.113 56.2393 138.143 54.5279 137.654C52.8165 137.165 51.2884 136.179 50.137 134.822C48.9856 133.465 48.2624 131.797 48.059 130.029C47.8556 128.261 48.1809 126.472 48.994 124.889C49.8071 123.305 51.0714 121.999 52.6271 121.134C54.1827 120.269 55.9599 119.885 57.7338 120.03C60.1129 120.227 62.3165 121.36 63.8608 123.18C65.4051 125.001 66.1638 127.359 65.9703 129.739Z" fill="#ECF2FF"/>
<path d="M102.954 335.149C102.727 337.908 101.686 340.538 99.9646 342.706C98.2429 344.874 95.9169 346.483 93.2807 347.33C90.6446 348.176 87.8166 348.222 85.1545 347.461C82.4923 346.701 80.1154 345.168 78.3242 343.057C76.5331 340.946 75.4082 338.351 75.0918 335.6C74.7753 332.85 75.2815 330.067 76.5463 327.604C77.8111 325.142 79.7778 323.109 82.1977 321.764C84.6176 320.419 87.382 319.821 90.1415 320.047C93.8422 320.353 97.2701 322.115 99.6723 324.947C102.075 327.779 103.255 331.448 102.954 335.149Z" fill="#C6D7FF"/>
<path d="M739.954 523.149C739.727 525.908 738.686 528.538 736.965 530.706C735.243 532.874 732.917 534.483 730.281 535.33C727.645 536.176 724.817 536.222 722.154 535.461C719.492 534.701 717.115 533.168 715.324 531.057C713.533 528.946 712.408 526.351 712.092 523.6C711.775 520.85 712.281 518.067 713.546 515.604C714.811 513.142 716.778 511.109 719.198 509.764C721.618 508.419 724.382 507.821 727.141 508.047C730.842 508.353 734.27 510.115 736.672 512.947C739.075 515.779 740.255 519.448 739.954 523.149Z" fill="#C6D7FF"/>
<path d="M1368.95 510.149C1368.73 512.908 1367.69 515.538 1365.96 517.706C1364.24 519.874 1361.92 521.483 1359.28 522.33C1356.64 523.176 1353.82 523.222 1351.15 522.461C1348.49 521.701 1346.12 520.168 1344.32 518.057C1342.53 515.946 1341.41 513.351 1341.09 510.6C1340.78 507.85 1341.28 505.067 1342.55 502.604C1343.81 500.142 1345.78 498.109 1348.2 496.764C1350.62 495.419 1353.38 494.821 1356.14 495.047C1359.84 495.353 1363.27 497.115 1365.67 499.947C1368.07 502.779 1369.25 506.448 1368.95 510.149Z" fill="#C6D7FF"/>
<path opacity="0.7" d="M714.199 121.836H712.624C710.112 121.663 707.658 120.994 705.406 119.868C703.153 118.741 701.146 117.18 699.5 115.273C697.881 113.373 696.656 111.171 695.896 108.793C695.135 106.416 694.855 103.911 695.071 101.425C695.376 97.7482 696.746 94.2401 699.012 91.3289C701.278 88.4176 704.342 86.2292 707.831 85.0306C711.32 83.832 715.082 83.6753 718.658 84.5794C722.234 85.4835 725.47 87.4093 727.97 90.1219C730.471 92.8345 732.127 96.2164 732.738 99.8548C733.349 103.493 732.887 107.231 731.409 110.611C729.931 113.992 727.502 116.869 724.416 118.891C721.331 120.913 717.724 121.994 714.035 122L714.199 121.836ZM714.199 86.2642C710.468 86.2827 706.854 87.5731 703.954 89.9223C701.055 92.2716 699.042 95.5393 698.25 99.1863C697.457 102.833 697.931 106.642 699.594 109.983C701.257 113.324 704.009 115.998 707.396 117.565C710.783 119.131 714.603 119.495 718.225 118.598C721.847 117.7 725.055 115.595 727.32 112.628C729.585 109.662 730.77 106.012 730.681 102.281C730.593 98.5499 729.234 94.9605 726.831 92.1053C725.431 90.4456 723.715 89.0805 721.783 88.0891C719.851 87.0977 717.742 86.4997 715.577 86.3298L714.199 86.2642Z" fill="#9EBBFF"/>
<path opacity="0.7" d="M210.157 167.87H208.914C206.93 167.734 204.993 167.206 203.215 166.317C201.436 165.427 199.852 164.194 198.553 162.689C197.275 161.189 196.307 159.451 195.707 157.574C195.107 155.697 194.885 153.72 195.056 151.756C195.297 148.854 196.378 146.084 198.167 143.786C199.956 141.488 202.375 139.76 205.13 138.814C207.884 137.867 210.854 137.744 213.677 138.457C216.501 139.171 219.055 140.692 221.029 142.833C223.003 144.975 224.311 147.645 224.793 150.517C225.275 153.389 224.911 156.34 223.744 159.009C222.577 161.678 220.659 163.949 218.223 165.545C215.788 167.142 212.94 167.995 210.028 168L210.157 167.87ZM210.157 139.788C207.211 139.802 204.358 140.821 202.069 142.676C199.78 144.53 198.191 147.11 197.566 149.989C196.94 152.868 197.314 155.875 198.627 158.513C199.94 161.15 202.112 163.262 204.786 164.498C207.46 165.735 210.476 166.023 213.336 165.314C216.195 164.606 218.728 162.943 220.516 160.601C222.304 158.259 223.24 155.378 223.17 152.432C223.099 149.487 222.027 146.653 220.13 144.399C219.024 143.089 217.67 142.011 216.145 141.228C214.62 140.446 212.954 139.973 211.245 139.839L210.157 139.788Z" fill="#9EBBFF"/>
<path opacity="0.7" d="M19.1992 582.836H17.6243C15.1117 582.663 12.6582 581.994 10.4055 580.868C8.15284 579.741 6.14568 578.18 4.50002 576.273C2.88114 574.373 1.65594 572.171 0.895529 569.793C0.135122 567.416 -0.145291 564.911 0.0706056 562.425C0.37642 558.748 1.74586 555.24 4.01178 552.329C6.27771 549.418 9.34208 547.229 12.8308 546.031C16.3195 544.832 20.0817 544.675 23.658 545.579C27.2344 546.483 30.4702 548.409 32.9705 551.122C35.4707 553.835 37.1273 557.216 37.7379 560.855C38.3485 564.493 37.8868 568.231 36.4091 571.611C34.9314 574.992 32.5016 577.869 29.4164 579.891C26.3312 581.913 22.724 582.994 19.0352 583L19.1992 582.836ZM19.1992 547.264C15.4676 547.283 11.8538 548.573 8.95421 550.922C6.05459 553.272 4.04242 556.539 3.24974 560.186C2.45706 563.833 2.93123 567.642 4.59404 570.983C6.25685 574.324 9.00888 576.998 12.396 578.565C15.7832 580.131 19.6031 580.495 23.2252 579.598C26.8474 578.7 30.0555 576.595 32.32 573.628C34.5845 570.662 35.7702 567.012 35.6814 563.281C35.5925 559.55 34.2345 555.961 31.8313 553.105C30.431 551.446 28.7151 550.081 26.7833 549.089C24.8514 548.098 22.742 547.5 20.5773 547.33L19.1992 547.264Z" fill="#C6D7FF"/>
<path opacity="0.7" d="M670.262 353.784H668.19C664.884 353.557 661.655 352.677 658.691 351.195C655.727 349.712 653.086 347.657 650.921 345.148C648.791 342.649 647.179 339.751 646.178 336.623C645.178 333.495 644.809 330.199 645.093 326.927C645.495 322.09 647.297 317.474 650.279 313.643C653.26 309.813 657.292 306.933 661.883 305.356C666.473 303.779 671.423 303.573 676.129 304.762C680.835 305.952 685.092 308.486 688.382 312.055C691.672 315.624 693.852 320.074 694.655 324.862C695.459 329.649 694.851 334.567 692.907 339.015C690.962 343.463 687.765 347.248 683.706 349.909C679.646 352.57 674.9 353.992 670.046 354L670.262 353.784ZM670.262 306.979C665.352 307.004 660.597 308.701 656.782 311.793C652.967 314.884 650.319 319.183 649.276 323.982C648.233 328.781 648.857 333.792 651.045 338.188C653.233 342.584 656.854 346.103 661.311 348.164C665.767 350.225 670.793 350.704 675.56 349.523C680.326 348.343 684.547 345.572 687.526 341.669C690.506 337.766 692.066 332.963 691.949 328.054C691.832 323.145 690.045 318.422 686.883 314.665C685.041 312.481 682.783 310.685 680.241 309.38C677.699 308.076 674.924 307.289 672.075 307.065L670.262 306.979Z" fill="#C6D7FF"/>
<path opacity="0.7" d="M1381.23 349.81H1379.41C1376.5 349.61 1373.66 348.836 1371.05 347.531C1368.44 346.227 1366.12 344.419 1364.21 342.211C1362.34 340.011 1360.92 337.461 1360.04 334.708C1359.16 331.956 1358.83 329.055 1359.08 326.176C1359.44 321.919 1361.02 317.857 1363.65 314.486C1366.27 311.115 1369.82 308.581 1373.86 307.193C1377.9 305.806 1382.25 305.624 1386.39 306.671C1390.53 307.718 1394.28 309.948 1397.18 313.089C1400.07 316.229 1401.99 320.145 1402.7 324.358C1403.4 328.571 1402.87 332.899 1401.16 336.813C1399.45 340.727 1396.63 344.058 1393.06 346.4C1389.49 348.742 1385.31 349.993 1381.04 350L1381.23 349.81ZM1381.23 308.622C1376.91 308.643 1372.73 310.137 1369.37 312.857C1366.01 315.578 1363.68 319.361 1362.76 323.584C1361.85 327.807 1362.39 332.217 1364.32 336.085C1366.24 339.954 1369.43 343.051 1373.35 344.864C1377.28 346.678 1381.7 347.1 1385.89 346.061C1390.09 345.022 1393.8 342.583 1396.42 339.149C1399.05 335.714 1400.42 331.488 1400.32 327.168C1400.21 322.847 1398.64 318.691 1395.86 315.385C1394.24 313.463 1392.25 311.883 1390.01 310.735C1387.78 309.587 1385.33 308.894 1382.83 308.698L1381.23 308.622Z" fill="#9EBBFF"/>
</svg>
