<svg width="1422" height="708" viewBox="0 0 1422 708" fill="none" xmlns="http://www.w3.org/2000/svg">
<g clip-path="url(#clip0_15438_855)">
<path d="M1358.95 15.1488C1358.73 17.9081 1357.69 20.5381 1355.96 22.7062C1354.24 24.8743 1351.92 26.4833 1349.28 27.3297C1346.64 28.1761 1343.82 28.2219 1341.15 27.4614C1338.49 26.7008 1336.12 25.1681 1334.32 23.0568C1332.53 20.9456 1331.41 18.3507 1331.09 15.6002C1330.78 12.8498 1331.28 10.0673 1332.55 7.60446C1333.81 5.14163 1335.78 3.10908 1338.2 1.76381C1340.62 0.418552 1343.38 -0.179051 1346.14 0.046575C1349.84 0.352964 1353.27 2.11548 1355.67 4.94706C1358.07 7.77864 1359.25 11.4478 1358.95 15.1488Z" fill="#ECF2FF"/>
<path d="M619.954 34.1488C619.727 36.9081 618.686 39.5381 616.965 41.7062C615.243 43.8743 612.917 45.4833 610.281 46.3297C607.645 47.1761 604.817 47.2219 602.154 46.4614C599.492 45.7008 597.115 44.1681 595.324 42.0568C593.533 39.9456 592.408 37.3507 592.092 34.6002C591.775 31.8498 592.281 29.0673 593.546 26.6045C594.811 24.1416 596.778 22.1091 599.198 20.7638C601.618 19.4186 604.382 18.8209 607.141 19.0466C610.842 19.353 614.27 21.1155 616.672 23.9471C619.075 26.7786 620.255 30.4478 619.954 34.1488Z" fill="#ECF2FF"/>
<path d="M83.9703 128.739C83.8243 130.512 83.1556 132.203 82.0487 133.597C80.9418 134.991 79.4466 136.025 77.7519 136.569C76.0572 137.113 74.2393 137.143 72.5279 136.654C70.8165 136.165 69.2884 135.179 68.137 133.822C66.9856 132.465 66.2624 130.797 66.059 129.029C65.8556 127.261 66.1809 125.472 66.994 123.889C67.8071 122.305 69.0714 120.999 70.6271 120.134C72.1827 119.269 73.9599 118.885 75.7338 119.03C78.1129 119.227 80.3165 120.36 81.8608 122.18C83.4051 124.001 84.1638 126.359 83.9703 128.739Z" fill="#ECF2FF"/>
<path d="M120.954 334.149C120.727 336.908 119.686 339.538 117.965 341.706C116.243 343.874 113.917 345.483 111.281 346.33C108.645 347.176 105.817 347.222 103.154 346.461C100.492 345.701 98.1154 344.168 96.3242 342.057C94.5331 339.946 93.4082 337.351 93.0918 334.6C92.7753 331.85 93.2815 329.067 94.5463 326.604C95.8111 324.142 97.7778 322.109 100.198 320.764C102.618 319.419 105.382 318.821 108.141 319.047C111.842 319.353 115.27 321.115 117.672 323.947C120.075 326.779 121.255 330.448 120.954 334.149Z" fill="#C6D7FF"/>
<path d="M757.954 522.149C757.727 524.908 756.686 527.538 754.965 529.706C753.243 531.874 750.917 533.483 748.281 534.33C745.645 535.176 742.817 535.222 740.154 534.461C737.492 533.701 735.115 532.168 733.324 530.057C731.533 527.946 730.408 525.351 730.092 522.6C729.775 519.85 730.281 517.067 731.546 514.604C732.811 512.142 734.778 510.109 737.198 508.764C739.618 507.419 742.382 506.821 745.141 507.047C748.842 507.353 752.27 509.115 754.672 511.947C757.075 514.779 758.255 518.448 757.954 522.149Z" fill="#C6D7FF"/>
<path d="M1386.95 509.149C1386.73 511.908 1385.69 514.538 1383.96 516.706C1382.24 518.874 1379.92 520.483 1377.28 521.33C1374.64 522.176 1371.82 522.222 1369.15 521.461C1366.49 520.701 1364.12 519.168 1362.32 517.057C1360.53 514.946 1359.41 512.351 1359.09 509.6C1358.78 506.85 1359.28 504.067 1360.55 501.604C1361.81 499.142 1363.78 497.109 1366.2 495.764C1368.62 494.419 1371.38 493.821 1374.14 494.047C1377.84 494.353 1381.27 496.115 1383.67 498.947C1386.07 501.779 1387.25 505.448 1386.95 509.149Z" fill="#C6D7FF"/>
<path opacity="0.7" d="M732.199 120.836H730.624C728.112 120.663 725.658 119.994 723.406 118.868C721.153 117.741 719.146 116.18 717.5 114.273C715.881 112.373 714.656 110.171 713.896 107.793C713.135 105.416 712.855 102.911 713.071 100.425C713.376 96.7482 714.746 93.2401 717.012 90.3289C719.278 87.4176 722.342 85.2292 725.831 84.0306C729.32 82.832 733.082 82.6753 736.658 83.5794C740.234 84.4835 743.47 86.4093 745.97 89.1219C748.471 91.8345 750.127 95.2164 750.738 98.8548C751.349 102.493 750.887 106.231 749.409 109.611C747.931 112.992 745.502 115.869 742.416 117.891C739.331 119.913 735.724 120.994 732.035 121L732.199 120.836ZM732.199 85.2642C728.468 85.2827 724.854 86.5731 721.954 88.9223C719.055 91.2716 717.042 94.5393 716.25 98.1863C715.457 101.833 715.931 105.642 717.594 108.983C719.257 112.324 722.009 114.998 725.396 116.565C728.783 118.131 732.603 118.495 736.225 117.598C739.847 116.7 743.055 114.595 745.32 111.628C747.585 108.662 748.77 105.012 748.681 101.281C748.593 97.5499 747.234 93.9605 744.831 91.1053C743.431 89.4456 741.715 88.0805 739.783 87.0891C737.851 86.0977 735.742 85.4997 733.577 85.3298L732.199 85.2642Z" fill="#9EBBFF"/>
<path opacity="0.7" d="M228.157 166.87H226.914C224.93 166.734 222.993 166.206 221.215 165.317C219.436 164.427 217.852 163.194 216.553 161.689C215.275 160.189 214.307 158.451 213.707 156.574C213.107 154.697 212.885 152.72 213.056 150.756C213.297 147.854 214.378 145.084 216.167 142.786C217.956 140.488 220.375 138.76 223.13 137.814C225.884 136.867 228.854 136.744 231.677 137.457C234.501 138.171 237.055 139.692 239.029 141.833C241.003 143.975 242.311 146.645 242.793 149.517C243.275 152.389 242.911 155.34 241.744 158.009C240.577 160.678 238.659 162.949 236.223 164.545C233.788 166.142 230.94 166.995 228.028 167L228.157 166.87ZM228.157 138.788C225.211 138.802 222.358 139.821 220.069 141.676C217.78 143.53 216.191 146.11 215.566 148.989C214.94 151.868 215.314 154.875 216.627 157.513C217.94 160.15 220.112 162.262 222.786 163.498C225.46 164.735 228.476 165.023 231.336 164.314C234.195 163.606 236.728 161.943 238.516 159.601C240.304 157.259 241.24 154.378 241.17 151.432C241.099 148.487 240.027 145.653 238.13 143.399C237.024 142.089 235.67 141.011 234.145 140.228C232.62 139.446 230.954 138.973 229.245 138.839L228.157 138.788Z" fill="#9EBBFF"/>
<path opacity="0.7" d="M37.1992 581.836H35.6243C33.1117 581.663 30.6582 580.994 28.4055 579.868C26.1528 578.741 24.1457 577.18 22.5 575.273C20.8811 573.373 19.6559 571.171 18.8955 568.793C18.1351 566.416 17.8547 563.911 18.0706 561.425C18.3764 557.748 19.7459 554.24 22.0118 551.329C24.2777 548.418 27.3421 546.229 30.8308 545.031C34.3195 543.832 38.0817 543.675 41.658 544.579C45.2344 545.483 48.4702 547.409 50.9705 550.122C53.4707 552.835 55.1273 556.216 55.7379 559.855C56.3485 563.493 55.8868 567.231 54.4091 570.611C52.9314 573.992 50.5016 576.869 47.4164 578.891C44.3312 580.913 40.724 581.994 37.0352 582L37.1992 581.836ZM37.1992 546.264C33.4676 546.283 29.8538 547.573 26.9542 549.922C24.0546 552.272 22.0424 555.539 21.2497 559.186C20.4571 562.833 20.9312 566.642 22.594 569.983C24.2568 573.324 27.0089 575.998 30.396 577.565C33.7832 579.131 37.6031 579.495 41.2252 578.598C44.8474 577.7 48.0555 575.595 50.32 572.628C52.5845 569.662 53.7702 566.012 53.6814 562.281C53.5925 558.55 52.2345 554.961 49.8313 552.105C48.431 550.446 46.7151 549.081 44.7833 548.089C42.8514 547.098 40.742 546.5 38.5773 546.33L37.1992 546.264Z" fill="#C6D7FF"/>
<path opacity="0.7" d="M688.262 352.784H686.19C682.884 352.557 679.655 351.677 676.691 350.195C673.727 348.712 671.086 346.657 668.921 344.148C666.791 341.649 665.179 338.751 664.178 335.623C663.178 332.495 662.809 329.199 663.093 325.927C663.495 321.09 665.297 316.474 668.279 312.643C671.26 308.813 675.292 305.933 679.883 304.356C684.473 302.779 689.423 302.573 694.129 303.762C698.835 304.952 703.092 307.486 706.382 311.055C709.672 314.624 711.852 319.074 712.655 323.862C713.459 328.649 712.851 333.567 710.907 338.015C708.962 342.463 705.765 346.248 701.706 348.909C697.646 351.57 692.9 352.992 688.046 353L688.262 352.784ZM688.262 305.979C683.352 306.004 678.597 307.701 674.782 310.793C670.967 313.884 668.319 318.183 667.276 322.982C666.233 327.781 666.857 332.792 669.045 337.188C671.233 341.584 674.854 345.103 679.311 347.164C683.767 349.225 688.793 349.704 693.56 348.523C698.326 347.343 702.547 344.572 705.526 340.669C708.506 336.766 710.066 331.963 709.949 327.054C709.832 322.145 708.045 317.422 704.883 313.665C703.041 311.481 700.783 309.685 698.241 308.38C695.699 307.076 692.924 306.289 690.075 306.065L688.262 305.979Z" fill="#C6D7FF"/>
<path opacity="0.7" d="M1400.23 348.81H1398.41C1395.5 348.61 1392.66 347.836 1390.05 346.531C1387.44 345.227 1385.12 343.419 1383.21 341.211C1381.34 339.011 1379.92 336.461 1379.04 333.708C1378.16 330.956 1377.83 328.055 1378.08 325.176C1378.44 320.919 1380.02 316.857 1382.65 313.486C1385.27 310.115 1388.82 307.581 1392.86 306.193C1396.9 304.806 1401.25 304.624 1405.39 305.671C1409.53 306.718 1413.28 308.948 1416.18 312.089C1419.07 315.229 1420.99 319.145 1421.7 323.358C1422.4 327.571 1421.87 331.899 1420.16 335.813C1418.45 339.727 1415.63 343.058 1412.06 345.4C1408.49 347.742 1404.31 348.993 1400.04 349L1400.23 348.81ZM1400.23 307.622C1395.91 307.643 1391.73 309.137 1388.37 311.857C1385.01 314.578 1382.68 318.361 1381.76 322.584C1380.85 326.807 1381.39 331.217 1383.32 335.085C1385.24 338.954 1388.43 342.051 1392.35 343.864C1396.28 345.678 1400.7 346.1 1404.89 345.061C1409.09 344.022 1412.8 341.583 1415.42 338.149C1418.05 334.714 1419.42 330.488 1419.32 326.168C1419.21 321.847 1417.64 317.691 1414.86 314.385C1413.24 312.463 1411.25 310.883 1409.01 309.735C1406.78 308.587 1404.33 307.894 1401.83 307.698L1400.23 307.622Z" fill="#9EBBFF"/>
</g>
<g clip-path="url(#clip1_15438_855)">
<path d="M407 708C603.175 708 762.206 698.751 762.206 687.341C762.206 675.932 603.175 666.683 407 666.683C210.825 666.683 51.7935 675.932 51.7935 687.341C51.7935 698.751 210.825 708 407 708Z" fill="#F5F5F5"/>
<path opacity="0.1" d="M200.534 543.115C200.753 541.47 201.598 539.973 202.893 538.931C204.188 537.888 205.835 537.381 207.495 537.512C223.177 537.275 237.851 548.316 251.463 560.16C254.486 562.769 257.765 565.47 261.154 562.733C262.203 561.869 262.968 560.712 263.353 559.411C263.939 557.285 263.939 555.041 263.353 552.915C262.849 551.159 262.009 549.517 260.88 548.078C254.962 540.322 247.762 536.599 241.918 528.588C238.645 523.998 235.933 519.035 233.839 513.806C232.007 509.207 228.343 501.779 229.809 495.556C231.439 488.11 237.027 488.749 240.416 489.771C251.133 492.964 261.136 500.575 270.223 510.046C279.914 520.12 288.689 532.256 297.428 544.319C300.726 548.9 304.206 553.608 308.42 555.269C312.634 556.93 317.965 554.247 319.742 547.64C321.519 541.034 319.43 533.442 318.991 526.872C318.403 519.032 318.784 511.15 320.126 503.403C320.722 499.308 322.109 495.366 324.212 491.796C328.938 484.898 335.937 487.325 340.517 492.545C344.012 496.911 346.716 501.852 348.504 507.144C353.643 521.768 356.726 537.029 357.664 552.495C358.36 562.076 359.826 572.058 363.783 579.486C370.177 591.494 382.103 590.545 391.355 584.249C407.458 573.299 419.879 548.553 423.195 520.886C424.276 511.871 424.55 502.126 427.848 494.57C430.724 488.037 438.107 483.621 441.716 490.665C443.17 494.187 443.577 498.051 442.889 501.797C442.242 505.507 441.33 509.167 440.159 512.747C438.327 518.952 436.495 530.577 441.441 534.209C442.179 534.655 443.005 534.935 443.863 535.03C444.721 535.124 445.589 535.031 446.406 534.756C462.601 531.398 477.66 516.215 487.553 495.027C491.137 487.053 493.876 478.729 495.724 470.189C496.914 464.97 497.409 459.367 498.728 454.184C499.573 450.105 501.285 446.253 503.748 442.887C510.05 435.369 524.596 438.909 525.42 455.023C525.915 464.349 523.423 473.474 522.508 482.599C521.94 488.293 525.475 488.256 528.113 488.074C540.754 486.796 551.929 474.094 561.841 460.882C573.62 445.169 586.664 424.766 602.749 424.163C606.413 424.036 612.514 424.51 614.712 430.149C615.731 433.604 615.731 437.279 614.712 440.734C611.451 454.202 601.888 461.155 594.56 467.816C573.9 487.12 555.728 508.907 540.461 532.676C538.134 536.326 535.735 542.348 537.951 545.925C538.376 546.606 538.995 547.144 539.73 547.469C540.466 547.795 541.282 547.892 542.073 547.75C549.639 547.166 556.729 541.18 563.636 536.216C570.543 531.252 578.384 526.909 585.62 530.65C587.851 531.984 589.794 533.744 591.338 535.83C592.882 537.917 593.996 540.287 594.615 542.804C595.908 547.216 596.116 551.873 595.22 556.382C592.563 568.773 581.077 574.34 574.756 580.453C566.053 588.817 558.085 597.908 550.94 607.627C544.345 616.624 538.116 626.479 531.521 635.312C507.705 666.938 474.729 671.628 445.417 675.297C413.522 679.275 381.553 677.122 349.842 672.942C326.777 669.877 304.042 663.343 281.526 655.587C273.795 652.795 266.119 649.747 258.535 646.134C250.382 642.265 238.383 639.874 235.25 624.636C234.59 621.351 235.36 618.686 237.54 617.464C244.3 613.631 253.936 618.759 260.293 622.135C269.069 626.807 277.386 633.468 286.399 637.064C287.848 637.773 289.426 638.182 291.039 638.267C292.651 638.352 294.263 638.11 295.779 637.556C297.265 636.935 298.489 635.819 299.242 634.399C300.2 632.548 300.435 630.409 299.901 628.395C299.53 627.308 298.901 626.325 298.069 625.53C281.845 608.966 262.462 595.8 241.057 586.804C234.187 583.866 227.171 581.457 220.557 577.296C215.212 574.003 210.598 569.655 207 564.521C203.923 559.612 198.976 550.944 200.534 543.115Z" fill="#407BFF"/>
<path opacity="0.1" d="M550.94 408.961C549.716 410.225 548.112 411.057 546.371 411.331C544.63 411.606 542.846 411.309 541.29 410.484C539.733 409.659 538.489 408.352 537.744 406.76C537 405.169 536.796 403.379 537.163 401.661C543.484 371.093 557.224 348.865 573.565 360.399C585.766 368.994 566.64 392.701 550.94 408.961Z" fill="#407BFF"/>
<path opacity="0.3" d="M506.606 423.233C511.604 420.485 515.84 416.546 518.938 411.77C522.036 406.993 523.898 401.526 524.358 395.858L536.742 245.572C537.384 237.847 536.398 230.073 533.845 222.75C531.293 215.427 527.231 208.717 521.921 203.051L483.761 162.336C481.661 160.084 480.054 157.423 479.042 154.52C478.029 151.617 477.634 148.536 477.88 145.473L479.712 123.464L380.949 115.379L379.117 137.388C378.864 140.45 377.973 143.426 376.499 146.126C375.026 148.825 373.004 151.188 370.561 153.065L326.227 187.064C320.064 191.796 314.961 197.757 311.244 204.567C307.528 211.377 305.281 218.885 304.646 226.611L292.243 376.897C291.774 382.557 292.718 388.246 294.991 393.455C297.264 398.664 300.794 403.233 305.269 406.753C300.271 409.5 296.035 413.438 292.941 418.215C289.846 422.992 287.988 428.46 287.535 434.128L271.725 625.749C270.98 634.859 273.896 643.891 279.831 650.862C285.767 657.832 294.237 662.17 303.382 662.923L466.43 676.264C470.958 676.636 475.515 676.116 479.841 674.734C484.167 673.351 488.178 671.133 491.643 668.207C495.109 665.28 497.961 661.701 500.038 657.676C502.115 653.651 503.376 649.257 503.748 644.747L519.558 453.125C520.042 447.465 519.112 441.774 516.852 436.558C514.592 431.342 511.072 426.764 506.606 423.233Z" fill="#407BFF"/>
<path opacity="0.3" d="M380.977 115.413L379.576 132.383L478.318 140.469L479.718 123.5L380.977 115.413Z" fill="#407BFF"/>
<path opacity="0.3" d="M521.005 206.974L482.845 166.223C482.845 166.223 458.241 167.281 477.349 197.338C493.635 222.76 522.013 218.8 521.005 206.974Z" fill="white"/>
<path opacity="0.2" d="M271.743 625.676C270.998 634.786 273.914 643.818 279.85 650.789C285.785 657.759 294.256 662.097 303.4 662.85L466.448 676.191C470.976 676.563 475.533 676.043 479.859 674.661C484.186 673.278 488.196 671.06 491.662 668.133C495.127 665.207 497.98 661.628 500.057 657.603C502.134 653.578 503.394 649.184 503.766 644.674L271.743 625.676Z" fill="#407BFF"/>
<path opacity="0.3" d="M513.879 210.496C518.14 215.049 521.401 220.437 523.451 226.317C525.502 232.196 526.297 238.438 525.787 244.642L513.402 394.946C513.08 398.809 511.805 402.534 509.689 405.788C507.573 409.042 504.682 411.724 501.275 413.597L486.857 421.554L499.772 431.755C502.828 434.154 505.24 437.27 506.794 440.824C508.348 444.377 508.994 448.259 508.676 452.122L492.866 643.743C492.357 649.953 489.395 655.708 484.631 659.745C479.868 663.782 473.691 665.772 467.456 665.278L304.408 651.937C301.312 651.693 298.294 650.843 295.527 649.437C292.761 648.031 290.299 646.096 288.283 643.742C286.267 641.388 284.736 638.661 283.778 635.718C282.82 632.775 282.453 629.673 282.699 626.588L298.509 434.967C298.825 431.102 300.096 427.374 302.208 424.116C304.321 420.859 307.211 418.173 310.618 416.298L325.036 408.341L312.212 398.139C309.156 395.74 306.744 392.624 305.191 389.071C303.637 385.517 302.991 381.636 303.309 377.773L315.711 227.487C316.226 221.283 318.035 215.254 321.022 209.786C324.009 204.318 328.11 199.531 333.06 195.732C347.716 186.297 386.188 209.785 431.237 213.471C476.286 217.158 504.462 205.77 513.879 210.496Z" fill="#407BFF"/>
<path opacity="0.2" d="M431.146 213.489C386.115 209.839 347.606 186.297 332.95 195.732C358.598 209.785 387.91 218.49 430.431 221.975C472.952 225.461 513.879 210.496 513.879 210.496C504.462 205.77 476.176 217.194 431.146 213.489Z" fill="#407BFF"/>
<path opacity="0.2" d="M292.262 376.897C291.793 382.557 292.737 388.246 295.009 393.455C297.282 398.664 300.813 403.233 305.287 406.753L506.606 423.178C511.604 420.43 515.84 416.492 518.938 411.715C522.036 406.938 523.898 401.472 524.358 395.803L292.262 376.897Z" fill="#407BFF"/>
<path d="M481.783 96.5846L383.317 88.4954C379.193 88.1566 375.576 91.2125 375.238 95.3211L373.274 119.185C372.936 123.293 376.005 126.898 380.13 127.237L478.595 135.326C482.719 135.665 486.337 132.609 486.675 128.501L488.638 104.637C488.976 100.529 485.907 96.9234 481.783 96.5846Z" fill="#407BFF"/>
<path opacity="0.2" d="M385.126 123.555C385.005 123.546 384.888 123.513 384.78 123.458C384.673 123.404 384.577 123.329 384.499 123.237C384.42 123.145 384.361 123.039 384.324 122.925C384.287 122.81 384.273 122.69 384.283 122.57L386.591 93.6987C386.611 93.4567 386.726 93.2323 386.912 93.0749C387.097 92.9174 387.338 92.8399 387.581 92.8592C387.824 92.8786 388.049 92.9933 388.207 93.1781C388.365 93.3629 388.443 93.6027 388.423 93.8447L386.042 122.697C386.028 122.93 385.925 123.148 385.755 123.308C385.585 123.467 385.36 123.556 385.126 123.555Z" fill="white"/>
<path opacity="0.2" d="M402.988 125.015C402.867 125.006 402.75 124.973 402.642 124.918C402.535 124.864 402.439 124.789 402.361 124.697C402.282 124.605 402.223 124.499 402.186 124.385C402.149 124.27 402.135 124.15 402.145 124.03L404.527 95.1769C404.55 94.9365 404.666 94.7144 404.851 94.5578C405.035 94.4011 405.274 94.3221 405.516 94.3374C405.636 94.3466 405.752 94.3795 405.859 94.4343C405.966 94.4891 406.06 94.5647 406.137 94.6566C406.214 94.7485 406.272 94.8548 406.307 94.9693C406.342 95.0837 406.353 95.204 406.34 95.3229L403.904 124.176C403.881 124.403 403.776 124.615 403.607 124.769C403.438 124.924 403.217 125.012 402.988 125.015Z" fill="white"/>
<path opacity="0.2" d="M420.831 126.548C420.711 126.539 420.594 126.506 420.486 126.451C420.378 126.397 420.283 126.322 420.204 126.23C420.126 126.138 420.067 126.032 420.03 125.918C419.993 125.803 419.979 125.682 419.989 125.563L422.37 96.7099C422.398 96.4712 422.515 96.2518 422.699 96.096C422.883 95.9402 423.119 95.8596 423.36 95.8704C423.48 95.8796 423.598 95.9125 423.705 95.9671C423.813 96.0216 423.908 96.0969 423.987 96.1885C424.065 96.2801 424.125 96.3862 424.162 96.5008C424.199 96.6153 424.212 96.736 424.202 96.8559L421.821 125.709C421.812 125.829 421.779 125.946 421.724 126.053C421.669 126.16 421.593 126.255 421.501 126.333C421.41 126.411 421.303 126.471 421.188 126.507C421.073 126.544 420.952 126.558 420.831 126.548Z" fill="white"/>
<path opacity="0.2" d="M438.694 127.935C438.573 127.926 438.456 127.893 438.348 127.838C438.24 127.784 438.145 127.709 438.066 127.617C437.988 127.525 437.929 127.419 437.892 127.305C437.855 127.19 437.841 127.069 437.851 126.95L440.232 98.0969C440.256 97.8564 440.372 97.6344 440.557 97.4777C440.741 97.3211 440.98 97.242 441.222 97.2574C441.341 97.2665 441.458 97.2994 441.565 97.3542C441.672 97.4091 441.766 97.4846 441.843 97.5765C441.92 97.6684 441.977 97.7747 442.012 97.8892C442.047 98.0036 442.059 98.1239 442.046 98.2429L439.664 127.096C439.658 127.215 439.627 127.331 439.574 127.438C439.521 127.546 439.447 127.641 439.357 127.719C439.266 127.797 439.161 127.857 439.047 127.894C438.933 127.931 438.813 127.945 438.694 127.935Z" fill="white"/>
<path opacity="0.2" d="M456.464 129.395C456.343 129.386 456.226 129.353 456.118 129.298C456.011 129.244 455.915 129.169 455.837 129.077C455.758 128.985 455.699 128.879 455.662 128.765C455.625 128.65 455.611 128.529 455.621 128.41L458.003 99.5568C458.034 99.3199 458.153 99.1029 458.336 98.9479C458.518 98.7929 458.752 98.7108 458.992 98.7173C459.113 98.7266 459.23 98.7594 459.338 98.814C459.445 98.8686 459.541 98.9438 459.619 99.0354C459.698 99.127 459.757 99.2331 459.794 99.3477C459.831 99.4622 459.845 99.5829 459.835 99.7028L457.453 128.556C457.446 128.676 457.415 128.795 457.361 128.903C457.307 129.011 457.231 129.108 457.139 129.186C457.046 129.265 456.939 129.324 456.823 129.36C456.707 129.396 456.585 129.408 456.464 129.395Z" fill="white"/>
<path opacity="0.2" d="M474.399 130.855C474.279 130.846 474.161 130.813 474.054 130.758C473.946 130.704 473.85 130.629 473.772 130.537C473.694 130.445 473.634 130.339 473.597 130.225C473.56 130.11 473.546 129.989 473.556 129.87L475.865 100.999C475.888 100.758 476.004 100.536 476.189 100.379C476.373 100.223 476.612 100.144 476.854 100.159C477.094 100.182 477.315 100.299 477.469 100.483C477.624 100.668 477.699 100.905 477.678 101.145L475.315 130.016C475.293 130.243 475.187 130.454 475.018 130.609C474.849 130.764 474.629 130.852 474.399 130.855Z" fill="white"/>
<path opacity="0.2" d="M322.728 326.692C319.943 311.344 297.501 312.439 296.219 327.969L292.188 376.897C291.719 382.557 292.663 388.246 294.936 393.455C297.209 398.664 300.739 403.232 305.214 406.753C300.216 409.499 295.98 413.438 292.886 418.215C289.791 422.992 287.933 428.46 287.48 434.128L271.67 625.749C270.925 634.859 273.841 643.891 279.776 650.861C285.712 657.832 294.183 662.17 303.327 662.923L345.463 666.372C350.105 666.751 354.773 666.062 359.105 664.358C363.437 662.654 367.318 659.981 370.448 656.545C373.579 653.109 375.874 649.003 377.158 644.543C378.442 640.083 378.68 635.388 377.853 630.822L322.728 326.692Z" fill="#407BFF"/>
<path opacity="0.3" d="M484.86 577.606C484.569 581.124 483.238 584.477 481.034 587.241C478.831 590.005 475.854 592.056 472.481 593.135C469.107 594.214 465.488 594.273 462.081 593.303C458.674 592.333 455.633 590.379 453.34 587.688C451.048 584.996 449.609 581.688 449.204 578.182C448.799 574.675 449.447 571.128 451.065 567.988C452.684 564.848 455.201 562.257 458.297 560.542C461.394 558.827 464.932 558.065 468.463 558.353C473.199 558.743 477.586 560.99 480.66 564.6C483.735 568.21 485.245 572.888 484.86 577.606Z" fill="#407BFF"/>
<path opacity="0.3" d="M427.903 508.495C427.699 510.985 426.758 513.358 425.2 515.315C423.641 517.272 421.535 518.725 419.148 519.49C416.761 520.254 414.199 520.296 411.788 519.611C409.377 518.925 407.224 517.542 405.601 515.638C403.979 513.733 402.96 511.392 402.673 508.91C402.387 506.428 402.845 503.918 403.991 501.696C405.137 499.474 406.919 497.64 409.111 496.427C411.303 495.214 413.807 494.676 416.306 494.881C419.654 495.16 422.755 496.749 424.928 499.301C427.102 501.853 428.172 505.159 427.903 508.495Z" fill="#407BFF"/>
<path opacity="0.3" d="M374.903 354.669C372.4 354.785 369.918 354.159 367.771 352.871C365.625 351.582 363.91 349.689 362.843 347.43C361.776 345.171 361.405 342.648 361.777 340.179C362.149 337.71 363.247 335.407 364.933 333.559C366.618 331.712 368.816 330.404 371.247 329.8C373.679 329.196 376.236 329.324 378.595 330.167C380.954 331.01 383.009 332.53 384.501 334.537C385.992 336.543 386.854 338.944 386.976 341.438C387.057 343.097 386.809 344.755 386.246 346.318C385.683 347.882 384.816 349.319 383.695 350.548C382.573 351.777 381.22 352.774 379.711 353.481C378.202 354.188 376.569 354.591 374.903 354.669Z" fill="#407BFF"/>
<path opacity="0.3" d="M409.473 279.17C407.698 279.258 405.937 278.82 404.413 277.911C402.888 277.001 401.669 275.662 400.909 274.062C400.15 272.461 399.884 270.673 400.146 268.922C400.407 267.171 401.185 265.537 402.379 264.227C403.574 262.916 405.132 261.989 406.856 261.561C408.581 261.134 410.394 261.225 412.066 261.825C413.737 262.425 415.193 263.505 416.248 264.929C417.303 266.354 417.91 268.058 417.992 269.826C418.101 272.189 417.267 274.499 415.67 276.251C414.073 278.002 411.845 279.052 409.473 279.17Z" fill="#407BFF"/>
<path opacity="0.3" d="M465.093 453.91C465.006 454.938 464.616 455.917 463.971 456.724C463.326 457.531 462.455 458.129 461.469 458.444C460.482 458.758 459.425 458.774 458.429 458.49C457.434 458.206 456.545 457.635 455.875 456.848C455.205 456.062 454.785 455.095 454.666 454.07C454.548 453.045 454.737 452.009 455.21 451.091C455.682 450.173 456.417 449.415 457.322 448.914C458.227 448.412 459.261 448.188 460.293 448.271C461.679 448.387 462.962 449.046 463.862 450.103C464.762 451.16 465.204 452.529 465.093 453.91Z" fill="#407BFF"/>
<path opacity="0.7" d="M370.195 596.695H369.316C367.913 596.599 366.543 596.228 365.285 595.601C364.027 594.975 362.907 594.106 361.988 593.046C361.084 591.989 360.4 590.764 359.975 589.442C359.551 588.12 359.394 586.727 359.515 585.344C359.685 583.3 360.45 581.349 361.715 579.73C362.98 578.11 364.691 576.893 366.639 576.227C368.587 575.56 370.688 575.473 372.685 575.976C374.682 576.479 376.488 577.55 377.884 579.058C379.28 580.567 380.205 582.448 380.546 584.471C380.887 586.495 380.629 588.573 379.804 590.453C378.979 592.333 377.623 593.933 375.9 595.058C374.177 596.182 372.163 596.783 370.103 596.787L370.195 596.695ZM370.195 576.913C368.112 576.923 366.094 577.641 364.475 578.947C362.856 580.254 361.732 582.071 361.29 584.099C360.847 586.128 361.112 588.245 362.04 590.104C362.969 591.962 364.505 593.449 366.396 594.32C368.288 595.191 370.421 595.394 372.443 594.895C374.465 594.396 376.257 593.225 377.521 591.575C378.786 589.925 379.448 587.895 379.398 585.82C379.348 583.745 378.59 581.749 377.248 580.161C376.466 579.238 375.508 578.479 374.43 577.928C373.351 577.376 372.173 577.044 370.965 576.949L370.195 576.913Z" fill="white"/>
<path opacity="0.7" d="M483.504 383.138H482.863C480.828 382.971 478.943 382.006 477.621 380.457C476.299 378.907 475.648 376.898 475.81 374.871C475.978 372.841 476.948 370.96 478.508 369.642C480.068 368.325 482.089 367.678 484.127 367.845C486.162 368.012 488.047 368.977 489.369 370.526C490.691 372.076 491.342 374.085 491.18 376.112C491.006 378.142 490.039 380.023 488.487 381.35C487.092 382.516 485.326 383.15 483.504 383.138ZM477.184 374.944C477.093 376.185 477.372 377.425 477.986 378.509C478.6 379.592 479.522 380.471 480.635 381.034C481.749 381.598 483.005 381.821 484.245 381.676C485.486 381.53 486.656 381.023 487.608 380.218C488.243 379.682 488.767 379.026 489.148 378.287C489.528 377.549 489.759 376.744 489.828 375.917C489.896 375.089 489.799 374.257 489.544 373.467C489.289 372.677 488.88 371.945 488.341 371.312C487.781 370.698 487.104 370.2 486.349 369.849C485.594 369.498 484.776 369.301 483.944 369.268C483.115 369.198 482.28 369.292 481.487 369.544C480.695 369.797 479.96 370.202 479.325 370.738C478.69 371.274 478.168 371.929 477.788 372.667C477.408 373.404 477.177 374.209 477.11 375.035L477.184 374.944Z" fill="white"/>
<path opacity="0.7" d="M365.139 221.336H364.864C363.918 221.243 363.045 220.788 362.43 220.066C361.814 219.344 361.505 218.412 361.566 217.467C361.613 216.758 361.866 216.077 362.296 215.509C362.726 214.94 363.313 214.51 363.985 214.269C364.658 214.029 365.386 213.99 366.08 214.156C366.774 214.323 367.405 214.688 367.894 215.207C368.383 215.725 368.709 216.375 368.832 217.075C368.955 217.776 368.87 218.498 368.587 219.151C368.304 219.804 367.835 220.36 367.239 220.752C366.643 221.143 365.944 221.353 365.23 221.354L365.139 221.336ZM362.922 217.577C362.887 218.012 362.983 218.447 363.196 218.828C363.41 219.208 363.731 219.518 364.121 219.716C364.511 219.915 364.951 219.995 365.386 219.945C365.82 219.895 366.231 219.718 366.565 219.436C366.899 219.154 367.142 218.78 367.262 218.361C367.383 217.942 367.377 217.496 367.244 217.081C367.111 216.665 366.857 216.298 366.515 216.026C366.173 215.754 365.758 215.589 365.322 215.551C365.03 215.524 364.736 215.555 364.456 215.642C364.177 215.73 363.917 215.872 363.694 216.061C363.47 216.25 363.287 216.481 363.154 216.741C363.022 217.002 362.943 217.286 362.922 217.577Z" fill="white"/>
<path opacity="0.7" d="M446.15 315.852H445.38C444.174 315.757 442.999 315.426 441.922 314.877C440.845 314.328 439.888 313.571 439.107 312.652C438.325 311.732 437.733 310.667 437.367 309.519C437.001 308.37 436.866 307.161 436.971 305.96C437.128 304.198 437.795 302.519 438.892 301.128C439.988 299.737 441.467 298.693 443.149 298.124C444.83 297.555 446.641 297.485 448.362 297.922C450.082 298.36 451.638 299.286 452.84 300.589C454.042 301.891 454.837 303.513 455.13 305.258C455.423 307.003 455.201 308.795 454.49 310.416C453.779 312.037 452.611 313.417 451.127 314.389C449.643 315.36 447.907 315.881 446.131 315.888L446.15 315.852ZM446.15 298.879C444.306 298.871 442.52 299.518 441.112 300.704C439.53 302.038 438.542 303.94 438.364 305.997C438.26 307.273 438.474 308.554 438.986 309.729C439.499 310.903 440.293 311.933 441.3 312.728C442.307 313.524 443.495 314.06 444.759 314.29C446.023 314.519 447.325 314.435 448.549 314.044C449.772 313.653 450.88 312.968 451.775 312.05C452.67 311.131 453.324 310.007 453.679 308.776C454.034 307.546 454.08 306.248 453.811 304.996C453.543 303.744 452.969 302.577 452.14 301.599C451.477 300.816 450.665 300.172 449.749 299.705C448.834 299.238 447.835 298.958 446.809 298.879H446.15Z" fill="white"/>
<path opacity="0.3" d="M521.298 395.639L533.133 252.325C533.208 251.409 533.101 250.488 532.819 249.613C532.536 248.739 532.084 247.928 531.486 247.228C530.889 246.528 530.159 245.952 529.338 245.534C528.518 245.115 527.622 244.861 526.703 244.788C525.784 244.71 524.86 244.814 523.982 245.093C523.104 245.373 522.291 245.822 521.588 246.416C520.885 247.009 520.306 247.735 519.886 248.552C519.465 249.368 519.21 250.26 519.137 251.175L507.302 394.489C506.917 399.253 505.351 403.848 502.745 407.861C500.14 411.874 496.575 415.181 492.371 417.484L485.171 421.481L491.638 426.572C495.407 429.53 498.383 433.371 500.301 437.753C502.219 442.134 503.019 446.92 502.63 451.684L486.82 643.305C485.867 654.802 478.613 660.405 468.408 664.876C467.761 665.165 467.228 665.66 466.893 666.283C466.559 666.906 466.441 667.622 466.558 668.319C466.675 669.015 467.021 669.654 467.542 670.134C468.062 670.614 468.728 670.909 469.434 670.972C477.125 671.597 484.751 669.156 490.635 664.184C496.52 659.212 500.182 652.115 500.817 644.455L516.627 452.833C517.019 448.069 516.22 443.282 514.302 438.9C512.384 434.518 509.406 430.678 505.635 427.722L499.168 422.612L506.367 418.634C510.568 416.326 514.13 413.019 516.736 409.007C519.341 404.994 520.908 400.402 521.298 395.639Z" fill="white"/>
<path opacity="0.3" d="M711.46 618.358C709.482 609.415 684.786 614.708 679.675 615.529C669.744 617.324 660.021 620.119 650.656 623.869C640.342 627.902 628.361 633.833 617.68 627.702C611.506 624.161 632.941 617.172 634.883 616.46C643.992 613.272 652.787 609.252 661.153 604.452C664.543 602.444 671.101 597.644 668.28 592.772C665.935 588.739 657.526 589.122 652.415 589.742C636.927 591.632 621.734 595.426 607.183 601.039C593.031 606.639 579.175 612.956 565.669 619.964C560.437 622.904 554.746 624.946 548.833 626.004C542.385 626.917 534.489 625.548 531.942 621.989C529.396 618.431 532.675 614.27 533.426 610.693C534.489 606.416 534.043 601.906 532.162 597.918C530.915 595.246 528.824 593.053 526.208 591.677C519.228 588.027 508.676 589.377 501.659 592.261C497.113 594.179 492.958 596.913 489.403 600.327C482.242 606.966 477.219 615.572 474.967 625.055C474.4 628.026 473.251 630.855 471.585 633.382C469.919 635.909 467.768 638.084 465.258 639.783C455.438 646.371 437.448 645.988 423.69 642.685C399.672 637.009 381.352 623.741 376.937 608.758C374.793 601.623 373.749 594.159 364.113 591.367C357.884 589.542 344.84 590.819 347.625 598.666C348.636 600.817 349.956 602.809 351.545 604.579C354.092 607.919 356.803 614.215 349.237 616.241C346.787 616.759 344.27 616.882 341.781 616.606C317.452 614.982 295.065 606.897 280.555 595.509C275.824 591.807 271.813 587.273 268.721 582.132C266.999 579.304 266.376 576.256 264.489 573.464C262.686 570.776 260.141 568.666 257.161 567.387C247.818 563.39 225.87 565.47 224.331 574.23C223.507 578.975 226.475 584.121 227.995 588.629C228.268 589.198 228.333 589.843 228.179 590.454C227.739 591.604 225.998 591.932 224.515 592.024C204.894 593.319 185.859 585.727 169.39 577.807C151.949 569.412 132.75 558.481 108.512 558.353C103.501 558.125 98.4846 558.698 93.6548 560.05C92.432 560.375 91.2944 560.961 90.3205 561.766C89.7283 562.38 89.3348 563.157 89.1911 563.996C89.0474 564.836 89.16 565.699 89.5144 566.474C90.3011 568.081 91.4711 569.472 92.922 570.525C100.25 576.475 110.509 578.884 119.871 581.95C147.646 590.918 174.502 602.498 200.076 616.533C202.659 617.975 207.239 621.314 203.611 623.833C199.984 626.351 192.619 624.727 188.278 624.015C180.4 622.738 172.834 620.694 165.158 618.778C155.008 616.223 143.174 613.905 132.182 616.022C126.374 617.135 121.19 619.508 118.46 622.719C117.519 623.659 116.9 624.87 116.689 626.181C116.479 627.491 116.688 628.834 117.288 630.019C121.061 636.717 138.264 639.6 147.662 642.794C159.695 646.885 171.461 651.719 182.891 657.266C192.656 662.084 201.724 667.358 211.617 672.085C246.957 688.966 296.311 691.137 340.443 692.78C388.35 694.605 436.477 693.054 484.255 690.407C519.063 688.473 553.23 684.659 587.342 680.169C597.143 678.892 606.89 677.322 616.654 675.99C626.566 674.858 636.369 672.923 645.966 670.205C649.414 669.329 652.632 667.723 655.401 665.497C658.021 663.069 658.845 659.894 654.155 658.981C644.336 657.029 634.223 659.255 624.623 660.989C613.851 662.96 603.177 665.229 592.6 667.796C587.778 669.077 582.884 670.071 577.944 670.771C572.978 671.465 567.922 671.143 563.086 669.822C561.511 669.329 559.789 668.453 559.697 667.066C559.606 665.679 560.925 664.803 562.28 664.274C582.048 656.463 603.042 651.499 624.184 646.937C638.528 643.834 653.129 641.936 667.584 639.509C680.756 637.301 694.642 636.79 706.056 628.468C708.327 627.007 710.093 624.886 711.112 622.391C711.607 621.106 711.728 619.708 711.46 618.358Z" fill="#407BFF"/>
<path opacity="0.3" d="M144.566 544.465C139.198 529.263 120.072 502.345 116.042 518.24C113.88 527.164 144.566 544.465 144.566 544.465Z" fill="#407BFF"/>
<path opacity="0.3" d="M624.88 574.393C635.102 565.105 647.853 559.576 649.502 567.751C651.041 575.488 624.88 574.393 624.88 574.393Z" fill="#407BFF"/>
<path opacity="0.3" d="M205.48 500.519C198.482 496.869 193.022 491.012 197.126 488.566C201.23 486.121 205.48 500.519 205.48 500.519Z" fill="#407BFF"/>
</g>
<defs>
<clipPath id="clip0_15438_855">
<rect width="1404" height="582" fill="white" transform="translate(18)"/>
</clipPath>
<clipPath id="clip1_15438_855">
<rect width="916" height="680" fill="white" transform="translate(-51 28)"/>
</clipPath>
</defs>
</svg>
