<svg width="1440" height="691" viewBox="0 0 1440 691" fill="none" xmlns="http://www.w3.org/2000/svg">
<path fill-rule="evenodd" clip-rule="evenodd" d="M0 403L50 409C100 415 200 427 300 469C400 511 500 583 600 619C700 655 800 655 900 661C1000 667 1100 679 1150 685L1200 691H1150C1100 691 1000 691 900 691C800 691 700 691 600 691C500 691 400 691 300 691C200 691 100 691 50 691H0V403Z" fill="#9EBBFF"/>
<path opacity="0.8" fill-rule="evenodd" clip-rule="evenodd" d="M1440 259H1400C1360 259 1280 259 1200 281C1120 302 1040 345 960 345C880 345 800 302 720 338C640 374 560 489 480 547C400 605 320 605 240 590C160 576 80 547 40 533L0 518V691H40C80 691 160 691 240 691C320 691 400 691 480 691C560 691 640 691 720 691C800 691 880 691 960 691C1040 691 1120 691 1200 691C1280 691 1360 691 1400 691H1440V259Z" fill="#ECF2FF"/>
<path d="M1358.95 15.1488C1358.73 17.9081 1357.69 20.5381 1355.96 22.7062C1354.24 24.8743 1351.92 26.4833 1349.28 27.3297C1346.64 28.1761 1343.82 28.2219 1341.15 27.4614C1338.49 26.7008 1336.12 25.1681 1334.32 23.0568C1332.53 20.9456 1331.41 18.3507 1331.09 15.6002C1330.78 12.8498 1331.28 10.0673 1332.55 7.60446C1333.81 5.14163 1335.78 3.10908 1338.2 1.76381C1340.62 0.418552 1343.38 -0.179051 1346.14 0.046575C1349.84 0.352964 1353.27 2.11548 1355.67 4.94706C1358.07 7.77864 1359.25 11.4478 1358.95 15.1488Z" fill="#ECF2FF"/>
<path d="M619.954 34.1488C619.727 36.9081 618.686 39.5381 616.965 41.7062C615.243 43.8743 612.917 45.4833 610.281 46.3297C607.645 47.1761 604.817 47.2219 602.154 46.4614C599.492 45.7008 597.115 44.1681 595.324 42.0568C593.533 39.9456 592.408 37.3507 592.092 34.6002C591.775 31.8498 592.281 29.0673 593.546 26.6045C594.811 24.1416 596.778 22.1091 599.198 20.7638C601.618 19.4186 604.382 18.8209 607.141 19.0466C610.842 19.353 614.27 21.1155 616.672 23.9471C619.075 26.7786 620.255 30.4478 619.954 34.1488Z" fill="#ECF2FF"/>
<path d="M83.9703 128.739C83.8243 130.512 83.1556 132.203 82.0487 133.597C80.9418 134.991 79.4466 136.025 77.7519 136.569C76.0572 137.113 74.2393 137.143 72.5279 136.654C70.8165 136.165 69.2884 135.179 68.137 133.822C66.9856 132.465 66.2624 130.797 66.059 129.029C65.8556 127.261 66.1809 125.472 66.994 123.889C67.8071 122.305 69.0714 120.999 70.6271 120.134C72.1827 119.269 73.9599 118.885 75.7338 119.03C78.1129 119.227 80.3165 120.36 81.8608 122.18C83.4051 124.001 84.1638 126.359 83.9703 128.739Z" fill="#ECF2FF"/>
<path d="M120.954 334.149C120.727 336.908 119.686 339.538 117.965 341.706C116.243 343.874 113.917 345.483 111.281 346.33C108.645 347.176 105.817 347.222 103.154 346.461C100.492 345.701 98.1154 344.168 96.3242 342.057C94.5331 339.946 93.4082 337.351 93.0918 334.6C92.7753 331.85 93.2815 329.067 94.5463 326.604C95.8111 324.142 97.7778 322.109 100.198 320.764C102.618 319.419 105.382 318.821 108.141 319.047C111.842 319.353 115.27 321.115 117.672 323.947C120.075 326.779 121.255 330.448 120.954 334.149Z" fill="#C6D7FF"/>
<path d="M757.954 522.149C757.727 524.908 756.686 527.538 754.965 529.706C753.243 531.874 750.917 533.483 748.281 534.33C745.645 535.176 742.817 535.222 740.154 534.461C737.492 533.701 735.115 532.168 733.324 530.057C731.533 527.946 730.408 525.351 730.092 522.6C729.775 519.85 730.281 517.067 731.546 514.604C732.811 512.142 734.778 510.109 737.198 508.764C739.618 507.419 742.382 506.821 745.141 507.047C748.842 507.353 752.27 509.115 754.672 511.947C757.075 514.779 758.255 518.448 757.954 522.149Z" fill="#C6D7FF"/>
<path d="M1386.95 509.149C1386.73 511.908 1385.69 514.538 1383.96 516.706C1382.24 518.874 1379.92 520.483 1377.28 521.33C1374.64 522.176 1371.82 522.222 1369.15 521.461C1366.49 520.701 1364.12 519.168 1362.32 517.057C1360.53 514.946 1359.41 512.351 1359.09 509.6C1358.78 506.85 1359.28 504.067 1360.55 501.604C1361.81 499.142 1363.78 497.109 1366.2 495.764C1368.62 494.419 1371.38 493.821 1374.14 494.047C1377.84 494.353 1381.27 496.115 1383.67 498.947C1386.07 501.779 1387.25 505.448 1386.95 509.149Z" fill="#C6D7FF"/>
<path opacity="0.7" d="M732.199 120.836H730.624C728.112 120.663 725.658 119.994 723.406 118.868C721.153 117.741 719.146 116.18 717.5 114.273C715.881 112.373 714.656 110.171 713.896 107.793C713.135 105.416 712.855 102.911 713.071 100.425C713.376 96.7482 714.746 93.2401 717.012 90.3289C719.278 87.4176 722.342 85.2292 725.831 84.0306C729.32 82.832 733.082 82.6753 736.658 83.5794C740.234 84.4835 743.47 86.4093 745.97 89.1219C748.471 91.8345 750.127 95.2164 750.738 98.8548C751.349 102.493 750.887 106.231 749.409 109.611C747.931 112.992 745.502 115.869 742.416 117.891C739.331 119.913 735.724 120.994 732.035 121L732.199 120.836ZM732.199 85.2642C728.468 85.2827 724.854 86.5731 721.954 88.9223C719.055 91.2716 717.042 94.5393 716.25 98.1863C715.457 101.833 715.931 105.642 717.594 108.983C719.257 112.324 722.009 114.998 725.396 116.565C728.783 118.131 732.603 118.495 736.225 117.598C739.847 116.7 743.055 114.595 745.32 111.628C747.585 108.662 748.77 105.012 748.681 101.281C748.593 97.5499 747.234 93.9605 744.831 91.1053C743.431 89.4456 741.715 88.0805 739.783 87.0891C737.851 86.0977 735.742 85.4997 733.577 85.3298L732.199 85.2642Z" fill="#9EBBFF"/>
<path opacity="0.7" d="M228.157 166.87H226.914C224.93 166.734 222.993 166.206 221.215 165.317C219.436 164.427 217.852 163.194 216.553 161.689C215.275 160.189 214.307 158.451 213.707 156.574C213.107 154.697 212.885 152.72 213.056 150.756C213.297 147.854 214.378 145.084 216.167 142.786C217.956 140.488 220.375 138.76 223.13 137.814C225.884 136.867 228.854 136.744 231.677 137.457C234.501 138.171 237.055 139.692 239.029 141.833C241.003 143.975 242.311 146.645 242.793 149.517C243.275 152.389 242.911 155.34 241.744 158.009C240.577 160.678 238.659 162.949 236.223 164.545C233.788 166.142 230.94 166.995 228.028 167L228.157 166.87ZM228.157 138.788C225.211 138.802 222.358 139.821 220.069 141.676C217.78 143.53 216.191 146.11 215.566 148.989C214.94 151.868 215.314 154.875 216.627 157.513C217.94 160.15 220.112 162.262 222.786 163.498C225.46 164.735 228.476 165.023 231.336 164.314C234.195 163.606 236.728 161.943 238.516 159.601C240.304 157.259 241.24 154.378 241.17 151.432C241.099 148.487 240.027 145.653 238.13 143.399C237.024 142.089 235.67 141.011 234.145 140.228C232.62 139.446 230.954 138.973 229.245 138.839L228.157 138.788Z" fill="#9EBBFF"/>
<path opacity="0.7" d="M37.1992 581.836H35.6243C33.1117 581.663 30.6582 580.994 28.4055 579.868C26.1528 578.741 24.1457 577.18 22.5 575.273C20.8811 573.373 19.6559 571.171 18.8955 568.793C18.1351 566.416 17.8547 563.911 18.0706 561.425C18.3764 557.748 19.7459 554.24 22.0118 551.329C24.2777 548.418 27.3421 546.229 30.8308 545.031C34.3195 543.832 38.0817 543.675 41.658 544.579C45.2344 545.483 48.4702 547.409 50.9705 550.122C53.4707 552.835 55.1273 556.216 55.7379 559.855C56.3485 563.493 55.8868 567.231 54.4091 570.611C52.9314 573.992 50.5016 576.869 47.4164 578.891C44.3312 580.913 40.724 581.994 37.0352 582L37.1992 581.836ZM37.1992 546.264C33.4676 546.283 29.8538 547.573 26.9542 549.922C24.0546 552.272 22.0424 555.539 21.2497 559.186C20.4571 562.833 20.9312 566.642 22.594 569.983C24.2568 573.324 27.0089 575.998 30.396 577.565C33.7832 579.131 37.6031 579.495 41.2252 578.598C44.8474 577.7 48.0555 575.595 50.32 572.628C52.5845 569.662 53.7702 566.012 53.6814 562.281C53.5925 558.55 52.2345 554.961 49.8313 552.105C48.431 550.446 46.7151 549.081 44.7833 548.089C42.8514 547.098 40.742 546.5 38.5773 546.33L37.1992 546.264Z" fill="#C6D7FF"/>
<path opacity="0.7" d="M688.262 352.784H686.19C682.884 352.557 679.655 351.677 676.691 350.195C673.727 348.712 671.086 346.657 668.921 344.148C666.791 341.649 665.179 338.751 664.178 335.623C663.178 332.495 662.809 329.199 663.093 325.927C663.495 321.09 665.297 316.474 668.279 312.643C671.26 308.813 675.292 305.933 679.883 304.356C684.473 302.779 689.423 302.573 694.129 303.762C698.835 304.952 703.092 307.486 706.382 311.055C709.672 314.624 711.852 319.074 712.655 323.862C713.459 328.649 712.851 333.567 710.907 338.015C708.962 342.463 705.765 346.248 701.706 348.909C697.646 351.57 692.9 352.992 688.046 353L688.262 352.784ZM688.262 305.979C683.352 306.004 678.597 307.701 674.782 310.793C670.967 313.884 668.319 318.183 667.276 322.982C666.233 327.781 666.857 332.792 669.045 337.188C671.233 341.584 674.854 345.103 679.311 347.164C683.767 349.225 688.793 349.704 693.56 348.523C698.326 347.343 702.547 344.572 705.526 340.669C708.506 336.766 710.066 331.963 709.949 327.054C709.832 322.145 708.045 317.422 704.883 313.665C703.041 311.481 700.783 309.685 698.241 308.38C695.699 307.076 692.924 306.289 690.075 306.065L688.262 305.979Z" fill="#C6D7FF"/>
<path opacity="0.7" d="M1400.23 348.81H1398.41C1395.5 348.61 1392.66 347.836 1390.05 346.531C1387.44 345.227 1385.12 343.419 1383.21 341.211C1381.34 339.011 1379.92 336.461 1379.04 333.708C1378.16 330.956 1377.83 328.055 1378.08 325.176C1378.44 320.919 1380.02 316.857 1382.65 313.486C1385.27 310.115 1388.82 307.581 1392.86 306.193C1396.9 304.806 1401.25 304.624 1405.39 305.671C1409.53 306.718 1413.28 308.948 1416.18 312.089C1419.07 315.229 1420.99 319.145 1421.7 323.358C1422.4 327.571 1421.87 331.899 1420.16 335.813C1418.45 339.727 1415.63 343.058 1412.06 345.4C1408.49 347.742 1404.31 348.993 1400.04 349L1400.23 348.81ZM1400.23 307.622C1395.91 307.643 1391.73 309.137 1388.37 311.857C1385.01 314.578 1382.68 318.361 1381.76 322.584C1380.85 326.807 1381.39 331.217 1383.32 335.085C1385.24 338.954 1388.43 342.051 1392.35 343.864C1396.28 345.678 1400.7 346.1 1404.89 345.061C1409.09 344.022 1412.8 341.583 1415.42 338.149C1418.05 334.714 1419.42 330.488 1419.32 326.168C1419.21 321.847 1417.64 317.691 1414.86 314.385C1413.24 312.463 1411.25 310.883 1409.01 309.735C1406.78 308.587 1404.33 307.894 1401.83 307.698L1400.23 307.622Z" fill="#9EBBFF"/>
</svg>
